<svg width="85" height="25" viewBox="0 0 85 25" fill="none" xmlns="http://www.w3.org/2000/svg">
<path d="M5.97905 18V3.432H0.387049V0.719999H14.463V3.432H8.87105V18H5.97905ZM18.4046 18.36C17.4686 18.36 16.6766 18.184 16.0286 17.832C15.3806 17.472 14.8886 16.996 14.5526 16.404C14.2246 15.812 14.0606 15.16 14.0606 14.448C14.0606 13.824 14.1646 13.264 14.3726 12.768C14.5806 12.264 14.9006 11.832 15.3326 11.472C15.7646 11.104 16.3246 10.804 17.0126 10.572C17.5326 10.404 18.1406 10.252 18.8366 10.116C19.5406 9.98 20.3006 9.856 21.1166 9.744C21.9406 9.624 22.8006 9.496 23.6966 9.36L22.6646 9.948C22.6726 9.052 22.4726 8.392 22.0646 7.968C21.6566 7.544 20.9686 7.332 20.0006 7.332C19.4166 7.332 18.8526 7.468 18.3086 7.74C17.7646 8.012 17.3846 8.48 17.1686 9.144L14.5286 8.316C14.8486 7.22 15.4566 6.34 16.3526 5.676C17.2566 5.012 18.4726 4.68 20.0006 4.68C21.1526 4.68 22.1646 4.868 23.0366 5.244C23.9166 5.62 24.5686 6.236 24.9926 7.092C25.2246 7.548 25.3646 8.016 25.4126 8.496C25.4606 8.968 25.4846 9.484 25.4846 10.044V18H22.9526V15.192L23.3726 15.648C22.7886 16.584 22.1046 17.272 21.3206 17.712C20.5446 18.144 19.5726 18.36 18.4046 18.36ZM18.9806 16.056C19.6366 16.056 20.1966 15.94 20.6606 15.708C21.1246 15.476 21.4926 15.192 21.7646 14.856C22.0446 14.52 22.2326 14.204 22.3286 13.908C22.4806 13.54 22.5646 13.12 22.5806 12.648C22.6046 12.168 22.6166 11.78 22.6166 11.484L23.5046 11.748C22.6326 11.884 21.8846 12.004 21.2606 12.108C20.6366 12.212 20.1006 12.312 19.6526 12.408C19.2046 12.496 18.8086 12.596 18.4646 12.708C18.1286 12.828 17.8446 12.968 17.6126 13.128C17.3806 13.288 17.2006 13.472 17.0726 13.68C16.9526 13.888 16.8926 14.132 16.8926 14.412C16.8926 14.732 16.9726 15.016 17.1326 15.264C17.2926 15.504 17.5246 15.696 17.8286 15.84C18.1406 15.984 18.5246 16.056 18.9806 16.056ZM34.1432 24.12C33.4232 24.12 32.7312 24.008 32.0672 23.784C31.4112 23.56 30.8192 23.236 30.2912 22.812C29.7632 22.396 29.3312 21.892 28.9952 21.3L31.6592 19.98C31.9072 20.452 32.2552 20.8 32.7032 21.024C33.1592 21.256 33.6432 21.372 34.1552 21.372C34.7552 21.372 35.2912 21.264 35.7632 21.048C36.2352 20.84 36.5992 20.528 36.8552 20.112C37.1192 19.704 37.2432 19.192 37.2272 18.576V14.892H37.5872V5.04H40.1192V18.624C40.1192 18.952 40.1032 19.264 40.0712 19.56C40.0472 19.864 40.0032 20.16 39.9392 20.448C39.7472 21.288 39.3792 21.976 38.8352 22.512C38.2912 23.056 37.6152 23.46 36.8072 23.724C36.0072 23.988 35.1192 24.12 34.1432 24.12ZM33.8912 18.36C32.6992 18.36 31.6592 18.06 30.7712 17.46C29.8832 16.86 29.1952 16.044 28.7072 15.012C28.2192 13.98 27.9752 12.816 27.9752 11.52C27.9752 10.208 28.2192 9.04 28.7072 8.016C29.2032 6.984 29.9032 6.172 30.8072 5.58C31.7112 4.98 32.7752 4.68 33.9992 4.68C35.2312 4.68 36.2632 4.98 37.0952 5.58C37.9352 6.172 38.5712 6.984 39.0032 8.016C39.4352 9.048 39.6512 10.216 39.6512 11.52C39.6512 12.808 39.4352 13.972 39.0032 15.012C38.5712 16.044 37.9272 16.86 37.0712 17.46C36.2152 18.06 35.1552 18.36 33.8912 18.36ZM34.3352 15.768C35.1112 15.768 35.7352 15.592 36.2072 15.24C36.6872 14.88 37.0352 14.38 37.2512 13.74C37.4752 13.1 37.5872 12.36 37.5872 11.52C37.5872 10.672 37.4752 9.932 37.2512 9.3C37.0352 8.66 36.6952 8.164 36.2312 7.812C35.7672 7.452 35.1672 7.272 34.4312 7.272C33.6552 7.272 33.0152 7.464 32.5112 7.848C32.0072 8.224 31.6352 8.736 31.3952 9.384C31.1552 10.024 31.0352 10.736 31.0352 11.52C31.0352 12.312 31.1512 13.032 31.3832 13.68C31.6232 14.32 31.9872 14.828 32.4752 15.204C32.9632 15.58 33.5832 15.768 34.3352 15.768ZM43.8106 18V0.36H46.7026V18H43.8106ZM50.6236 3.072V0.42H53.5156V3.072H50.6236ZM50.6236 18V5.04H53.5156V18H50.6236ZM66.1605 18V11.76C66.1605 11.352 66.1325 10.9 66.0765 10.404C66.0205 9.908 65.8885 9.432 65.6805 8.976C65.4805 8.512 65.1765 8.132 64.7685 7.836C64.3685 7.54 63.8245 7.392 63.1365 7.392C62.7685 7.392 62.4045 7.452 62.0445 7.572C61.6845 7.692 61.3565 7.9 61.0605 8.196C60.7725 8.484 60.5405 8.884 60.3645 9.396C60.1885 9.9 60.1005 10.548 60.1005 11.34L58.3845 10.608C58.3845 9.504 58.5965 8.504 59.0205 7.608C59.4525 6.712 60.0845 6 60.9165 5.472C61.7485 4.936 62.7725 4.668 63.9885 4.668C64.9485 4.668 65.7405 4.828 66.3645 5.148C66.9885 5.468 67.4845 5.876 67.8525 6.372C68.2205 6.868 68.4925 7.396 68.6685 7.956C68.8445 8.516 68.9565 9.048 69.0045 9.552C69.0605 10.048 69.0885 10.452 69.0885 10.764V18H66.1605ZM57.1725 18V5.04H59.7525V9.06H60.1005V18H57.1725ZM77.9875 18.36C76.6755 18.36 75.5235 18.076 74.5315 17.508C73.5395 16.94 72.7635 16.152 72.2035 15.144C71.6515 14.136 71.3755 12.976 71.3755 11.664C71.3755 10.248 71.6475 9.02 72.1915 7.98C72.7355 6.932 73.4915 6.12 74.4595 5.544C75.4275 4.968 76.5475 4.68 77.8195 4.68C79.1635 4.68 80.3035 4.996 81.2395 5.628C82.1835 6.252 82.8835 7.136 83.3395 8.28C83.7955 9.424 83.9675 10.772 83.8555 12.324H80.9875V11.268C80.9795 9.86 80.7315 8.832 80.2435 8.184C79.7555 7.536 78.9875 7.212 77.9395 7.212C76.7555 7.212 75.8755 7.58 75.2995 8.316C74.7235 9.044 74.4355 10.112 74.4355 11.52C74.4355 12.832 74.7235 13.848 75.2995 14.568C75.8755 15.288 76.7155 15.648 77.8195 15.648C78.5315 15.648 79.1435 15.492 79.6555 15.18C80.1755 14.86 80.5755 14.4 80.8555 13.8L83.7115 14.664C83.2155 15.832 82.4475 16.74 81.4075 17.388C80.3755 18.036 79.2355 18.36 77.9875 18.36ZM73.5235 12.324V10.14H82.4395V12.324H73.5235Z" fill="#F4B733"/>
</svg>
