<svg width="30" height="30" viewBox="0 0 30 30" fill="none" xmlns="http://www.w3.org/2000/svg">
<path d="M21.25 26.5625H8.75C4.1875 26.5625 1.5625 23.9375 1.5625 19.375V10.625C1.5625 6.0625 4.1875 3.4375 8.75 3.4375H21.25C25.8125 3.4375 28.4375 6.0625 28.4375 10.625V19.375C28.4375 23.9375 25.8125 26.5625 21.25 26.5625ZM8.75 5.3125C5.175 5.3125 3.4375 7.05 3.4375 10.625V19.375C3.4375 22.95 5.175 24.6875 8.75 24.6875H21.25C24.825 24.6875 26.5625 22.95 26.5625 19.375V10.625C26.5625 7.05 24.825 5.3125 21.25 5.3125H8.75Z" fill="#F4B733"/>
<path d="M8.23153 19.5H6.54403L9.61648 10.7727H11.5682L14.6449 19.5H12.9574L10.6264 12.5625H10.5582L8.23153 19.5ZM8.28693 16.0781H12.8892V17.348H8.28693V16.0781ZM18.7518 19.5H15.7944V10.7727H18.8114C19.6779 10.7727 20.4222 10.9474 21.0444 11.2969C21.6694 11.6435 22.1495 12.142 22.4847 12.7926C22.82 13.4432 22.9876 14.2216 22.9876 15.1278C22.9876 16.0369 22.8185 16.8182 22.4805 17.4716C22.1452 18.125 21.6609 18.6264 21.0273 18.9759C20.3967 19.3253 19.6381 19.5 18.7518 19.5ZM17.3754 18.1321H18.6751C19.283 18.1321 19.7901 18.0213 20.1964 17.7997C20.6026 17.5753 20.908 17.2415 21.1126 16.7983C21.3171 16.3523 21.4194 15.7955 21.4194 15.1278C21.4194 14.4602 21.3171 13.9062 21.1126 13.4659C20.908 13.0227 20.6055 12.6918 20.2049 12.473C19.8072 12.2514 19.3129 12.1406 18.7219 12.1406H17.3754V18.1321Z" fill="#F4B733"/>
</svg>
