<svg width="123" height="24" viewBox="0 0 123 24" fill="none" xmlns="http://www.w3.org/2000/svg">
<path d="M12 8.32739V15.6537" stroke="#605E5E" stroke-width="1.5" stroke-linecap="round" stroke-linejoin="round"/>
<path d="M15.6667 11.9904H8.33333" stroke="#605E5E" stroke-width="1.5" stroke-linecap="round" stroke-linejoin="round"/>
<path fill-rule="evenodd" clip-rule="evenodd" d="M16.6857 2H7.31429C4.04762 2 2 4.31208 2 7.58516V16.4148C2 19.6879 4.0381 22 7.31429 22H16.6857C19.9619 22 22 19.6879 22 16.4148V7.58516C22 4.31208 19.9619 2 16.6857 2Z" stroke="#605E5E" stroke-width="1.5" stroke-linecap="round" stroke-linejoin="round"/>
<path d="M42.4746 17H44.1357L39.46 4.31738H37.8955L33.2197 17H34.8809L36.1553 13.3701H41.2002L42.4746 17ZM38.6514 6.24219H38.7041L40.7344 12.0254H36.6211L38.6514 6.24219ZM48.6357 17.1582C49.9541 17.1582 51 16.5078 51.5889 15.4531H51.6152V17H53.0742V4.31738H51.5449V9.34473H51.5098C50.9648 8.34277 49.9102 7.70117 48.6006 7.70117C46.2979 7.70117 44.7246 9.56445 44.7246 12.4297C44.7246 15.2949 46.3066 17.1582 48.6357 17.1582ZM48.9258 9.0459C50.499 9.0459 51.5537 10.3906 51.5537 12.4297C51.5537 14.4775 50.499 15.8135 48.9258 15.8135C47.3086 15.8135 46.2891 14.5039 46.2891 12.4297C46.2891 10.3643 47.3086 9.0459 48.9258 9.0459ZM58.6025 17.1582C59.9209 17.1582 60.9668 16.5078 61.5557 15.4531H61.582V17H63.041V4.31738H61.5117V9.34473H61.4766C60.9316 8.34277 59.877 7.70117 58.5674 7.70117C56.2646 7.70117 54.6914 9.56445 54.6914 12.4297C54.6914 15.2949 56.2734 17.1582 58.6025 17.1582ZM58.8926 9.0459C60.4658 9.0459 61.5205 10.3906 61.5205 12.4297C61.5205 14.4775 60.4658 15.8135 58.8926 15.8135C57.2754 15.8135 56.2559 14.5039 56.2559 12.4297C56.2559 10.3643 57.2754 9.0459 58.8926 9.0459ZM74.2646 17L78.9404 4.31738H77.2793L73.5088 15.0752H73.4561L69.6855 4.31738H68.0244L72.7002 17H74.2646ZM82.5879 9.02832C84.0293 9.02832 84.9873 10.1182 85.0225 11.6475H80.0566C80.1533 10.127 81.1553 9.02832 82.5879 9.02832ZM84.9873 14.3809C84.7324 15.2422 83.8799 15.8311 82.7197 15.8311C81.0762 15.8311 80.0479 14.6797 80.0479 12.9307V12.8428H86.6045V12.2627C86.6045 9.49414 85.084 7.70117 82.6143 7.70117C80.0918 7.70117 78.4746 9.62598 78.4746 12.4648C78.4746 15.3389 80.0654 17.1582 82.6846 17.1582C84.6797 17.1582 86.2266 15.9805 86.4902 14.3809H84.9873ZM88.2305 17H89.7598V11.6738C89.7598 10.0918 90.7002 9.05469 92.2207 9.05469C93.6533 9.05469 94.3828 9.9248 94.3828 11.375V17H95.9121V11.0938C95.9121 9.05469 94.6992 7.70117 92.6953 7.70117C91.3066 7.70117 90.3047 8.29883 89.7949 9.31836H89.7598V4.31738H88.2305V17ZM97.9336 17H99.4629V7.85938H97.9336V17ZM98.6982 6.32129C99.2256 6.32129 99.6562 5.89062 99.6562 5.37207C99.6562 4.84473 99.2256 4.42285 98.6982 4.42285C98.1797 4.42285 97.749 4.84473 97.749 5.37207C97.749 5.89062 98.1797 6.32129 98.6982 6.32129ZM109.122 10.8564C108.929 9.21289 107.566 7.70117 105.281 7.70117C102.759 7.70117 101.08 9.54688 101.08 12.4297C101.08 15.374 102.768 17.1582 105.299 17.1582C107.373 17.1582 108.902 15.875 109.14 14.0557H107.637C107.373 15.1543 106.556 15.8135 105.308 15.8135C103.726 15.8135 102.636 14.5566 102.636 12.4297C102.636 10.3555 103.708 9.0459 105.29 9.0459C106.635 9.0459 107.408 9.86328 107.628 10.8564H109.122ZM110.625 17H112.154V4.31738H110.625V17ZM117.885 9.02832C119.326 9.02832 120.284 10.1182 120.319 11.6475H115.354C115.45 10.127 116.452 9.02832 117.885 9.02832ZM120.284 14.3809C120.029 15.2422 119.177 15.8311 118.017 15.8311C116.373 15.8311 115.345 14.6797 115.345 12.9307V12.8428H121.901V12.2627C121.901 9.49414 120.381 7.70117 117.911 7.70117C115.389 7.70117 113.771 9.62598 113.771 12.4648C113.771 15.3389 115.362 17.1582 117.981 17.1582C119.977 17.1582 121.523 15.9805 121.787 14.3809H120.284Z" fill="#605E5E"/>
</svg>
