<svg width="37" height="25" viewBox="0 0 37 25" fill="none" xmlns="http://www.w3.org/2000/svg">
<path d="M24.3754 23.7737C24.311 23.5964 24.169 23.4068 24.1946 23.2427C24.3119 22.4887 24.035 22.2596 23.2838 22.3825C22.6473 22.4861 22.2655 22.0208 21.9278 21.5574C21.7974 20.4883 22.2981 19.8739 23.2909 19.5122C23.6832 19.3692 24.3348 19.3929 24.3639 18.7942C24.4194 17.647 24.3798 16.4963 24.3798 15.2174C23.7626 15.5755 23.3279 15.9003 22.8404 16.0961C21.5963 16.5955 20.7808 17.2863 21.3609 18.7705C21.3953 18.8592 21.3786 18.9707 21.3724 19.0707C21.3257 19.8045 20.9536 20.2627 20.2104 20.3602C19.483 20.4558 18.9707 20.1477 18.7062 19.4613C18.6048 19.1971 18.6754 18.8627 18.3783 18.6635C18.0238 18.8671 17.6835 19.083 17.3247 19.263C16.4606 19.6966 15.5754 19.4719 15.1284 18.724C14.6664 17.949 14.8825 17.1151 15.728 16.5534C16.264 16.197 17.1095 16.0346 16.0921 15.192C15.6204 14.8014 15.7632 14.1194 16.1741 13.6384C16.6026 13.138 17.1527 12.9019 17.7884 13.2539C18.2266 13.4962 18.6287 13.8043 19.051 14.0755C19.2705 14.2168 19.4689 14.4117 19.7775 14.2282C20.7402 13.6559 21.7136 13.0994 22.7813 12.4797C22.1871 12.1365 21.6977 11.911 21.2737 11.5985C20.1971 10.8059 19.2211 10.3767 18.1041 11.6336C17.59 12.212 16.7675 12.0874 16.2235 11.4659C15.676 10.841 15.705 10.0905 16.3328 9.59019C16.9958 9.06179 16.6149 8.92661 16.1741 8.66856C14.9089 7.92598 14.7405 7.53363 15.0799 6.23983C15.7888 5.41826 16.6017 5.23218 17.538 5.84923C17.9877 6.14503 18.3024 6.25475 18.3624 5.51218C18.4312 4.66515 19.1012 4.44659 19.7872 4.49399C20.5154 4.54402 21.0488 4.98728 21.1088 5.76233C21.1467 6.25651 21.0762 6.76472 21.0083 7.25977C20.9624 7.59595 21.0092 7.83645 21.3274 8.01288C22.3105 8.55796 23.2856 9.11708 24.3824 9.73853C24.3824 8.73965 24.296 7.87068 24.4044 7.02629C24.5358 6.00547 24.1567 5.49374 23.1825 5.27606C22.5336 5.13123 22.0072 4.80208 21.897 4.04897C21.7797 3.25286 22.2461 2.81574 22.8333 2.43831C23.3359 2.28733 23.7785 2.75781 24.2881 2.59016C23.9989 1.42626 24.7263 0.149141 25.7437 0.0148456C26.7999 -0.123838 27.4868 0.713533 27.634 2.34263C28.3869 2.14426 29.1346 2.06526 29.6689 2.78063C30.011 3.23881 30.0092 3.78126 29.772 4.27719C29.504 4.83543 28.9062 5.00923 28.3878 5.21989C27.7803 5.46653 27.507 5.79393 27.5582 6.49262C27.6331 7.52046 27.5776 8.55708 27.5776 9.72536C28.722 9.07232 29.7544 8.46931 30.8027 7.89526C31.1025 7.73112 31.1333 7.5231 31.0936 7.23168C31.0443 6.86566 31.0258 6.49613 30.9949 6.12836C30.905 5.04785 31.2277 4.53173 32.0467 4.44396C32.976 4.34477 33.5041 4.77048 33.6928 5.76936C33.7104 5.8624 33.7448 5.95281 33.7933 6.11958C34.1521 5.82817 34.5321 5.66491 34.9351 5.54114C35.7841 5.2787 36.4709 5.614 36.8024 6.31619C37.141 7.03419 37.0934 7.89263 36.277 8.34554C35.6413 8.6984 35.4861 8.96436 36.0504 9.50856C36.6958 10.1309 36.5785 11.0227 36.0909 11.4686C35.5954 11.9206 34.6459 11.9145 34.0252 11.4659C32.5396 10.3916 32.6895 10.3968 31.1201 11.3211C30.5144 11.6775 29.9157 12.0452 29.191 12.4815C30.227 13.1021 31.1756 13.7472 32.1957 14.2502C32.7115 14.5047 33.1603 14.0799 33.5817 13.7226C34.6397 12.8229 36.0433 13.1591 36.2964 14.3335C36.4753 15.1639 35.7436 15.4851 35.3539 15.9969C36.8421 17.0528 37.2724 17.8489 36.8183 18.7065C36.4286 19.4438 35.6448 19.6395 34.5216 19.2805C34.4334 19.0971 34.2465 19.1629 34.1037 19.1164C33.7572 18.7293 33.721 19.0269 33.6487 19.3095C33.4133 20.2259 32.8041 20.6252 31.8686 20.5541C30.9455 20.0872 30.6466 19.3139 30.9376 18.3738C31.2091 17.4952 30.9173 17.0326 30.1124 16.6657C29.2739 16.2839 28.4963 15.7695 27.574 15.2455C27.574 16.47 27.5837 17.5636 27.5679 18.6573C27.5635 18.9759 27.6939 19.1471 27.9752 19.2577C28.3481 19.4052 28.7228 19.5535 29.0817 19.7317C29.8276 20.1003 30.2508 20.6542 29.9201 21.5109C29.5966 22.3491 28.93 22.5299 28.1101 22.3342C27.9593 22.2982 27.8394 22.1297 27.6578 22.2306C27.3616 24.5584 27.2346 24.748 25.7966 24.9999C25.6732 24.9639 25.5497 24.9271 25.4263 24.8911C25.2923 24.8191 25.1583 24.7463 25.0234 24.6743L25.0198 24.6725C24.8356 24.497 24.6513 24.3223 24.467 24.1468C24.4362 24.0221 24.4053 23.8984 24.3754 23.7737Z" fill="#434343"/>
<path d="M1.93867 17.9288C2.21463 14.1905 1.90517 13.9131 2.41565 12.4806C2.82033 11.3457 3.37931 10.496 3.79105 9.9536C2.83003 9.9141 2.06034 9.74118 1.50842 9.66657C-0.138537 9.44538 -0.380995 8.91259 0.508606 7.48976C1.04201 7.129 1.6486 6.9833 2.27458 6.91483C3.76284 6.75333 4.44172 7.25803 4.63745 8.7107C5.13471 8.31309 5.48032 7.84876 5.76686 7.32474C6.39196 6.18279 7.08848 5.07508 7.65186 3.90328C8.14912 2.87017 8.81919 2.16095 10.0059 2.04421C11.0278 1.94678 12.4737 1.83004 14.2432 1.75368C14.5015 1.74227 14.6876 1.73612 14.8489 1.72998C18.9645 1.57901 21.2489 1.6975 21.964 1.74402C22.1623 1.75719 22.3598 1.77036 22.5582 1.78265C22.5608 1.85023 22.5538 1.91606 22.537 1.98189L22.5564 2.00208C21.6889 2.24785 21.2507 2.88334 21.1555 3.71457C21.092 4.27018 20.9562 4.20962 20.4819 4.10078C19.5341 3.88309 18.5228 3.80322 17.9541 4.87319C17.7522 5.25414 17.5406 4.99959 17.3088 5.01276C16.3319 5.06893 15.1786 4.66517 14.6232 5.93966C14.0052 7.13252 14.1885 8.03221 15.1963 8.8608C15.3709 9.00475 15.8276 9.02757 15.601 9.40588C14.7898 10.7611 15.3612 11.7363 16.4729 12.5544C16.115 12.9011 15.7262 12.9195 15.3206 12.9151C14.3093 12.9055 13.2963 12.9344 12.2859 12.9028C11.7904 12.887 11.5471 13.0863 11.4201 13.5409C10.8858 15.4606 11.8107 16.7491 13.7697 16.7956C13.8368 16.7974 13.9046 16.7991 13.9716 16.7948C14.3658 16.7675 14.5095 16.8518 14.3631 17.3082C14.0651 18.2325 14.3508 19.0444 15.0975 19.6466C15.8461 20.2504 16.7013 20.3382 17.5503 19.8678C17.8942 19.6773 18.0591 19.7071 18.2671 20.0301C18.9037 21.0194 19.8048 21.2818 20.883 20.8421C21.5258 20.5805 21.1969 21.1308 21.3168 21.3046C20.95 21.3345 20.5841 21.3871 20.2174 21.3898C16.6828 21.4152 13.1491 21.4328 9.61445 21.4521C9.36141 21.4056 9.23622 21.4951 9.2803 21.7646C9.27589 22.3649 9.27237 22.9653 9.26796 23.5666C9.00875 24.4707 8.21701 24.2626 7.57604 24.3688C6.26236 24.353 4.94868 24.3434 3.63499 24.3206C3.03987 24.31 2.63518 24.1986 2.37597 23.9414C1.96336 23.5315 1.98452 22.8977 1.99245 22.6581C2.04182 21.0826 1.82229 19.5017 1.93867 17.9288ZM4.47787 12.6448C4.53958 13.074 4.62775 13.5006 4.65773 13.9324C4.73796 15.1016 5.37364 15.644 6.52598 15.702C7.22778 15.7371 7.9243 15.8617 8.62522 15.9275C9.23534 15.9846 9.66647 15.7028 9.59329 15.084C9.47603 14.0957 10.542 12.9204 9.15334 12.1278C9.09868 12.0971 9.02197 12.1076 8.95585 12.0944C7.90578 11.8855 6.8566 11.6705 5.80477 11.4677C4.55633 11.2272 4.43819 11.3387 4.47787 12.6448Z" fill="#434343"/>
</svg>
