<svg width="24" height="24" viewBox="0 0 24 24" fill="none" xmlns="http://www.w3.org/2000/svg">
<g clip-path="url(#clip0_2608_8266)">
<path d="M12 6.44043V9.77043" stroke="#3A4750" stroke-width="1.5" stroke-linecap="round"/>
<path d="M12.0204 2.00049C11.1457 2.00017 10.2796 2.17222 9.47138 2.50681C8.66321 2.84139 7.92889 3.33195 7.31039 3.95045C6.69189 4.56896 6.20133 5.30327 5.86675 6.11144C5.53216 6.91962 5.36011 7.7858 5.36043 8.66049V10.7605C5.32864 11.5588 5.11305 12.3391 4.73043 13.0405L3.46323 15.1609C3.2737 15.4414 3.15367 15.7629 3.11306 16.099C3.07245 16.435 3.11243 16.7759 3.22969 17.0935C3.34695 17.411 3.53813 17.6961 3.7874 17.9251C4.03668 18.1541 4.3369 18.3205 4.66323 18.4105C9.44451 20.0005 14.6119 20.0005 19.3932 18.4105C19.7087 18.3052 19.9964 18.1305 20.2353 17.8991C20.4741 17.6677 20.6579 17.3856 20.7731 17.0737C20.8883 16.7617 20.9319 16.4279 20.9008 16.0968C20.8697 15.7657 20.7645 15.4459 20.5932 15.1609L19.32 13.0405C18.9386 12.3386 18.7231 11.5586 18.69 10.7605V8.66049C18.6799 6.8956 17.9737 5.20602 16.7248 3.95893C15.4759 2.71185 13.7853 2.00805 12.0204 2.00049Z" stroke="#3A4750" stroke-width="1.5" stroke-linecap="round"/>
<path d="M15.3299 18.8196C15.3268 19.7018 14.9749 20.5469 14.3511 21.1708C13.7273 21.7946 12.8821 22.1464 11.9999 22.1496C11.1179 22.1462 10.2731 21.7937 9.65032 21.1692C9.02576 20.5464 8.67326 19.7016 8.66992 18.8196" stroke="#3A4750" stroke-width="1.5"/>
<circle cx="17" cy="4" r="4" fill="#F4B733"/>
</g>
<defs>
<clipPath id="clip0_2608_8266">
<rect width="24" height="24" fill="white"/>
</clipPath>
</defs>
</svg>
