<svg width="28" height="28" viewBox="0 0 28 28" fill="none" xmlns="http://www.w3.org/2000/svg">
<path d="M21.6662 21.2692C21.211 21.2776 20.7587 21.2259 20.3078 21.1575C16.8609 20.6424 14.131 17.6874 14.0364 14.347C14.0277 14.0609 13.9579 13.9911 13.6583 13.9925C9.62672 14.0036 5.5966 13.9994 1.56502 13.9994C0.610933 13.9994 0.00590546 14.5606 0.00445107 15.4847C-0.00282091 19.1572 0.00154228 22.8284 0.00154228 26.501C0.00154228 26.8611 0.088806 27.1919 0.330235 27.4753C0.676381 27.8815 1.13888 28.0001 1.66682 28.0001C4.75305 27.9945 7.83927 27.9973 10.9255 27.9973C13.9885 27.9973 17.0514 27.9973 20.1158 27.9973C20.2525 27.9973 20.3892 27.9973 20.5245 27.9848C21.307 27.9136 21.8815 27.3552 21.8873 26.6042C21.9018 24.8999 21.8902 23.1941 21.896 21.4897C21.8945 21.3194 21.8509 21.265 21.6662 21.2692ZM15.2014 22.9289C14.6895 22.9512 14.1775 22.9373 13.6656 22.9373C12.9486 22.9387 12.2315 22.9373 11.5145 22.9373C10.3423 22.9373 9.17004 22.9359 7.9978 22.9387C7.83636 22.9387 7.70547 22.9359 7.59639 22.7739C6.9201 21.7787 6.22926 20.7918 5.54133 19.8049C5.38571 19.5816 5.36971 19.3554 5.52679 19.1335C5.66059 18.945 5.86421 18.8836 6.09545 18.9171C6.30489 18.9478 6.4256 19.0888 6.53614 19.2479C7.07717 20.0282 7.62839 20.8016 8.15779 21.5902C8.29304 21.7926 8.43994 21.8541 8.68137 21.8541C10.7873 21.8457 12.8933 21.8499 14.9993 21.8485C15.2436 21.8485 15.4792 21.8541 15.6392 22.0732C15.901 22.4375 15.6726 22.908 15.2014 22.9289Z" fill="#434343"/>
<path d="M1.7963 12.8841C3.77719 12.8841 5.75953 12.8841 7.74041 12.8841C9.7562 12.8841 11.772 12.8799 13.7878 12.8897C14.0205 12.8911 14.1107 12.8394 14.1645 12.6105C14.8975 9.50885 16.906 7.61045 20.1129 6.87622C20.3689 6.81759 20.4024 6.73384 20.4009 6.52166C20.3922 4.87173 20.3951 3.2218 20.3922 1.57047C20.3907 0.57381 19.8061 0.00847795 18.7676 0.00289442C17.9139 -0.00129323 17.0602 0.00289442 16.205 0.00149854C15.1796 0.000102655 14.1557 0.0531462 13.1508 0.251361C9.63403 0.942323 6.73106 2.61459 4.48693 5.30725C2.74166 7.40107 1.74249 9.79919 1.41234 12.457C1.35853 12.8827 1.36289 12.8841 1.7963 12.8841Z" fill="#434343"/>
<path d="M21.6385 7.83646C18.0679 7.82529 15.1853 10.5515 15.1548 13.97C15.1242 17.3438 18.0199 20.1509 21.5439 20.1621C25.1145 20.1733 27.9884 17.4359 28 14.0118C28.0131 10.624 25.1523 7.84763 21.6385 7.83646ZM17.7872 11.8022C18.0723 11.5355 18.0694 11.5328 18.3457 11.798C18.7646 12.2 19.1835 12.602 19.6023 13.004C19.6343 13.0347 19.6634 13.0668 19.723 13.1282C19.6678 13.1659 19.611 13.1953 19.5674 13.2371C19.3202 13.4702 19.3216 13.4716 19.0831 13.2413C18.6526 12.8281 18.2236 12.4122 17.7887 12.0018C17.7043 11.925 17.7 11.8831 17.7872 11.8022ZM19.6227 15.6576C19.1311 16.1294 18.6395 16.5998 18.1494 17.0744C18.0854 17.1358 18.0534 17.1316 17.9894 17.073C17.6796 16.7883 17.6767 16.7896 17.9749 16.5035C18.3894 16.1057 18.8068 15.7092 19.2169 15.3072C19.2998 15.2249 19.3507 15.2179 19.4263 15.3086C19.486 15.3812 19.5616 15.4412 19.63 15.5068C19.6532 15.5292 19.6736 15.5529 19.6969 15.5794C19.6692 15.6101 19.6474 15.6353 19.6227 15.6576ZM19.3972 14.6037C18.9304 14.6037 18.4635 14.6037 17.9952 14.6037C17.4542 14.6037 16.9131 14.6009 16.3721 14.6065C16.2601 14.6079 16.231 14.5786 16.2325 14.4725C16.2354 14.0788 16.231 14.0788 16.647 14.0788C17.6447 14.0788 18.641 14.0816 19.6387 14.0761C19.7667 14.0747 19.7987 14.104 19.7958 14.2268C19.787 14.6037 19.7928 14.6037 19.3972 14.6037ZM21.4276 14.7921C21.2763 14.7572 21.1396 14.7223 21.0014 14.6958C20.9055 14.6777 20.872 14.6316 20.8836 14.5395C20.8924 14.4753 20.8851 14.4083 20.8851 14.3427C20.8851 14.0202 20.8851 14.0202 21.2109 13.942C21.2807 13.9253 21.3505 13.9072 21.4276 13.8876C21.4276 14.1919 21.4276 14.485 21.4276 14.7921ZM22.6638 10.1411C22.8005 10.1411 22.9372 10.1411 23.074 10.1411C23.3125 10.1411 23.5525 10.1439 23.791 10.1397C23.8739 10.1383 23.8928 10.1634 23.8957 10.2402C23.9131 10.6659 23.9146 10.6659 23.4826 10.6659C23.1118 10.6659 22.7424 10.6631 22.3715 10.6687C22.274 10.6701 22.2508 10.6436 22.2493 10.5515C22.245 10.1411 22.242 10.1411 22.6638 10.1411ZM22.2799 11.2187C22.3569 11.1293 22.5562 11.1977 22.7031 11.1922C22.8282 11.188 22.9532 11.1908 23.0783 11.1908C23.3008 11.1908 23.5219 11.1963 23.7444 11.188C23.8564 11.1838 23.9044 11.2019 23.8986 11.3248C23.887 11.5593 23.8913 11.7938 23.8971 12.0297C23.8986 12.1079 23.8782 12.1665 23.8157 12.2139C23.7895 12.2349 23.7692 12.2628 23.743 12.2823C23.4274 12.5043 23.279 12.7932 23.3488 13.1715C23.3648 13.2581 23.3357 13.2916 23.2339 13.293C22.8034 13.2985 22.7976 13.3027 22.8049 12.884C22.8078 12.7234 22.7656 12.5908 22.6304 12.4973C22.3162 12.2796 22.1897 11.9962 22.2508 11.6263C22.2726 11.4895 22.2057 11.3024 22.2799 11.2187ZM25.3966 14.8661C25.0447 14.8661 24.9487 14.9806 25.0243 15.31C25.1625 15.9102 25.2992 16.5119 25.4446 17.1107C25.4693 17.2098 25.4548 17.2335 25.3515 17.2294C25.1697 17.2238 24.9865 17.2182 24.8047 17.2307C24.6811 17.2391 24.6418 17.1959 24.6171 17.087C24.4716 16.4379 24.3204 15.7888 24.1706 15.1411C24.1211 14.9289 24.0426 14.8647 23.8201 14.8647C23.2499 14.8633 22.6798 14.8619 22.1111 14.8661C22.0122 14.8675 21.9715 14.8522 21.9759 14.7433C21.9846 14.4753 21.9861 14.2073 21.9759 13.9393C21.9715 13.822 22.0195 13.8094 22.1213 13.8108C22.514 13.815 22.9082 13.8122 23.3008 13.8122C23.6877 13.8122 24.076 13.815 24.4629 13.8108C24.5603 13.8094 24.6403 13.8248 24.7014 13.903C24.7218 13.9295 24.7523 13.9476 24.7727 13.9728C24.9981 14.2645 25.289 14.4041 25.6715 14.3371C25.7849 14.3175 25.8111 14.3636 25.8111 14.4697C25.8097 14.8661 25.814 14.8661 25.3966 14.8661Z" fill="#434343"/>
</svg>
