<svg width="30" height="28" viewBox="0 0 30 28" fill="none" xmlns="http://www.w3.org/2000/svg">
<path fill-rule="evenodd" clip-rule="evenodd" d="M21.4263 8.45731V8.45731C20.9766 8.45731 20.5691 8.20937 20.3774 7.82189C20.0313 7.12073 19.5913 6.22467 19.3309 5.73685C18.9463 5.01148 18.3229 4.58939 17.4597 4.58363C17.4452 4.58248 11.8125 4.58248 11.798 4.58363C10.9347 4.58939 10.3126 5.01148 9.92683 5.73685C9.66761 6.22467 9.22755 7.12073 8.88153 7.82189C8.68983 8.20937 8.28112 8.45731 7.83262 8.45731V8.45731C5.42615 8.45731 3.47662 10.3221 3.47662 12.6228V19.4683C3.47662 21.7678 5.42615 23.6338 7.83262 23.6338H21.4263C23.8315 23.6338 25.7811 21.7678 25.7811 19.4683V12.6228C25.7811 10.3221 23.8315 8.45731 21.4263 8.45731Z" stroke="white" stroke-width="1.5" stroke-linecap="round" stroke-linejoin="round"/>
<path fill-rule="evenodd" clip-rule="evenodd" d="M10.7968 15.6356C10.7956 17.6572 12.5209 19.311 14.6308 19.3098C16.737 19.3075 18.4575 17.6607 18.4611 15.6437C18.4647 13.6186 16.7455 11.9684 14.6332 11.9661C12.5088 11.9638 10.7799 13.6417 10.7968 15.6356Z" stroke="white" stroke-width="1.5" stroke-linecap="round" stroke-linejoin="round"/>
<path d="M20.5398 12.9378C20.4233 12.9263 20.3082 12.8972 20.1794 12.8476C20.036 12.7867 19.912 12.7092 19.792 12.5927C19.5765 12.3734 19.4517 12.0866 19.4517 11.7907C19.4517 11.6336 19.4853 11.4778 19.5508 11.3368C19.6166 11.1938 19.6945 11.0732 19.8353 10.9421C19.9424 10.8528 20.0521 10.781 20.2021 10.7178C20.6468 10.5493 21.1759 10.65 21.5065 10.9661C21.6056 11.0595 21.689 11.1722 21.7353 11.2672L21.7628 11.3346C21.8294 11.4778 21.8629 11.6336 21.8629 11.7907C21.8629 12.0926 21.7398 12.3717 21.5111 12.6041C21.3134 12.7944 21.0538 12.9115 20.7769 12.9378L20.6573 12.9434L20.5398 12.9378Z" fill="white"/>
</svg>
