<svg width="27" height="21" viewBox="0 0 27 21" fill="none" xmlns="http://www.w3.org/2000/svg">
<path d="M6.69603 19.0619C6.40463 20.4689 5.77476 20.9871 4.38961 20.9871C3.6116 20.9871 2.83359 20.9933 2.05599 20.9855C0.786507 20.9727 0.0129643 20.1911 0.0125584 18.9203C0.0121526 16.5163 0.00281814 14.1114 0.0259514 11.707C0.0385326 10.3726 0.187478 9.05553 0.760939 7.82253C0.803552 7.73103 0.753633 7.53613 0.67774 7.45735C0.0145877 6.76966 -0.180624 5.97775 0.175303 5.08818C0.539347 4.1781 1.28448 3.68449 2.20778 3.71855C3.06939 3.75055 3.5349 3.47318 3.98498 2.71984C4.972 1.06709 6.57347 0.412633 8.43062 0.232915C11.4172 -0.0563582 14.4026 -0.0707192 17.3901 0.159468C18.1031 0.21445 18.8207 0.306771 19.5163 0.468846C21.119 0.841413 22.229 1.87746 23.0005 3.30413C23.1571 3.59381 23.3199 3.70952 23.6519 3.69926C24.0809 3.68531 24.5273 3.69311 24.9404 3.79733C25.77 4.00659 26.3321 4.5519 26.535 5.40659C26.7249 6.20629 26.4965 6.89727 25.9063 7.46473C25.8633 7.50617 25.8207 7.54803 25.7797 7.59152C25.7704 7.60178 25.7684 7.61901 25.7554 7.65348C26.4526 9.03911 26.5813 10.5528 26.5878 12.0857C26.5971 14.3847 26.5955 16.6833 26.5918 18.9823C26.5898 20.146 25.8244 20.9518 24.6673 20.9822C23.7403 21.0064 22.8122 21.0056 21.8852 20.9826C20.7988 20.9551 20.1937 20.3564 19.9035 19.0627C15.5134 19.0619 11.1193 19.0619 6.69603 19.0619ZM5.56737 17.9659C10.7585 17.9659 15.8824 17.9659 21.0346 17.9659C21.0346 18.1584 21.0346 18.3229 21.0346 18.4875C21.0346 18.6536 21.0281 18.8206 21.0366 18.9864C21.0654 19.5477 21.3613 19.853 21.912 19.8587C22.8244 19.8686 23.7371 19.8686 24.6494 19.8583C25.1973 19.8522 25.5098 19.5379 25.5102 18.9786C25.5131 16.5286 25.5545 14.077 25.4843 11.6286C25.4376 10.0009 25.3463 8.33501 23.908 7.17587C24.2261 7.06796 24.5155 6.98959 24.7886 6.87265C25.268 6.6679 25.5403 6.25594 25.5111 5.8288C25.4802 5.38115 25.1389 4.9655 24.6332 4.86497C24.2566 4.79029 23.8548 4.74352 23.4778 4.79235C22.7797 4.88261 22.4019 4.65243 22.0979 3.97376C21.5455 2.74159 20.6084 1.85038 19.2606 1.54264C18.55 1.38057 17.8162 1.2903 17.0877 1.24229C14.2939 1.05847 11.4992 1.03221 8.70943 1.32353C7.58565 1.44088 6.44562 1.58614 5.62866 2.47242C5.12703 3.0165 4.70495 3.6529 4.33766 4.29997C4.13068 4.66474 3.94074 4.81409 3.52759 4.79029C3.03855 4.76198 2.53814 4.77429 2.05478 4.84897C1.48497 4.93678 1.12417 5.35489 1.09414 5.83332C1.06573 6.28754 1.37539 6.71344 1.89934 6.91532C2.14974 7.01174 2.40989 7.08314 2.68708 7.173C1.68464 8.13437 1.2236 9.10682 1.18911 10.6369C1.1262 13.4176 1.11727 16.1999 1.09536 18.9815C1.09089 19.5379 1.40786 19.8522 1.95737 19.8583C2.86971 19.8682 3.78246 19.8686 4.6948 19.8587C5.24391 19.8526 5.54221 19.5469 5.56534 18.9831C5.57833 18.6532 5.56737 18.3225 5.56737 17.9659Z" fill="#ABB0BF"/>
<path d="M4.66199 6.76818C5.12384 5.84497 5.53659 4.89139 6.06094 4.00593C6.64942 3.01174 7.67621 2.80001 8.73222 2.69169C11.5078 2.40693 14.2858 2.42868 17.0646 2.61004C17.6004 2.64491 18.1324 2.73682 18.6653 2.80904C19.4867 2.92065 20.1556 3.33876 20.5659 4.03958C21.0789 4.91519 21.4859 5.8544 21.9973 6.8843C16.1576 6.46742 10.4733 6.46003 4.78983 6.87445C4.74721 6.83875 4.7046 6.80346 4.66199 6.76818Z" fill="#ABB0BF"/>
<path d="M9.60272 13.3884C9.41319 13.3712 9.05807 13.3293 8.80361 13.0667C8.67009 12.9288 8.57512 12.7405 8.53007 12.4898C8.46594 12.1357 8.32999 11.7947 8.2618 11.441C8.15182 10.8703 8.35515 10.563 8.92983 10.4994C9.92415 10.389 12.2748 10.2329 13.2704 10.2452C15.1657 10.269 15.7597 10.3866 17.6032 10.4961C18.2663 10.5355 18.4461 10.842 18.3349 11.5055C18.3126 11.6388 18.2785 11.7705 18.2432 11.901C17.8767 13.2632 17.7801 13.3461 16.4055 13.4701C16.0183 13.5049 15.6312 13.5517 15.2436 13.5603C14.5861 13.5751 13.9282 13.5644 13.2704 13.5644C11.5508 13.5238 10.2419 13.4467 9.60272 13.3884Z" fill="#ABB0BF"/>
<path d="M7.14778 12.9282C6.04834 12.822 5.00329 12.7809 3.98055 12.6074C2.74029 12.3973 2.29589 11.6054 2.60961 10.3515C2.67414 10.0942 2.7829 9.84842 2.88031 9.57104C3.88153 9.80451 4.84054 10.0138 5.79063 10.2563C6.2541 10.3744 6.55808 10.6744 6.66969 11.1791C6.79631 11.7474 6.97489 12.3037 7.14778 12.9282Z" fill="#ABB0BF"/>
<path d="M19.4412 12.9452C19.664 12.1767 19.8178 11.4702 20.0865 10.812C20.1863 10.5675 20.5321 10.3463 20.8081 10.2688C21.7521 10.0029 22.7147 9.80592 23.6806 9.57983C24.0532 10.1773 24.1575 10.8054 24.0288 11.4615C23.8994 12.1234 23.4136 12.4734 22.8064 12.5645C21.7204 12.7278 20.623 12.816 19.4412 12.9452Z" fill="#ABB0BF"/>
<path d="M13.2845 15.0141C14.2861 15.0141 15.2882 15.0256 16.2898 15.0087C16.6977 15.0018 16.8689 15.1745 16.8535 15.5729C16.847 15.7391 16.856 15.9057 16.8507 16.0719C16.8401 16.3993 16.6835 16.5655 16.3454 16.5651C14.3117 16.561 12.2784 16.5618 10.2447 16.5643C9.90422 16.5647 9.75853 16.3829 9.74838 16.0596C9.74473 15.9389 9.74635 15.8179 9.74716 15.6968C9.75203 15.0867 9.81981 15.0157 10.4132 15.0149C11.371 15.0133 12.3279 15.0141 13.2845 15.0141Z" fill="#ABB0BF"/>
</svg>
