<svg width="18" height="27" viewBox="0 0 18 27" fill="none" xmlns="http://www.w3.org/2000/svg">
<path d="M17.915 7.82569C17.7997 7.0313 17.337 6.45412 16.6294 6.02123C16.6412 6.24295 16.6546 6.40937 16.659 6.57629C16.6866 7.64016 16.458 8.65929 16.1332 9.66081C15.9539 10.0178 15.7873 10.3828 15.5932 10.7312C15.0128 11.772 14.1741 12.5704 13.2512 13.2863C13.165 13.3351 13.0778 13.3813 12.9936 13.4326C11.2025 14.5231 9.28722 14.8364 7.25322 14.3773C6.19828 14.139 5.25568 13.6428 4.37221 13.0209C3.80311 12.6156 3.33945 12.1093 2.92555 11.5407C2.17167 10.5035 1.66169 9.36719 1.44883 8.09115C1.33698 7.41944 1.30003 6.74522 1.36211 6.01318C0.542698 6.53305 0.0460241 7.22638 0.0218802 8.14696C-0.021973 9.81969 0.0139965 11.4949 0.0164602 13.1692C0.0164602 14.496 0.0164602 15.8223 0.0164602 17.1491C0.0164602 18.4081 0.0164602 19.6675 0.0164602 20.9265C0.0164602 22.0507 0.0164602 23.1749 0.0164602 24.2991C-0.020002 25.7597 1.16945 26.9874 2.65455 26.9945C4.76788 27.005 6.8817 26.9975 8.99503 26.9975C11.1088 26.9975 13.2222 27.005 15.3355 26.9945C16.8206 26.9874 18.0076 25.7622 17.9736 24.2991C17.9736 23.1749 17.9736 22.0507 17.9736 20.9265C17.9736 19.6675 17.9736 18.4081 17.9736 17.1491C17.9736 15.8902 17.9736 14.6307 17.9736 13.3718C17.9736 12.135 17.9736 10.8986 17.9736 9.66182C18.0224 9.04743 18.0027 8.42952 17.915 7.82569ZM8.37369 24.0286C7.02065 24.0316 5.66761 24.0316 4.31506 24.0286C3.9327 24.0276 3.70013 23.8119 3.70949 23.4846C3.71934 23.1513 3.94748 22.9527 4.33821 22.9507C5.00932 22.9471 5.67992 22.9496 6.35103 22.9496C7.02213 22.9496 7.69274 22.9471 8.36384 22.9507C8.75162 22.9527 8.99108 23.1603 8.99306 23.4841C8.99503 23.8139 8.75999 24.0281 8.37369 24.0286ZM3.70949 20.2352C3.71737 19.9048 3.94255 19.7138 4.34462 19.7133C5.68633 19.7108 7.02853 19.7103 8.37024 19.7133C8.75457 19.7143 8.99552 19.931 8.99256 20.2553C8.9901 20.5806 8.75162 20.7887 8.36334 20.7912C7.6814 20.7953 6.99946 20.7922 6.31752 20.7922C5.65775 20.7922 4.99749 20.7948 4.33772 20.7912C3.92629 20.7892 3.70111 20.5851 3.70949 20.2352ZM8.30964 17.5584C7.0039 17.5478 5.69816 17.5478 4.39242 17.5584C4.06968 17.5609 3.84154 17.4503 3.70801 17.1491C3.72624 16.6564 3.8987 16.4759 4.36926 16.4754C5.69027 16.4729 7.01178 16.4729 8.33279 16.4754C8.80237 16.4764 8.97581 16.6569 8.99453 17.1491C8.86002 17.4498 8.63287 17.5609 8.30964 17.5584ZM13.4902 24.0261C13.1719 24.0402 12.8531 24.0291 12.5343 24.0291C12.2377 24.0291 11.9406 24.0366 11.644 24.0271C11.3276 24.017 11.1162 23.8044 11.1123 23.5112C11.1079 23.1975 11.3197 22.9597 11.6484 22.9537C12.2638 22.9421 12.8797 22.9416 13.4947 22.9547C13.8056 22.9612 14.0199 23.2005 14.0174 23.4916C14.015 23.7838 13.8021 24.0125 13.4902 24.0261ZM11.1123 20.2678C11.1059 19.9712 11.3074 19.7269 11.6159 19.7193C12.253 19.7037 12.8911 19.7037 13.5282 19.7208C13.8154 19.7284 14.0199 19.9813 14.017 20.2568C14.014 20.5333 13.81 20.7686 13.5193 20.7857C13.2015 20.8043 12.8822 20.7897 12.5634 20.7897C12.5634 20.7902 12.5634 20.7907 12.5634 20.7917C12.2554 20.7917 11.9475 20.7998 11.64 20.7892C11.3242 20.7782 11.1192 20.5665 11.1123 20.2678ZM14.3461 16.0978C14.0795 16.3955 13.8139 16.6941 13.5484 16.9923C13.3946 17.1491 13.2409 17.306 13.0877 17.4629C12.589 17.9737 11.9687 17.9727 11.473 17.4599C11.3513 17.3337 11.2291 17.2085 11.1069 17.0828C11.0473 17.0033 10.9793 16.9294 10.93 16.8435C10.7891 16.5971 10.8216 16.3638 11.0266 16.1738C11.232 15.9832 11.4676 15.9701 11.6863 16.1446C11.8238 16.2542 11.9534 16.3839 12.0549 16.5277C12.2298 16.7761 12.3491 16.7183 12.522 16.5146C12.8674 16.1079 13.2335 15.7182 13.604 15.3346C13.9297 14.9978 14.3969 15.0983 14.5225 15.5191C14.593 15.7524 14.4944 15.9329 14.3461 16.0978Z" fill="#434343"/>
<path d="M6.40358 5.76894C7.26833 5.72872 8.13357 5.69906 8.9993 5.70157C9.22792 5.70157 9.45705 5.69604 9.68567 5.70258C10.3587 5.72168 11.0313 5.74682 11.7044 5.76743C11.8581 5.77196 11.9301 5.66034 11.867 5.51806C11.8113 5.39236 11.7463 5.27069 11.6872 5.14651C11.5043 4.7649 11.2048 4.54418 10.8017 4.44866C10.342 4.34006 9.87685 4.28425 9.40629 4.26112C8.68789 4.22593 7.97737 4.27972 7.27276 4.42905C6.82241 4.52458 6.48193 4.75635 6.28779 5.19176C6.25379 5.26818 6.21585 5.34359 6.17545 5.417C6.02418 5.69302 6.15278 5.78051 6.40358 5.76894Z" fill="#434343"/>
<path d="M5.18123 7.15595C5.33052 7.17807 5.47884 7.16651 5.55718 7.16752C5.86563 7.15545 6.10362 7.13886 6.34062 7.11322C6.39138 7.10769 6.43178 7.0926 6.44804 7.04132C6.46529 6.98652 6.43424 6.95183 6.39187 6.92518C6.35541 6.90205 6.31993 6.87691 6.28248 6.8558C6.00557 6.69793 5.70057 6.62301 5.39753 6.54257C5.2709 6.50888 5.14181 6.50938 5.01271 6.52346C4.95555 6.53 4.89643 6.54408 4.87967 6.60994C4.82498 6.83217 4.85553 7.10769 5.18123 7.15595Z" fill="#434343"/>
<path d="M11.1207 8.21828C11.0556 8.16449 10.9797 8.1313 10.9019 8.10265C10.4683 7.94377 10.014 7.88997 9.56067 7.84623C8.83635 7.77635 8.11894 7.85729 7.40891 8.00611C7.23448 8.04282 7.0635 8.09862 6.91371 8.2022C6.73091 8.3294 6.7245 8.48978 6.89696 8.63106C7.00832 8.72206 7.13692 8.76983 7.28031 8.77838C7.8568 8.81357 8.43379 8.78843 9.01078 8.79748C9.58432 8.78843 10.1579 8.81357 10.7314 8.77888C10.8891 8.76933 11.0295 8.71704 11.1423 8.60341C11.265 8.47922 11.2552 8.3294 11.1207 8.21828Z" fill="#434343"/>
<path d="M11.5483 7.0479C11.5641 7.11276 11.6158 7.10824 11.6666 7.11427C11.9001 7.14243 12.1351 7.15399 12.3697 7.17058C12.4825 7.17058 12.5958 7.17913 12.7072 7.16907C13.063 7.1374 13.161 7.01472 13.1359 6.66077C13.1295 6.57178 13.0871 6.52502 12.991 6.51798C12.758 6.50139 12.5387 6.56021 12.3184 6.62155C12.0726 6.68993 11.8321 6.77037 11.6178 6.91668C11.5719 6.94785 11.533 6.98355 11.5483 7.0479Z" fill="#434343"/>
<path d="M3.28557 10.143C3.33632 10.2405 3.37771 10.3446 3.4398 10.4341C5.03329 12.7348 7.20033 13.8037 9.9478 13.4236C12.0301 13.1355 13.6398 12.0334 14.682 10.1339C15.1939 9.25961 15.5314 8.32797 15.5797 7.3008C15.662 6.27514 15.5516 5.27914 15.1437 4.3284C15.118 4.24343 15.0993 4.15544 15.0653 4.07399C13.8276 1.11215 10.5948 -0.561084 7.52849 0.171458C4.90567 0.797915 2.82585 3.0413 2.48981 5.60695C2.3075 6.48781 2.34642 7.36918 2.54105 8.23797C2.69084 8.90817 2.88646 9.56932 3.28557 10.143ZM4.23112 7.60599C4.25133 7.27516 4.28237 6.94635 4.341 6.61954C4.39176 6.33698 4.51494 6.11274 4.77313 5.97951C4.82043 5.95538 4.86527 5.92622 4.91159 5.90057C4.9717 5.86789 4.98353 5.82214 4.94066 5.76885C4.84655 5.6522 4.82733 5.52601 4.89878 5.39327C4.97022 5.26004 5.08799 5.21529 5.23285 5.22183C5.33879 5.22635 5.4664 5.25652 5.54426 5.20825C5.62112 5.16049 5.64773 5.02826 5.69651 4.93324C5.87242 4.59085 6.08084 4.27611 6.41344 4.07047C6.67705 3.90758 6.97022 3.82412 7.26882 3.76328C8.02024 3.60993 8.77954 3.56971 9.54426 3.61446C10.0212 3.64261 10.4913 3.70496 10.9574 3.81507C11.5753 3.96087 12.0104 4.32538 12.2863 4.90056C12.2893 4.90659 12.2927 4.91212 12.2962 4.91815C12.3528 5.0167 12.3671 5.16351 12.4583 5.20976C12.5489 5.25602 12.679 5.22485 12.7919 5.22183C12.9352 5.21831 13.0441 5.27613 13.1087 5.40584C13.1693 5.52852 13.155 5.64919 13.0698 5.75628C13.0165 5.82365 13.0254 5.87594 13.1023 5.90761C13.5024 6.07252 13.6477 6.40536 13.6975 6.81311C13.7571 7.3008 13.7951 7.7895 13.7753 8.28071C13.7581 8.70002 13.6876 9.1123 13.5773 9.51703C13.5403 9.65228 13.426 9.70205 13.3284 9.78199C13.2501 9.84635 13.2476 10.0062 13.1244 10.0651C13.0752 10.0887 13.0249 10.0987 12.9712 10.0982C12.7889 10.0967 12.6061 10.0977 12.4238 10.0977C12.2479 10.0977 12.072 10.0982 11.8961 10.0977C11.7059 10.0972 11.595 10.0087 11.5507 9.81819C11.5452 9.79507 11.5502 9.77244 11.5152 9.77194C11.291 9.76942 11.0821 9.68144 10.8633 9.64725C10.4888 9.58843 10.1114 9.57284 9.73445 9.55021C9.121 9.51351 8.50755 9.53262 7.89508 9.57133C7.50829 9.59597 7.12248 9.63016 6.74751 9.73976C6.72534 9.7463 6.70218 9.75032 6.67951 9.75334C6.56027 9.76942 6.44054 9.75686 6.40358 9.93484C6.38092 10.0424 6.26217 10.0982 6.14145 10.0982C5.76648 10.0982 5.39151 10.0992 5.01654 10.0977C4.86379 10.0972 4.73322 9.99064 4.70513 9.8383C4.69676 9.79255 4.68592 9.76842 4.64157 9.75484C4.52282 9.71915 4.4563 9.63016 4.42378 9.51251C4.2528 8.88806 4.19171 8.25205 4.23112 7.60599Z" fill="#434343"/>
</svg>
