<svg width="29" height="29" viewBox="0 0 29 29" fill="none" xmlns="http://www.w3.org/2000/svg">
<path d="M25.1345 5.03003C25.1261 4.88294 25.1719 4.8335 25.3226 4.83833C25.6709 4.84918 26.0204 4.84556 26.37 4.83953C26.5038 4.83712 26.5701 4.85762 26.5689 5.02038C26.5616 6.18144 26.5616 7.3425 26.5677 8.50356C26.5689 8.65789 26.5158 8.68924 26.3736 8.68924C26.0916 8.69044 25.8071 8.65186 25.5275 8.71456C25.2382 8.77846 25.0972 8.98342 25.1406 9.27158C25.1791 9.51874 25.3816 9.67427 25.7022 9.67668C26.6086 9.68151 27.5138 9.67909 28.4202 9.67668C28.4853 9.67668 28.5516 9.66463 28.6143 9.64775C28.8674 9.58143 29.0024 9.41264 28.9867 9.15342C28.9723 8.90988 28.8337 8.76037 28.5866 8.71094C28.3431 8.66271 28.0948 8.67236 27.8537 8.69286C27.5958 8.71335 27.5476 8.62413 27.5488 8.38059C27.5584 6.14286 27.5548 3.90634 27.5548 1.66862C27.5548 1.31656 27.5102 0.976563 27.3186 0.666706C27.0992 0.312239 26.7533 0.143445 26.3869 -0.00244141C18.4414 -3.00647e-05 10.4947 -3.00647e-05 2.54805 -3.00647e-05C2.53117 0.0192607 2.51671 0.0469911 2.49501 0.0554308C1.73807 0.365288 1.44156 0.805358 1.44036 1.63848C1.43915 3.88344 1.43554 6.12839 1.44638 8.37335C1.44759 8.63739 1.37286 8.723 1.11974 8.69044C0.98113 8.67236 0.836492 8.69286 0.69547 8.68562C0.407398 8.67236 0.162718 8.74832 0 9.00633C0 9.13895 0 9.27037 0 9.403C0.165129 9.53683 0.316999 9.68392 0.558063 9.68151C1.4729 9.67548 2.38894 9.68271 3.30499 9.67668C3.64489 9.67427 3.85341 9.48378 3.86185 9.20165C3.87028 8.90144 3.6714 8.70853 3.31342 8.68924C3.10611 8.67839 2.89759 8.67236 2.69148 8.69044C2.48537 8.70853 2.42149 8.65307 2.4239 8.43243C2.43836 7.45101 2.42992 6.46839 2.42992 5.48698C2.42992 4.84074 2.42992 4.83953 3.06272 4.84074C3.31704 4.84194 3.65935 4.75031 3.80158 4.87811C3.96791 5.02762 3.83774 5.37606 3.85461 5.63769C3.85702 5.66542 3.85341 5.69435 3.85461 5.72208C3.86787 6.05726 4.05349 6.27307 4.33313 6.28151C4.61638 6.29116 4.83092 6.08861 4.83454 5.75222C4.84659 4.81783 4.84539 3.88344 4.83574 2.94904C4.83213 2.60904 4.62722 2.41372 4.33915 2.41855C4.05349 2.42337 3.86667 2.63074 3.85582 2.96713C3.84859 3.18415 3.84377 3.40237 3.85702 3.61819C3.86787 3.7918 3.83171 3.86897 3.63283 3.85812C3.30378 3.84003 2.97232 3.84244 2.64206 3.85691C2.46608 3.86535 2.42028 3.81471 2.4239 3.63868C2.43475 2.98762 2.42872 2.33656 2.42872 1.68429C2.42872 1.09592 2.56613 0.962095 3.16638 0.962095C10.7261 0.962095 18.2859 0.962095 25.8457 0.962095C25.9216 0.962095 25.9975 0.957273 26.0723 0.965712C26.3989 1.00188 26.5604 1.17429 26.5628 1.50585C26.5677 2.22323 26.5616 2.9406 26.5665 3.65798C26.5677 3.79301 26.5508 3.86294 26.3881 3.85691C26.0301 3.84365 25.6709 3.84365 25.3129 3.85691C25.1478 3.86294 25.1309 3.7906 25.1357 3.65677C25.1442 3.39273 25.1454 3.12748 25.1357 2.86344C25.1237 2.54996 24.9284 2.33656 24.6608 2.32571C24.4005 2.31486 24.1667 2.52344 24.163 2.83088C24.1498 3.78457 24.1498 4.73705 24.1618 5.69074C24.1655 6.003 24.3884 6.20797 24.6536 6.20315C24.932 6.19832 25.1273 5.97889 25.1394 5.64854C25.143 5.44598 25.1466 5.2374 25.1345 5.03003Z" fill="#434343"/>
<path d="M3.26883 26.5705C2.44921 26.5669 1.62959 26.579 0.81118 26.5645C0.496592 26.5585 0.218163 26.6019 0 26.8478C0 26.9804 0 27.1119 0 27.2445C0.162718 27.5037 0.408603 27.5736 0.696675 27.5616C0.875062 27.5543 1.05465 27.5688 1.23304 27.558C1.38973 27.5471 1.45121 27.5965 1.44277 27.7617C1.43071 27.9968 1.42951 28.2331 1.44397 28.4682C1.46446 28.8094 1.65852 29.0048 1.94298 28.9999C2.22261 28.9951 2.41667 28.7817 2.42872 28.4502C2.43716 28.215 2.43957 27.9787 2.42751 27.7436C2.41908 27.5905 2.47693 27.5568 2.62037 27.5568C2.90241 27.5568 3.18566 27.5905 3.4653 27.5338C3.74252 27.4772 3.88354 27.2855 3.85702 27.0094C3.83051 26.7333 3.62199 26.5717 3.26883 26.5705Z" fill="#434343"/>
<path d="M3.23508 10.1795C3.14709 10.212 3.06151 10.2482 2.97714 10.2904C2.16114 10.6955 1.34755 11.1054 0.530341 11.5069C0.329052 11.6058 0.144638 11.7203 0 11.8939C0 12.0266 0 12.158 0 12.2906C0.167539 12.4329 0.32182 12.6619 0.573732 12.5522C1.6308 12.088 2.65773 11.5612 3.6714 11.009C3.87872 10.8956 3.92332 10.6027 3.8052 10.4098C3.67623 10.1964 3.49302 10.0854 3.23508 10.1795Z" fill="#434343"/>
<path d="M3.28088 21.7612C3.1724 21.7829 3.07116 21.8408 2.96991 21.8914C2.13824 22.3062 1.30898 22.7257 0.476101 23.1369C0.289277 23.2285 0.125353 23.3394 0 23.5058C0 23.6384 0 23.7698 0 23.9025C0.201288 24.0689 0.395345 24.2714 0.691854 24.1231C1.66696 23.6372 2.63965 23.1477 3.61234 22.6582C3.63766 22.6462 3.65935 22.6281 3.68105 22.61C3.8751 22.4508 3.91006 22.2435 3.81484 22.0277C3.716 21.8034 3.52074 21.7142 3.28088 21.7612Z" fill="#434343"/>
<path d="M0.759352 22.1543C1.69227 21.6961 2.62157 21.2295 3.55087 20.7629C3.69672 20.6894 3.81725 20.5869 3.84979 20.4133C3.88475 20.224 3.84618 20.0528 3.6919 19.9286C3.50025 19.7731 3.29173 19.796 3.08441 19.8996C2.21297 20.3349 1.34393 20.7738 0.470075 21.2042C0.28325 21.297 0.119327 21.4079 0 21.5791C0 21.6925 0 21.8058 0 21.9191C0.26517 22.2531 0.43271 22.3146 0.759352 22.1543Z" fill="#434343"/>
<path d="M0.760572 14.4283C1.68987 13.9605 2.62159 13.4951 3.55209 13.0273C3.69914 12.9525 3.81726 12.8489 3.85101 12.6752C3.88838 12.4847 3.84258 12.3147 3.69071 12.193C3.49906 12.0398 3.29777 12.0616 3.08563 12.1689C2.2395 12.5957 1.39216 13.0164 0.542409 13.436C0.339916 13.5361 0.15068 13.647 0.0012207 13.8194C0.0012207 13.952 0.0012207 14.0835 0.0012207 14.2161C0.20492 14.4596 0.441162 14.5898 0.760572 14.4283Z" fill="#434343"/>
<path d="M0.746093 16.3659C1.68745 15.9017 2.62519 15.4279 3.56293 14.9553C3.70997 14.8817 3.82327 14.7744 3.8522 14.5984C3.88354 14.4055 3.83533 14.2391 3.68105 14.121C3.49784 13.9811 3.30137 13.9944 3.10008 14.0956C2.27926 14.508 1.45844 14.9191 0.635204 15.3266C0.404988 15.44 0.174771 15.5521 0 15.7462C0 15.8788 0 16.0102 0 16.1429C0.291687 16.4491 0.455611 16.5094 0.746093 16.3659Z" fill="#434343"/>
<path d="M0.738861 20.2312C1.68022 19.7695 2.61675 19.298 3.55328 18.8266C3.69913 18.7531 3.81845 18.6494 3.84979 18.4746C3.88354 18.2841 3.84497 18.1153 3.68948 17.9923C3.49663 17.8404 3.28811 17.8633 3.0808 17.967C2.20935 18.4022 1.33911 18.8399 0.466459 19.2715C0.279634 19.3644 0.114505 19.4765 0 19.6525C0 19.7658 0 19.8792 0 19.9925C0.259144 20.3036 0.445968 20.3759 0.738861 20.2312Z" fill="#434343"/>
<path d="M3.47976 23.6903C3.30137 23.6445 3.1483 23.7361 2.99884 23.8108C2.1744 24.2208 1.35357 24.6355 0.52793 25.0442C0.326642 25.1431 0.142228 25.2576 0 25.4325C0 25.5651 0 25.6965 0 25.8291C0.400166 26.1752 0.451995 26.1824 0.94256 25.9364C1.63924 25.588 2.33712 25.2384 3.03259 24.8887C3.24231 24.7826 3.45565 24.6825 3.65574 24.5608C3.84859 24.4438 3.89198 24.2509 3.84618 24.0423C3.80278 23.8482 3.66538 23.7373 3.47976 23.6903Z" fill="#434343"/>
<path d="M0.744903 18.296C1.68023 17.8367 2.61194 17.3677 3.54366 16.8987C3.69914 16.8203 3.8245 16.7142 3.85342 16.5249C3.88356 16.3308 3.83173 16.1644 3.67504 16.0487C3.47736 15.904 3.26764 15.9402 3.06273 16.0426C2.18888 16.4803 1.31743 16.9204 0.441162 17.352C0.259159 17.4424 0.11211 17.5606 0.0012207 17.727C0.0012207 17.8403 0.0012207 17.9536 0.0012207 18.067C0.272418 18.372 0.454421 18.4395 0.744903 18.296Z" fill="#434343"/>
<path d="M28.4492 26.5719C27.9876 26.5659 27.526 26.5707 27.0643 26.5707C26.6123 26.5707 26.1603 26.5659 25.7083 26.5719C25.3516 26.5767 25.137 26.7624 25.131 27.0541C25.125 27.3519 25.3263 27.5412 25.6854 27.5581C25.9205 27.569 26.1567 27.5678 26.3918 27.5581C26.5268 27.5521 26.5738 27.5931 26.5677 27.7317C26.5569 27.9668 26.5593 28.2032 26.5665 28.4383C26.5762 28.7758 26.7606 28.988 27.0402 29.0001C27.3343 29.0122 27.5344 28.8072 27.5549 28.4527C27.5681 28.2176 27.5669 27.9813 27.5549 27.7462C27.5477 27.5931 27.6067 27.5521 27.7502 27.5581C27.9659 27.5678 28.1829 27.5641 28.3998 27.5593C28.5408 27.5557 28.6831 27.5449 28.8 27.452C28.9736 27.3146 29.0386 27.1325 28.9723 26.9239C28.8928 26.678 28.6951 26.5743 28.4492 26.5719Z" fill="#434343"/>
<path d="M5.88811 2.42217C5.42888 2.41734 5.20469 2.78025 5.38187 3.14677C5.84472 4.10046 6.32082 5.04691 6.80295 5.99216C6.94758 6.2767 7.21517 6.35868 7.46587 6.23088C7.71176 6.10549 7.80818 5.83542 7.67078 5.55571C7.20432 4.60323 6.72581 3.65677 6.2485 2.71032C6.1581 2.52827 6.01226 2.41976 5.88811 2.42217Z" fill="#434343"/>
<path d="M6.07727 8.30718C5.98687 8.66285 5.90009 9.01973 5.81571 9.37661C5.7904 9.48391 5.84223 9.5659 5.93745 9.5876C6.03026 9.6093 6.11584 9.55987 6.14235 9.45498C6.23155 9.09931 6.31713 8.74243 6.40391 8.38555C6.42078 8.31803 6.40632 8.25654 6.37257 8.22881C6.25204 8.12512 6.11222 8.17094 6.07727 8.30718Z" fill="#434343"/>
<path d="M8.55652 8.30718C8.46612 8.66285 8.37933 9.01973 8.29496 9.37661C8.26965 9.48391 8.32148 9.5659 8.4167 9.5876C8.50951 9.6093 8.59509 9.55987 8.6216 9.45498C8.7108 9.09931 8.79637 8.74243 8.88316 8.38555C8.90003 8.31803 8.88557 8.25654 8.85182 8.22881C8.73249 8.12512 8.59147 8.17094 8.55652 8.30718Z" fill="#434343"/>
<path d="M6.97389 10.2024C6.85336 10.0988 6.71354 10.1446 6.67859 10.2808C6.58819 10.6365 6.5014 10.9934 6.41703 11.3502C6.39172 11.4575 6.44355 11.5395 6.53877 11.5612C6.63158 11.5829 6.71716 11.5335 6.74367 11.4286C6.83287 11.0729 6.91844 10.7161 7.00523 10.3592C7.0221 10.2917 7.00764 10.2302 6.97389 10.2024Z" fill="#434343"/>
<path d="M9.47375 10.282C9.38335 10.6377 9.29657 10.9946 9.2122 11.3515C9.18689 11.4588 9.23871 11.5408 9.33393 11.5625C9.42674 11.5842 9.51232 11.5347 9.53884 11.4298C9.62803 11.0742 9.71361 10.7173 9.80039 10.3604C9.81727 10.2929 9.8028 10.2314 9.76906 10.2037C9.64973 10.1 9.50871 10.1458 9.47375 10.282Z" fill="#434343"/>
<path d="M12.8968 10.9922C12.8064 11.3479 12.7197 11.7048 12.6353 12.0617C12.61 12.169 12.6618 12.251 12.757 12.2727C12.8498 12.2944 12.9354 12.2449 12.9619 12.14C13.0511 11.7844 13.1367 11.4275 13.2235 11.0706C13.2404 11.0031 13.2259 10.9416 13.1922 10.9139C13.0728 10.8102 12.9318 10.856 12.8968 10.9922Z" fill="#434343"/>
<path d="M11.7772 8.30718C11.6868 8.66285 11.6 9.01973 11.5157 9.37661C11.4904 9.48391 11.5422 9.5659 11.6374 9.5876C11.7302 9.6093 11.8158 9.55987 11.8423 9.45498C11.9315 9.09931 12.0171 8.74243 12.1039 8.38555C12.1207 8.31803 12.1063 8.25654 12.0725 8.22881C11.952 8.12512 11.8122 8.17094 11.7772 8.30718Z" fill="#434343"/>
<path d="M6.67859 13.2142C6.58819 13.5698 6.5014 13.9267 6.41703 14.2836C6.39172 14.3909 6.44355 14.4729 6.53877 14.4946C6.63158 14.5163 6.71716 14.4669 6.74367 14.362C6.83287 14.0063 6.91844 13.6494 7.00523 13.2925C7.0221 13.225 7.00764 13.1635 6.97389 13.1358C6.85336 13.0321 6.71354 13.0779 6.67859 13.2142Z" fill="#434343"/>
<path d="M22.4671 8.03472C22.4334 8.06124 22.4189 8.12273 22.4358 8.19146C22.5214 8.54834 22.6069 8.90521 22.6973 9.26089C22.7239 9.36578 22.8094 9.41521 22.9022 9.39351C22.9975 9.3706 23.0493 9.28982 23.024 9.18252C22.9396 8.82564 22.854 8.46876 22.7624 8.11309C22.7287 7.97685 22.5877 7.93103 22.4671 8.03472Z" fill="#434343"/>
<path d="M19.9879 8.03472C19.9541 8.06124 19.9397 8.12273 19.9565 8.19146C20.0421 8.54834 20.1277 8.90521 20.2181 9.26089C20.2446 9.36578 20.3302 9.41521 20.423 9.39351C20.5182 9.3706 20.57 9.28982 20.5447 9.18252C20.4604 8.82564 20.3748 8.46876 20.2832 8.11309C20.2494 7.97685 20.1084 7.93103 19.9879 8.03472Z" fill="#434343"/>
<path d="M22.4227 11.1562C22.3383 10.7993 22.2527 10.4424 22.1611 10.0867C22.1262 9.95048 21.9863 9.90466 21.8658 10.0084C21.8321 10.0349 21.8176 10.0964 21.8345 10.1651C21.92 10.522 22.0056 10.8788 22.096 11.2345C22.1225 11.3394 22.2081 11.3888 22.3009 11.3671C22.3961 11.3442 22.448 11.2635 22.4227 11.1562Z" fill="#434343"/>
<path d="M19.0706 10.0094C19.0369 10.036 19.0224 10.0975 19.0393 10.1662C19.1249 10.5231 19.2105 10.8799 19.3009 11.2356C19.3274 11.3405 19.4129 11.3899 19.5058 11.3682C19.601 11.3453 19.6528 11.2645 19.6275 11.1572C19.5431 10.8004 19.4575 10.4435 19.3659 10.0878C19.3322 9.95037 19.1912 9.90455 19.0706 10.0094Z" fill="#434343"/>
<path d="M15.6475 10.7196C15.6138 10.7461 15.5993 10.8076 15.6162 10.8763C15.7018 11.2332 15.7874 11.5901 15.8778 11.9458C15.9043 12.0507 15.9898 12.1001 16.0827 12.0784C16.1779 12.0555 16.2297 11.9747 16.2044 11.8674C16.12 11.5105 16.0344 11.1536 15.9428 10.798C15.9079 10.6605 15.7681 10.6159 15.6475 10.7196Z" fill="#434343"/>
<path d="M16.7684 8.03472C16.7346 8.06124 16.7202 8.12273 16.7371 8.19146C16.8226 8.54834 16.9082 8.90521 16.9986 9.26089C17.0251 9.36578 17.1107 9.41521 17.2035 9.39351C17.2987 9.3706 17.3506 9.28982 17.3252 9.18252C17.2409 8.82564 17.1553 8.46876 17.0637 8.11309C17.0287 7.97685 16.8889 7.93103 16.7684 8.03472Z" fill="#434343"/>
<path d="M21.867 12.9417C21.8333 12.9682 21.8188 13.0297 21.8357 13.0984C21.9213 13.4553 22.0068 13.8122 22.0972 14.1679C22.1238 14.2728 22.2093 14.3222 22.3021 14.3005C22.3974 14.2776 22.4492 14.1968 22.4239 14.0895C22.3395 13.7326 22.2539 13.3757 22.1623 13.0201C22.1274 12.8838 21.9876 12.838 21.867 12.9417Z" fill="#434343"/>
<path d="M7.72243 2.42221C7.35481 2.42342 7.13785 2.78994 7.31504 3.15405C7.77547 4.0993 8.24916 5.03852 8.72526 5.97532C8.87472 6.2683 9.12543 6.35632 9.37975 6.23816C9.64251 6.11639 9.74617 5.8427 9.60153 5.54852C9.13386 4.59604 8.65535 3.64838 8.17684 2.70072C8.08524 2.51987 7.93337 2.4186 7.72243 2.42221Z" fill="#434343"/>
<path d="M10.0306 2.59216C9.86904 2.40287 9.66294 2.37514 9.44598 2.4728C9.22902 2.57046 9.13621 2.80918 9.20853 3.04187C9.23384 3.12265 9.26638 3.20102 9.30375 3.27577C9.73525 4.14145 10.168 5.00712 10.6019 5.87158C10.6477 5.96321 10.6971 6.05967 10.767 6.13201C10.9092 6.27669 11.0828 6.33094 11.2817 6.24896C11.4866 6.16577 11.5866 6.00903 11.6095 5.76066C11.5722 5.66662 11.5336 5.54002 11.4757 5.42428C11.0454 4.55861 10.6127 3.69414 10.1788 2.82968C10.1366 2.74769 10.0908 2.66329 10.0306 2.59216Z" fill="#434343"/>
<path d="M28.2865 14.0702C27.3235 14.5356 26.3689 15.0178 25.4167 15.5049C25.1394 15.6472 25.0551 15.9269 25.1804 16.1717C25.3058 16.4152 25.5782 16.5068 25.8602 16.3682C26.8112 15.9004 27.7586 15.4241 28.7036 14.9467C28.882 14.8563 28.9929 14.7092 28.9904 14.497C28.9868 14.1365 28.6313 13.9038 28.2865 14.0702Z" fill="#434343"/>
<path d="M28.2237 12.1676C27.2956 12.6209 26.3723 13.0839 25.4515 13.5493C25.1562 13.6988 25.0549 13.9725 25.1767 14.2269C25.2996 14.4825 25.5805 14.5765 25.8758 14.4307C26.8183 13.9665 27.7573 13.4926 28.695 13.0188C28.8734 12.9284 28.9879 12.7873 28.9927 12.5751C28.9963 12.1833 28.6191 11.9747 28.2237 12.1676Z" fill="#434343"/>
<path d="M28.2829 21.8083C27.3199 22.2737 26.3641 22.7535 25.4107 23.237C25.1551 23.3672 25.0623 23.6566 25.1684 23.8857C25.2805 24.1292 25.571 24.2437 25.8397 24.1123C26.8004 23.6421 27.755 23.1598 28.7084 22.6764C28.8856 22.5859 28.9989 22.4376 28.9929 22.2242C28.9832 21.865 28.6289 21.6407 28.2829 21.8083Z" fill="#434343"/>
<path d="M13.6455 2.43549C13.455 2.39691 13.2863 2.4379 13.1609 2.58981C13.0054 2.7791 13.0235 2.98286 13.1296 3.19385C13.5888 4.10775 14.042 5.02286 14.5012 5.93676C14.5422 6.01874 14.5977 6.10193 14.6664 6.16222C14.811 6.29122 14.981 6.32739 15.1642 6.24179C15.351 6.15498 15.4583 6.01392 15.4607 5.78243C15.4715 5.70406 15.4354 5.61484 15.3932 5.53165C14.9279 4.59967 14.4603 3.66889 13.9926 2.73811C13.9191 2.59102 13.819 2.47045 13.6455 2.43549Z" fill="#434343"/>
<path d="M28.7938 19.9106C28.5925 19.7659 28.39 19.8105 28.1839 19.9142C27.2956 20.3603 26.4036 20.8015 25.5153 21.2476C25.4237 21.2935 25.3345 21.3513 25.261 21.4225C25.1079 21.5708 25.0959 21.7649 25.1706 21.9457C25.2477 22.1326 25.4153 22.2242 25.6322 22.2387C25.7467 22.2122 25.8685 22.17 25.9878 22.1097C26.6821 21.7588 27.38 21.414 28.0766 21.0656C28.3032 20.9523 28.5371 20.851 28.7504 20.7159C29.0614 20.5182 29.0783 20.1155 28.7938 19.9106Z" fill="#434343"/>
<path d="M25.8626 26.0366C26.8148 25.5688 27.7621 25.0913 28.7083 24.6115C28.8855 24.5223 28.9988 24.374 28.994 24.1606C28.9867 23.7892 28.6227 23.5698 28.2599 23.747C27.315 24.2076 26.3772 24.6814 25.4395 25.1564C25.1574 25.2999 25.0574 25.5688 25.1683 25.8147C25.2804 26.0679 25.5769 26.1777 25.8626 26.0366Z" fill="#434343"/>
<path d="M19.4129 2.42342C18.9585 2.4174 18.7331 2.7803 18.9115 3.14562C19.3755 4.09931 19.8516 5.04576 20.3326 5.9898C20.4784 6.27675 20.7412 6.35873 20.9931 6.23093C21.2402 6.10554 21.3366 5.83909 21.198 5.55696C20.7315 4.60569 20.2542 3.65924 19.7781 2.71158C19.6877 2.53194 19.5443 2.41981 19.4129 2.42342Z" fill="#434343"/>
<path d="M17.5109 2.43546C17.3216 2.39809 17.1517 2.43426 17.0275 2.58858C16.8732 2.78028 16.8901 2.98766 16.9938 3.19624C17.4494 4.11134 17.9062 5.02645 18.3654 5.94035C18.3992 6.00666 18.4414 6.07177 18.4932 6.12481C18.6342 6.27432 18.8042 6.32857 19.0042 6.25262C19.2104 6.17304 19.3188 6.02474 19.3212 5.76673C19.3188 5.70765 19.3008 5.61843 19.2574 5.53042C18.7909 4.59964 18.3269 3.66766 17.8604 2.73809C17.7857 2.59341 17.6844 2.47043 17.5109 2.43546Z" fill="#434343"/>
<path d="M15.445 2.4223C15.0786 2.42712 14.8701 2.79123 15.0485 3.15775C15.5089 4.10179 15.9802 5.04222 16.4563 5.97902C16.6045 6.2708 16.8613 6.3576 17.1132 6.23704C17.3771 6.11044 17.4724 5.84037 17.3253 5.54378C16.8613 4.60094 16.3876 3.66172 15.9163 2.72371C15.8199 2.53322 15.6716 2.41386 15.445 2.4223Z" fill="#434343"/>
<path d="M11.9327 2.55971C11.7676 2.39574 11.5639 2.37163 11.3638 2.48376C11.1661 2.59468 11.0371 2.78879 11.1324 3.0034C11.6012 4.05716 12.1207 5.08801 12.6788 6.09836C12.7836 6.28765 12.991 6.33226 13.2019 6.25389C13.4068 6.17793 13.5189 6.02722 13.5309 5.84517C13.5346 5.66914 13.4707 5.55098 13.4116 5.43403C12.9777 4.55992 12.5414 3.68702 12.1038 2.81532C12.058 2.72489 12.005 2.63085 11.9327 2.55971Z" fill="#434343"/>
<path d="M25.1815 18.1068C25.3032 18.3371 25.5732 18.4384 25.8372 18.3094C26.7978 17.8404 27.7536 17.3605 28.707 16.8782C28.8842 16.789 28.9963 16.6395 28.9915 16.4273C28.9843 16.0692 28.6263 15.8377 28.2816 16.0053C27.3197 16.4707 26.3663 16.953 25.4153 17.4401C25.1369 17.5823 25.0549 17.8657 25.1815 18.1068Z" fill="#434343"/>
<path d="M28.5081 10.1469C28.3743 10.1433 28.255 10.2108 28.1369 10.2686C27.2715 10.7003 26.406 11.1319 25.543 11.5671C25.443 11.6178 25.3405 11.6745 25.2634 11.7528C25.1079 11.9084 25.0922 12.1037 25.1802 12.299C25.261 12.4786 25.4165 12.5582 25.6383 12.5751C25.7274 12.5425 25.8468 12.51 25.954 12.4569C26.846 12.0145 27.7355 11.5684 28.625 11.121C28.6998 11.0837 28.7781 11.0415 28.8372 10.9848C28.9866 10.8425 29.0373 10.6665 28.9613 10.4712C28.8818 10.2674 28.7275 10.1529 28.5081 10.1469Z" fill="#434343"/>
<path d="M23.341 5.81018C23.3374 5.6872 23.3036 5.5811 23.2518 5.47862C23.0987 5.1772 22.9493 4.87337 22.7986 4.57196C22.4912 3.95948 22.1911 3.34338 21.8729 2.73572C21.6776 2.36317 21.2449 2.30409 21.0256 2.60913C20.8749 2.81891 20.9291 3.03111 21.0376 3.24572C21.4812 4.12586 21.9211 5.00962 22.3635 5.89096C22.4057 5.97415 22.449 6.06217 22.5105 6.12968C22.6503 6.28039 22.8287 6.33103 23.024 6.25628C23.2265 6.17791 23.3374 6.02479 23.341 5.81018Z" fill="#434343"/>
<path d="M28.8637 18.0417C28.6648 17.8295 28.4298 17.8573 28.1923 17.9754C27.2944 18.4239 26.3976 18.8724 25.5009 19.3222C25.4261 19.3595 25.3538 19.4066 25.2899 19.4608C25.1164 19.6079 25.0935 19.8044 25.1658 19.9998C25.2369 20.1902 25.396 20.2915 25.6636 20.2951C25.7166 20.2783 25.8275 20.2541 25.9275 20.2071C26.1903 20.0829 26.4482 19.9479 26.7074 19.8177C27.3534 19.4946 28.0019 19.1763 28.6443 18.8483C29.0144 18.659 29.1084 18.3022 28.8637 18.0417Z" fill="#434343"/>
<path d="M23.4229 17.5306C23.2578 17.4643 23.2385 17.3533 23.353 17.2123C23.5362 16.9856 23.5664 16.7312 23.4362 16.4732C23.2976 16.1995 23.0637 16.0765 22.7552 16.085C22.5129 16.091 22.2333 16.1561 22.038 16.0596C21.8416 15.962 21.8102 15.6521 21.6885 15.4448C21.6812 15.4327 21.674 15.4206 21.668 15.4074C21.075 14.1945 20.1396 13.4265 18.8102 13.119C17.8073 12.8875 16.7961 12.7549 15.7704 12.6958C14.1251 12.6006 12.4931 12.6862 10.8768 13.0093C10.2343 13.1383 9.60394 13.3131 9.03624 13.6567C8.32148 14.0896 7.8731 14.7539 7.49463 15.4761C7.38977 15.6762 7.33312 15.956 7.16678 16.056C6.99924 16.1585 6.72443 16.0934 6.49663 16.085C6.18565 16.0717 5.93133 16.1657 5.77826 16.4467C5.62518 16.7276 5.66616 16.9928 5.86865 17.2388C5.96026 17.3509 5.93495 17.4474 5.80598 17.5161C5.70594 17.5704 5.60951 17.6306 5.50826 17.6825C4.95261 17.9634 4.68744 18.436 4.57896 19.0316C4.4524 19.7201 4.38611 20.4145 4.34272 21.1114C4.25835 22.4738 4.38973 23.8145 4.75614 25.1311C4.82485 25.3795 4.96828 25.5664 5.22381 25.6423C5.31903 25.67 5.34313 25.7219 5.36121 25.8183C5.42148 26.1403 5.70232 26.3645 6.03137 26.3657C6.83773 26.3681 7.64409 26.3669 8.45045 26.3657C8.70959 26.3657 8.96633 26.2488 9.01454 26.0209C9.09409 25.6459 9.35203 25.6713 9.60876 25.6387C9.65818 25.6327 9.7076 25.6242 9.75461 25.611C10.561 25.3795 11.3914 25.3083 12.2231 25.2565C13.5405 25.1745 14.8603 25.1347 16.179 25.2119C16.9901 25.2589 17.8013 25.2927 18.6065 25.4169C19.0765 25.4892 19.5261 25.6749 20.0083 25.6797C20.083 25.6809 20.0734 25.7291 20.0842 25.7774C20.1806 26.1788 20.4181 26.3657 20.8279 26.3669C21.2064 26.3681 21.5848 26.3669 21.9621 26.3669C22.355 26.3669 22.7467 26.3657 23.1397 26.3681C23.2566 26.3693 23.3639 26.3476 23.4699 26.2982C23.7339 26.174 23.7399 25.8364 23.9087 25.7014C24.1184 25.5326 24.3643 25.4289 24.4438 25.1432C24.6801 24.2896 24.8332 23.4203 24.8693 22.5365C24.9127 21.5008 24.8295 20.4712 24.7018 19.4428C24.5957 18.5795 24.2823 17.8778 23.4229 17.5306ZM9.11217 19.9202C9.07722 20.0287 8.99043 20.0601 8.88075 20.0721C8.3709 20.1264 7.85984 20.1613 7.19571 20.1867C7.02697 20.1842 6.70876 20.2096 6.38694 20.1625C5.68545 20.0601 5.62036 19.4789 5.73968 19.0099C5.77584 18.8701 5.90361 18.8411 6.02535 18.8267C6.30257 18.7965 6.57979 18.7953 6.8522 18.8664C7.50427 19.0364 8.15997 19.1944 8.7554 19.5272C8.83615 19.5718 8.91209 19.6248 8.99043 19.6742C9.08204 19.7321 9.14954 19.8045 9.11217 19.9202ZM19.2067 23.2129C18.9633 23.4528 18.6619 23.5625 18.322 23.583C17.089 23.6566 15.8547 23.6035 14.6217 23.6228C13.3814 23.6047 12.1399 23.6566 10.8997 23.583C10.5923 23.5649 10.3151 23.4649 10.0752 23.2732C9.70519 22.9754 9.71724 22.6366 10.1114 22.3689C10.4332 22.1495 10.8008 22.0325 11.1757 21.9554C12.7028 21.6407 14.2456 21.4707 15.8029 21.6178C16.778 21.7094 17.7555 21.8228 18.6872 22.1591C18.8548 22.2194 19.0187 22.2893 19.1585 22.4027C19.4502 22.6366 19.4719 22.9525 19.2067 23.2129ZM16.0753 17.0977C15.5835 17.0845 15.0906 17.0953 14.5988 17.0953C12.7366 17.0905 10.8756 17.1532 9.01575 17.2376C8.47576 17.2617 8.19854 17.0772 8.52638 16.4949C8.61317 16.3406 8.69392 16.1814 8.76745 16.0199C9.18569 15.1023 9.91732 14.614 10.8864 14.4127C12.4015 14.0968 13.9298 13.9847 15.4751 14.0582C16.4875 14.1065 17.4867 14.2246 18.4763 14.4537C19.3429 14.6538 19.9878 15.1204 20.3807 15.9246C20.5085 16.1862 20.6471 16.4431 20.7676 16.7071C20.9038 17.0073 20.7483 17.2436 20.4181 17.234C18.9693 17.1906 17.5229 17.1375 16.0753 17.0977ZM22.5732 20.1891C22.3333 20.2096 22.0886 20.1927 21.8464 20.1927C21.3413 20.1577 20.8363 20.1336 20.3337 20.0745C20.2252 20.0613 20.1131 20.0709 20.0794 19.9347C20.0456 19.7996 20.13 19.7237 20.2288 19.6574C20.6893 19.3499 21.2064 19.1787 21.7355 19.0352C22.2092 18.9062 22.6817 18.7821 23.1819 18.817C23.3892 18.8315 23.4808 18.9304 23.494 19.1184C23.5495 19.8647 23.3386 20.1228 22.5732 20.1891Z" fill="#434343"/>
</svg>
