<svg width="33" height="33" viewBox="0 0 33 33" fill="none" xmlns="http://www.w3.org/2000/svg">
<rect x="0.5" y="0.5" width="32" height="32" rx="4.5" stroke="#9C9B9B"/>
<path d="M23.1042 14.8901C23.1042 14.8901 22.6517 20.5026 22.3892 22.8668C22.2642 23.996 21.5667 24.6576 20.4242 24.6785C18.25 24.7176 16.0733 24.7201 13.9 24.6743C12.8008 24.6518 12.115 23.9818 11.9925 22.8726C11.7283 20.4876 11.2783 14.8901 11.2783 14.8901" stroke="#9C9B9B" stroke-width="1.5" stroke-linecap="round" stroke-linejoin="round"/>
<path d="M24.2567 12.1996H10.125" stroke="#9C9B9B" stroke-width="1.5" stroke-linecap="round" stroke-linejoin="round"/>
<path d="M21.5335 12.1997C20.8793 12.1997 20.316 11.7372 20.1877 11.0964L19.9852 10.0831C19.8602 9.61557 19.4368 9.29224 18.9543 9.29224H15.4268C14.9443 9.29224 14.521 9.61557 14.396 10.0831L14.1935 11.0964C14.0652 11.7372 13.5018 12.1997 12.8477 12.1997" stroke="#9C9B9B" stroke-width="1.5" stroke-linecap="round" stroke-linejoin="round"/>
</svg>
