<svg width="20" height="20" viewBox="0 0 20 20" fill="none" xmlns="http://www.w3.org/2000/svg">
<path d="M10.7297 19.9351C10.4018 19.8468 10.1287 19.6914 9.8639 19.4519C9.54029 19.1578 9.38899 18.9016 9.20406 18.3302C8.68713 16.7421 8.01048 15.612 6.93458 14.5364C6.63618 14.2423 5.36695 13.1626 5.18203 13.0492C5.14841 13.0324 5.04754 13.0744 4.93407 13.1542C4.49698 13.4525 4.44655 13.4609 3.01341 13.4777C2.16446 13.4861 1.64332 13.4735 1.49202 13.4441C0.827982 13.3055 0.285827 12.8055 0.084095 12.1459C0.00424273 11.8896 3.99785e-05 11.7342 3.99785e-05 7.16738C3.99785e-05 2.07123 -0.00836551 2.27709 0.218583 1.83596C0.432923 1.41583 0.954065 1.01251 1.42898 0.907477C1.78201 0.823451 3.89179 0.810847 4.25322 0.88647C4.53061 0.945288 4.85422 1.09233 5.04334 1.25198L5.18623 1.37382L5.67375 1.05032C6.27475 0.646997 6.64879 0.45794 7.19935 0.273083C7.99367 0.00840259 8.09874 0 11.4147 0C13.3144 0 14.4911 0.0168051 14.6508 0.0462141C15.6427 0.218467 16.5715 0.810847 17.1094 1.60489C17.2902 1.86957 18.6518 4.5836 18.9755 5.32722C19.6059 6.76406 19.9463 8.28493 19.9925 9.87721C20.0219 10.8351 19.9715 11.146 19.7151 11.7006C19.3327 12.5156 18.6981 13.066 17.7987 13.3643C17.5087 13.4609 17.4835 13.4651 15.1846 13.4777C13.9069 13.4861 12.8605 13.4987 12.8605 13.5071C12.8605 13.5197 13.0034 13.8894 13.1757 14.3306C13.6422 15.5279 13.68 15.7002 13.68 16.6371C13.68 17.3555 13.6716 17.4437 13.5623 17.8344C13.39 18.4604 13.0706 19.0738 12.7596 19.3889C12.2385 19.9015 11.4273 20.1199 10.7297 19.9351ZM11.5576 18.3218C11.6963 18.221 11.8686 17.9101 12.0073 17.4983C12.0998 17.2084 12.1166 17.0866 12.1208 16.6371C12.125 15.9985 12.125 15.9901 11.4315 14.2423C11.1541 13.5365 10.9146 12.8727 10.8978 12.7677C10.8684 12.5156 10.9902 12.2383 11.2046 12.0745L11.3601 11.9526L14.2852 11.9316C16.8657 11.9106 17.2313 11.9022 17.3826 11.8392C17.7861 11.6796 18.1055 11.3981 18.2736 11.0452C18.4333 10.7133 18.4627 10.4318 18.4123 9.67555C18.3324 8.5454 18.1349 7.57491 17.7735 6.57921C17.5844 6.06245 16.0419 2.87788 15.815 2.52917C15.5586 2.14265 15.1762 1.85697 14.6676 1.67211L14.3945 1.57548H11.3895H8.38453L7.97686 1.68891C7.45152 1.83176 7.09428 2.01661 6.3588 2.50816L5.75781 2.91149V7.18419V11.4569L6.73705 12.2593C8.05251 13.3349 8.72915 14.0365 9.36797 14.9986C9.91013 15.801 10.3178 16.6455 10.6456 17.6412C10.7507 17.9437 10.8642 18.2294 10.9062 18.2756C11.0617 18.4478 11.3517 18.4688 11.5576 18.3218ZM3.95063 11.8854C4.2154 11.793 4.20279 11.9989 4.20279 7.17159C4.20279 4.07524 4.19018 2.74764 4.15656 2.65101C4.13134 2.57959 4.07671 2.49976 4.03468 2.47876C3.98845 2.45355 3.49673 2.43674 2.86211 2.43674C1.82403 2.43674 1.76099 2.44094 1.68114 2.52077C1.63491 2.56698 1.58868 2.64681 1.57607 2.69722C1.56346 2.75184 1.55926 4.80206 1.56346 7.25141C1.57607 11.5283 1.58027 11.7174 1.65592 11.7972C1.69795 11.8476 1.7736 11.8938 1.82403 11.9022C2.03837 11.9442 3.82034 11.9274 3.95063 11.8854Z" fill="#DD4200"/>
</svg>
