<svg width="25" height="24" viewBox="0 0 25 24" fill="none" xmlns="http://www.w3.org/2000/svg">
<path fill-rule="evenodd" clip-rule="evenodd" d="M14.8828 22.6872C14.6852 23.2738 14.4397 23.7168 14.2421 23.8604C13.9487 24.0699 13.5355 24.04 13.3139 23.7946C13.254 23.7287 13.0924 23.3217 12.9426 22.8907C12.4756 21.472 11.8947 20.2688 11.1222 19.1255C10.212 17.7547 9.24796 16.755 7.37366 15.2225L5.97842 14.0792V7.99139V1.90357L6.83473 1.32891C7.88266 0.628536 8.39165 0.36515 9.14017 0.161625L9.72102 0H14.0026H18.2841L18.6733 0.13768C19.3979 0.401066 19.9428 0.808119 20.3081 1.35884C20.6314 1.85568 22.8291 6.39311 23.0986 7.1294C23.6135 8.54809 23.895 9.93087 24.0088 11.5411C24.0806 12.6186 24.0387 13.0197 23.8111 13.4926C23.5716 13.9954 23.1165 14.3965 22.5417 14.6239C22.3261 14.7137 21.8051 14.7257 18.1284 14.7556L13.9606 14.7856L13.7391 14.9592C13.4337 15.1926 13.26 15.5877 13.3019 15.9469C13.3259 16.0965 13.6672 17.0423 14.0624 18.048C15.0505 20.5382 15.0505 20.5501 15.0445 21.46C15.0385 22.1005 15.0145 22.2741 14.8828 22.6872ZM3.53611 14.6408C3.49848 14.6619 3.45463 14.6719 3.40352 14.6898C3.21788 14.7497 0.678907 14.7736 0.373511 14.7137C0.301653 14.7018 0.193867 14.6359 0.133985 14.5641C0.0261982 14.4503 0.02021 14.181 0.00224556 8.08717C-0.0037426 4.59729 0.00224556 1.6761 0.02021 1.59828C0.0381745 1.52645 0.104044 1.41271 0.169914 1.34686C0.283689 1.23313 0.373511 1.22714 1.85259 1.22714C2.7568 1.22714 3.45741 1.25109 3.52328 1.287C3.58316 1.31693 3.66101 1.43067 3.69694 1.53243C3.74484 1.67011 3.76281 3.56171 3.76281 7.97343C3.76281 13.9196 3.77623 14.5059 3.53611 14.6408Z" fill="#DD4200"/>
</svg>
