<svg width="20" height="18" viewBox="0 0 20 18" fill="none" xmlns="http://www.w3.org/2000/svg">
<g clip-path="url(#clip0_5579_7430)">
<path d="M16.9068 5.42641C16.8123 5.65609 16.734 5.89438 16.633 6.16999C16.9068 5.99486 17.1415 5.84844 17.3696 5.69628C17.4511 5.64173 17.5033 5.6446 17.5815 5.69915C17.8129 5.85418 18.0508 6.0006 18.2888 6.15276C18.2953 6.13267 18.2986 6.12692 18.2986 6.12405C18.2432 5.96615 18.1845 5.80825 18.1291 5.65035C18.0867 5.53551 17.9889 5.40057 18.0248 5.30583C18.0606 5.21109 18.2269 5.15367 18.3377 5.07903C18.4941 4.97567 18.6506 4.87519 18.8429 4.75174C18.4974 4.75174 18.204 4.74886 17.9107 4.75461C17.8259 4.75461 17.7836 4.73451 17.7575 4.65699C17.6727 4.40722 17.575 4.16319 17.4707 3.88184C17.3696 4.15458 17.2784 4.39287 17.1969 4.63403C17.1675 4.72016 17.1252 4.75748 17.0143 4.75461C16.7275 4.74599 16.4439 4.75174 16.1571 4.75174C16.3722 4.92399 16.5939 5.07328 16.8253 5.21109C16.9263 5.27138 16.9492 5.32593 16.9068 5.42641Z" fill="white"/>
<path d="M13.7483 2.64443C13.6505 2.87698 13.5756 3.11527 13.4745 3.38801C13.7483 3.21288 13.9863 3.06646 14.2177 2.91143C14.2927 2.85975 14.3415 2.86262 14.4165 2.91143C14.6479 3.06646 14.8859 3.21288 15.1597 3.38801C15.0554 3.10952 14.9706 2.86836 14.8761 2.63007C14.8402 2.54107 14.8598 2.49227 14.9478 2.44059C15.1792 2.29991 15.4074 2.15062 15.6355 2.00421C15.6323 1.99559 15.6323 1.98411 15.629 1.9755C15.3422 1.9755 15.0554 1.97262 14.7685 1.97837C14.6675 1.98124 14.6251 1.94966 14.5958 1.8664C14.511 1.6195 14.4165 1.37259 14.3122 1.09985C14.2209 1.34676 14.1297 1.56208 14.0645 1.78314C14.0189 1.9353 13.9439 1.99272 13.7581 1.98124C13.5039 1.96401 13.2464 1.97837 12.9432 1.97837C13.2105 2.15062 13.4322 2.29704 13.6603 2.43485C13.7646 2.4894 13.7907 2.5382 13.7483 2.64443Z" fill="white"/>
<path d="M5.12059 2.63289C5.02606 2.87118 4.94132 3.11234 4.84027 3.38795C5.10755 3.21856 5.33571 3.07501 5.56061 2.92285C5.64862 2.86256 5.70729 2.85395 5.80181 2.91998C6.02346 3.07501 6.25814 3.21569 6.52867 3.38508C6.42763 3.10946 6.34614 2.87118 6.25162 2.63863C6.21576 2.54676 6.22228 2.49508 6.32333 2.43479C6.55801 2.29698 6.78291 2.14482 7.00781 1.9984C7.00455 1.98979 7.00129 1.98118 6.99803 1.97257C6.72098 1.97257 6.44392 1.96682 6.17013 1.97544C6.05279 1.97831 5.99412 1.9496 5.96153 1.84337C5.8833 1.60221 5.78552 1.36392 5.68773 1.09692C5.58669 1.36966 5.49216 1.60795 5.41068 1.85199C5.37808 1.95247 5.32593 1.97831 5.21185 1.97544C4.93154 1.96682 4.65123 1.97257 4.32202 1.97257C4.59256 2.14482 4.82072 2.29698 5.0554 2.43766C5.14014 2.49508 5.15318 2.54389 5.12059 2.63289Z" fill="white"/>
<path d="M1.94586 5.44651C1.84807 5.67331 1.7731 5.90586 1.67858 6.16999C1.9426 6.0006 2.18054 5.85705 2.4087 5.70202C2.49344 5.6446 2.54885 5.64173 2.6336 5.69915C2.8585 5.85131 3.09318 5.99486 3.32134 6.14128C3.26267 5.89151 3.18771 5.65896 3.08992 5.43215C3.04429 5.32306 3.07363 5.26851 3.17793 5.20822C3.40609 5.07328 3.62447 4.92399 3.84938 4.78045C3.84612 4.77183 3.8396 4.76035 3.83634 4.75174C3.54951 4.75174 3.26267 4.74886 2.97584 4.75461C2.8748 4.75748 2.82917 4.72877 2.80309 4.64551C2.71835 4.39861 2.62382 4.15458 2.52604 3.88184C2.42499 4.15171 2.33047 4.38712 2.25224 4.62828C2.21965 4.7259 2.17402 4.75748 2.05668 4.75461C1.7731 4.74599 1.48953 4.75174 1.15381 4.75174C1.41456 4.92112 1.62969 5.06754 1.85459 5.19961C1.96215 5.26851 1.99475 5.3288 1.94586 5.44651Z" fill="white"/>
<path d="M18.1193 12.825C18.354 12.6843 18.5822 12.5321 18.8494 12.3599C18.5072 12.3599 18.2138 12.357 17.9238 12.3628C17.8325 12.3656 17.7901 12.3427 17.7608 12.2594C17.6793 12.0125 17.5815 11.7685 17.4772 11.49C17.3762 11.7627 17.2849 12.0039 17.2002 12.2508C17.1708 12.3312 17.1317 12.3656 17.0274 12.3628C16.7373 12.357 16.4472 12.3599 16.105 12.3599C16.3788 12.535 16.6069 12.6872 16.8449 12.8307C16.9329 12.8853 16.9492 12.9312 16.9133 13.0231C16.8188 13.2585 16.7373 13.4997 16.6363 13.781C16.9101 13.6059 17.1447 13.4595 17.3729 13.3073C17.4511 13.2528 17.5065 13.2556 17.5848 13.3102C17.8162 13.4652 18.0541 13.6116 18.3247 13.7839C18.2236 13.5083 18.1389 13.2642 18.0411 13.0288C18.002 12.9283 18.0248 12.8795 18.1193 12.825Z" fill="white"/>
<path d="M3.16168 12.8221C3.39636 12.6814 3.62452 12.5293 3.89506 12.357C3.55933 12.357 3.27902 12.3513 2.99871 12.3599C2.87811 12.3628 2.82922 12.3283 2.79336 12.2278C2.71188 11.9867 2.61735 11.7512 2.51957 11.49C2.41853 11.7656 2.32074 12.0096 2.236 12.2565C2.20992 12.3369 2.16755 12.3628 2.07302 12.3599C1.78293 12.3541 1.48958 12.357 1.14734 12.357C1.41787 12.5293 1.64604 12.6843 1.88072 12.825C1.9785 12.8824 1.98828 12.937 1.95242 13.0288C1.8579 13.2671 1.77315 13.5054 1.67537 13.781C1.93939 13.6116 2.17081 13.471 2.39571 13.3188C2.49023 13.2528 2.55216 13.2528 2.64669 13.3188C2.86507 13.471 3.09649 13.6088 3.36377 13.7781C3.26272 13.4997 3.1845 13.2614 3.08997 13.0288C3.05086 12.9312 3.06716 12.8795 3.16168 12.8221Z" fill="white"/>
<path d="M14.9576 15.6067C15.1923 15.466 15.4205 15.3168 15.6845 15.1445C15.3422 15.1445 15.0521 15.1388 14.7588 15.1474C14.661 15.1502 14.6252 15.1187 14.5991 15.044C14.5111 14.7942 14.4165 14.5473 14.3155 14.2717C14.2112 14.5531 14.1199 14.8 14.0319 15.0526C14.0059 15.1244 13.97 15.1502 13.882 15.1502C13.5854 15.1445 13.2888 15.1474 12.9465 15.1474C13.1193 15.2593 13.2562 15.3455 13.3931 15.4345C13.5202 15.5177 13.7092 15.5838 13.7614 15.6957C13.8135 15.8106 13.6799 15.957 13.6441 16.0948C13.6049 16.2412 13.5072 16.3761 13.5104 16.534C13.7158 16.4049 13.9309 16.2843 14.1265 16.1436C14.2634 16.0431 14.3611 16.0345 14.5013 16.1407C14.6936 16.2843 14.912 16.4077 15.1173 16.5398C15.0554 16.2843 14.9772 16.046 14.8826 15.8134C14.8435 15.7101 14.8631 15.6613 14.9576 15.6067Z" fill="white"/>
<path d="M6.35267 15.5897C6.57757 15.4547 6.79596 15.3112 7.05346 15.1447C6.71773 15.1447 6.43742 15.1389 6.15385 15.1476C6.03977 15.1504 5.99087 15.1246 5.95828 15.0241C5.88005 14.7801 5.78227 14.5418 5.68123 14.269C5.5867 14.5274 5.4987 14.7485 5.42699 14.9724C5.38462 15.1074 5.31943 15.1562 5.15645 15.1476C4.88918 15.1332 4.6219 15.1447 4.31226 15.1447C4.49804 15.2624 4.64146 15.3543 4.78488 15.4461C4.90548 15.5237 5.07823 15.5839 5.13038 15.6902C5.18579 15.805 5.06193 15.9457 5.01956 16.0749C4.97067 16.2242 4.912 16.3706 4.84355 16.5601C5.11408 16.3878 5.34224 16.25 5.55737 16.1007C5.65189 16.0347 5.71382 16.0376 5.80834 16.1007C6.02673 16.2529 6.25815 16.3907 6.52216 16.5601C6.42438 16.2902 6.35267 16.0577 6.25489 15.8366C6.20274 15.716 6.23859 15.6557 6.35267 15.5897Z" fill="white"/>
<path d="M0.518253 9.97404C0.792047 9.80179 1.03325 9.6525 1.26467 9.49746C1.33964 9.44579 1.38853 9.44579 1.46349 9.49746C1.69492 9.65537 1.93611 9.80179 2.20665 9.97404C2.10561 9.70417 2.02412 9.46301 1.9296 9.22472C1.89374 9.13285 1.90352 9.08118 2.0013 9.02089C2.23598 8.88308 2.46089 8.72805 2.7249 8.55866C2.41199 8.55866 2.14472 8.55005 1.8807 8.56153C1.72425 8.57014 1.65906 8.52421 1.61995 8.39215C1.5515 8.16534 1.45698 7.94715 1.37223 7.7146C1.34941 7.7347 1.34289 7.73757 1.34289 7.74044C1.27445 7.92131 1.206 8.10218 1.14081 8.28018C1.03651 8.55866 1.03651 8.55866 0.710561 8.55866C0.488918 8.55866 0.267275 8.55866 0 8.55866C0.273794 8.73379 0.505215 8.88595 0.739896 9.03237C0.814863 9.0783 0.837679 9.11563 0.801825 9.19888C0.704042 9.44292 0.622555 9.68982 0.518253 9.97404Z" fill="white"/>
<path d="M19.2047 9.23911C19.159 9.13288 19.1884 9.07546 19.2927 9.0123C19.5208 8.87449 19.7425 8.7252 20.0032 8.55869C19.6708 8.55869 19.3872 8.55295 19.1036 8.56156C18.983 8.56443 18.9407 8.52711 18.9081 8.43237C18.8266 8.19408 18.7386 7.96153 18.6343 7.68018C18.5397 7.93569 18.442 8.1424 18.3865 8.36059C18.3409 8.52998 18.2497 8.57017 18.0639 8.56156C17.8161 8.54721 17.5619 8.55869 17.2686 8.55869C17.5228 8.72233 17.7314 8.86875 17.9563 8.99507C18.0802 9.06685 18.1062 9.13001 18.0541 9.25346C17.9596 9.4774 17.8846 9.70707 17.7868 9.9712C18.0573 9.79894 18.292 9.65252 18.5234 9.50036C18.6017 9.44869 18.6538 9.44007 18.7386 9.49749C18.9309 9.62956 19.1297 9.75301 19.3285 9.87646C19.3579 9.89368 19.3872 9.93388 19.4263 9.9023C19.4524 9.87933 19.4328 9.84775 19.4231 9.81904C19.3513 9.62668 19.2862 9.43146 19.2047 9.23911Z" fill="white"/>
<path d="M9.43941 1.59641C9.34489 1.82896 9.2634 2.06438 9.17865 2.30267C9.23733 2.33138 9.2797 2.29118 9.32207 2.26535C9.51438 2.1419 9.71321 2.02131 9.89899 1.89212C9.97396 1.84044 10.0229 1.84332 10.0978 1.89212C10.2803 2.01844 10.4727 2.13615 10.6617 2.25386C10.6976 2.27683 10.7367 2.33425 10.7856 2.29693C10.8247 2.27109 10.7856 2.22515 10.7725 2.18783C10.7041 2.00122 10.6421 1.81461 10.5639 1.63086C10.5183 1.52751 10.5378 1.46722 10.6454 1.40406C10.8768 1.26912 11.0952 1.11983 11.356 0.953319C11.0202 0.953319 10.7302 0.950448 10.4433 0.95619C10.3488 0.959061 10.3032 0.936093 10.2803 0.852835C10.238 0.712159 10.1826 0.574353 10.1272 0.433676C10.0848 0.32745 10.0652 0.215483 9.98374 0.103516C9.89247 0.350418 9.80121 0.574353 9.7295 0.804029C9.69365 0.915996 9.6415 0.961932 9.50134 0.953319C9.22755 0.941835 8.95049 0.950448 8.62781 0.950448C8.9016 1.12558 9.13628 1.27774 9.37422 1.42416C9.45571 1.47296 9.47527 1.51316 9.43941 1.59641Z" fill="white"/>
<path d="M10.691 16.5916C10.9094 16.4652 11.1147 16.3246 11.3624 16.1667C11.0854 16.1667 10.8572 16.1667 10.6323 16.1667C10.3259 16.1667 10.3259 16.1667 10.2314 15.9111C10.1597 15.7159 10.0847 15.5207 9.99999 15.291C9.9022 15.5551 9.80768 15.7733 9.74249 16.0001C9.70338 16.1322 9.63819 16.1781 9.48174 16.1695C9.21446 16.1552 8.94718 16.1667 8.63428 16.1667C8.89503 16.3332 9.11016 16.4796 9.33506 16.6088C9.45566 16.6777 9.47196 16.7437 9.42307 16.8586C9.32854 17.0882 9.25031 17.3208 9.16557 17.5533C9.42958 17.4299 9.65123 17.2547 9.89243 17.1055C9.97391 17.0538 10.0261 17.0538 10.1076 17.1055C10.3487 17.2576 10.5704 17.4299 10.8344 17.5533C10.7529 17.3265 10.6812 17.094 10.5802 16.8729C10.5182 16.7351 10.5606 16.6662 10.691 16.5916Z" fill="white"/>
<path d="M13.4943 16.5347C13.4977 16.5347 13.4977 16.5347 13.5011 16.5347C13.4977 16.5347 13.4943 16.5347 13.4908 16.5312L13.4943 16.5347Z" fill="white"/>
<path d="M13.5006 16.5347C13.504 16.5347 13.5075 16.5347 13.5109 16.5382C13.5109 16.5347 13.5109 16.5347 13.5109 16.5312C13.5109 16.5312 13.5075 16.5313 13.5075 16.5347C13.504 16.5313 13.504 16.5313 13.5006 16.5347Z" fill="white"/>
</g>
<defs>
<clipPath id="clip0_5579_7430">
<rect width="20" height="17.4468" fill="white" transform="translate(0 0.106445)"/>
</clipPath>
</defs>
</svg>
