<svg width="31" height="38" viewBox="0 0 31 38" fill="none" xmlns="http://www.w3.org/2000/svg">
<g clip-path="url(#clip0_1107_4493)">
<path d="M30.6251 15.7098C30.6251 7.0255 23.7702 0 15.3284 0C6.85495 0 0 7.0255 0 15.7098C0 17.7264 0.38083 19.3527 0.666453 20.3284C2.72928 27.3864 8.44174 31.0293 10.568 32.2653L15.2967 37.0465L20.0253 32.2653C22.1834 31.0293 27.8641 27.3864 29.9269 20.3284C30.2443 19.3201 30.6251 17.7264 30.6251 15.7098ZM3.8083 15.7098C3.8083 9.17218 8.94952 3.90306 15.3284 3.90306C21.7073 3.90306 26.8485 9.17218 26.8485 15.7098C26.8485 22.2474 21.6756 27.484 15.3284 27.484C8.98125 27.484 3.8083 22.2149 3.8083 15.7098Z" fill="#379417"/>
<path d="M10.5118 21.9541C10.0831 21.9541 9.65437 21.9541 9.22564 21.9541C8.88789 21.8108 8.79226 21.5469 8.79549 21.1948C8.80731 19.8644 8.80014 18.5337 8.80014 17.2029C8.80014 16.5064 8.80194 15.8098 8.798 15.1133C8.79764 15.017 8.81698 14.9901 8.91368 15.022C9.07521 15.0757 9.24427 15.0939 9.41404 15.0943C9.96346 15.095 10.5125 15.0968 11.062 15.0939C11.471 15.0918 11.8428 14.9725 12.1626 14.7122C12.2174 14.6678 12.2511 14.661 12.308 14.7086C12.6336 14.9786 13.0147 15.0943 13.4334 15.0947C14.5408 15.0954 15.6483 15.0954 16.7557 15.0947C17.1744 15.0943 17.5555 14.9786 17.8818 14.7093C17.9384 14.6624 17.9717 14.6667 18.0268 14.7118C18.3463 14.9722 18.7174 15.0922 19.1267 15.0943C19.6805 15.0972 20.2342 15.0954 20.7879 15.0947C20.9448 15.0947 21.102 15.08 21.2492 15.0302C21.3735 14.9883 21.3914 15.0184 21.3911 15.1394C21.3875 17.171 21.3846 19.2026 21.3921 21.2342C21.3936 21.5859 21.2775 21.8337 20.9362 21.9541C18.8012 21.9541 16.6665 21.9541 14.5315 21.9541C14.5086 21.9075 14.52 21.8574 14.52 21.809C14.519 21.3449 14.5193 20.8808 14.5193 20.4167C14.5193 19.2474 14.5111 18.0781 14.5236 16.9089C14.5283 16.4623 14.2317 16.231 13.8603 16.2378C12.9592 16.2546 12.0573 16.2431 11.1558 16.2439C11.0849 16.2439 11.0143 16.2403 10.9438 16.2611C10.6687 16.3427 10.5243 16.5508 10.5243 16.882C10.5236 18.5197 10.5243 20.1577 10.5236 21.7954C10.5233 21.8488 10.5355 21.9028 10.5118 21.9541ZM17.6533 19.0902C18.1221 19.0902 18.5909 19.0909 19.0598 19.0898C19.4237 19.0891 19.6579 18.8678 19.6626 18.5036C19.6694 17.9456 19.6694 17.3873 19.6626 16.8294C19.6583 16.4652 19.424 16.2439 19.0598 16.2435C18.131 16.2428 17.2023 16.2428 16.2736 16.2435C15.909 16.2439 15.6751 16.4655 15.6712 16.8294C15.6651 17.3873 15.6651 17.9456 15.6712 18.5036C15.6751 18.8671 15.9097 19.0888 16.2736 19.0898C16.7335 19.0913 17.1934 19.0902 17.6533 19.0902Z" fill="#379417"/>
<path d="M21.9546 13.5938C21.9087 13.6261 21.918 13.6812 21.9037 13.7249C21.7533 14.189 21.3364 14.516 20.8443 14.5246C20.2504 14.535 19.6562 14.5353 19.0627 14.5246C18.5456 14.5153 18.119 14.1615 17.9872 13.6601C17.9793 13.6307 17.9693 13.6021 17.9499 13.5412C17.8858 13.8366 17.7658 14.0676 17.5584 14.246C17.3439 14.4304 17.0925 14.526 16.8117 14.5267C15.6684 14.5303 14.5255 14.5314 13.3822 14.5267C12.8482 14.5246 12.4199 14.1865 12.273 13.6694C12.2633 13.6361 12.2533 13.6028 12.2422 13.5666C12.1996 13.611 12.2035 13.668 12.1878 13.7174C12.0391 14.1872 11.6165 14.5171 11.1197 14.5249C10.5305 14.5343 9.94065 14.536 9.35147 14.5249C8.72145 14.5128 8.2365 14.0053 8.23399 13.3768C8.23328 13.216 8.23686 13.0552 8.23256 12.8948C8.23077 12.8278 8.24581 12.7934 8.31959 12.8042C8.3504 12.8085 8.38191 12.8049 8.41343 12.8049C12.8701 12.8049 17.3264 12.8049 21.783 12.8056C21.8403 12.8056 21.899 12.7931 21.9549 12.8171C21.9546 13.0756 21.9546 13.3349 21.9546 13.5938Z" fill="#379417"/>
<path d="M15.0946 12.2398C14.4206 12.2398 13.7465 12.2365 13.0724 12.2426C12.9567 12.2437 12.9299 12.2176 12.9528 12.1048C13.1577 11.1031 13.3586 10.1007 13.5599 9.09836C13.6097 8.84983 13.6587 8.60129 13.7039 8.35204C13.7193 8.2661 13.749 8.23172 13.8482 8.23243C14.6784 8.23816 15.509 8.2378 16.3393 8.23279C16.4363 8.23207 16.4675 8.26323 16.485 8.35097C16.7325 9.59829 16.9814 10.8453 17.2343 12.0915C17.2601 12.2179 17.2279 12.2441 17.1032 12.243C16.4338 12.2365 15.764 12.2398 15.0946 12.2398Z" fill="#379417"/>
<path d="M12.5707 8.23522C12.3598 9.28773 12.151 10.3295 11.9425 11.3716C11.892 11.6244 11.8422 11.8776 11.7942 12.1312C11.7803 12.2046 11.7559 12.2426 11.666 12.2422C10.6076 12.2383 9.54927 12.2383 8.49089 12.2418C8.38523 12.2422 8.37628 12.2085 8.40135 12.1212C8.73122 10.9734 9.05858 9.82491 9.38845 8.67678C9.47154 8.38814 9.67928 8.23558 9.9805 8.23522C10.8021 8.23486 11.6238 8.23486 12.4457 8.23486C12.4848 8.23522 12.5242 8.23522 12.5707 8.23522Z" fill="#379417"/>
<path d="M17.6187 8.23551C18.2419 8.23551 18.8532 8.23551 19.465 8.23551C19.7107 8.23551 19.956 8.23515 20.2017 8.23551C20.5123 8.23623 20.7153 8.38628 20.8009 8.68387C20.9893 9.33672 21.1756 9.99029 21.3625 10.6435C21.5029 11.1345 21.6412 11.6262 21.7855 12.1161C21.8156 12.2174 21.797 12.2425 21.6888 12.2421C20.6394 12.2382 19.59 12.2382 18.5409 12.2425C18.4453 12.2428 18.4098 12.2138 18.3919 12.1236C18.1369 10.8326 17.879 9.54192 17.6187 8.23551Z" fill="#379417"/>
</g>
<defs>
<clipPath id="clip0_1107_4493">
<rect width="30.6251" height="37.0465" fill="white"/>
</clipPath>
</defs>
</svg>
