<svg width="29" height="29" viewBox="0 0 29 29" fill="none" xmlns="http://www.w3.org/2000/svg">
<path d="M23.6906 14.5106C23.6893 19.5594 19.5872 23.6828 14.5685 23.6803C9.43033 23.6777 5.32696 19.6031 5.33081 14.508C5.33338 9.40392 9.44062 5.3178 14.5595 5.32423C19.6052 5.32937 23.6931 9.44248 23.6906 14.5106ZM14.9941 11.2895C14.9941 10.7972 14.9889 10.3037 14.9953 9.81137C14.9992 9.5196 14.9131 9.28567 14.6097 9.2124C14.3114 9.14042 14.1495 9.32551 14.0273 9.57101C13.1018 11.4271 12.1723 13.2805 11.2481 15.1353C11.0089 15.6147 11.2133 15.9476 11.7481 15.9502C12.4217 15.954 13.0953 15.9605 13.769 15.9463C13.9785 15.9412 14.0363 15.9926 14.0325 16.2073C14.0196 17.2021 14.0299 18.1983 14.0248 19.1931C14.0235 19.4849 14.1058 19.7188 14.4104 19.7934C14.7087 19.8666 14.8719 19.6777 14.9928 19.4348C15.9183 17.58 16.8478 15.7253 17.7733 13.8692C18.0137 13.3859 17.8106 13.0569 17.2746 13.053C16.5907 13.0492 15.9068 13.0453 15.2229 13.0569C15.0403 13.0594 14.9825 13.0196 14.9889 12.8281C15.0043 12.3152 14.9941 11.8024 14.9941 11.2895Z" fill="#434343"/>
<path d="M14.3372 0.00411928C16.3349 0.00283393 18.0677 0.333168 19.7453 0.971986C19.9459 1.04782 20.0294 1.09795 19.9202 1.33959C19.6348 1.97199 19.6502 1.97841 19.0087 1.75091C11.4319 -0.947038 3.11845 3.62494 1.34187 11.49C0.484428 15.2869 1.16575 18.8165 3.31128 22.0658C3.41412 22.2213 3.48097 22.2663 3.68151 22.1854C4.63665 21.8023 5.51595 21.9578 6.27312 22.6609C6.72947 23.0851 7.16141 23.5363 7.60106 23.9797C7.90444 24.2856 7.91858 24.544 7.59334 24.828C7.35424 25.0363 7.37995 25.1584 7.59977 25.3537C7.93786 25.6545 8.23867 25.9951 8.56777 26.3062C8.6976 26.4283 8.69117 26.5054 8.56134 26.6121C8.36851 26.7702 8.22196 27.0928 8.01242 27.0864C7.83373 27.0812 7.66276 26.7882 7.4905 26.6185C7.26168 26.3923 7.029 26.1686 6.81046 25.9321C6.69991 25.8126 6.63692 25.7908 6.50579 25.9193C5.96459 26.4476 5.95945 26.4424 6.4878 26.9694C6.72947 27.2111 6.9673 27.4578 7.2154 27.6931C7.31824 27.7895 7.32338 27.8447 7.22183 27.954C6.67934 28.5414 6.6832 28.5452 6.13042 27.9938C5.89517 27.7586 5.65478 27.5298 5.42853 27.2869C5.32055 27.1712 5.24342 27.1584 5.14443 27.2856C5.09558 27.3486 5.03388 27.4026 4.97474 27.4566C4.72792 27.6789 4.46568 27.6841 4.22786 27.4514C3.7535 26.9861 3.27914 26.5221 2.82279 26.0401C2.07333 25.2483 1.95892 24.0645 2.55283 23.1519C2.68266 22.9527 2.65824 22.837 2.53483 22.6584C1.16704 20.6815 0.361018 18.4913 0.0910592 16.1095C-0.748384 8.70078 4.30499 1.75733 11.5772 0.310032C11.9011 0.245765 12.2264 0.178926 12.5542 0.13651C13.2123 0.0503918 13.8731 -0.0177316 14.3372 0.00411928Z" fill="#434343"/>
<path d="M14.6611 28.9964C12.6865 29.0028 10.9446 28.6622 9.25547 28.0259C9.05107 27.9488 8.97909 27.8794 9.10121 27.6712C9.21691 27.4745 9.21305 27.1583 9.39688 27.0709C9.58071 26.9848 9.81853 27.184 10.0306 27.2586C17.7168 29.9295 25.9801 25.3319 27.7155 17.3704C28.528 13.6403 27.8338 10.157 25.7307 6.96167C25.6163 6.78815 25.5314 6.73674 25.3129 6.82414C24.3642 7.20332 23.4964 7.03365 22.7496 6.34085C22.2919 5.91669 21.8613 5.46424 21.4216 5.02209C21.1182 4.71617 21.1041 4.4591 21.4293 4.17504C21.6684 3.96682 21.644 3.84471 21.4229 3.64805C21.0925 3.35499 20.7969 3.02209 20.4768 2.71617C20.3521 2.59792 20.3019 2.51566 20.4639 2.38712C20.6593 2.23417 20.802 1.90769 21.0128 1.91797C21.1941 1.92697 21.3638 2.21746 21.5347 2.38584C21.7713 2.61977 22.0078 2.85242 22.2353 3.09406C22.3305 3.19432 22.3845 3.20718 22.4963 3.10178C23.0684 2.56707 23.0735 2.57221 22.531 2.0298C22.2893 1.78815 22.0528 1.54008 21.8021 1.30743C21.6929 1.20589 21.7031 1.15191 21.8021 1.04651C22.3472 0.461674 22.3433 0.457818 22.8948 1.01052C23.1301 1.24574 23.3717 1.47324 23.5967 1.71746C23.7086 1.83828 23.7844 1.837 23.8795 1.7136C23.9155 1.66604 23.9631 1.6262 24.0068 1.58507C24.2896 1.31386 24.5441 1.30486 24.818 1.57478C25.2769 2.02594 25.7384 2.4771 26.1819 2.94368C26.9519 3.75345 27.0638 4.95396 26.4518 5.88455C26.3413 6.05165 26.3529 6.14933 26.457 6.29972C27.8351 8.28172 28.6912 10.4771 28.9188 12.8743C29.3803 17.7239 27.8389 21.8601 24.278 25.1969C22.2122 27.1326 19.7376 28.2959 16.9544 28.7907C16.1433 28.936 15.3218 29.0182 14.6611 28.9964Z" fill="#434343"/>
</svg>
