<svg width="22" height="22" viewBox="0 0 22 22" fill="none" xmlns="http://www.w3.org/2000/svg">
<path d="M11.0003 21.8332C5.01708 21.8332 0.166992 16.9831 0.166992 10.9998C0.166992 5.01659 5.01708 0.166504 11.0003 0.166504C16.9836 0.166504 21.8337 5.01659 21.8337 10.9998C21.8337 16.9831 16.9836 21.8332 11.0003 21.8332ZM11.0003 19.6665C13.2989 19.6665 15.5033 18.7534 17.1286 17.1281C18.7539 15.5028 19.667 13.2984 19.667 10.9998C19.667 8.70129 18.7539 6.49689 17.1286 4.87158C15.5033 3.24626 13.2989 2.33317 11.0003 2.33317C8.70178 2.33317 6.49738 3.24626 4.87207 4.87158C3.24675 6.49689 2.33366 8.70129 2.33366 10.9998C2.33366 13.2984 3.24675 15.5028 4.87207 17.1281C6.49738 18.7534 8.70178 19.6665 11.0003 19.6665ZM5.58366 12.0832H7.75033C7.75033 12.9451 8.09273 13.7718 8.70223 14.3813C9.31172 14.9908 10.1384 15.3332 11.0003 15.3332C11.8623 15.3332 12.6889 14.9908 13.2984 14.3813C13.9079 13.7718 14.2503 12.9451 14.2503 12.0832H16.417C16.417 13.5198 15.8463 14.8975 14.8305 15.9133C13.8147 16.9292 12.4369 17.4998 11.0003 17.4998C9.56374 17.4998 8.18599 16.9292 7.17016 15.9133C6.15434 14.8975 5.58366 13.5198 5.58366 12.0832ZM6.66699 9.9165C6.23601 9.9165 5.82269 9.7453 5.51794 9.44055C5.2132 9.13581 5.04199 8.72248 5.04199 8.2915C5.04199 7.86053 5.2132 7.4472 5.51794 7.14245C5.82269 6.83771 6.23601 6.6665 6.66699 6.6665C7.09797 6.6665 7.51129 6.83771 7.81604 7.14245C8.12079 7.4472 8.29199 7.86053 8.29199 8.2915C8.29199 8.72248 8.12079 9.13581 7.81604 9.44055C7.51129 9.7453 7.09797 9.9165 6.66699 9.9165ZM15.3337 9.9165C14.9027 9.9165 14.4894 9.7453 14.1846 9.44055C13.8799 9.13581 13.7087 8.72248 13.7087 8.2915C13.7087 7.86053 13.8799 7.4472 14.1846 7.14245C14.4894 6.83771 14.9027 6.6665 15.3337 6.6665C15.7646 6.6665 16.178 6.83771 16.4827 7.14245C16.7875 7.4472 16.9587 7.86053 16.9587 8.2915C16.9587 8.72248 16.7875 9.13581 16.4827 9.44055C16.178 9.7453 15.7646 9.9165 15.3337 9.9165Z" fill="#5A6274"/>
</svg>
