<svg width="37" height="37" viewBox="0 0 37 37" fill="none" xmlns="http://www.w3.org/2000/svg">
<rect width="37" height="37" rx="5" fill="#F3F6F8"/>
<path d="M21.069 19.2455C19.35 19.2455 17.6373 19.2455 15.9183 19.2455C15.7787 19.2455 15.7026 19.258 15.6455 19.4209C15.2078 20.724 13.8187 21.5698 12.4866 21.3443C11.0023 21.0999 9.97464 19.9096 9.99367 18.4624C10.0127 17.0403 11.0276 15.8938 12.4866 15.6557C13.7996 15.4364 15.1698 16.2509 15.6265 17.5414C15.6899 17.7106 15.7597 17.7607 15.9373 17.7607C19.312 17.7545 22.6929 17.7545 26.0675 17.7545C26.1754 17.7545 26.2896 17.7545 26.3974 17.7733C26.7717 17.861 27.0254 18.2118 26.981 18.5752C26.9366 18.9636 26.6194 19.2518 26.2071 19.2518C24.5008 19.2518 22.7881 19.2455 21.069 19.2455ZM12.9179 17.1342C12.1504 17.1342 11.5287 17.7357 11.5224 18.4937C11.5161 19.2518 12.1314 19.8657 12.8925 19.872C13.6791 19.8783 14.2944 19.2768 14.3008 18.5062C14.3071 17.7419 13.6918 17.1342 12.9179 17.1342Z" fill="#323142"/>
<path d="M13.159 25.3851C13.9519 25.3851 14.7385 25.3789 15.5314 25.3851C15.6646 25.3851 15.7153 25.3476 15.7598 25.2223C16.1657 24.0319 17.2568 23.2676 18.5064 23.2676C19.7497 23.2739 20.8344 24.0319 21.234 25.216C21.2911 25.3789 21.3736 25.3851 21.5068 25.3851C23.0736 25.3851 24.6403 25.3851 26.2071 25.3851C26.5877 25.3851 26.8605 25.5982 26.962 25.9427C27.0508 26.256 26.9112 26.6005 26.6258 26.7697C26.4736 26.8637 26.3023 26.8825 26.1247 26.8825C24.5896 26.8825 23.0545 26.8825 21.5195 26.8762C21.3545 26.8762 21.2784 26.9138 21.2213 27.0829C20.8153 28.2545 19.7306 29 18.4937 29C17.2695 29 16.1848 28.2357 15.7724 27.0704C15.7153 26.9075 15.6392 26.8825 15.487 26.8825C13.9392 26.8887 12.3851 26.8887 10.8374 26.8825C10.2474 26.8825 9.87318 26.3938 10.0571 25.8801C10.165 25.5794 10.4441 25.3851 10.7866 25.3851C11.5795 25.3851 12.3724 25.3851 13.159 25.3851ZM17.1236 26.1244C17.1236 26.895 17.7452 27.5027 18.5254 27.4964C19.2866 27.4902 19.8956 26.8762 19.8956 26.1181C19.8956 25.3601 19.2739 24.7524 18.5064 24.7524C17.7389 24.7587 17.1236 25.3663 17.1236 26.1244Z" fill="#323142"/>
<path d="M14.4213 11.6085C13.2351 11.6085 12.0489 11.6085 10.8627 11.6085C10.3552 11.6085 10.0127 11.3016 10.0127 10.863C10.0127 10.4245 10.3616 10.1112 10.8627 10.1112C13.2668 10.1112 15.6709 10.1112 18.075 10.1175C18.2399 10.1175 18.3034 10.0736 18.3541 9.92327C18.7601 8.76426 19.8448 7.99994 21.0817 7.99994C22.3123 7.99994 23.4097 8.76426 23.8093 9.92327C23.8601 10.0736 23.9235 10.1237 24.0884 10.1175C24.7989 10.105 25.5093 10.1112 26.2261 10.1175C26.6321 10.1237 26.9429 10.3931 26.9937 10.7753C27.0444 11.1199 26.8034 11.477 26.4545 11.5835C26.353 11.6148 26.2515 11.6085 26.15 11.6085C25.4522 11.6085 24.7608 11.6148 24.0631 11.6023C23.9299 11.6023 23.8728 11.6399 23.8284 11.7652C23.4097 12.968 22.344 13.7261 21.0817 13.7198C19.8321 13.7198 18.7664 12.9618 18.3541 11.7714C18.3034 11.6336 18.2399 11.6023 18.1004 11.6023C16.8761 11.6148 15.6519 11.6085 14.4213 11.6085ZM21.069 9.49726C20.3015 9.49726 19.6862 10.1112 19.6862 10.8693C19.6862 11.6273 20.3015 12.235 21.069 12.235C21.8493 12.235 22.4709 11.6211 22.4646 10.8567C22.4646 10.0924 21.8429 9.49099 21.069 9.49726Z" fill="#323142"/>
</svg>
