<svg width="20" height="20" viewBox="0 0 20 20" fill="none" xmlns="http://www.w3.org/2000/svg">
<path d="M19.7402 9.07C19.7156 8.82504 19.6004 8.59809 19.4174 8.43349C19.2343 8.2689 18.9964 8.17852 18.7502 8.18H11.2002C10.6502 8.18 10.2002 8.63 10.2002 9.18V10.89C10.2002 11.44 10.6502 11.89 11.2002 11.89H15.7102C15.6002 12.81 15.0002 14.2 13.6702 15.13C12.8202 15.72 11.6902 16.13 10.2002 16.13C10.1302 16.13 10.0702 16.13 10.0002 16.12C7.4502 16.04 5.2902 14.33 4.5102 11.98C4.29389 11.3422 4.18245 10.6735 4.1802 10C4.1802 9.31 4.3002 8.64 4.5002 8.02C4.5602 7.84 4.6302 7.66 4.7102 7.48C5.6302 5.41 7.6402 3.95 10.0002 3.88C10.0602 3.87 10.1302 3.87 10.2002 3.87C11.6302 3.87 12.7002 4.34 13.4502 4.86C13.8402 5.13 14.3602 5.07 14.7002 4.74L16.0902 3.38C16.5302 2.95 16.4902 2.22 15.9902 1.86C14.4002 0.69 12.4602 0 10.2002 0C10.1302 0 10.0702 -9.31323e-09 10.0002 0.00999999C8.18155 0.0422145 6.40645 0.571837 4.86747 1.54141C3.32849 2.51098 2.08441 3.88348 1.2702 5.51C0.590195 6.87 0.200195 8.39 0.200195 10C0.200195 11.61 0.590195 13.13 1.2702 14.49H1.2802C2.09327 16.1153 3.33571 17.4871 4.87284 18.4566C6.40998 19.4261 8.18316 19.9564 10.0002 19.99C10.0702 20 10.1302 20 10.2002 20C12.9002 20 15.1702 19.11 16.8202 17.58C18.7102 15.83 19.8002 13.27 19.8002 10.22C19.8002 9.79 19.7802 9.42 19.7402 9.07Z" fill="#F4B733"/>
</svg>
