<svg width="38" height="38" viewBox="0 0 38 38" fill="none" xmlns="http://www.w3.org/2000/svg">
<circle cx="19" cy="19" r="19" fill="#F4B733"/>
<g clip-path="url(#clip0_2483_6542)">
<path d="M26.4745 9.88414L26.5778 10.0666L23.9023 20.3593L21.2226 30.6509L21.0148 30.7832C20.8071 30.9154 20.8029 30.9143 20.5161 30.8394L20.2292 30.7644L19.028 28.7497C18.3674 27.6401 17.3261 25.8803 16.7107 24.8357L15.5948 22.9365L16.9687 21.2304C19.066 18.6251 21.3217 15.8214 23.9185 12.5961C25.2132 10.9891 26.2932 9.67691 26.3182 9.68343C26.3473 9.69103 26.4172 9.78035 26.4745 9.88414Z" fill="white"/>
<path d="M18.5219 13.7888C18.5198 13.7971 18.4422 13.839 18.3489 13.8901L18.1844 13.9759L18.3408 13.8702C18.4898 13.7759 18.5306 13.7555 18.5219 13.7888Z" fill="white"/>
<path d="M9.64759 19.0291C9.54797 19.0874 9.45992 19.1355 9.44744 19.1322C9.43497 19.129 9.50639 19.0766 9.60602 19.0182C9.70564 18.9599 9.7937 18.9118 9.80617 18.9151C9.81864 18.9183 9.74722 18.9707 9.64759 19.0291Z" fill="white"/>
<path d="M26.2883 9.70675C26.2691 9.74615 24.7346 11.6591 22.8813 13.9595C21.0279 16.2599 19.1471 18.5975 18.7046 19.1525C18.2579 19.7064 17.3909 20.7811 16.7847 21.5376L15.6748 22.9131L11.929 21.9345L8.18324 20.956L8.09815 20.8227C7.95975 20.6045 7.94065 20.4396 8.0266 20.1956L8.10495 19.9807L9.15164 19.3571C10.1197 18.7795 13.1956 16.9672 22.2776 11.6123L25.8411 9.51444L26.0864 9.57852C26.2984 9.6339 26.3253 9.64982 26.2883 9.70675Z" fill="#E2E2E4"/>
</g>
<defs>
<clipPath id="clip0_2483_6542">
<rect width="22" height="22" fill="white" transform="matrix(-0.96753 -0.252757 -0.252757 0.96753 29.8462 10.5607)"/>
</clipPath>
</defs>
</svg>
