<svg width="18" height="18" viewBox="0 0 18 18" fill="none" xmlns="http://www.w3.org/2000/svg">
<path d="M9.00011 3.88921C10.5649 3.88921 11.6205 4.56514 12.2223 5.12996L14.5742 2.83366C13.1297 1.49107 11.2501 0.666992 9.00011 0.666992C5.74085 0.666992 2.92603 2.53736 1.55566 5.25959L4.25011 7.35218C4.92603 5.34292 6.79641 3.88921 9.00011 3.88921Z" fill="#EA4335"/>
<path d="M17 9.18515C17 8.49996 16.9444 7.99996 16.8241 7.48145H9V10.574H13.5926C13.5 11.3426 13 12.5 11.8889 13.2777L14.5185 15.3148C16.0926 13.8611 17 11.7222 17 9.18515Z" fill="#4285F4"/>
<path d="M4.2591 10.6487C4.08317 10.1301 3.98132 9.57458 3.98132 9.00051C3.98132 8.42643 4.08317 7.87088 4.24984 7.35236L1.55539 5.25977C0.990578 6.3894 0.666504 7.65791 0.666504 9.00051C0.666504 10.3431 0.990578 11.6116 1.55539 12.7412L4.2591 10.6487Z" fill="#FBBC05"/>
<path d="M9.00013 17.3336C11.2501 17.3336 13.139 16.5929 14.5186 15.3151L11.889 13.2781C11.1853 13.7688 10.2409 14.1114 9.00013 14.1114C6.79642 14.1114 4.92605 12.6577 4.25939 10.6484L1.56494 12.741C2.93531 15.4633 5.74087 17.3336 9.00013 17.3336Z" fill="#34A853"/>
</svg>
