<svg width="27" height="26" viewBox="0 0 27 26" fill="none" xmlns="http://www.w3.org/2000/svg">
<path d="M13.5004 19.35V16.125" stroke="#ABB0BF" stroke-width="1.5" stroke-linecap="round" stroke-linejoin="round"/>
<path d="M11.3294 2.63858L3.53317 8.60482C3.07657 8.9924 2.72463 9.47957 2.50722 10.0249C2.28982 10.5703 2.21339 11.1577 2.28442 11.7374L3.78067 20.2944C3.9385 21.0571 4.36293 21.746 4.98435 22.248C5.60577 22.75 6.38727 23.0353 7.20067 23.0571H19.7973C20.6096 23.0317 21.3891 22.7451 22.0098 22.2437C22.6304 21.7423 23.0559 21.0555 23.2173 20.2944L24.7135 11.7374C24.7786 11.1588 24.6993 10.5737 24.4823 10.03C24.2653 9.48624 23.9166 8.99935 23.4648 8.60912L15.6719 2.64933C15.0461 2.20024 14.2852 1.95654 13.5025 1.9546C12.7199 1.95266 11.9576 2.19259 11.3294 2.63858V2.63858Z" stroke="#ABB0BF" stroke-width="1.5" stroke-linecap="round" stroke-linejoin="round"/>
</svg>
