<svg width="29" height="28" viewBox="0 0 29 28" fill="none" xmlns="http://www.w3.org/2000/svg">
<path d="M14.4315 7.23281C14.5474 7.43619 14.6376 7.38888 14.7709 7.24641C15.0341 6.96528 15.3234 6.70862 15.5823 6.42368C15.7193 6.27305 15.7976 6.29644 15.9243 6.43075C16.2245 6.74886 16.5432 7.04848 16.8472 7.36332C16.9494 7.46936 17.0109 7.51014 17.1392 7.38018C18.0463 6.4612 18.9594 5.5482 19.8779 4.64119C20.0041 4.51666 19.9742 4.4525 19.866 4.34864C19.5582 4.05283 19.2612 3.74559 18.9572 3.44652C18.8414 3.33233 18.7185 3.23716 18.9241 3.08545C19.0731 2.97561 18.917 2.90764 18.8561 2.84674C18.2921 2.27686 17.72 1.71514 17.1599 1.14146C17.0375 1.01585 16.969 1.00932 16.8439 1.13874C16.3882 1.61019 15.9124 2.06316 15.4593 2.53733C15.3054 2.69828 15.2152 2.73146 15.0493 2.54712C14.7578 2.22194 14.4331 1.92721 14.1286 1.61291C14.0394 1.52101 13.9845 1.49981 13.8817 1.60367C12.8767 2.61618 11.8668 3.62379 10.857 4.63086C10.7835 4.70427 10.7379 4.75484 10.8303 4.85761C11.4601 5.55636 11.3823 6.65968 10.6073 7.39649C9.46096 8.48676 8.36841 9.63412 7.23672 10.7407C7.02027 10.9522 6.99689 11.0778 7.24161 11.2584C7.35636 11.3432 7.47274 11.4188 7.32753 11.6249C6.39324 12.9468 5.95546 14.4242 5.99843 16.0452C6.01093 16.5134 6.00658 16.9821 5.99788 17.4509C5.9919 17.7679 5.78307 17.9897 5.51116 17.9968C5.23762 18.0039 5.02444 17.7853 5.00268 17.4721C4.99779 17.3998 5.00105 17.3263 5.00105 17.2535C5.00105 15.2024 5.0016 13.1512 4.99942 11.0996C4.99942 10.9549 4.99996 10.8054 4.96625 10.6667C4.777 9.88534 4.0809 9.40954 3.28528 9.50688C2.55112 9.5966 2.00131 10.2453 2.00131 11.0311C2.00023 14.2383 2.00077 17.4449 2.00077 20.6521C2.00077 20.7249 1.99751 20.7978 2.00131 20.8707C2.00621 20.9604 1.97358 21.018 1.87895 20.9974C1.48251 20.912 1.47272 21.1518 1.49882 21.4346C1.51024 21.5585 1.5097 21.6852 1.49828 21.8092C1.48468 21.9566 1.53254 22.0082 1.68644 22.0033C2.03993 21.9925 2.3945 22.0001 2.74853 22.0001C3.53979 22.0001 3.5349 22.0001 3.50499 21.1893C3.49955 21.0436 3.46747 20.9718 3.3152 21.0006C3.05742 21.049 2.99379 20.9501 2.99434 20.6885C3.00467 17.5335 3.00086 14.3785 3.00086 11.2236C3.00086 11.1507 2.99651 11.0773 3.00304 11.005C3.03023 10.7157 3.24613 10.5025 3.5039 10.5047C3.76276 10.5074 3.97268 10.7211 3.9977 11.0126C4.00477 11.0952 3.99987 11.179 3.99987 11.2622C3.99987 13.3448 3.9977 15.4269 4.00096 17.5096C4.00205 18.3405 4.65844 18.9957 5.48071 19.0001C6.3269 19.0044 6.99308 18.3573 6.99961 17.5178C7.0045 16.9245 6.98982 16.3307 7.00396 15.7374C7.03224 14.5275 7.36669 13.4079 8.02526 12.3878C8.10684 12.2616 8.18188 12.1262 8.3211 12.334C8.45597 12.5362 8.56147 12.465 8.70015 12.3204C9.10312 11.8995 9.52187 11.4927 9.93409 11.0806C11.3328 9.68197 12.731 8.28284 14.1498 6.86414C14.2564 7.00117 14.3608 7.10775 14.4315 7.23281Z" fill="#434343"/>
<path d="M28.7313 11.9956C28.3359 12.0075 27.94 12.0064 27.5446 11.9977C26.9078 11.9836 26.2824 12.026 25.6679 12.2218C24.5732 12.5703 23.8167 13.324 23.1489 14.2152C22.4561 15.1397 22.0172 16.1533 22.0052 17.312C21.9846 19.2897 22.0025 21.2675 21.9949 23.2452C21.9944 23.4453 22.0406 23.5062 22.2483 23.5029C23.0603 23.4899 23.8727 23.5127 24.6841 23.4942C25.9637 23.4654 27.0204 23.9037 27.8633 24.9907C27.8992 24.5692 27.9286 24.2212 27.9579 23.8732C28.0749 22.4953 28.1923 21.1174 28.3093 19.7394C28.4256 18.3719 28.5442 17.0048 28.6584 15.6372C28.7536 14.4975 28.8395 13.3566 28.9412 12.2174C28.957 12.0325 28.9069 11.9901 28.7313 11.9956Z" fill="#434343"/>
<path d="M24.9343 24.4976C22.8738 24.4965 20.8132 24.4976 18.7521 24.4965C18.6276 24.4965 18.5003 24.5009 18.379 24.4769C16.4675 24.0985 14.5576 23.7162 12.6466 23.3345C11.7852 23.1621 10.9955 23.8266 10.9939 24.7081C10.9934 24.9381 11.0554 25.006 11.2919 25.0033C12.447 24.9903 13.6026 25.005 14.7577 24.9924C15.0612 24.9892 15.2923 25.0762 15.5038 25.2959C16.0014 25.8135 16.5208 26.3095 17.0217 26.8244C17.1489 26.9555 17.2773 27.0017 17.4573 27.0006C19.0806 26.9941 20.7044 26.9968 22.3278 26.9968C23.9407 26.9968 25.5543 26.9968 27.1672 26.9968C27.5381 26.9968 27.5463 26.987 27.4783 26.6118C27.2477 25.3388 26.2389 24.4987 24.9343 24.4976Z" fill="#434343"/>
<path d="M24.5004 5.01459C24.5053 5.57359 24.929 5.99447 25.4907 5.99936C26.1569 6.0048 26.8237 6.00371 27.4898 5.99991C28.0712 5.9961 28.4959 5.57848 28.4976 5.00045C28.5019 3.66766 28.5019 2.33487 28.4976 1.00263C28.4959 0.42405 28.0723 0.00643151 27.4915 0.00262509C26.8356 -0.0017251 26.1798 -0.000637551 25.5234 0.00262509C24.9181 0.00480019 24.5032 0.415893 24.4999 1.01622C24.4961 1.67201 24.4988 2.3278 24.4994 2.98414C24.4988 3.66114 24.4945 4.33759 24.5004 5.01459Z" fill="#434343"/>
<path d="M17.2028 28.0012C16.9206 28.0017 16.7085 27.9158 16.5132 27.7146C16.0064 27.1909 15.4854 26.6809 14.9688 26.167C14.8905 26.0892 14.8296 25.9941 14.6898 25.9946C13.5885 25.9995 12.4873 25.9974 11.3882 25.9974C11.3844 26.0414 11.3763 26.0642 11.3823 26.0822C11.5818 26.6809 11.7776 27.2807 11.9848 27.8766C12.2404 28.6124 12.7859 28.9957 13.5635 28.9963C15.7921 28.9968 18.0202 28.9968 20.2488 28.9963C22.0086 28.9963 23.7684 29.0033 25.5282 28.993C26.2809 28.9887 26.8671 28.6493 27.3348 27.9968C27.1722 27.9968 27.0613 27.9968 26.9503 27.9968C23.701 27.9968 20.4522 27.9946 17.2028 28.0012Z" fill="#434343"/>
<path d="M7.5063 27.497C6.6748 27.4954 5.90093 27.2904 5.2168 26.8103C4.09109 26.0202 3.53095 24.9228 3.50158 23.553C3.48962 22.9973 3.49668 22.9973 2.93056 22.9973C2.31604 22.9973 1.70206 22.9968 1.08754 22.9973C0.399603 22.9984 0.000979465 23.3921 0.00043564 24.0745C-0.000652009 25.4905 -0.000108184 26.9065 -0.000108184 28.3225C-0.000108184 29.0191 -0.000108207 29.0191 0.700338 28.9908C0.714477 28.9902 0.727529 28.9696 0.741669 28.9582C0.335975 27.8788 0.513262 27.0327 1.27027 26.4345C1.94896 25.8978 2.88108 25.8576 3.59675 26.3334C4.43152 26.8886 4.62947 27.6727 4.25913 28.9962C5.35493 28.9962 6.44639 29.0027 7.5373 28.9913C7.81139 28.9886 7.97291 28.8092 7.99629 28.5346C8.01152 28.3589 8.0001 28.1806 8.0001 28.0038C8.0001 27.4987 8.0001 27.4981 7.5063 27.497Z" fill="#434343"/>
<path d="M25.7445 11.1788C26.644 10.9439 27.5609 11.0086 28.4735 11.0005C29.007 10.9961 29.0069 10.9994 28.9982 10.4621C28.9863 9.69215 28.3642 9.02059 27.6164 9.00427C26.8675 8.98796 26.1176 8.98687 25.3688 9.00482C24.6776 9.02113 24.0326 9.65952 24.0049 10.349C23.9842 10.8662 24.0005 11.3849 24.0005 11.9494C24.5748 11.5861 25.1382 11.3371 25.7445 11.1788Z" fill="#434343"/>
<path d="M4.53168 24.0331C4.8384 25.6975 6.21862 26.6791 7.95886 26.473C7.86913 25.7324 7.58199 25.0776 7.1192 24.498C6.5199 23.747 5.73843 23.2886 4.80849 23.0722C4.60673 23.0254 4.45337 23.0282 4.49416 23.3191C4.52787 23.554 4.48926 23.8003 4.53168 24.0331Z" fill="#434343"/>
<path d="M6.99965 6.42629C7.13397 5.96191 7.24111 5.52036 7.55598 5.16582C7.8665 4.81618 8.25969 4.61335 8.72248 4.4997C7.67617 4.2773 7.19379 3.56115 6.9953 2.57202C6.80822 3.5742 6.32041 4.26479 5.28442 4.50133C6.32802 4.72047 6.80441 5.44206 6.99965 6.42629Z" fill="#434343"/>
<path d="M2.50306 26.9966C1.93368 26.9955 1.49862 27.4311 1.50025 28.0004C1.50134 28.5501 1.93531 28.9906 2.48131 28.9966C3.04961 29.0026 3.49717 28.5686 3.50044 28.0075C3.5037 27.4414 3.06646 26.9977 2.50306 26.9966Z" fill="#434343"/>
<path d="M14.9976 18.2034C14.7909 18.9386 14.4695 19.5351 13.6299 19.6563C14.4695 19.7765 14.7855 20.3817 14.9998 21.1104C15.1983 20.4225 15.4925 19.8423 16.2636 19.6569C15.4832 19.4693 15.1999 18.8863 14.9976 18.2034Z" fill="#434343"/>
<path d="M25.9985 7.48505C25.9985 8 25.9985 8 26.5146 8C26.9981 8 26.9981 8 26.9981 7.51495C26.9981 7 26.9981 7 26.482 7C25.9985 7 25.9985 7 25.9985 7.48505Z" fill="#434343"/>
</svg>
