<svg width="160" height="29" viewBox="0 0 160 29" fill="none" xmlns="http://www.w3.org/2000/svg">
<g clip-path="url(#clip0_640_2953)">
<path d="M5.56981 0L3.90981 13.57H4.37981C4.56081 13.5773 4.74134 13.5466 4.90981 13.48C5.08212 13.3998 5.23292 13.2799 5.3498 13.13L10.6098 7.76C10.7433 7.59604 10.9019 7.45428 11.0798 7.34C11.2657 7.23533 11.4766 7.18345 11.6898 7.18999H14.1698L8.0498 13.42C7.76178 13.7471 7.42437 14.0272 7.0498 14.25C7.21422 14.3706 7.35923 14.5156 7.4798 14.68C7.60772 14.8574 7.72141 15.0447 7.81981 15.24L12.5798 23.07H10.1798C9.98283 23.0774 9.78707 23.0362 9.60981 22.95C9.44287 22.8509 9.31293 22.6999 9.2398 22.52L5.2398 16.02C5.15518 15.8413 5.01946 15.6916 4.8498 15.59C4.64656 15.5095 4.42792 15.4753 4.2098 15.49H3.67981L2.74981 23.07H0.0498047L2.87981 0H5.56981Z" fill="white"/>
<path d="M26.2598 20.1401C25.7735 20.6558 25.2486 21.1338 24.6898 21.5701C24.2066 21.9575 23.6837 22.2927 23.1298 22.5701C22.6035 22.8311 22.0455 23.0227 21.4698 23.1401C20.8543 23.2637 20.2277 23.324 19.5998 23.3201C18.7647 23.3338 17.9352 23.1808 17.1598 22.8701C16.4592 22.581 15.8334 22.1365 15.3298 21.5701C14.8142 20.987 14.4198 20.3071 14.1698 19.5701C13.8878 18.712 13.7493 17.8132 13.7598 16.9101C13.7617 16.0899 13.8488 15.2722 14.0198 14.4701C14.185 13.675 14.4365 12.9005 14.7698 12.1601C15.0943 11.4488 15.5004 10.7776 15.9798 10.1601C16.4404 9.54273 16.9897 8.99684 17.6098 8.54006C18.2193 8.08286 18.8933 7.71887 19.6098 7.46006C20.3715 7.19449 21.1733 7.06254 21.9798 7.07006C22.689 7.05537 23.3946 7.1741 24.0598 7.42007C24.5914 7.61452 25.0804 7.90994 25.4998 8.29006C25.8597 8.61993 26.146 9.02201 26.3398 9.47006C26.5107 9.85453 26.6025 10.2694 26.6098 10.6901C26.6169 11.3472 26.4732 11.9971 26.1898 12.5901C25.8306 13.2484 25.2935 13.7924 24.6398 14.1601C23.6707 14.7117 22.6264 15.1193 21.5398 15.3701C19.8733 15.7749 18.1784 16.0523 16.4698 16.2001C16.4698 16.3201 16.4698 16.4301 16.4698 16.5401C16.4698 16.6501 16.4698 16.7601 16.4698 16.8801C16.3936 18.0214 16.7191 19.1535 17.3898 20.0801C17.7362 20.4609 18.1647 20.7579 18.6429 20.9485C19.1211 21.1391 19.6365 21.2183 20.1498 21.1801C20.601 21.1859 21.0511 21.1355 21.4898 21.0301C21.8335 20.9283 22.168 20.7978 22.4898 20.6401C22.7768 20.5026 23.0484 20.335 23.2998 20.1401L24.0498 19.5701C24.2212 19.4315 24.4016 19.3045 24.5898 19.1901C24.7361 19.0865 24.9107 19.0306 25.0898 19.0301C25.1925 19.0341 25.293 19.0603 25.3845 19.1069C25.476 19.1535 25.5563 19.2194 25.6198 19.3001L26.2598 20.1401ZM21.8398 8.99006C21.2135 8.97983 20.5935 9.11685 20.0298 9.39007C19.4709 9.66777 18.969 10.0476 18.5498 10.5101C18.1095 11.0162 17.7426 11.5817 17.4598 12.1901C17.1459 12.8511 16.9078 13.5455 16.7498 14.2601C18.0541 14.1234 19.3472 13.8962 20.6198 13.5801C21.3992 13.4014 22.1522 13.1224 22.8598 12.7501C23.2895 12.5295 23.6392 12.1797 23.8598 11.7501C24.027 11.4148 24.1127 11.0447 24.1098 10.6701C24.1068 10.4677 24.0661 10.2676 23.9898 10.0801C23.9004 9.86852 23.7635 9.68036 23.5898 9.53007C23.383 9.34493 23.1417 9.20222 22.8798 9.11006C22.5425 9.01119 22.1908 8.97062 21.8398 8.99006Z" fill="white"/>
<path d="M40.9597 20.14C40.4766 20.6553 39.9551 21.1333 39.3997 21.57C38.9133 21.953 38.3909 22.2879 37.8397 22.57C37.3127 22.8295 36.755 23.021 36.1797 23.14C35.5641 23.2631 34.9376 23.3235 34.3097 23.32C33.4713 23.3337 32.6385 23.1808 31.8597 22.87C31.1663 22.5783 30.5476 22.134 30.0497 21.57C29.5341 20.987 29.1397 20.3071 28.8897 19.57C28.6111 18.7113 28.4759 17.8126 28.4897 16.91C28.4763 15.273 28.8175 13.6526 29.4897 12.16C29.8103 11.4488 30.2131 10.7775 30.6897 10.16C31.153 9.54497 31.7019 8.99945 32.3197 8.53997C32.9291 8.08277 33.6032 7.71878 34.3197 7.45997C35.0818 7.19632 35.8833 7.06443 36.6897 7.06997C37.3989 7.05432 38.1047 7.17308 38.7697 7.41998C39.3032 7.61683 39.795 7.91192 40.2197 8.28997C40.5736 8.62291 40.856 9.02438 41.0497 9.46997C41.2278 9.85242 41.3232 10.2681 41.3297 10.69C41.338 11.3483 41.1907 11.9993 40.8997 12.59C40.544 13.2509 40.006 13.7958 39.3497 14.16C38.3806 14.7116 37.3363 15.1192 36.2497 15.37C34.5835 15.7764 32.8885 16.0539 31.1797 16.2C31.1797 16.32 31.1797 16.43 31.1797 16.54C31.1797 16.65 31.1797 16.76 31.1797 16.88C31.1035 18.0213 31.4289 19.1534 32.0997 20.08C32.4461 20.4608 32.8746 20.7579 33.3528 20.9485C33.831 21.139 34.3464 21.2182 34.8597 21.18C35.3109 21.1864 35.7611 21.136 36.1997 21.03C36.5434 20.9282 36.8779 20.7978 37.1997 20.64C37.4885 20.5 37.7631 20.3326 38.0197 20.14L38.6597 19.64C38.8311 19.5014 39.0115 19.3745 39.1997 19.26C39.3465 19.1576 39.5208 19.1018 39.6997 19.1C39.8028 19.1019 39.904 19.1272 39.9958 19.1739C40.0876 19.2207 40.1676 19.2878 40.2297 19.37L40.9597 20.14ZM36.5497 8.98997C35.9203 8.98112 35.2974 9.11804 34.7297 9.38998C34.176 9.67125 33.6779 10.0507 33.2597 10.51C32.8129 11.0132 32.4423 11.5792 32.1597 12.19C31.8491 12.8514 31.6143 13.5458 31.4597 14.26C32.7605 14.1226 34.0503 13.8953 35.3197 13.58C36.0991 13.4013 36.8521 13.1223 37.5597 12.75C37.9882 12.5277 38.3375 12.1785 38.5597 11.75C38.7222 11.413 38.8076 11.0441 38.8097 10.67C38.8077 10.4664 38.7634 10.2655 38.6797 10.08C38.594 9.86634 38.4565 9.67736 38.2797 9.52998C38.0728 9.34484 37.8316 9.20213 37.5697 9.10997C37.2392 9.01163 36.8941 8.97104 36.5497 8.98997Z" fill="white"/>
<path d="M47.1898 11.5099C47.5682 10.8501 48.0032 10.2245 48.4898 9.6399C48.933 9.10744 49.4325 8.62462 49.9798 8.1999C50.4738 7.82113 51.0193 7.51471 51.5998 7.2899C52.1477 7.07513 52.7314 6.96653 53.3198 6.96989C53.9248 6.94077 54.5277 7.0594 55.0765 7.31552C55.6253 7.57164 56.1036 7.95754 56.4698 8.43989C57.3024 9.71634 57.6956 11.2296 57.5898 12.7499C57.5891 13.6103 57.4986 14.4683 57.3198 15.3099C57.1516 16.1494 56.9004 16.9701 56.5698 17.7599C56.2473 18.5247 55.8487 19.255 55.3798 19.9399C54.935 20.5861 54.4147 21.177 53.8298 21.6999C53.2746 22.1818 52.6469 22.5733 51.9698 22.8599C51.3049 23.1389 50.5909 23.2818 49.8698 23.2799C49.134 23.2912 48.4054 23.1338 47.7398 22.8199C47.1055 22.5149 46.5482 22.0705 46.1098 21.5199L45.2698 28.4399H42.5598L45.1398 7.18989H46.5198C46.6475 7.17147 46.7778 7.18309 46.9002 7.22381C47.0227 7.26454 47.134 7.33325 47.2252 7.4245C47.3165 7.51574 47.3852 7.62701 47.4259 7.74946C47.4666 7.87191 47.4782 8.00217 47.4598 8.12989L47.1898 11.5099ZM46.3498 19.5699C46.7021 20.0896 47.1944 20.4987 47.7698 20.7499C48.3031 20.9815 48.8784 21.1006 49.4598 21.0999C49.9923 21.1052 50.519 20.9889 50.9998 20.7599C51.4861 20.5265 51.9291 20.212 52.3098 19.8299C52.7269 19.4201 53.0868 18.9559 53.3798 18.4499C53.697 17.9133 53.9616 17.3474 54.1698 16.7599C54.3858 16.1515 54.5497 15.526 54.6598 14.8899C54.7787 14.2635 54.8389 13.6274 54.8398 12.9899C54.9031 11.9996 54.6661 11.0133 54.1598 10.1599C53.9587 9.84352 53.6786 9.58495 53.3472 9.40962C53.0158 9.23428 52.6445 9.14822 52.2698 9.15989C51.7303 9.16933 51.204 9.32861 50.7498 9.6199C50.1914 9.96898 49.6919 10.4044 49.2698 10.9099C48.7531 11.5247 48.307 12.1956 47.9398 12.9099C47.5086 13.7141 47.1473 14.5539 46.8598 15.4199L46.3498 19.5699Z" fill="white"/>
<path d="M66.5898 23.07L68.5098 7.19001H69.8798C70.0116 7.16309 70.1479 7.1682 70.2773 7.20491C70.4067 7.24162 70.5254 7.30885 70.6234 7.40097C70.7214 7.49308 70.7958 7.60737 70.8404 7.73423C70.8851 7.8611 70.8986 7.99684 70.8798 8.13002L70.6598 10.95C71.3019 9.78449 72.1767 8.76336 73.2298 7.95002C74.0765 7.30868 75.1077 6.95794 76.1698 6.95002C76.6273 6.91609 77.0859 6.99928 77.5023 7.19174C77.9187 7.3842 78.2793 7.67958 78.5498 8.05002C79.118 9.00211 79.3864 10.1033 79.3198 11.21C79.9435 9.94702 80.8504 8.84506 81.9698 7.99002C82.8837 7.33904 83.9779 6.98946 85.0998 6.99002C85.6794 6.94295 86.2602 7.06534 86.7715 7.3423C87.2828 7.61926 87.7026 8.03884 87.9798 8.55002C88.588 9.94285 88.7623 11.4867 88.4798 12.98L87.2498 23.07H84.4898L85.6998 12.96C85.864 12.0391 85.8231 11.0933 85.5798 10.19C85.4646 9.89246 85.2537 9.64164 84.9804 9.47693C84.7071 9.31221 84.3868 9.24296 84.0698 9.28003C83.6028 9.28749 83.1439 9.40391 82.7298 9.62002C82.2497 9.88309 81.8143 10.2206 81.4398 10.62C80.9817 11.1037 80.5885 11.6449 80.2698 12.23C79.8665 12.9365 79.5317 13.6798 79.2698 14.45L78.2698 23.07H75.5198L76.7098 12.96C76.8749 12.0415 76.8511 11.099 76.6398 10.19C76.5383 9.89141 76.3362 9.63737 76.068 9.47137C75.7999 9.30537 75.4824 9.23774 75.1698 9.28003C74.6621 9.28196 74.1632 9.41269 73.7198 9.66002C73.22 9.93993 72.776 10.3094 72.4098 10.75C71.9563 11.2804 71.57 11.8649 71.2598 12.49C70.8648 13.2318 70.5304 14.0043 70.2598 14.8L69.2598 23.07H66.5898Z" fill="white"/>
<path d="M96.9297 23.2801C96.115 23.2936 95.3058 23.144 94.5497 22.8401C93.8392 22.5526 93.2008 22.1121 92.6797 21.5501C92.1392 20.9483 91.7244 20.2445 91.4597 19.4801C91.1545 18.5821 91.0057 17.6384 91.0197 16.6901C91.0115 15.4065 91.2247 14.1312 91.6497 12.9201C92.0386 11.7947 92.6207 10.7457 93.3697 9.82008C94.0792 8.95838 94.9571 8.25059 95.9497 7.74008C96.9298 7.22456 98.0224 6.96 99.1297 6.97007C99.944 6.96154 100.752 7.11096 101.51 7.41008C102.221 7.7002 102.86 8.14414 103.38 8.71008C103.922 9.30666 104.337 10.0076 104.6 10.7701C104.91 11.6705 105.062 12.6178 105.05 13.5701C105.058 14.8503 104.845 16.1224 104.42 17.3301C104.033 18.4542 103.454 19.503 102.71 20.4301C102.001 21.3008 101.124 22.0187 100.13 22.5401C99.1399 23.0457 98.0409 23.2998 96.9297 23.2801ZM97.1897 21.1101C97.931 21.1168 98.6567 20.897 99.2697 20.4801C99.911 20.0411 100.453 19.4721 100.86 18.8101C101.319 18.0686 101.657 17.2583 101.86 16.4101C102.102 15.4796 102.223 14.5216 102.22 13.5601C102.303 12.3941 101.997 11.2334 101.35 10.2601C101.05 9.89197 100.667 9.6003 100.232 9.40907C99.7975 9.21784 99.3237 9.1325 98.8497 9.16007C98.1068 9.15339 97.3788 9.36934 96.7597 9.78009C96.119 10.2114 95.577 10.7738 95.1697 11.4301C94.7141 12.1735 94.3768 12.9831 94.1697 13.8301C93.9176 14.7589 93.7931 15.7177 93.7997 16.6801C93.7187 17.849 94.0244 19.0121 94.6697 19.9901C94.9696 20.3647 95.3549 20.6619 95.7934 20.8568C96.2319 21.0517 96.7107 21.1385 97.1897 21.1101Z" fill="white"/>
<path d="M121.14 7.19993L113.14 23.0699H110.82L106.72 7.19993H109.05C109.235 7.19349 109.416 7.25383 109.56 7.36993C109.675 7.48426 109.761 7.62499 109.81 7.77993L112.15 17.9899C112.22 18.3899 112.27 18.7799 112.31 19.1699C112.35 19.5599 112.39 19.9399 112.42 20.3399C112.54 19.9499 112.66 19.5699 112.8 19.1799C112.94 18.7899 113.09 18.3999 113.27 17.9899L118.17 7.77993C118.252 7.62007 118.368 7.48012 118.51 7.36993C118.654 7.26098 118.829 7.20137 119.01 7.19993H121.14Z" fill="white"/>
<path d="M126.18 7.19997L124.27 23.07H121.52L123.44 7.19997H126.18ZM127.24 2.19996C127.244 2.46205 127.189 2.7217 127.08 2.95996C126.972 3.19457 126.823 3.40795 126.64 3.58997C126.459 3.77239 126.245 3.91837 126.01 4.01996C125.78 4.12267 125.531 4.17713 125.28 4.17996C125.038 4.17588 124.799 4.12138 124.58 4.01996C124.353 3.91863 124.149 3.77236 123.98 3.58997C123.803 3.40715 123.66 3.19368 123.56 2.95996C123.455 2.72026 123.401 2.46158 123.4 2.19996C123.403 1.93861 123.457 1.68041 123.56 1.43997C123.664 1.20528 123.806 0.989132 123.98 0.799967C124.156 0.619524 124.363 0.4707 124.59 0.359965C124.811 0.253801 125.054 0.199101 125.3 0.199961C125.551 0.200476 125.799 0.25149 126.03 0.349963C126.262 0.456893 126.472 0.606102 126.65 0.789965C126.829 0.976967 126.974 1.19348 127.08 1.42996C127.191 1.67813 127.246 1.94801 127.24 2.21997V2.19996Z" fill="white"/>
<path d="M132.32 11.21C133.031 9.95792 134.007 8.8761 135.18 8.04003C136.142 7.35698 137.29 6.98369 138.47 6.97002C139.081 6.95561 139.685 7.09306 140.23 7.37003C140.742 7.63505 141.171 8.0365 141.47 8.53003C141.811 9.10987 142.033 9.75271 142.12 10.42C142.23 11.2631 142.23 12.117 142.12 12.96L140.93 23.07H138.16L139.35 12.96C139.524 12.0321 139.441 11.0741 139.11 10.19C138.954 9.88917 138.712 9.6418 138.414 9.47965C138.116 9.3175 137.777 9.24799 137.44 9.28003C136.904 9.28965 136.379 9.43041 135.91 9.69002C135.35 9.99224 134.843 10.3841 134.41 10.85C133.895 11.3997 133.445 12.0071 133.07 12.66C132.639 13.4082 132.287 14.1991 132.02 15.02L131.11 23.07H128.32L130.23 7.19002H131.61C131.738 7.1716 131.868 7.18322 131.99 7.22394C132.113 7.26467 132.224 7.33338 132.315 7.42463C132.406 7.51588 132.475 7.62714 132.516 7.74959C132.557 7.87204 132.568 8.0023 132.55 8.13002L132.32 11.21Z" fill="white"/>
<path d="M159.12 7.77998L159.01 8.70997C158.992 8.8821 158.923 9.04506 158.813 9.17847C158.703 9.31187 158.555 9.40979 158.39 9.45997L156.39 9.79997C156.595 10.3775 156.697 10.987 156.69 11.6C156.696 12.076 156.635 12.5506 156.51 13.01C156.398 13.4104 156.247 13.799 156.06 14.17C155.889 14.5158 155.695 14.8498 155.48 15.17C155.27 15.49 155.08 15.8 154.9 16.1C154.72 16.4189 154.569 16.7536 154.45 17.1C154.328 17.4434 154.267 17.8055 154.27 18.17C154.269 18.4469 154.32 18.7216 154.42 18.98C154.522 19.2415 154.65 19.4927 154.8 19.73C154.95 19.98 155.12 20.22 155.3 20.47C155.482 20.7269 155.649 20.994 155.8 21.27C155.955 21.5642 156.082 21.8722 156.18 22.19C156.283 22.5439 156.334 22.9112 156.33 23.28C156.317 24.0126 156.132 24.7319 155.79 25.38C155.431 26.0677 154.93 26.6711 154.32 27.15C153.625 27.6883 152.839 28.098 152 28.36C151.007 28.6734 149.971 28.8253 148.93 28.81C148.094 28.8162 147.261 28.7187 146.45 28.52C145.772 28.366 145.125 28.0953 144.54 27.72C144.04 27.4095 143.622 26.9844 143.32 26.48C143.031 25.993 142.882 25.436 142.89 24.87C142.878 24.2572 143.023 23.6515 143.31 23.11C143.598 22.5923 143.989 22.1396 144.46 21.78C144.968 21.3945 145.531 21.0878 146.13 20.87C146.778 20.6263 147.447 20.4455 148.13 20.33C148.857 20.2156 149.593 20.1621 150.33 20.17C151.069 20.1724 151.808 20.2259 152.54 20.33C152.441 20.1324 152.363 19.9245 152.31 19.71C152.248 19.4853 152.218 19.253 152.22 19.02C152.222 18.6812 152.273 18.3445 152.37 18.02C152.497 17.611 152.664 17.2157 152.87 16.84C152.456 17.1164 152.005 17.332 151.53 17.48C150.987 17.6359 150.424 17.7101 149.86 17.7C149.281 17.7025 148.705 17.6044 148.16 17.41C147.644 17.2149 147.174 16.9153 146.78 16.53C146.367 16.1191 146.046 15.6247 145.84 15.08C145.6 14.4408 145.481 13.7626 145.49 13.08C145.491 12.3235 145.633 11.574 145.91 10.87C146.179 10.146 146.591 9.48307 147.12 8.91998C147.689 8.33494 148.369 7.86918 149.12 7.54997C149.979 7.1964 150.901 7.02282 151.83 7.03998C152.373 7.03925 152.914 7.10643 153.44 7.23997C153.931 7.36527 154.397 7.57142 154.82 7.84997L159.12 7.77998ZM153.8 23.46C153.801 23.1979 153.774 22.9365 153.72 22.68C153.67 22.4553 153.603 22.2347 153.52 22.02C152.341 21.8149 151.145 21.7312 149.95 21.77C149.101 21.801 148.262 21.9595 147.46 22.24C146.897 22.4342 146.398 22.7803 146.02 23.24C145.718 23.5984 145.552 24.0514 145.55 24.52C145.535 24.865 145.615 25.2075 145.781 25.5105C145.947 25.8136 146.192 26.0658 146.49 26.24C147.314 26.685 148.245 26.8927 149.18 26.84C149.814 26.8493 150.445 26.7582 151.05 26.57C151.57 26.4138 152.061 26.1703 152.5 25.85C152.885 25.5637 153.206 25.199 153.44 24.78C153.677 24.3808 153.802 23.9245 153.8 23.46ZM150.65 15.91C151.174 15.9197 151.691 15.7921 152.15 15.54C152.583 15.2912 152.955 14.9497 153.24 14.54C153.545 14.1338 153.775 13.6767 153.92 13.19C154.078 12.6987 154.159 12.186 154.16 11.67C154.188 11.2925 154.141 10.9132 154.021 10.5543C153.901 10.1954 153.71 9.86411 153.46 9.57997C153.205 9.3377 152.903 9.15051 152.573 9.03007C152.242 8.90964 151.891 8.85855 151.54 8.87997C151.026 8.86672 150.517 8.98367 150.06 9.21997C149.634 9.44799 149.262 9.76521 148.97 10.15C148.667 10.5429 148.437 10.9864 148.29 11.46C148.14 11.9594 148.066 12.4785 148.07 13C148.011 13.7744 148.255 14.5416 148.75 15.14C148.993 15.3974 149.288 15.5994 149.616 15.7323C149.944 15.8652 150.296 15.9258 150.65 15.91Z" fill="white"/>
</g>
<defs>
<clipPath id="clip0_640_2953">
<rect width="159.12" height="28.77" fill="white"/>
</clipPath>
</defs>
</svg>
