<svg width="49" height="9" viewBox="0 0 49 9" fill="none" xmlns="http://www.w3.org/2000/svg">
<g clip-path="url(#clip0_708_7520)">
<path d="M1.71547 0L1.20429 4.24505H1.34902C1.40476 4.24732 1.46035 4.23773 1.51223 4.21689C1.56529 4.19181 1.61173 4.15428 1.64773 4.1074L3.26751 2.42753C3.30862 2.37624 3.35747 2.33189 3.41224 2.29614C3.46948 2.2634 3.53443 2.24717 3.60009 2.24922H4.36379L2.47917 4.19812C2.39048 4.30045 2.28658 4.38806 2.17123 4.45777C2.22186 4.49549 2.26652 4.54085 2.30365 4.59228C2.34304 4.64778 2.37805 4.70636 2.40835 4.76747L3.87416 7.21689H3.1351C3.07444 7.21921 3.01415 7.20632 2.95957 7.17935C2.90816 7.14834 2.86815 7.1011 2.84563 7.04484L1.61385 5.01147C1.58779 4.95555 1.546 4.90874 1.49375 4.87696C1.43117 4.85177 1.36384 4.84108 1.29667 4.84567H1.13346L0.847073 7.21689H0.015625L0.887106 0H1.71547Z" fill="#F4B733"/>
<path d="M8.08677 6.3002C7.937 6.46153 7.77538 6.61107 7.6033 6.74754C7.45448 6.86873 7.29346 6.97359 7.12291 7.06036C6.96083 7.14201 6.789 7.20195 6.61172 7.23868C6.42217 7.27736 6.22921 7.29622 6.03587 7.29498C5.77869 7.29929 5.52324 7.25143 5.28449 7.15421C5.06873 7.06379 4.87603 6.92473 4.72095 6.74754C4.56216 6.56515 4.44072 6.35247 4.36374 6.12189C4.27688 5.85346 4.23422 5.57231 4.23748 5.28977C4.23805 5.0332 4.26488 4.7774 4.31754 4.52647C4.3684 4.27777 4.44584 4.03546 4.5485 3.80384C4.64843 3.58133 4.77347 3.37137 4.92111 3.17819C5.06295 2.98508 5.23209 2.81431 5.42306 2.67142C5.61073 2.52839 5.81829 2.41453 6.03895 2.33356C6.27349 2.25048 6.5204 2.20921 6.76878 2.21156C6.98715 2.20697 7.20443 2.24411 7.4093 2.32105C7.573 2.38188 7.72358 2.4743 7.85274 2.59321C7.96356 2.6964 8.05171 2.82218 8.11141 2.96234C8.16401 3.08261 8.19229 3.2124 8.19455 3.34399C8.19672 3.54955 8.15247 3.75288 8.06522 3.93836C7.95458 4.14429 7.78919 4.31447 7.5879 4.4295C7.28946 4.60206 6.96788 4.72957 6.63328 4.80802C6.12009 4.93465 5.59816 5.02145 5.07201 5.06766C5.07201 5.1052 5.07201 5.13961 5.07201 5.17402C5.07201 5.20843 5.07201 5.24284 5.07201 5.28038C5.04852 5.63743 5.14875 5.99157 5.35531 6.28142C5.46196 6.40057 5.59393 6.49349 5.74119 6.55311C5.88845 6.61273 6.04715 6.6375 6.20524 6.62554C6.34417 6.62737 6.48279 6.61161 6.61788 6.57861C6.72371 6.54678 6.82672 6.50597 6.92583 6.45661C7.0142 6.41362 7.09782 6.36119 7.17526 6.3002L7.40622 6.12189C7.45898 6.07854 7.51453 6.03882 7.57251 6.00301C7.61754 5.97062 7.67131 5.95314 7.72648 5.95296C7.75808 5.95421 7.78904 5.96241 7.81721 5.97699C7.84539 5.99157 7.87012 6.01219 7.88969 6.03742L8.08677 6.3002ZM6.72566 2.81219C6.53279 2.80899 6.34187 2.85185 6.16829 2.93732C5.99617 3.02419 5.84159 3.14302 5.71253 3.28768C5.57693 3.446 5.46393 3.62292 5.37687 3.81323C5.2802 4.02002 5.20686 4.23725 5.15823 4.46078C5.55985 4.41804 5.95806 4.34696 6.34997 4.24806C6.58998 4.19216 6.82185 4.10488 7.03977 3.98841C7.17208 3.9194 7.27978 3.81 7.34771 3.67558C7.39919 3.57069 7.42557 3.45494 7.4247 3.33774C7.42377 3.27442 7.41124 3.21182 7.38774 3.15317C7.36019 3.08699 7.31805 3.02813 7.26457 2.98112C7.20086 2.9232 7.12657 2.87855 7.04593 2.84972C6.94205 2.8188 6.83374 2.8061 6.72566 2.81219Z" fill="#F4B733"/>
<path d="M12.6138 6.30025C12.465 6.46146 12.3044 6.611 12.1334 6.74758C11.9836 6.86742 11.8227 6.97218 11.653 7.06041C11.4907 7.14158 11.319 7.2015 11.1418 7.23872C10.9522 7.27725 10.7593 7.29612 10.566 7.29503C10.3078 7.29933 10.0513 7.25148 9.8115 7.15426C9.59796 7.06302 9.40744 6.92401 9.25412 6.74758C9.09533 6.5652 8.9739 6.35251 8.89691 6.12193C8.8111 5.85333 8.76948 5.57218 8.77373 5.28981C8.7696 4.77773 8.87465 4.27081 9.08168 3.80389C9.18041 3.58141 9.30443 3.37143 9.45121 3.17824C9.59387 2.98585 9.7629 2.8152 9.95316 2.67146C10.1408 2.52844 10.3484 2.41457 10.569 2.33361C10.8037 2.25113 11.0505 2.20988 11.2989 2.21161C11.5173 2.20671 11.7346 2.24387 11.9394 2.3211C12.1037 2.38268 12.2551 2.47499 12.3859 2.59326C12.4949 2.69741 12.5818 2.823 12.6415 2.96239C12.6963 3.08203 12.7257 3.21208 12.7277 3.34404C12.7303 3.54999 12.6849 3.75365 12.5953 3.93841C12.4858 4.14517 12.3201 4.31563 12.118 4.42954C11.8196 4.60211 11.498 4.72962 11.1634 4.80807C10.6503 4.93522 10.1283 5.02202 9.6021 5.06771C9.6021 5.10525 9.6021 5.13966 9.6021 5.17407C9.6021 5.20848 9.6021 5.24289 9.6021 5.28043C9.57862 5.63748 9.67885 5.99161 9.88541 6.28147C9.99206 6.40062 10.124 6.49353 10.2713 6.55316C10.4185 6.61278 10.5772 6.63755 10.7353 6.62558C10.8743 6.62758 11.0129 6.61182 11.148 6.57866C11.2538 6.54682 11.3568 6.50601 11.4559 6.45666C11.5448 6.41287 11.6294 6.36049 11.7084 6.30025L11.9055 6.14383C11.9583 6.10049 12.0138 6.06077 12.0718 6.02496C12.117 5.99293 12.1707 5.97548 12.2258 5.9749C12.2575 5.9755 12.2887 5.98341 12.317 5.99805C12.3452 6.01268 12.3699 6.03365 12.389 6.05937L12.6138 6.30025ZM11.2558 2.81223C11.0619 2.80947 10.8701 2.8523 10.6953 2.93737C10.5248 3.02536 10.3714 3.14407 10.2426 3.28773C10.105 3.44514 9.99089 3.62221 9.90389 3.81328C9.80823 4.02018 9.73592 4.23741 9.68833 4.46083C10.0889 4.41784 10.4861 4.34676 10.877 4.2481C11.117 4.19221 11.3489 4.10493 11.5668 3.98846C11.6987 3.91894 11.8063 3.80968 11.8747 3.67563C11.9248 3.57022 11.9511 3.45481 11.9517 3.33778C11.9511 3.27411 11.9375 3.21126 11.9117 3.15321C11.8853 3.08639 11.843 3.02727 11.7885 2.98116C11.7248 2.92325 11.6505 2.8786 11.5699 2.84977C11.4681 2.81901 11.3618 2.80631 11.2558 2.81223Z" fill="#F4B733"/>
<path d="M14.5322 3.60054C14.6488 3.39415 14.7827 3.19842 14.9326 3.01555C15.069 2.84899 15.2229 2.69795 15.3914 2.56508C15.5435 2.44659 15.7115 2.35074 15.8903 2.28041C16.059 2.21323 16.2387 2.17925 16.4199 2.1803C16.6062 2.1712 16.7919 2.20831 16.9609 2.28843C17.1299 2.36855 17.2772 2.48927 17.3899 2.64016C17.6463 3.03947 17.7674 3.51285 17.7348 3.98844C17.7346 4.25759 17.7067 4.526 17.6517 4.78928C17.5999 5.05189 17.5225 5.30863 17.4207 5.5557C17.3214 5.79494 17.1987 6.02341 17.0543 6.23766C16.9173 6.43982 16.7571 6.62465 16.577 6.78823C16.406 6.939 16.2127 7.06146 16.0042 7.15111C15.7995 7.2384 15.5796 7.28308 15.3575 7.2825C15.1309 7.28603 14.9066 7.2368 14.7016 7.1386C14.5062 7.0432 14.3347 6.90417 14.1996 6.73192L13.941 8.89668H13.1064L13.9009 2.24913H14.3259C14.3652 2.24336 14.4053 2.247 14.4431 2.25974C14.4808 2.27248 14.515 2.29397 14.5431 2.32252C14.5712 2.35106 14.5924 2.38587 14.6049 2.42417C14.6175 2.46248 14.621 2.50323 14.6154 2.54318L14.5322 3.60054ZM14.2736 6.12191C14.382 6.28448 14.5336 6.41248 14.7108 6.49104C14.8751 6.56349 15.0522 6.60076 15.2313 6.60054C15.3952 6.60219 15.5574 6.56582 15.7055 6.49418C15.8552 6.42117 15.9917 6.32279 16.1089 6.20325C16.2373 6.07506 16.3482 5.92985 16.4384 5.77155C16.5361 5.6037 16.6175 5.42665 16.6817 5.24287C16.7482 5.05257 16.7986 4.85687 16.8326 4.65789C16.8692 4.46194 16.8877 4.26296 16.888 4.06352C16.9075 3.75374 16.8345 3.44519 16.6786 3.17822C16.6166 3.07925 16.5304 2.99836 16.4284 2.94351C16.3263 2.88867 16.212 2.86174 16.0966 2.86539C15.9304 2.86835 15.7684 2.91817 15.6285 3.0093C15.4565 3.1185 15.3027 3.2547 15.1727 3.41284C15.0136 3.60518 14.8762 3.81504 14.7632 4.03849C14.6304 4.29007 14.5191 4.55277 14.4306 4.82369L14.2736 6.12191Z" fill="#F4B733"/>
<path d="M20.5063 7.21694L21.0976 2.24926H21.5195C21.5601 2.24084 21.602 2.24244 21.6419 2.25392C21.6817 2.26541 21.7183 2.28644 21.7484 2.31526C21.7786 2.34407 21.8015 2.37982 21.8153 2.41951C21.829 2.4592 21.8332 2.50166 21.8274 2.54332L21.7597 3.42549C21.9574 3.06088 22.2268 2.74145 22.5511 2.48702C22.8118 2.28639 23.1294 2.17667 23.4564 2.17419C23.5973 2.16357 23.7385 2.1896 23.8668 2.2498C23.995 2.31001 24.106 2.40241 24.1894 2.51829C24.3643 2.81614 24.447 3.1606 24.4265 3.50683C24.6185 3.11173 24.8978 2.76701 25.2425 2.49953C25.5239 2.29588 25.8609 2.18652 26.2064 2.1867C26.3849 2.17198 26.5637 2.21026 26.7212 2.2969C26.8786 2.38354 27.0079 2.5148 27.0933 2.67471C27.2805 3.11042 27.3342 3.59337 27.2472 4.06053L26.8685 7.21694H26.0185L26.3911 4.05427C26.4417 3.76618 26.4291 3.47031 26.3542 3.18774C26.3187 3.09466 26.2538 3.0162 26.1696 2.96467C26.0854 2.91314 25.9868 2.89148 25.8892 2.90307C25.7454 2.90541 25.6041 2.94183 25.4766 3.00943C25.3287 3.09173 25.1946 3.19731 25.0793 3.32226C24.9382 3.47358 24.8171 3.64288 24.719 3.82591C24.5948 4.0469 24.4917 4.27945 24.4111 4.52038L24.1031 7.21694H23.2563L23.6227 4.05427C23.6736 3.76694 23.6662 3.4721 23.6012 3.18774C23.5699 3.09433 23.5077 3.01486 23.4251 2.96293C23.3425 2.911 23.2447 2.88984 23.1485 2.90307C22.9922 2.90368 22.8385 2.94458 22.702 3.02194C22.5481 3.10951 22.4113 3.22509 22.2986 3.36292C22.1589 3.52885 22.04 3.71168 21.9444 3.90724C21.8228 4.13929 21.7198 4.38096 21.6365 4.62987L21.3286 7.21694H20.5063Z" fill="#F4B733"/>
<path d="M29.849 7.28248C29.5981 7.2867 29.349 7.2399 29.1161 7.14483C28.8973 7.0549 28.7007 6.91712 28.5403 6.74129C28.3738 6.55302 28.2461 6.33286 28.1646 6.09374C28.0706 5.81283 28.0248 5.51761 28.0291 5.22095C28.0266 4.81943 28.0922 4.42048 28.2231 4.0416C28.3429 3.68955 28.5221 3.36139 28.7528 3.07184C28.9712 2.80228 29.2416 2.58086 29.5472 2.42116C29.8491 2.25989 30.1855 2.17713 30.5265 2.18028C30.7773 2.17761 31.0262 2.22436 31.2594 2.31793C31.4785 2.40869 31.6752 2.54756 31.8353 2.7246C32.0023 2.91123 32.1302 3.1305 32.211 3.36902C32.3065 3.6507 32.3534 3.94703 32.3495 4.24494C32.352 4.64543 32.2864 5.04335 32.1555 5.42116C32.0363 5.77281 31.8582 6.1009 31.6289 6.39092C31.4108 6.66331 31.1405 6.88787 30.8345 7.05098C30.5297 7.20915 30.1912 7.28865 29.849 7.28248ZM29.9291 6.60364C30.1574 6.60574 30.3809 6.53699 30.5696 6.40656C30.7671 6.26924 30.9339 6.09124 31.0593 5.88415C31.2007 5.65219 31.3047 5.39872 31.3672 5.13336C31.4419 4.84229 31.4792 4.54261 31.4781 4.24181C31.5037 3.87706 31.4095 3.51398 31.2101 3.20948C31.1178 3.09433 30.9998 3.00309 30.866 2.94326C30.7322 2.88344 30.5863 2.85675 30.4403 2.86537C30.2115 2.86328 29.9873 2.93084 29.7967 3.05933C29.5994 3.19426 29.4325 3.37019 29.3071 3.57549C29.1668 3.80804 29.0629 4.06132 28.9991 4.32627C28.9215 4.61682 28.8831 4.91676 28.8852 5.21783C28.8602 5.58349 28.9544 5.94733 29.1531 6.25328C29.2454 6.37047 29.3641 6.46344 29.4991 6.52441C29.6341 6.58537 29.7816 6.61254 29.9291 6.60364Z" fill="#F4B733"/>
<path d="M37.3043 2.25234L34.8408 7.21689H34.1263L32.8638 2.25234H33.5813C33.6382 2.25033 33.694 2.26921 33.7383 2.30552C33.7739 2.34129 33.8003 2.38531 33.8153 2.43378L34.5359 5.62773C34.5575 5.75286 34.5729 5.87487 34.5852 5.99687C34.5975 6.11887 34.6098 6.23774 34.619 6.36287C34.656 6.24087 34.693 6.122 34.7361 6C34.7792 5.87799 34.8254 5.75599 34.8808 5.62773L36.3897 2.43378C36.415 2.38377 36.4507 2.33999 36.4944 2.30552C36.5388 2.27144 36.5928 2.25279 36.6484 2.25234H37.3043Z" fill="#F4B733"/>
<path d="M38.8564 2.25229L38.2682 7.21683H37.4214L38.0126 2.25229H38.8564ZM39.1828 0.688155C39.184 0.770142 39.1672 0.85137 39.1336 0.925903C39.1003 0.999295 39.0545 1.06605 38.9981 1.12299C38.9425 1.18005 38.8766 1.22572 38.8041 1.2575C38.7333 1.28963 38.6568 1.30666 38.5793 1.30755C38.5048 1.30627 38.4313 1.28923 38.3637 1.2575C38.2938 1.2258 38.2309 1.18004 38.1789 1.12299C38.1244 1.06579 38.0806 0.999015 38.0496 0.925903C38.0173 0.850918 38.0005 0.769996 38.0003 0.688155C38.0013 0.606396 38.018 0.525626 38.0496 0.450409C38.0817 0.376994 38.1254 0.309376 38.1789 0.250201C38.2333 0.193753 38.2969 0.147197 38.3668 0.112556C38.435 0.0793457 38.5098 0.062234 38.5854 0.0625031C38.6627 0.0626641 38.7391 0.0786227 38.8102 0.109427C38.8817 0.142878 38.9465 0.189555 39.0011 0.247072C39.0563 0.305571 39.1011 0.373301 39.1336 0.44728C39.1679 0.524914 39.1847 0.609339 39.1828 0.694413V0.688155Z" fill="#F4B733"/>
<path d="M40.7474 3.50688C40.9665 3.11519 41.267 2.77677 41.6281 2.51522C41.9244 2.30155 42.2779 2.18477 42.6413 2.1805C42.8293 2.17599 43.0156 2.21899 43.1832 2.30563C43.341 2.38854 43.4731 2.51412 43.5651 2.66851C43.6703 2.8499 43.7384 3.05099 43.7652 3.25975C43.7992 3.52349 43.7992 3.79059 43.7652 4.05433L43.3988 7.21699H42.5458L42.9122 4.05433C42.966 3.76405 42.9404 3.46436 42.8383 3.1878C42.7903 3.09368 42.7157 3.0163 42.6241 2.96557C42.5324 2.91485 42.428 2.89311 42.3241 2.90313C42.1591 2.90614 41.9973 2.95017 41.8529 3.03138C41.6805 3.12593 41.5244 3.24851 41.391 3.39426C41.2324 3.56623 41.094 3.75623 40.9784 3.96048C40.8457 4.19452 40.7373 4.44194 40.655 4.69875L40.3748 7.21699H39.5156L40.1038 2.24932H40.5288C40.5681 2.24356 40.6082 2.24719 40.6459 2.25993C40.6836 2.27267 40.7179 2.29416 40.746 2.32271C40.7741 2.35125 40.7952 2.38606 40.8078 2.42437C40.8203 2.46267 40.8239 2.50342 40.8182 2.54338L40.7474 3.50688Z" fill="#F4B733"/>
<path d="M49.0001 2.43376L48.9662 2.72469C48.9606 2.77853 48.9395 2.82951 48.9056 2.87124C48.8716 2.91297 48.8263 2.94361 48.7753 2.9593L48.1594 3.06566C48.2227 3.24634 48.254 3.43699 48.2518 3.62875C48.2535 3.77768 48.2349 3.92613 48.1964 4.06984C48.1619 4.19511 48.1155 4.31665 48.0578 4.43272C48.0051 4.54089 47.9454 4.64539 47.8792 4.74554C47.8145 4.84565 47.756 4.94262 47.7006 5.03647C47.6451 5.13623 47.5987 5.24094 47.562 5.34929C47.5244 5.45672 47.5056 5.57001 47.5066 5.68402C47.5064 5.77066 47.5221 5.85657 47.5527 5.93741C47.5843 6.01923 47.6235 6.09779 47.6698 6.17203C47.716 6.25023 47.7683 6.32531 47.8237 6.40352C47.8797 6.48388 47.9311 6.56744 47.9777 6.65378C48.0254 6.74583 48.0646 6.84218 48.0947 6.94158C48.1266 7.05229 48.1422 7.16721 48.1409 7.28256C48.1369 7.51174 48.0799 7.73676 47.9746 7.93949C47.8642 8.15463 47.7098 8.34339 47.522 8.49319C47.3079 8.66159 47.066 8.78977 46.8075 8.87171C46.5018 8.96976 46.1827 9.01729 45.8621 9.01249C45.6049 9.01442 45.3483 8.98394 45.0984 8.92176C44.8896 8.8736 44.6906 8.78892 44.5103 8.6715C44.3565 8.57437 44.2277 8.4414 44.1346 8.2836C44.0457 8.13127 43.9999 7.95701 44.0022 7.77995C43.9986 7.58825 44.0431 7.39877 44.1315 7.22938C44.2201 7.06744 44.3407 6.92581 44.4856 6.81332C44.642 6.69274 44.8154 6.59678 44.9999 6.52865C45.1994 6.45242 45.4056 6.39585 45.6158 6.35972C45.8398 6.32394 46.0665 6.3072 46.2933 6.30967C46.521 6.31044 46.7484 6.32716 46.9738 6.35972C46.9432 6.29792 46.9195 6.23287 46.903 6.16577C46.8839 6.09548 46.8746 6.02283 46.8753 5.94992C46.876 5.84395 46.8915 5.73861 46.9215 5.63709C46.9606 5.50916 47.0122 5.38551 47.0754 5.26796C46.948 5.35445 46.8091 5.42187 46.6628 5.46817C46.4957 5.51695 46.3224 5.54014 46.1485 5.53699C45.9702 5.53778 45.793 5.50708 45.625 5.44627C45.4662 5.38524 45.3215 5.29152 45.2001 5.17099C45.0729 5.04245 44.9742 4.8878 44.9106 4.71738C44.8368 4.51744 44.8002 4.30527 44.8028 4.09173C44.8031 3.8551 44.8469 3.62062 44.9321 3.40039C45.0152 3.17391 45.1419 2.96653 45.3048 2.79038C45.48 2.60736 45.6894 2.46166 45.9206 2.36181C46.1852 2.2512 46.4692 2.1969 46.7552 2.20227C46.9224 2.20204 47.0889 2.22306 47.251 2.26483C47.4021 2.30403 47.5457 2.36852 47.6759 2.45565L49.0001 2.43376ZM47.3618 7.33887C47.362 7.25688 47.3538 7.1751 47.3372 7.09486C47.3218 7.02457 47.3012 6.95556 47.2756 6.8884C46.9127 6.82425 46.5444 6.79805 46.1762 6.81019C45.9148 6.81991 45.6564 6.86947 45.4095 6.95722C45.2361 7.01797 45.0826 7.12623 44.966 7.27004C44.8731 7.38217 44.8219 7.52389 44.8213 7.67046C44.8168 7.7784 44.8414 7.88553 44.8924 7.98034C44.9434 8.07514 45.0189 8.15403 45.1108 8.20852C45.3645 8.34775 45.6512 8.41272 45.9391 8.39622C46.1343 8.39914 46.3286 8.37063 46.515 8.31176C46.6753 8.2629 46.8263 8.18674 46.9615 8.08652C47.0802 7.99696 47.1788 7.88288 47.251 7.7518C47.3241 7.62692 47.3624 7.48418 47.3618 7.33887ZM46.3918 4.97703C46.5531 4.98008 46.7123 4.94017 46.8537 4.86129C46.987 4.78347 47.1016 4.67663 47.1894 4.54846C47.2832 4.42139 47.3541 4.2784 47.3988 4.12614C47.4474 3.97247 47.4723 3.81207 47.4727 3.65065C47.4815 3.53258 47.4669 3.41392 47.4299 3.30164C47.3929 3.18936 47.3341 3.08573 47.2571 2.99684C47.1787 2.92105 47.0857 2.8625 46.9839 2.82482C46.8822 2.78715 46.7739 2.77116 46.6659 2.77786C46.5076 2.77372 46.3508 2.8103 46.2101 2.88422C46.0789 2.95556 45.9644 3.05479 45.8745 3.17516C45.7813 3.29806 45.7104 3.43682 45.6651 3.58496C45.6189 3.74119 45.596 3.90358 45.5973 4.06671C45.5792 4.30898 45.6542 4.54896 45.8067 4.73616C45.8814 4.81669 45.9724 4.87989 46.0734 4.92146C46.1743 4.96303 46.283 4.98198 46.3918 4.97703Z" fill="#F4B733"/>
</g>
<defs>
<clipPath id="clip0_708_7520">
<rect width="49" height="9" fill="white"/>
</clipPath>
</defs>
</svg>
