<svg width="20" height="20" viewBox="0 0 20 20" fill="none" xmlns="http://www.w3.org/2000/svg">
<path d="M10.7297 0.0649242C10.4018 0.153151 10.1287 0.308599 9.8639 0.548071C9.54028 0.842161 9.38898 1.09844 9.20406 1.66981C8.68713 3.2579 8.01048 4.38804 6.93458 5.46357C6.63618 5.75766 5.36695 6.83739 5.18203 6.95082C5.14841 6.96763 5.04754 6.92562 4.93407 6.84579C4.49698 6.5475 4.44655 6.5391 3.01341 6.52229C2.16446 6.51389 1.64332 6.52649 1.49202 6.5559C0.827982 6.69454 0.285827 7.1945 0.084095 7.8541C0.00424273 8.11038 3.99786e-05 8.26582 3.99786e-05 12.8326C3.99786e-05 17.9288 -0.00836552 17.7229 0.218583 18.164C0.432923 18.5842 0.954064 18.9875 1.42898 19.0925C1.78201 19.1765 3.89179 19.1892 4.25322 19.1135C4.5306 19.0547 4.85422 18.9077 5.04334 18.748L5.18623 18.6262L5.67375 18.9497C6.27475 19.353 6.64879 19.5421 7.19935 19.7269C7.99367 19.9916 8.09874 20 11.4147 20C13.3144 20 14.4911 19.9832 14.6508 19.9538C15.6427 19.7815 16.5715 19.1892 17.1094 18.3951C17.2902 18.1304 18.6518 15.4164 18.9755 14.6728C19.6059 13.2359 19.9463 11.7151 19.9925 10.1228C20.0219 9.1649 19.9715 8.854 19.7151 8.29943C19.3327 7.48439 18.6981 6.93402 17.7987 6.63573C17.5087 6.5391 17.4835 6.5349 15.1846 6.52229C13.9069 6.51389 12.8605 6.50129 12.8605 6.49288C12.8605 6.48028 13.0034 6.11057 13.1757 5.66943C13.6422 4.47207 13.68 4.29982 13.68 3.36293C13.68 2.64451 13.6716 2.55628 13.5623 2.16557C13.39 1.53957 13.0706 0.926188 12.7596 0.611092C12.2384 0.0985355 11.4273 -0.119932 10.7297 0.0649242ZM11.5576 1.67822C11.6963 1.77905 11.8686 2.08994 12.0073 2.50167C12.0998 2.79156 12.1166 2.91339 12.1208 3.36293C12.125 4.00152 12.125 4.00993 11.4315 5.75766C11.1541 6.46347 10.9146 7.12728 10.8978 7.23231C10.8684 7.48439 10.9902 7.76167 11.2046 7.92552L11.3601 8.04736L14.2852 8.06836C16.8657 8.08937 17.2313 8.09777 17.3826 8.16079C17.7861 8.32044 18.1055 8.60193 18.2736 8.95483C18.4333 9.28673 18.4627 9.56822 18.4123 10.3245C18.3324 11.4546 18.1349 12.4251 17.7735 13.4208C17.5843 13.9376 16.0419 17.1221 15.815 17.4708C15.5586 17.8573 15.1762 18.143 14.6676 18.3279L14.3945 18.4245H11.3895H8.38453L7.97686 18.3111C7.45152 18.1682 7.09428 17.9834 6.3588 17.4918L5.75781 17.0885V12.8158V8.54311L6.73705 7.74066C8.05251 6.66514 8.72915 5.96352 9.36797 5.00143C9.91013 4.19898 10.3178 3.35453 10.6456 2.35882C10.7507 2.05633 10.8642 1.77065 10.9062 1.72443C11.0617 1.55218 11.3517 1.53117 11.5576 1.67822ZM3.95063 8.11458C4.2154 8.20701 4.20279 8.00114 4.20279 12.8284C4.20279 15.9248 4.19018 17.2524 4.15656 17.349C4.13134 17.4204 4.07671 17.5002 4.03468 17.5212C3.98845 17.5465 3.49673 17.5633 2.86211 17.5633C1.82403 17.5633 1.76099 17.5591 1.68114 17.4792C1.63491 17.433 1.58868 17.3532 1.57607 17.3028C1.56346 17.2482 1.55926 15.1979 1.56346 12.7486C1.57607 8.47169 1.58027 8.28263 1.65592 8.2028C1.69795 8.15239 1.7736 8.10618 1.82403 8.09777C2.03837 8.05576 3.82034 8.07257 3.95063 8.11458Z" fill="#379417"/>
</svg>
