<svg width="25" height="24" viewBox="0 0 25 24" fill="none" xmlns="http://www.w3.org/2000/svg">
<path fill-rule="evenodd" clip-rule="evenodd" d="M14.8828 1.31283C14.6852 0.7262 14.4397 0.283232 14.2421 0.139566C13.9487 -0.0699459 13.5355 -0.0400156 13.3139 0.205413C13.254 0.27126 13.0924 0.678312 12.9426 1.10931C12.4756 2.528 11.8947 3.7312 11.1222 4.87454C10.212 6.24535 9.24796 7.24502 7.37366 8.77745L5.97842 9.92079V16.0086V22.0964L6.83473 22.6711C7.88266 23.3715 8.39165 23.6348 9.14017 23.8384L9.72102 24H14.0026H18.2841L18.6733 23.8623C19.3979 23.5989 19.9428 23.1919 20.3081 22.6412C20.6314 22.1443 22.8291 17.6069 23.0986 16.8706C23.6135 15.4519 23.895 14.0691 24.0088 12.4589C24.0806 11.3814 24.0387 10.9803 23.8111 10.5074C23.5716 10.0046 23.1165 9.60353 22.5417 9.37606C22.3261 9.28627 21.8051 9.27429 18.1284 9.24436L13.9606 9.21443L13.7391 9.04084C13.4337 8.80738 13.26 8.4123 13.3019 8.05314C13.3259 7.90349 13.6672 6.95769 14.0624 5.95203C15.0505 3.46183 15.0505 3.44986 15.0445 2.53998C15.0385 1.89947 15.0145 1.72587 14.8828 1.31283ZM3.53611 9.35922C3.49848 9.33809 3.45463 9.32805 3.40352 9.31021C3.21788 9.25035 0.678907 9.2264 0.373511 9.28627C0.301653 9.29824 0.193867 9.36408 0.133985 9.43592C0.0261982 9.54965 0.02021 9.81902 0.00224556 15.9128C-0.00374259 19.4027 0.00224556 22.3239 0.02021 22.4017C0.0381745 22.4736 0.104044 22.5873 0.169914 22.6531C0.283689 22.7669 0.373511 22.7729 1.85259 22.7729C2.7568 22.7729 3.45741 22.7489 3.52328 22.713C3.58316 22.6831 3.66101 22.5693 3.69694 22.4676C3.74484 22.3299 3.76281 20.4383 3.76281 16.0266C3.76281 10.0804 3.77623 9.49405 3.53611 9.35922Z" fill="#379417"/>
</svg>
