<svg width="12" height="12" viewBox="0 0 12 12" fill="none" xmlns="http://www.w3.org/2000/svg">
<path fill-rule="evenodd" clip-rule="evenodd" d="M2 12H0V5H2V12ZM12 7.2C12 7.726 11.545 8.16 10.971 8.16H10.882C11.259 8.314 11.551 8.676 11.548 9.1C11.544 9.507 11.228 9.876 10.971 10.042V10.044C10.971 10.05 10.745 10.166 10.145 10.171C10.317 10.2422 10.4642 10.3627 10.5679 10.5173C10.6717 10.672 10.7274 10.8538 10.728 11.04C10.728 11.566 10.258 12 9.686 12H3V5.28L4.8 2.64V0.96C4.8 0.435 5.256 0 5.829 0C6.757 0 7.045 0.793 7.045 2.117C7.045 3.179 6.857 4.32 6.857 4.32H10.971C11.545 4.32 12 4.754 12 5.28C12 5.806 11.545 6.24 10.971 6.24C11.545 6.24 12 6.674 12 7.2Z" fill="#272525"/>
</svg>
