<svg width="27" height="28" viewBox="0 0 27 28" fill="none" xmlns="http://www.w3.org/2000/svg">
<path d="M7.46365 12.8839C9.40745 12.8839 11.3512 12.8797 13.295 12.8894C13.5194 12.8908 13.6064 12.8392 13.6583 12.6103C14.3651 9.50861 16.3019 7.61021 19.3943 6.87597C19.6411 6.81735 19.6734 6.73359 19.672 6.52142C19.6636 4.87149 19.6664 3.22155 19.6636 1.57023C19.6622 0.573566 19.0984 0.00823381 18.097 0.00265028C17.2738 -0.00153737 16.4506 0.00265028 15.6259 0.0012544C14.6372 -0.000141486 13.6499 0.052902 12.6808 0.251117C9.28964 0.942079 6.49035 2.61435 4.32637 5.307C2.64342 7.40083 1.67994 9.79895 1.36158 12.4567C1.3111 12.8825 1.3139 12.8825 1.73183 12.8825C3.64197 12.8839 5.55211 12.8839 7.46365 12.8839Z" fill="#434343"/>
<path d="M10.5324 27.9971C7.55638 27.9971 4.58038 27.9943 1.60437 27.9999C1.09669 28.0013 0.650706 27.8812 0.31552 27.475C0.0841159 27.1917 -3.11961e-05 26.8608 -3.11961e-05 26.5007C-3.11961e-05 22.8281 -0.0028361 19.157 0.00277371 15.4844C0.00417616 14.5603 0.587596 13.9992 1.5076 13.9992C5.3952 13.9992 9.28139 14.002 13.169 13.9922C13.4579 13.9908 13.5266 14.0606 13.5336 14.3468C13.6248 17.6871 16.2572 20.6422 19.581 21.1573C20.0158 21.2243 20.4519 21.2759 20.8909 21.2689C21.069 21.2661 21.1111 21.3206 21.1111 21.4895C21.1055 23.1939 21.1167 24.8996 21.1027 26.604C21.097 27.355 20.5431 27.9133 19.7886 27.9845C19.6581 27.9971 19.5249 27.9971 19.3945 27.9971C16.4409 27.9971 13.4873 27.9971 10.5324 27.9971ZM11.1018 22.937C11.7932 22.937 12.4846 22.937 13.176 22.937C13.6697 22.937 14.1647 22.9496 14.657 22.9286C15.1128 22.9091 15.3316 22.4373 15.0763 22.073C14.9221 21.8538 14.6949 21.8482 14.4592 21.8482C12.4285 21.8496 10.3977 21.8454 8.36699 21.8538C8.13419 21.8552 7.99254 21.7924 7.86211 21.59C7.35302 20.8013 6.82009 20.028 6.29838 19.2477C6.19179 19.0886 6.07539 18.9476 5.87344 18.9169C5.65045 18.882 5.4541 18.9434 5.32508 19.1332C5.17361 19.3538 5.18904 19.5813 5.3391 19.8047C6.00246 20.7929 6.66863 21.7784 7.32077 22.7737C7.42735 22.9356 7.55217 22.9384 7.70784 22.9384C8.84102 22.9356 9.9714 22.937 11.1018 22.937Z" fill="#434343"/>
<path d="M7.46369 12.884C5.55355 12.884 3.64201 12.884 1.73187 12.884C1.31534 12.884 1.31114 12.884 1.36163 12.4583C1.67998 9.80052 2.64347 7.4024 4.32641 5.30857C6.49039 2.61452 9.28969 0.942254 12.6794 0.249897C13.6499 0.0516813 14.6358 3.36932e-05 15.6246 3.36932e-05C16.4478 0.00142958 17.271 -0.00275807 18.0957 0.00142958C19.097 0.0070131 19.6608 0.572345 19.6622 1.56901C19.665 3.21894 19.6622 4.86887 19.6706 6.5202C19.672 6.73237 19.6398 6.81613 19.3929 6.87475C16.3005 7.61038 14.3638 9.50739 13.6569 12.609C13.605 12.838 13.5181 12.8896 13.2937 12.8882C11.3499 12.8798 9.40749 12.884 7.46369 12.884Z" fill="#434343"/>
<path d="M27 14.0118C26.9887 17.4359 24.2175 20.1733 20.7745 20.1621C17.3763 20.1509 14.5841 17.3438 14.6135 13.97C14.643 10.5515 17.4226 7.82529 20.8656 7.83646C24.254 7.84763 27.0126 10.624 27 14.0118ZM20.8011 17.9119C21.4378 17.9119 22.0746 17.9217 22.7113 17.9091C23.4532 17.8952 23.8893 17.4471 23.8907 16.7129C23.8935 15.719 23.8893 14.7237 23.8921 13.7299C23.8935 13.4172 23.8024 13.131 23.564 12.9412C23.362 12.7807 23.3227 12.6034 23.341 12.3773C23.3494 12.2684 23.3452 12.1581 23.341 12.0492C23.2849 10.712 22.3691 9.68461 21.1069 9.54223C19.8685 9.40264 18.7241 10.1732 18.3833 11.3778C18.2781 11.7505 18.2795 12.1316 18.2823 12.5141C18.2837 12.6285 18.3048 12.7402 18.1771 12.8323C17.8293 13.0864 17.727 13.4479 17.7326 13.8681C17.7452 14.7963 17.734 15.726 17.7368 16.6542C17.7396 17.4806 18.1603 17.905 18.9892 17.9105C19.5936 17.9161 20.1967 17.9119 20.8011 17.9119Z" fill="#434343"/>
<path d="M20.8192 12.6145C20.4139 12.6145 20.0086 12.6159 19.6033 12.6131C19.5247 12.6131 19.4111 12.6494 19.4055 12.5112C19.3887 12.031 19.3733 11.5522 19.7197 11.1502C20.1011 10.7077 20.686 10.5262 21.2287 10.6993C21.7939 10.8794 22.181 11.3624 22.2287 11.9486C22.2819 12.6145 22.2819 12.6145 21.6074 12.6145C21.3451 12.6145 21.0814 12.6145 20.8192 12.6145Z" fill="#434343"/>
</svg>
