<svg width="28" height="28" viewBox="0 0 28 28" fill="none" xmlns="http://www.w3.org/2000/svg">
<path d="M21.3618 11.6554C21.1999 10.9779 21.0467 10.3784 20.9183 9.77532C20.8847 9.61539 20.8237 9.57877 20.6717 9.58121C20.2332 9.58975 19.7934 9.57633 19.3549 9.58853C19.1904 9.59342 19.0933 9.53726 18.9961 9.40907C17.9185 8.00388 16.4821 7.15661 14.7057 6.96616C12.4496 6.72321 10.556 7.47525 9.07973 9.18199C8.97633 9.30163 8.88788 9.36634 8.71721 9.34436C6.35771 9.04892 4.05303 10.3931 3.16977 12.5747C2.94553 13.1278 2.80476 13.7003 2.80351 14.2986C2.80351 14.4634 2.75493 14.5525 2.58924 14.6148C2.29897 14.7234 2.07598 14.9261 1.92026 15.1885C1.85299 15.3033 1.78572 15.3363 1.66986 15.2642C1.65366 15.2545 1.63248 15.2545 1.6138 15.2471C1.28118 15.1153 0.838926 15.0677 0.647076 14.8284C0.45149 14.5855 0.596 14.1508 0.593508 13.8004C0.587279 13.046 0.597245 12.2903 0.587279 11.5358C0.584788 11.3685 0.632127 11.2867 0.799061 11.2269C1.40077 11.0133 1.99376 10.7764 2.59422 10.5603C2.7487 10.5054 2.82594 10.4199 2.86456 10.2685C3.11745 9.25402 3.52482 8.30054 4.07296 7.40688C4.16515 7.2555 4.16141 7.1383 4.08915 6.98569C3.8263 6.4241 3.57963 5.85519 3.31428 5.29482C3.24452 5.14832 3.24078 5.05676 3.37034 4.93101C4.12902 4.20217 4.88022 3.46478 5.6252 2.72128C5.75102 2.59553 5.84694 2.59065 6.00017 2.66024C6.58071 2.92516 7.16996 3.17055 7.74924 3.43548C7.89998 3.50384 8.00836 3.49041 8.14789 3.40862C9.05357 2.88121 10.0153 2.47833 11.0418 2.23538C11.2187 2.19388 11.3109 2.1072 11.3744 1.93506C11.5887 1.35393 11.8316 0.7838 12.0497 0.20512C12.1045 0.0598393 12.1655 -0.00120291 12.3349 1.79329e-05C13.4076 0.00856385 14.4802 0.00978469 15.5528 1.79329e-05C15.7259 -0.00120291 15.7882 0.0659436 15.8418 0.206341C16.0611 0.785021 16.2928 1.36004 16.512 1.93872C16.5693 2.0901 16.6441 2.18045 16.8235 2.2244C17.8637 2.48077 18.8479 2.87999 19.766 3.42449C19.9018 3.50506 20.0064 3.49774 20.141 3.43792C20.7227 3.17666 21.312 2.92882 21.8925 2.66512C22.0458 2.59553 22.1417 2.60042 22.2675 2.72616C23.0125 3.46966 23.7637 4.20583 24.5224 4.93589C24.642 5.05065 24.6507 5.13977 24.5847 5.28261C24.3131 5.86129 24.0577 6.4473 23.7849 7.02598C23.7201 7.16271 23.7301 7.26038 23.8098 7.38857C24.0764 7.82075 24.2894 8.27857 24.5049 8.7376C24.6096 8.9598 24.551 9.04159 24.343 9.1356C23.9207 9.32727 23.5071 9.5397 23.0997 9.75945C22.3784 10.1465 21.8402 10.7093 21.4789 11.4332C21.4553 11.4857 21.4241 11.5407 21.3618 11.6554Z" fill="#434343"/>
<path d="M8.10176 28.0001C5.63512 28.0001 3.16724 28.0013 0.700607 28.0001C0.144991 28.0001 -0.091706 27.7022 0.03038 27.1662C0.760404 23.9481 3.33418 21.5027 6.62801 20.8984C10.8063 20.1317 15.0046 22.7248 16.0922 26.745C16.137 26.9111 16.1831 27.0771 16.2118 27.2456C16.294 27.7205 16.0523 28.0001 15.5602 28.0001C13.0749 28.0001 10.5883 27.9988 8.10176 28.0001Z" fill="#434343"/>
<path d="M23.6541 10.5225C23.6541 11.4283 23.6579 12.3171 23.6504 13.2059C23.6492 13.3658 23.6865 13.4659 23.8422 13.5453C24.1774 13.7174 24.5038 13.9066 24.8264 14.1008C24.9597 14.1813 25.0631 14.1765 25.1964 14.0947C25.5091 13.903 25.828 13.7186 26.1544 13.5514C26.3076 13.4732 26.3525 13.378 26.3512 13.2156C26.3438 12.3195 26.3475 11.4247 26.3475 10.4846C27.1859 10.9278 27.7141 11.5663 27.9184 12.4367C28.2361 13.7882 27.6095 15.0896 26.3525 15.7257C26.2105 15.7977 26.1631 15.8746 26.1644 16.0297C26.1706 17.9782 26.1718 19.9279 26.1631 21.8775C26.1619 22.0631 26.2404 22.1339 26.3911 22.2157C27.4064 22.77 27.9695 23.6136 27.9907 24.7612C28.0106 25.9088 27.4774 26.7682 26.487 27.3652C26.4559 27.3836 26.421 27.397 26.3487 27.4312C26.3487 26.778 26.3537 26.1542 26.3463 25.5303C26.3425 25.1787 26.4771 24.7636 26.2939 24.4926C26.1195 24.2362 25.7022 24.1508 25.4194 23.9505C25.1254 23.743 24.88 23.7442 24.5897 23.953C24.3568 24.1215 24.0939 24.2521 23.8348 24.3827C23.6928 24.4547 23.6492 24.5426 23.6504 24.6965C23.6579 25.5938 23.6541 26.4911 23.6541 27.4299C22.8818 27.0283 22.3785 26.4423 22.1355 25.6524C21.7194 24.2948 22.3374 22.8701 23.6267 22.2108C23.7899 22.1278 23.8398 22.0387 23.8385 21.8629C23.831 19.9425 23.831 18.0221 23.8398 16.1017C23.841 15.8954 23.7837 15.7941 23.5918 15.6891C22.6289 15.1653 22.0782 14.3571 22.0197 13.2742C21.9574 12.1059 22.4719 11.2147 23.471 10.5847C23.5034 10.564 23.5383 10.5469 23.5744 10.531C23.5906 10.5249 23.6105 10.5273 23.6541 10.5225Z" fill="#434343"/>
<path d="M8.08441 14.4646C6.71032 14.4646 5.33623 14.4634 3.96214 14.4659C3.80642 14.4659 3.68931 14.4842 3.70925 14.251C3.88116 12.2891 5.2129 10.7569 7.1588 10.304C9.6491 9.72411 12.2291 11.5151 12.477 13.9971C12.5244 14.4646 12.5244 14.4646 12.031 14.4646C10.7155 14.4646 9.39995 14.4646 8.08441 14.4646Z" fill="#434343"/>
<path d="M20.8633 24.3131C20.8633 25.269 20.8571 26.2237 20.8683 27.1796C20.8708 27.3786 20.8197 27.4348 20.6142 27.4311C19.7857 27.4189 18.9561 27.4201 18.1276 27.4311C17.9333 27.4336 17.8884 27.3774 17.8897 27.1931C17.8959 25.291 17.8922 23.3901 17.8947 21.4881C17.8947 21.0388 18.0541 20.8886 18.5101 20.8874C19.1043 20.8862 19.6998 20.885 20.294 20.8874C20.6939 20.8886 20.8608 21.0485 20.8621 21.4453C20.8658 22.4012 20.8633 23.3572 20.8633 24.3131Z" fill="#434343"/>
<path d="M18.6209 16.8295C18.6209 16.075 18.5985 15.3181 18.6284 14.5648C18.6495 14.035 18.5698 13.5454 18.2858 13.0913C18.1263 12.8361 18.1051 12.581 18.1948 12.2819C18.3468 11.7715 18.4502 11.2466 18.5598 10.7253C18.5947 10.5592 18.6483 10.4823 18.8414 10.4909C19.2114 10.5092 19.5826 10.5055 19.9526 10.4921C20.1046 10.486 20.1582 10.5495 20.1868 10.6752C20.3288 11.2979 20.4659 11.9205 20.6191 12.5395C20.6502 12.664 20.6378 12.7629 20.5755 12.8618C20.1806 13.4856 20.1146 14.1656 20.1283 14.8871C20.1594 16.4925 20.1332 18.098 20.1432 19.7046C20.1445 19.9292 20.0884 20 19.8567 19.9854C19.5465 19.9646 19.2313 19.9646 18.9211 19.9854C18.6869 20 18.6072 19.9488 18.6122 19.6973C18.6321 18.7413 18.6209 17.7854 18.6209 16.8295Z" fill="#434343"/>
<path d="M4.22983 17.5007C4.29959 17.5007 4.37558 17.5007 4.45158 17.5007C6.88831 17.5007 9.3263 17.5032 11.763 17.4971C11.9848 17.4971 12.0545 17.5142 11.9511 17.7522C11.3146 19.2185 9.79097 20.2 8.12163 20.2037C6.44482 20.2073 4.90255 19.2185 4.27717 17.7364C4.24727 17.6668 4.19495 17.6021 4.22983 17.5007Z" fill="#434343"/>
<path d="M8.0981 16.5853C6.47859 16.5853 4.86033 16.5866 3.24082 16.5829C2.89948 16.5817 2.66527 16.3766 2.61544 16.0604C2.57184 15.782 2.74127 15.5061 3.02779 15.4133C3.11749 15.384 3.2184 15.3792 3.31432 15.3792C6.51347 15.3779 9.71262 15.3779 12.9118 15.3779C13.3328 15.3779 13.6169 15.6197 13.6219 15.9761C13.6269 16.3314 13.3428 16.5841 12.9255 16.5841C11.3172 16.5878 9.70764 16.5866 8.0981 16.5853Z" fill="#434343"/>
</svg>
