<svg width="28" height="28" viewBox="0 0 28 28" fill="none" xmlns="http://www.w3.org/2000/svg">
<path d="M9.91683 22.1668H9.3335C4.66683 22.1668 2.3335 21.0002 2.3335 15.1668V9.3335C2.3335 4.66683 4.66683 2.3335 9.3335 2.3335H18.6668C23.3335 2.3335 25.6668 4.66683 25.6668 9.3335V15.1668C25.6668 19.8335 23.3335 22.1668 18.6668 22.1668H18.0835C17.7218 22.1668 17.3718 22.3418 17.1502 22.6335L15.4002 24.9668C14.6302 25.9935 13.3702 25.9935 12.6002 24.9668L10.8502 22.6335C10.6635 22.3768 10.2318 22.1668 9.91683 22.1668Z" stroke="#323643" stroke-width="1.5" stroke-miterlimit="10" stroke-linecap="round" stroke-linejoin="round"/>
<path d="M18.6621 12.8335H18.6738M13.9943 12.8335H14.006M9.32764 12.8335H9.33697" stroke="#323643" stroke-width="2" stroke-linecap="round" stroke-linejoin="round"/>
</svg>
