<svg width="15" height="15" viewBox="0 0 15 15" fill="none" xmlns="http://www.w3.org/2000/svg">
<path d="M9.66667 5.33333C9.66667 4.95024 9.51448 4.58284 9.2436 4.31196C8.97271 4.04107 8.60531 3.88889 8.22222 3.88889C7.83913 3.88889 7.47173 4.04107 7.20085 4.31196C6.92996 4.58284 6.77778 4.95024 6.77778 5.33333V8.94444C6.77778 9.32753 6.6256 9.69493 6.35471 9.96582C6.08382 10.2367 5.71642 10.3889 5.33333 10.3889H9.66667M5.33333 7.5H8.22222M14 7.5C14 8.35359 13.8319 9.19883 13.5052 9.98744C13.1786 10.7761 12.6998 11.4926 12.0962 12.0962C11.4926 12.6998 10.7761 13.1786 9.98744 13.5052C9.19883 13.8319 8.35359 14 7.5 14C6.64641 14 5.80117 13.8319 5.01256 13.5052C4.22394 13.1786 3.50739 12.6998 2.90381 12.0962C2.30023 11.4926 1.82144 10.7761 1.49478 9.98744C1.16813 9.19883 1 8.35359 1 7.5C1 5.77609 1.68482 4.12279 2.90381 2.90381C4.12279 1.68482 5.77609 1 7.5 1C9.22391 1 10.8772 1.68482 12.0962 2.90381C13.3152 4.12279 14 5.77609 14 7.5Z" stroke="#F4B733" stroke-linecap="round" stroke-linejoin="round"/>
</svg>
