<svg width="129" height="12" viewBox="0 0 129 12" fill="none" xmlns="http://www.w3.org/2000/svg">
<path d="M3.11222 6.54545L3.20668 4.44744L1.43679 5.58594L0.894886 4.64134L2.77415 3.68182L0.894886 2.7223L1.43679 1.7777L3.20668 2.91619L3.11222 0.818182H4.19105L4.09659 2.91619L5.86648 1.7777L6.40838 2.7223L4.52912 3.68182L6.40838 4.64134L5.86648 5.58594L4.09659 4.44744L4.19105 6.54545H3.11222ZM10.413 6.54545L10.5075 4.44744L8.73757 5.58594L8.19567 4.64134L10.0749 3.68182L8.19567 2.7223L8.73757 1.7777L10.5075 2.91619L10.413 0.818182H11.4918L11.3974 2.91619L13.1673 1.7777L13.7092 2.7223L11.8299 3.68182L13.7092 4.64134L13.1673 5.58594L11.3974 4.44744L11.4918 6.54545H10.413ZM17.7138 6.54545L17.8082 4.44744L16.0384 5.58594L15.4964 4.64134L17.3757 3.68182L15.4964 2.7223L16.0384 1.7777L17.8082 2.91619L17.7138 0.818182H18.7926L18.6982 2.91619L20.468 1.7777L21.0099 2.7223L19.1307 3.68182L21.0099 4.64134L20.468 5.58594L18.6982 4.44744L18.7926 6.54545H17.7138ZM25.0146 6.54545L25.109 4.44744L23.3391 5.58594L22.7972 4.64134L24.6765 3.68182L22.7972 2.7223L23.3391 1.7777L25.109 2.91619L25.0146 0.818182H26.0934L25.9989 2.91619L27.7688 1.7777L28.3107 2.7223L26.4315 3.68182L28.3107 4.64134L27.7688 5.58594L25.9989 4.44744L26.0934 6.54545H25.0146ZM32.3153 6.54545L32.4098 4.44744L30.6399 5.58594L30.098 4.64134L31.9773 3.68182L30.098 2.7223L30.6399 1.7777L32.4098 2.91619L32.3153 0.818182H33.3942L33.2997 2.91619L35.0696 1.7777L35.6115 2.7223L33.7322 3.68182L35.6115 4.64134L35.0696 5.58594L33.2997 4.44744L33.3942 6.54545H32.3153ZM39.6161 6.54545L39.7106 4.44744L37.9407 5.58594L37.3988 4.64134L39.2781 3.68182L37.3988 2.7223L37.9407 1.7777L39.7106 2.91619L39.6161 0.818182H40.695L40.6005 2.91619L42.3704 1.7777L42.9123 2.7223L41.033 3.68182L42.9123 4.64134L42.3704 5.58594L40.6005 4.44744L40.695 6.54545H39.6161ZM46.9169 6.54545L47.0114 4.44744L45.2415 5.58594L44.6996 4.64134L46.5788 3.68182L44.6996 2.7223L45.2415 1.7777L47.0114 2.91619L46.9169 0.818182H47.9957L47.9013 2.91619L49.6712 1.7777L50.2131 2.7223L48.3338 3.68182L50.2131 4.64134L49.6712 5.58594L47.9013 4.44744L47.9957 6.54545H46.9169ZM54.2177 6.54545L54.3121 4.44744L52.5423 5.58594L52.0004 4.64134L53.8796 3.68182L52.0004 2.7223L52.5423 1.7777L54.3121 2.91619L54.2177 0.818182H55.2965L55.2021 2.91619L56.9719 1.7777L57.5138 2.7223L55.6346 3.68182L57.5138 4.64134L56.9719 5.58594L55.2021 4.44744L55.2965 6.54545H54.2177ZM61.5185 6.54545L61.6129 4.44744L59.843 5.58594L59.3011 4.64134L61.1804 3.68182L59.3011 2.7223L59.843 1.7777L61.6129 2.91619L61.5185 0.818182H62.5973L62.5028 2.91619L64.2727 1.7777L64.8146 2.7223L62.9354 3.68182L64.8146 4.64134L64.2727 5.58594L62.5028 4.44744L62.5973 6.54545H61.5185ZM68.8192 6.54545L68.9137 4.44744L67.1438 5.58594L66.6019 4.64134L68.4812 3.68182L66.6019 2.7223L67.1438 1.7777L68.9137 2.91619L68.8192 0.818182H69.8981L69.8036 2.91619L71.5735 1.7777L72.1154 2.7223L70.2362 3.68182L72.1154 4.64134L71.5735 5.58594L69.8036 4.44744L69.8981 6.54545H68.8192ZM76.12 6.54545L76.2145 4.44744L74.4446 5.58594L73.9027 4.64134L75.782 3.68182L73.9027 2.7223L74.4446 1.7777L76.2145 2.91619L76.12 0.818182H77.1989L77.1044 2.91619L78.8743 1.7777L79.4162 2.7223L77.5369 3.68182L79.4162 4.64134L78.8743 5.58594L77.1044 4.44744L77.1989 6.54545H76.12ZM83.4208 6.54545L83.5153 4.44744L81.7454 5.58594L81.2035 4.64134L83.0827 3.68182L81.2035 2.7223L81.7454 1.7777L83.5153 2.91619L83.4208 0.818182H84.4996L84.4052 2.91619L86.1751 1.7777L86.717 2.7223L84.8377 3.68182L86.717 4.64134L86.1751 5.58594L84.4052 4.44744L84.4996 6.54545H83.4208ZM90.7216 6.54545L90.8161 4.44744L89.0462 5.58594L88.5043 4.64134L90.3835 3.68182L88.5043 2.7223L89.0462 1.7777L90.8161 2.91619L90.7216 0.818182H91.8004L91.706 2.91619L93.4759 1.7777L94.0178 2.7223L92.1385 3.68182L94.0178 4.64134L93.4759 5.58594L91.706 4.44744L91.8004 6.54545H90.7216ZM96.2326 11L100.677 2.21023V2.13565H95.5366V0.818182H102.268V2.1804L97.8384 11H96.2326ZM107.246 0.678977C107.7 0.682291 108.147 0.765151 108.588 0.927557C109.029 1.08996 109.427 1.35511 109.781 1.72301C110.139 2.09091 110.424 2.58807 110.637 3.21449C110.852 3.83759 110.961 4.61316 110.965 5.54119C110.965 6.43276 110.875 7.22656 110.696 7.92259C110.517 8.61529 110.26 9.20028 109.926 9.67756C109.594 10.1548 109.191 10.5178 108.718 10.7663C108.244 11.0149 107.71 11.1392 107.117 11.1392C106.51 11.1392 105.972 11.0199 105.501 10.7812C105.03 10.5426 104.647 10.2128 104.352 9.7919C104.057 9.36766 103.874 8.88045 103.801 8.33026H105.317C105.416 8.76776 105.619 9.1224 105.923 9.39418C106.232 9.66264 106.629 9.79688 107.117 9.79688C107.862 9.79688 108.444 9.47206 108.862 8.82244C109.279 8.16951 109.49 7.25805 109.493 6.08807H109.414C109.241 6.37311 109.026 6.61837 108.767 6.82386C108.512 7.02936 108.225 7.18845 107.907 7.30114C107.589 7.41383 107.249 7.47017 106.888 7.47017C106.301 7.47017 105.768 7.32599 105.287 7.03764C104.807 6.74929 104.424 6.35322 104.139 5.84943C103.854 5.34564 103.711 4.7706 103.711 4.12429C103.711 3.4813 103.857 2.89796 104.149 2.37429C104.444 1.85062 104.855 1.43632 105.382 1.13139C105.912 0.823153 106.533 0.672348 107.246 0.678977ZM107.251 1.97159C106.863 1.97159 106.513 2.06771 106.202 2.25994C105.894 2.44886 105.65 2.70573 105.471 3.03054C105.292 3.35204 105.203 3.70999 105.203 4.1044C105.203 4.49882 105.289 4.85677 105.461 5.17827C105.637 5.49645 105.875 5.75 106.177 5.93892C106.482 6.12453 106.83 6.21733 107.221 6.21733C107.513 6.21733 107.785 6.16098 108.036 6.0483C108.288 5.93561 108.509 5.77983 108.698 5.58097C108.887 5.37879 109.034 5.15009 109.14 4.89489C109.246 4.63968 109.299 4.37121 109.299 4.08949C109.299 3.71496 109.21 3.36695 109.031 3.04545C108.855 2.72396 108.613 2.46544 108.305 2.26989C107.997 2.07102 107.645 1.97159 107.251 1.97159ZM116.201 11.1392C115.488 11.1392 114.859 11.0166 114.312 10.7713C113.768 10.526 113.342 10.188 113.034 9.7571C112.726 9.32623 112.573 8.8357 112.577 8.28551C112.573 7.85464 112.661 7.45857 112.84 7.0973C113.022 6.73272 113.269 6.42945 113.581 6.1875C113.893 5.94223 114.241 5.78646 114.625 5.72017V5.66051C114.118 5.53788 113.712 5.2661 113.407 4.84517C113.102 4.42424 112.951 3.94034 112.955 3.39347C112.951 2.87311 113.089 2.40909 113.367 2.00142C113.649 1.59044 114.035 1.26728 114.526 1.03196C115.016 0.796638 115.575 0.678977 116.201 0.678977C116.821 0.678977 117.374 0.798295 117.862 1.03693C118.352 1.27225 118.738 1.59541 119.02 2.00639C119.302 2.41406 119.444 2.87642 119.447 3.39347C119.444 3.94034 119.288 4.42424 118.98 4.84517C118.672 5.2661 118.271 5.53788 117.777 5.66051V5.72017C118.158 5.78646 118.501 5.94223 118.806 6.1875C119.114 6.42945 119.36 6.73272 119.542 7.0973C119.728 7.45857 119.822 7.85464 119.825 8.28551C119.822 8.8357 119.666 9.32623 119.358 9.7571C119.05 10.188 118.622 10.526 118.075 10.7713C117.532 11.0166 116.907 11.1392 116.201 11.1392ZM116.201 9.88139C116.622 9.88139 116.987 9.81179 117.295 9.67259C117.603 9.53007 117.842 9.33286 118.011 9.08097C118.18 8.82576 118.266 8.52746 118.269 8.18608C118.266 7.83144 118.173 7.51823 117.991 7.24645C117.812 6.97467 117.568 6.76089 117.26 6.60511C116.952 6.44934 116.599 6.37145 116.201 6.37145C115.8 6.37145 115.444 6.44934 115.132 6.60511C114.821 6.76089 114.575 6.97467 114.396 7.24645C114.217 7.51823 114.129 7.83144 114.133 8.18608C114.129 8.52746 114.211 8.82576 114.376 9.08097C114.545 9.33286 114.786 9.53007 115.097 9.67259C115.409 9.81179 115.777 9.88139 116.201 9.88139ZM116.201 5.14347C116.539 5.14347 116.839 5.07552 117.101 4.93963C117.363 4.80374 117.568 4.61482 117.717 4.37287C117.87 4.13092 117.948 3.84754 117.951 3.52273C117.948 3.20455 117.871 2.92614 117.722 2.6875C117.576 2.44886 117.373 2.26491 117.111 2.13565C116.849 2.00308 116.546 1.93679 116.201 1.93679C115.85 1.93679 115.541 2.00308 115.276 2.13565C115.014 2.26491 114.811 2.44886 114.665 2.6875C114.519 2.92614 114.448 3.20455 114.451 3.52273C114.448 3.84754 114.521 4.13092 114.67 4.37287C114.819 4.61482 115.024 4.80374 115.286 4.93963C115.551 5.07552 115.856 5.14347 116.201 5.14347ZM125.161 11.1392C124.707 11.1326 124.26 11.0497 123.819 10.8906C123.381 10.7315 122.983 10.4664 122.626 10.0952C122.268 9.72396 121.981 9.22514 121.765 8.59872C121.553 7.9723 121.447 7.1901 121.447 6.25213C121.447 5.36387 121.535 4.57505 121.711 3.88565C121.89 3.19626 122.147 2.61458 122.481 2.14062C122.816 1.66335 123.22 1.30043 123.694 1.05185C124.168 0.803267 124.7 0.678977 125.29 0.678977C125.897 0.678977 126.435 0.798295 126.906 1.03693C127.377 1.27557 127.758 1.60535 128.05 2.02628C128.345 2.44721 128.532 2.92614 128.611 3.46307H127.095C126.992 3.03883 126.788 2.69247 126.483 2.42401C126.179 2.15554 125.781 2.02131 125.29 2.02131C124.545 2.02131 123.963 2.34612 123.545 2.99574C123.131 3.64536 122.922 4.54853 122.919 5.70526H122.993C123.169 5.4169 123.385 5.17164 123.64 4.96946C123.898 4.76397 124.187 4.60653 124.505 4.49716C124.826 4.38447 125.164 4.32812 125.519 4.32812C126.109 4.32812 126.643 4.4723 127.12 4.76065C127.6 5.04569 127.983 5.4401 128.268 5.94389C128.553 6.44768 128.696 7.02438 128.696 7.67401C128.696 8.32363 128.548 8.91193 128.253 9.43892C127.962 9.96591 127.551 10.3835 127.02 10.6918C126.49 10.9967 125.87 11.1458 125.161 11.1392ZM125.156 9.84659C125.547 9.84659 125.897 9.75047 126.205 9.55824C126.513 9.366 126.757 9.10748 126.936 8.78267C127.115 8.45786 127.204 8.09493 127.204 7.69389C127.204 7.30279 127.117 6.9465 126.941 6.625C126.769 6.3035 126.53 6.0483 126.225 5.85938C125.923 5.67045 125.579 5.57599 125.191 5.57599C124.896 5.57599 124.622 5.63234 124.371 5.74503C124.122 5.85772 123.903 6.01349 123.714 6.21236C123.525 6.41122 123.376 6.63991 123.267 6.89844C123.161 7.15365 123.108 7.42377 123.108 7.70881C123.108 8.08996 123.196 8.44294 123.371 8.76776C123.55 9.09257 123.794 9.3544 124.102 9.55327C124.414 9.74882 124.765 9.84659 125.156 9.84659Z" fill="black"/>
</svg>
