<svg width="36" height="30" viewBox="0 0 36 30" fill="none" xmlns="http://www.w3.org/2000/svg">
<path d="M15.9507 19.127C15.6936 19.2274 15.5213 19.2026 15.3007 19.0448C12.7136 17.189 10.1174 15.3435 7.52375 13.4955C7.10997 13.2008 6.69489 12.9073 6.16624 12.5317C6.26284 12.7182 6.28372 12.7782 6.32027 12.8265C6.52259 13.0925 6.72622 13.3586 6.92854 13.6246C5.95479 13.6246 4.97973 13.6246 4.00598 13.6246C3.9355 13.6116 3.90287 13.6377 3.91722 13.712C3.91722 15.1675 3.91722 16.6242 3.91722 18.0797C3.90287 18.154 3.93419 18.1801 4.00598 18.1658C5.07502 18.1658 6.14405 18.1658 7.21178 18.1658C7.28488 18.1814 7.30838 18.1488 7.29532 18.0797C7.29532 17.9819 7.29532 17.8841 7.29532 17.785C7.30316 17.7211 7.29793 17.6689 7.21048 17.6872C6.71186 17.6806 6.21193 17.6689 5.71331 17.6676C4.4537 17.665 4.46284 17.6663 4.48633 16.4117C4.49155 16.1326 4.57379 16.0621 4.84137 16.0661C5.53318 16.0765 6.22498 16.0569 6.91809 16.0491C7.00816 16.0661 7.01991 16.0152 7.00816 15.9448C7.00816 15.847 7.00816 15.7491 7.00816 15.6513C7.02513 15.5744 6.98466 15.5587 6.9194 15.5692C6.46907 15.564 6.01744 15.5535 5.56711 15.5535C4.455 15.5509 4.46675 15.5535 4.48372 14.4515C4.48764 14.1685 4.57901 14.1085 4.84137 14.1111C5.59844 14.1215 6.35421 14.1033 7.11128 14.0968C7.19221 14.1137 7.20265 14.0681 7.19351 14.0042C7.19351 13.9937 7.19351 13.9833 7.19351 13.9729C9.07444 16.443 10.9554 18.9144 12.848 21.3767C13.0243 21.6049 13.0451 21.7575 12.9277 22.0157C11.9748 24.1102 12.3781 26.5243 13.9445 28.2001C15.5226 29.8903 17.8695 30.4381 20.048 29.6256C22.7813 28.607 24.3281 25.6087 23.5345 22.87C22.5816 19.5782 19.1526 17.8776 15.9507 19.127Z" fill="#434343"/>
<path d="M15.0814 16.0074C16.6699 16.3034 18.2728 16.1221 19.8666 16.0974C20.2517 16.0908 20.5049 15.6761 19.9619 15.3475C19.9632 15.3475 19.9632 15.3475 19.9645 15.3475C19.693 14.2689 19.8992 13.1904 19.9371 12.1066C20.0833 12.5748 20.065 13.0534 20.1368 13.5177C20.2791 14.4254 20.8691 14.8688 21.6431 14.7084C22.2932 14.5741 22.6234 13.9429 22.4641 13.1108C22.2971 12.2396 21.8742 11.3358 21.9995 10.5129C22.1757 9.36129 21.5374 8.76658 20.9422 8.06102C20.7999 7.89148 20.6615 7.59934 20.3718 7.87322C20.1264 8.10536 20.3522 8.28795 20.4932 8.41315C21.2554 9.08871 21.557 9.91817 21.4186 10.9237C21.3977 11.0737 21.4878 11.2367 21.5074 11.3958C21.5948 12.0883 21.8885 12.7391 21.9042 13.4499C21.9133 13.832 21.7841 14.115 21.4199 14.1698C21.0388 14.2272 20.8195 13.9468 20.7712 13.596C20.6942 13.0365 20.6668 12.4691 20.6041 11.907C20.5493 11.4101 20.5689 10.865 19.9449 10.6655L19.928 10.6616C19.6839 9.80471 19.9541 8.91917 19.7831 8.05841C19.8301 7.79627 19.6982 7.6489 19.4646 7.56935C19.4124 7.53413 19.3589 7.49762 19.3066 7.4624C18.3355 7.44414 17.3657 7.41545 16.3945 7.41024C15.4965 7.40502 15.2446 7.65673 15.2433 8.54748C15.238 10.3303 15.2576 12.1144 15.2328 13.8972C15.225 14.4515 15.4482 15.0618 14.93 15.5483C14.8478 15.6266 14.819 15.9213 15.0814 16.0074ZM16.2144 8.48879C16.2718 8.35707 16.3502 8.23708 16.495 8.23578C17.2221 8.22926 17.9517 8.21491 18.6762 8.25404C18.9151 8.26708 18.9529 8.52922 18.9777 8.76006C19.1343 10.2064 19.0456 10.3068 17.551 10.3055C17.4975 10.3055 17.4427 10.3055 17.3892 10.3055C16.2823 10.3042 15.768 9.50735 16.2144 8.48879Z" fill="#434343"/>
<path d="M17.2977 2.99303C17.2977 3.73511 17.2899 4.47719 17.3004 5.21796C17.3134 6.17131 17.1215 6.05133 18.1801 6.08524C18.5991 6.09828 18.6918 5.9483 18.6866 5.55965C18.667 4.0116 18.6879 2.46354 18.6748 0.915478C18.667 -0.0952599 18.885 0.0273328 17.7468 -5.49328e-05C17.3787 -0.00918418 17.2795 0.125146 17.2899 0.477274C17.3134 1.31586 17.2977 2.15445 17.2977 2.99303Z" fill="#434343"/>
<path d="M4.01116 11.1793C3.16924 10.4242 2.33777 9.65861 1.49977 8.90219C0.781862 8.25401 0.788389 8.26184 0.155321 8.99087C-0.0626628 9.24128 -0.0496099 9.40951 0.197091 9.62992C1.23088 10.5572 2.25032 11.5001 3.27758 12.4352C3.37026 12.52 3.4786 12.5878 3.57258 12.6569C3.81667 12.5891 3.9237 12.3935 4.06598 12.2474C4.59724 11.6957 4.5894 11.6983 4.01116 11.1793Z" fill="#434343"/>
<path d="M35.9622 9.21652C35.7703 8.8657 35.474 8.59313 35.1816 8.37402C34.9676 8.39359 34.8853 8.52661 34.7809 8.62182C33.8855 9.43693 32.9966 10.2599 32.0959 11.0685C31.3206 11.7649 31.3454 11.6175 32.0189 12.3765C32.2956 12.6882 32.4732 12.6622 32.7577 12.3948C33.721 11.4871 34.7091 10.6042 35.6816 9.70559C35.8225 9.57387 36.1006 9.46823 35.9622 9.21652Z" fill="#434343"/>
<path d="M9.36025 7.11025C9.77403 8.04534 9.89412 8.07404 10.7804 7.52237C10.8927 7.45194 10.9305 7.36848 10.9697 7.26545C10.9253 7.16242 10.8822 7.05808 10.8378 6.95636C10.3418 5.82955 9.84712 4.70274 9.34981 3.57853C8.9295 2.6304 9.08353 2.76473 8.16069 3.12859C7.77562 3.27988 7.74169 3.4755 7.90224 3.82633C8.40086 4.91401 8.87468 6.01474 9.36025 7.11025Z" fill="#434343"/>
<path d="M27.3616 2.93181C27.0888 2.81574 26.9387 2.84965 26.8252 3.10657C26.2443 4.42249 25.6622 5.7371 25.0839 7.05432C25.0265 7.18473 24.9482 7.36732 25.0904 7.44948C25.4063 7.63076 25.7509 7.76379 26.0381 7.89681C26.3292 7.8916 26.3605 7.68293 26.4271 7.53425C26.9218 6.4257 27.4073 5.31193 27.8929 4.19947C28.2819 3.30872 28.2753 3.32176 27.3616 2.93181Z" fill="#434343"/>
<path d="M31.72 13.604C31.2997 13.6144 30.8794 13.6066 30.4591 13.6066C30.0218 13.6066 29.5858 13.6118 29.1485 13.604C28.9645 13.6 28.8535 13.617 28.8549 13.8544C28.8653 15.212 28.8679 16.5697 28.8535 17.9273C28.8509 18.2077 28.9984 18.1829 29.1851 18.1908C29.3835 18.1986 29.4749 18.1542 29.4657 17.9286C29.4488 17.4448 29.4723 16.9583 29.454 16.4745C29.4448 16.2123 29.5088 16.1002 29.7986 16.1145C30.2828 16.138 30.7684 16.1197 31.254 16.1223C31.4667 16.1236 31.6652 16.1641 31.6652 15.8211C31.6652 15.4872 31.4602 15.5615 31.2814 15.5589C31.0229 15.5537 30.7645 15.5576 30.5047 15.5576C29.42 15.5576 29.4318 15.5576 29.454 14.4634C29.4592 14.1778 29.5532 14.11 29.8195 14.1165C30.4499 14.1335 31.0804 14.1126 31.7108 14.1269C31.9353 14.1322 31.9758 14.0448 31.9771 13.8452C31.9771 13.6483 31.9014 13.6 31.72 13.604Z" fill="#434343"/>
</svg>
