<svg width="12" height="15" viewBox="0 0 12 15" fill="none" xmlns="http://www.w3.org/2000/svg">
<path fill-rule="evenodd" clip-rule="evenodd" d="M3.48072 14.2446L3.71927 12.6785L3.18788 12.6657H0.650391L2.41385 1.1088C2.41935 1.07381 2.43711 1.04132 2.46304 1.01821C2.48911 0.9951 2.52233 0.982422 2.55708 0.982422H6.83567C8.2562 0.982422 9.23645 1.28788 9.74816 1.89086C9.98811 2.17373 10.1409 2.46941 10.2149 2.79467C10.2925 3.13605 10.2937 3.54385 10.2181 4.04132L10.2126 4.0775V4.39629L10.4525 4.5368C10.6545 4.6476 10.8152 4.77438 10.9383 4.91951C11.1435 5.16145 11.2763 5.46888 11.3324 5.83323C11.3904 6.20802 11.3712 6.65411 11.2763 7.15911C11.1668 7.73991 10.9898 8.24583 10.7508 8.6597C10.531 9.04109 10.2509 9.3575 9.91835 9.60261C9.60084 9.83556 9.22367 10.0124 8.79718 10.1256C8.38384 10.2368 7.91263 10.2929 7.39581 10.2929H7.06284C6.82481 10.2929 6.59355 10.3815 6.41199 10.5404C6.22992 10.7025 6.10956 10.9241 6.07264 11.1665L6.04747 11.3075L5.62596 14.0679L5.60692 14.1692C5.60181 14.2013 5.59312 14.2173 5.58034 14.2281C5.56897 14.238 5.55262 14.2446 5.53665 14.2446H3.48072Z" fill="#28356A"/>
<path fill-rule="evenodd" clip-rule="evenodd" d="M10.6796 4.11426C10.667 4.19864 10.6523 4.28488 10.6359 4.37349C10.0717 7.36781 8.14126 8.40223 5.67584 8.40223H4.42051C4.11898 8.40223 3.86484 8.62845 3.81795 8.93588L2.99321 14.3431C2.96267 14.545 3.11318 14.7268 3.3102 14.7268H5.5367C5.80028 14.7268 6.02426 14.5289 6.06579 14.2601L6.08764 14.1432L6.50684 11.3936L6.5338 11.2428C6.57482 10.9732 6.79931 10.7751 7.06289 10.7751H7.39586C9.55298 10.7751 11.2417 9.86994 11.7353 7.25041C11.9414 6.15616 11.8347 5.24244 11.2891 4.59984C11.124 4.40611 10.9192 4.24526 10.6796 4.11426Z" fill="#298FC2"/>
<path fill-rule="evenodd" clip-rule="evenodd" d="M10.0889 3.87142C10.0027 3.84541 9.91374 3.8219 9.82251 3.80064C9.73077 3.77991 9.63686 3.76155 9.54014 3.74544C9.20168 3.68892 8.83077 3.66211 8.43354 3.66211H5.07999C4.99733 3.66211 4.91888 3.68139 4.84873 3.71625C4.694 3.79311 4.57914 3.94445 4.55129 4.12973L3.83783 8.80015L3.81738 8.9363C3.86427 8.62886 4.11841 8.40265 4.41994 8.40265H5.67527C8.14069 8.40265 10.0711 7.3677 10.6354 4.37391C10.6522 4.2853 10.6664 4.19906 10.6791 4.11468C10.5364 4.03637 10.3818 3.96941 10.2153 3.91236C10.1741 3.89823 10.1317 3.88463 10.0889 3.87142Z" fill="#22284F"/>
<path fill-rule="evenodd" clip-rule="evenodd" d="M4.55187 4.12979C4.57972 3.94451 4.69459 3.79317 4.84932 3.71684C4.91997 3.68184 4.99791 3.66256 5.08058 3.66256H8.43412C8.83136 3.66256 9.20227 3.6895 9.54073 3.74602C9.63745 3.762 9.73136 3.78049 9.8231 3.80122C9.91432 3.82235 10.0033 3.84599 10.0895 3.87187C10.1323 3.88508 10.1747 3.89881 10.2162 3.91242C10.3827 3.96947 10.5374 4.03695 10.6802 4.11473C10.8481 3.00821 10.6788 2.25481 10.1 1.57259C9.46177 0.821433 8.31006 0.5 6.83625 0.5H2.55753C2.25651 0.5 1.99969 0.726218 1.95318 1.03418L0.171065 12.71C0.135928 12.9409 0.308288 13.1493 0.533672 13.1493H3.17516L4.55187 4.12979Z" fill="#28356A"/>
</svg>
