<svg width="26" height="26" viewBox="0 0 26 26" fill="none" xmlns="http://www.w3.org/2000/svg">
<path d="M24.6318 20.3852C24.6318 20.8052 24.5385 21.2368 24.3402 21.6568C24.1418 22.0768 23.8852 22.4735 23.5468 22.8468C22.9752 23.4768 22.3452 23.9318 21.6335 24.2235C20.9335 24.5152 20.1752 24.6668 19.3585 24.6668C18.1685 24.6668 16.8968 24.3868 15.5552 23.8152C14.2135 23.2435 12.8718 22.4735 11.5418 21.5052C10.1863 20.5136 8.90714 19.4217 7.71516 18.2385C6.53539 17.0508 5.44728 15.7755 4.46016 14.4235C3.5035 13.0935 2.7335 11.7635 2.1735 10.4452C1.6135 9.11516 1.3335 7.8435 1.3335 6.63016C1.3335 5.83683 1.4735 5.0785 1.7535 4.3785C2.0335 3.66683 2.47683 3.0135 3.09516 2.43016C3.84183 1.69516 4.6585 1.3335 5.52183 1.3335C5.8485 1.3335 6.17516 1.4035 6.46683 1.5435C6.77016 1.6835 7.0385 1.8935 7.2485 2.19683L9.95516 6.01183C10.1652 6.3035 10.3168 6.57183 10.4218 6.8285C10.5268 7.0735 10.5852 7.3185 10.5852 7.54016C10.5852 7.82016 10.5035 8.10016 10.3402 8.3685C10.1885 8.63683 9.96683 8.91683 9.68683 9.19683L8.80016 10.1185C8.67183 10.2468 8.6135 10.3985 8.6135 10.5852C8.6135 10.6785 8.62516 10.7602 8.6485 10.8535C8.6835 10.9468 8.7185 11.0168 8.74183 11.0868C8.95183 11.4718 9.3135 11.9735 9.82683 12.5802C10.3518 13.1868 10.9118 13.8052 11.5185 14.4235C12.1485 15.0418 12.7552 15.6135 13.3735 16.1385C13.9802 16.6518 14.4818 17.0018 14.8785 17.2118C14.9368 17.2352 15.0068 17.2702 15.0885 17.3052C15.1818 17.3402 15.2752 17.3518 15.3802 17.3518C15.5785 17.3518 15.7302 17.2818 15.8585 17.1535L16.7452 16.2785C17.0368 15.9868 17.3168 15.7652 17.5852 15.6252C17.8535 15.4618 18.1218 15.3802 18.4135 15.3802C18.6352 15.3802 18.8685 15.4268 19.1252 15.5318C19.3818 15.6368 19.6502 15.7885 19.9418 15.9868L23.8035 18.7285C24.1068 18.9385 24.3168 19.1835 24.4452 19.4752C24.5618 19.7668 24.6318 20.0585 24.6318 20.3852Z" stroke="#323643" stroke-width="1.5" stroke-miterlimit="10"/>
</svg>
