<svg width="12" height="10" viewBox="0 0 12 10" fill="none" xmlns="http://www.w3.org/2000/svg">
<path d="M11.9674 5.45122C11.8054 5.18056 11.6435 4.9099 11.4815 4.63923C11.154 4.09225 10.8264 3.54526 10.4992 2.99828C10.3102 2.68266 10.1212 2.36673 9.93216 2.05112C9.56324 1.43497 9.19464 0.818827 8.82573 0.202683C8.78857 0.140754 8.75175 0.0785113 8.71394 0.0165825C8.70025 -0.00573699 8.69308 -0.0051084 8.67809 0.0159537C8.67353 0.0225552 8.66962 0.0301 8.66538 0.0370159C8.59238 0.158044 8.51938 0.278758 8.44638 0.399786C8.0025 1.1357 7.55895 1.87162 7.1154 2.60753C6.85826 3.03412 6.6008 3.46039 6.34399 3.88729C6.23221 4.07307 6.12075 4.25917 6.00896 4.44527C6.00277 4.4459 5.99658 4.44653 5.99071 4.44685C5.81179 4.1482 5.63287 3.84925 5.45395 3.55061C5.17759 3.08976 4.90123 2.62922 4.62486 2.16837C4.35371 1.71601 4.08224 1.26365 3.81109 0.811597C3.65726 0.55508 3.50311 0.298563 3.34928 0.04236C3.31572 -0.0132816 3.31604 -0.0132816 3.28345 0.0411025C2.6952 1.02379 2.10695 2.00648 1.51902 2.98948C1.23288 3.4673 0.947068 3.94544 0.660927 4.42327C0.455936 4.76592 0.250944 5.10857 0.045952 5.45122C0.0351973 5.46946 0.0241167 5.48769 0.00879933 5.50278C0.00554032 5.50246 0.00260721 5.50246 0 5.50309C0 5.50969 0 5.51598 0 5.52258C1.53369 5.52258 3.06738 5.52258 4.60107 5.52258C4.8393 5.52258 5.07754 5.52227 5.31545 5.5229C5.33467 5.5229 5.35651 5.51567 5.37313 5.53264C5.29198 5.66782 5.21148 5.80331 5.13001 5.93848C4.73534 6.59078 4.34035 7.24307 3.94568 7.89537C3.53244 8.57815 3.11952 9.26126 2.70628 9.94404C2.6952 9.96228 2.68608 9.98145 2.67565 10C4.89536 10 7.1154 10 9.33511 10C9.33381 9.9846 9.32338 9.97328 9.31588 9.9607C9.27547 9.89312 9.23441 9.82584 9.19367 9.75857C8.91959 9.30589 8.64583 8.85353 8.37175 8.40086C8.08169 7.92146 7.79132 7.44237 7.50126 6.96298C7.29855 6.6285 7.09584 6.29402 6.89346 5.95923C6.80775 5.81745 6.72301 5.67505 6.63763 5.53264C6.65783 5.51441 6.6826 5.5229 6.70541 5.5229C8.44638 5.52258 10.1877 5.52258 11.9286 5.52258C11.9456 5.52258 11.9625 5.52258 11.9791 5.52227C11.9879 5.52227 11.9954 5.51944 12 5.51127C11.9896 5.49115 11.9791 5.47071 11.9674 5.45122ZM7.37872 4.2488C7.51332 4.0234 7.64987 3.79864 7.78675 3.5745C7.97154 3.27177 8.15502 2.9681 8.34046 2.66537C8.44931 2.48745 8.55686 2.3092 8.66571 2.13096C8.67385 2.11744 8.67809 2.10047 8.69569 2.09261C8.71199 2.09795 8.71622 2.11336 8.72339 2.1253C8.92154 2.45098 9.11904 2.77666 9.31686 3.10265C9.45146 3.32427 9.58638 3.54589 9.72065 3.76783C9.86372 4.0036 10.0061 4.23968 10.1492 4.47577C10.131 4.49369 10.1075 4.48551 10.0866 4.48551C9.18976 4.48583 8.29255 4.48583 7.39567 4.48583C7.3432 4.48583 7.29106 4.48551 7.23859 4.4852C7.27998 4.40378 7.33179 4.3277 7.37872 4.2488ZM2.13335 4.19379C2.51954 3.5591 2.90639 2.9244 3.29193 2.28908C3.31181 2.25608 3.33951 2.23564 3.37047 2.21552C3.38807 2.20389 3.39719 2.20955 3.40632 2.22496C3.43239 2.26865 3.45911 2.31203 3.48551 2.35573C3.78795 2.85462 4.09071 3.35382 4.39315 3.85271C4.51471 4.05358 4.63659 4.25414 4.75815 4.45502C4.76402 4.46476 4.76826 4.47545 4.77315 4.48551C4.75783 4.48583 4.74284 4.48614 4.72752 4.48614C3.82152 4.48614 2.91518 4.48614 2.00918 4.48614C1.99223 4.48614 1.97561 4.48551 1.95866 4.4852C2.01668 4.38806 2.07436 4.29061 2.13335 4.19379ZM6.98732 8.20249C7.14147 8.4565 7.29529 8.7105 7.44912 8.96482C7.45661 8.97739 7.46313 8.99059 7.4703 9.00348C7.46704 9.00914 7.46346 9.0148 7.4602 9.02014C7.44488 9.02046 7.42989 9.0214 7.41457 9.0214C6.47533 9.0214 5.53575 9.0214 4.59651 9.0214C4.58152 9.0214 4.5662 9.02046 4.55121 9.02014C4.54697 9.01731 4.54273 9.0148 4.53817 9.01197C4.55707 8.96639 4.58575 8.92615 4.61085 8.88371C4.96608 8.28674 5.32196 7.68977 5.6772 7.09281C5.77627 6.92651 5.87828 6.76179 5.97279 6.59298C5.97735 6.5848 5.98517 6.5782 5.99169 6.57097C6.00896 6.57789 6.01255 6.59329 6.01972 6.60524C6.1768 6.86521 6.33291 7.12613 6.49032 7.38579C6.65522 7.65834 6.82176 7.92994 6.98732 8.20249Z" fill="#379417"/>
</svg>
