<svg width="14" height="13" viewBox="0 0 14 13" fill="none" xmlns="http://www.w3.org/2000/svg">
<path d="M8.10797 0.939683L9.25367 3.24645C9.40806 3.56547 9.82246 3.86813 10.1719 3.93357L12.2439 4.27713C13.5683 4.498 13.8771 5.46324 12.9264 6.42848L11.3094 8.05631C11.0413 8.32625 10.8869 8.85795 10.9763 9.24241L11.4394 11.2547C11.8051 12.8416 10.96 13.4633 9.57057 12.6289L7.62856 11.4674C7.27916 11.2547 6.69412 11.2547 6.34472 11.4674L4.40271 12.6289C3.01325 13.4551 2.16819 12.8416 2.53384 11.2547L2.99699 9.24241C3.07012 8.84977 2.91574 8.31807 2.64759 8.04813L1.03061 6.4203C0.0799195 5.46324 0.388691 4.49799 1.71316 4.26895L3.78517 3.92539C4.13457 3.86813 4.54897 3.55729 4.70336 3.23827L5.84906 0.931503C6.47473 -0.311861 7.4823 -0.311861 8.10797 0.939683Z" fill="#F4B733"/>
</svg>
