<svg width="22" height="27" viewBox="0 0 22 27" fill="none" xmlns="http://www.w3.org/2000/svg">
<g clip-path="url(#clip0_2161_6860)">
<path d="M22 11.4495C22 5.12028 17.0756 0 11.0114 0C4.92435 0 0 5.12028 0 11.4495C0 12.9192 0.273575 14.1045 0.478756 14.8156C1.96062 19.9596 6.06425 22.6146 7.59171 23.5154L10.9886 27L14.3855 23.5154C15.9358 22.6146 20.0166 19.9596 21.4984 14.8156C21.7264 14.0808 22 12.9192 22 11.4495ZM2.73575 11.4495C2.73575 6.68481 6.42902 2.8446 11.0114 2.8446C15.5938 2.8446 19.287 6.68481 19.287 11.4495C19.287 16.2142 15.571 20.0307 11.0114 20.0307C6.45181 20.0307 2.73575 16.1905 2.73575 11.4495Z" fill="#DD4200"/>
<path d="M15.7807 15.4791C15.526 15.4791 15.2714 15.4799 15.0171 15.4787C14.7489 15.4775 14.5867 15.3493 14.5189 15.0862C14.5097 15.051 14.5216 15.0103 14.4611 15.0076C14.0751 14.99 13.7141 14.8364 13.3311 14.7969C12.274 14.6882 11.2149 14.6339 10.1523 14.6733C9.52853 14.6964 8.90516 14.7281 8.28488 14.8043C7.97435 14.8426 7.67885 14.9521 7.36948 14.9931C7.34097 14.997 7.3113 15.0092 7.28433 15.0045C7.17261 14.9849 7.13331 15.0354 7.10711 15.1429C7.05895 15.3423 6.88789 15.4752 6.68486 15.4767C6.13739 15.481 5.58953 15.4814 5.04207 15.4767C4.82054 15.4748 4.65294 15.3219 4.60247 15.087C4.5913 15.0346 4.58205 15.001 4.52465 14.9853C4.33856 14.9345 4.24186 14.7973 4.1937 14.6163C3.96447 13.7589 3.86622 12.8871 3.91592 11.9992C3.94636 11.4546 3.9899 10.912 4.10085 10.376C4.17714 10.0081 4.3613 9.73407 4.6907 9.56088C4.76275 9.52296 4.83209 9.47957 4.90298 9.43812C4.99121 9.38691 5.01394 9.32318 4.94344 9.23718C4.81437 9.08001 4.78471 8.90565 4.87717 8.72112C4.97156 8.53229 5.13222 8.45371 5.33757 8.45723C5.45276 8.45918 5.5695 8.44628 5.68315 8.46075C5.81261 8.47717 5.86693 8.41853 5.91701 8.3075C6.09462 7.91264 6.30421 7.53693 6.59201 7.2101C6.96649 6.78474 7.45539 6.57246 7.98398 6.43993C9.13979 6.15023 10.3149 6.08103 11.5003 6.13889C12.2208 6.17408 12.9316 6.26478 13.6367 6.42781C14.549 6.63853 15.1889 7.17296 15.5934 8.01858C15.6639 8.16597 15.6963 8.37005 15.8281 8.44003C15.9533 8.5061 16.1378 8.45997 16.2962 8.45684C16.5 8.45293 16.6637 8.5233 16.7631 8.71017C16.8629 8.89822 16.8348 9.0761 16.7034 9.23952C16.6341 9.32553 16.656 9.38965 16.7462 9.43969C16.7504 9.44203 16.7543 9.44516 16.7585 9.44712C17.3537 9.68677 17.5556 10.1829 17.6246 10.7803C17.7155 11.5708 17.7829 12.3609 17.7132 13.1565C17.6689 13.6616 17.5822 14.1596 17.4454 14.6475C17.3996 14.8117 17.3017 14.9333 17.1357 14.9838C17.0798 15.001 17.0559 15.024 17.0424 15.0881C16.99 15.3407 16.8167 15.4764 16.5593 15.4783C16.2993 15.4807 16.04 15.4791 15.7807 15.4791ZM10.8061 9.14569C11.07 9.14569 11.3343 9.13905 11.5982 9.14687C12.6396 9.17736 13.681 9.21333 14.7223 9.2446C14.9689 9.25203 15.0745 9.08861 14.9705 8.86225C14.8896 8.68633 14.7986 8.51509 14.7139 8.34112C14.4496 7.79848 14.0208 7.48142 13.4417 7.34341C12.7898 7.18781 12.1303 7.10571 11.463 7.07248C10.3985 7.01971 9.34244 7.07913 8.30145 7.3223C7.87804 7.42121 7.47042 7.56156 7.18994 7.93766C7.00347 8.18787 6.87441 8.46935 6.72608 8.74145C6.53884 9.08392 6.64363 9.26806 7.04816 9.2489C8.30029 9.18948 9.5528 9.15234 10.8061 9.14569ZM10.514 13.6017C11.5539 13.6017 12.2743 13.6057 12.9952 13.5994C13.224 13.5974 13.4579 13.6041 13.6736 13.4997C13.8605 13.4094 14.0454 13.3007 14.047 13.0634C14.0485 12.8281 13.8644 12.726 13.6787 12.6443C13.3415 12.4961 12.9825 12.434 12.6242 12.3656C11.2337 12.1005 9.85216 12.1756 8.47713 12.4735C8.22015 12.529 7.96588 12.6119 7.75436 12.7823C7.54709 12.9489 7.53861 13.1439 7.72894 13.3277C7.89113 13.4841 8.08839 13.5654 8.31185 13.5802C9.15174 13.635 9.99278 13.59 10.514 13.6017ZM15.7233 11.2631C15.867 11.2631 16.0496 11.265 16.2314 11.2619C16.2835 11.2611 16.3359 11.2478 16.3875 11.2373C16.6745 11.1786 16.8005 11.0324 16.8174 10.7396C16.8398 10.3545 16.7654 10.281 16.3836 10.315C15.9656 10.3526 15.5676 10.4757 15.1731 10.6137C14.9639 10.6868 14.7674 10.7853 14.5856 10.914C14.5251 10.957 14.4931 11.0113 14.5101 11.0879C14.5274 11.1657 14.5856 11.1743 14.6518 11.1825C14.9947 11.2252 15.3399 11.2408 15.7233 11.2631ZM5.92472 11.2635C6.29496 11.2424 6.63939 11.2236 6.98267 11.1818C7.05741 11.1728 7.11289 11.1481 7.13138 11.0707C7.14833 10.9988 7.11328 10.9495 7.05587 10.9124C7.00347 10.8788 6.95185 10.8428 6.89791 10.8115C6.49761 10.5817 6.05494 10.473 5.61535 10.3572C5.42271 10.3064 5.22738 10.2974 5.03089 10.3303C4.95191 10.3436 4.87602 10.367 4.85444 10.4558C4.77893 10.7658 4.81206 11.1587 5.26128 11.24C5.49091 11.2818 5.72053 11.2553 5.92472 11.2635Z" fill="#DD4200"/>
</g>
<defs>
<clipPath id="clip0_2161_6860">
<rect width="22" height="27" fill="white"/>
</clipPath>
</defs>
</svg>
