<svg width="394" height="312" viewBox="0 0 394 312" fill="none" xmlns="http://www.w3.org/2000/svg">
<path d="M366.515 290.662H338.43V290.873H366.515V290.662Z" fill="#EBEBEB"/>
<path d="M265.875 292.963H258.506V293.175H265.875V292.963Z" fill="#EBEBEB"/>
<path d="M337.582 282.81H321.309V283.022H337.582V282.81Z" fill="#EBEBEB"/>
<path d="M66.1115 284.232H29.4863V284.443H66.1115V284.232Z" fill="#EBEBEB"/>
<path d="M79.0348 284.232H73.667V284.443H79.0348V284.232Z" fill="#EBEBEB"/>
<path d="M175.927 287.802H96.4863V288.014H175.927V287.802Z" fill="#EBEBEB"/>
<path d="M187.163 239.313H23.4143C20.7431 239.313 18.5723 237.147 18.5723 234.482V4.83111C18.5723 2.16596 20.7431 0 23.4143 0H187.163C189.834 0 192.005 2.16596 192.005 4.83111V234.482C192.005 237.147 189.834 239.313 187.163 239.313ZM23.4143 0.21152C20.8619 0.21152 18.7843 2.28441 18.7843 4.83111V234.482C18.7843 237.029 20.8619 239.102 23.4143 239.102H187.163C189.716 239.102 191.793 237.029 191.793 234.482V4.83111C191.793 2.28441 189.716 0.21152 187.163 0.21152H23.4143Z" fill="#EBEBEB"/>
<path d="M370.586 239.313H206.837C204.166 239.313 201.995 237.147 201.995 234.482V4.83111C201.995 2.16596 204.166 0 206.837 0H370.586C373.257 0 375.428 2.16596 375.428 4.83111V234.482C375.428 237.147 373.257 239.313 370.586 239.313ZM206.837 0.21152C204.285 0.21152 202.207 2.28441 202.207 4.83111V234.482C202.207 237.029 204.285 239.102 206.837 239.102H370.586C373.138 239.102 375.216 237.029 375.216 234.482V4.83111C375.216 2.28441 373.138 0.21152 370.586 0.21152H206.837Z" fill="#EBEBEB"/>
<path d="M409 277.049H-15V277.26H409V277.049Z" fill="#EBEBEB"/>
<path d="M329.95 92.9502H296.428C293.24 92.9502 290.653 95.5307 290.653 98.712V120.253C290.653 123.434 293.24 126.015 296.428 126.015H306.07L310.378 131.633C311.794 133.486 314.592 133.486 316.009 131.633L320.316 126.015H329.958C333.147 126.015 335.733 123.434 335.733 120.253V98.712C335.716 95.5223 333.138 92.9502 329.95 92.9502Z" fill="#E0E0E0"/>
<path d="M305.977 111.784C304.298 110.142 303.577 108.349 303.577 106.741C303.577 104 305.409 102.172 308.19 102.172C310.785 102.172 311.667 103.374 313.185 105.108C314.703 103.374 315.585 102.172 318.18 102.172C320.961 102.172 322.793 104 322.793 106.741C322.793 108.349 322.064 110.142 320.393 111.784L313.185 118.942L305.977 111.784Z" fill="white"/>
<path d="M70.5296 262.335C68.5537 260.406 67.6973 258.283 67.6973 256.387C67.6973 253.155 69.8597 250.998 73.1329 250.998C76.1857 250.998 77.2288 252.411 79.0181 254.45C80.8074 252.411 81.8504 250.998 84.9032 250.998C88.1765 250.998 90.3389 253.155 90.3389 256.387C90.3389 258.283 89.4824 260.398 87.5065 262.335L79.0181 270.771L70.5296 262.335Z" fill="#E0E0E0"/>
<path d="M89.7026 271.854C88.4984 270.669 87.9727 269.375 87.9727 268.224C87.9727 266.244 89.2955 264.933 91.2968 264.933C93.1624 264.933 93.7984 265.796 94.8923 267.048C95.9863 265.796 96.6223 264.933 98.4879 264.933C100.489 264.933 101.812 266.252 101.812 268.224C101.812 269.383 101.286 270.677 100.082 271.854L94.8923 277.006L89.7026 271.854Z" fill="#EBEBEB"/>
<path d="M307.426 31.5842H268.97C265.315 31.5842 262.347 34.5455 262.347 38.1921V62.9061C262.347 66.5527 265.315 69.5139 268.97 69.5139H280.027L284.963 75.9611C286.591 78.0847 289.796 78.0847 291.425 75.9611L296.36 69.5139H307.418C311.073 69.5139 314.041 66.5527 314.041 62.9061V38.1921C314.049 34.537 311.081 31.5842 307.426 31.5842Z" fill="#F5F5F5"/>
<path d="M276.118 60.4864H280.477V45.0286H275.389L276.118 60.4864Z" fill="#E0E0E0"/>
<path d="M300.684 47.4482C300.464 46.7629 299.768 45.3246 299.107 45.0369C297.199 44.1824 293.018 44.4531 289.313 44.9438C289.465 44.6477 289.601 44.3854 289.669 44.1908C289.991 43.3532 290.5 41.5934 290.44 40.705C290.381 39.8843 290.008 38.0652 289.313 37.6337C288.939 37.3968 287.871 37.3207 287.566 37.6337C286.836 38.3952 287.345 40.815 287.048 41.8387C286.777 42.7694 285.564 44.4193 284.521 45.7138C283.232 45.9507 282.401 46.1284 282.401 46.1284V59.7756C282.401 59.7756 293.57 62.8046 297.165 61.8316C298.547 61.4508 299.2 59.0649 299.709 57.7281C300.625 55.3083 301.473 49.8934 300.684 47.4482Z" fill="#E0E0E0"/>
<path d="M210.144 53.0493C209.737 48.0236 205.531 44.157 200.485 44.157H197H193.514C188.46 44.157 184.263 48.0236 183.856 53.0493L183.271 58.9464H210.729L210.144 53.0493Z" fill="#EBEBEB"/>
<path d="M197 44.1569C200.611 44.1569 203.538 41.2363 203.538 37.6336C203.538 34.0309 200.611 31.1104 197 31.1104C193.389 31.1104 190.462 34.0309 190.462 37.6336C190.462 41.2363 193.389 44.1569 197 44.1569Z" fill="#EBEBEB"/>
<path d="M67.2728 143.994C66.2298 143.994 65.2715 144.358 64.5168 144.976L59.2677 140.754C59.5645 140.161 59.7426 139.493 59.7426 138.782C59.7426 136.371 57.7837 134.417 55.3669 134.417C52.9501 134.417 50.9912 136.371 50.9912 138.782C50.9912 141.194 52.9501 143.148 55.3669 143.148C56.4099 143.148 57.3682 142.784 58.1229 142.167L63.372 146.389C63.0752 146.981 62.8971 147.649 62.8971 148.36C62.8971 149.071 63.0667 149.739 63.372 150.331L58.1229 154.553C57.3682 153.944 56.4099 153.572 55.3669 153.572C52.9501 153.572 50.9912 155.526 50.9912 157.937C50.9912 160.349 52.9501 162.303 55.3669 162.303C57.7837 162.303 59.7426 160.349 59.7426 157.937C59.7426 157.227 59.573 156.558 59.2677 155.966L64.5168 151.744C65.2715 152.353 66.2298 152.726 67.2728 152.726C69.6896 152.726 71.6485 150.771 71.6485 148.36C71.64 145.94 69.6811 143.994 67.2728 143.994Z" fill="#E0E0E0"/>
<path d="M197 312C287.806 312 361.419 307.712 361.419 302.422C361.419 297.133 287.806 292.845 197 292.845C106.194 292.845 32.5811 297.133 32.5811 302.422C32.5811 307.712 106.194 312 197 312Z" fill="#F5F5F5"/>
<path d="M279.138 183.718H343.314C348.241 183.718 352.235 187.703 352.235 192.618V241.293C352.235 246.209 348.241 250.194 343.314 250.194H294.86C293.91 257.978 287.27 264.01 279.214 264.01C278.858 264.01 278.51 263.977 278.154 263.96C280.664 260.66 282.708 255.888 284.048 250.194H279.138C274.211 250.194 270.217 246.209 270.217 241.293V192.618C270.217 187.703 274.211 183.718 279.138 183.718Z" fill="#F4B733"/>
<path opacity="0.4" d="M279.138 183.718H343.314C348.241 183.718 352.235 187.703 352.235 192.618V241.293C352.235 246.209 348.241 250.194 343.314 250.194H294.86C293.91 257.978 287.27 264.01 279.214 264.01C278.858 264.01 278.51 263.977 278.154 263.96C280.664 260.66 282.708 255.888 284.048 250.194H279.138C274.211 250.194 270.217 246.209 270.217 241.293V192.618C270.217 187.703 274.211 183.718 279.138 183.718Z" fill="white"/>
<path d="M276.102 202.636L272.93 197.289L274.914 193.871C275.177 193.422 275.22 192.889 275.033 192.407L274.889 192.018C274.643 191.375 274.024 190.935 273.329 190.918L270.216 190.833C269.572 190.816 268.978 191.163 268.665 191.721L268.037 192.872C267.732 193.431 267.706 194.107 267.978 194.691L269.318 197.576L271.802 204.21L276.102 202.636Z" fill="#FFE9D4"/>
<path d="M301.363 201.697L283.25 214.853L274.736 198.972L269.902 201.062C269.902 201.062 277.356 225.142 281.681 224.169C286.014 223.196 298.242 217.163 302.228 213.026C304.238 210.936 305.764 207.112 303.78 202.365C303.373 201.418 302.186 201.096 301.363 201.697Z" fill="#F4B733"/>
<path d="M308.131 170.375C308.131 170.375 301.728 172.05 304.696 179.749C304.696 179.749 307.876 178.912 308.402 176.856C308.919 174.8 309.411 171.915 309.411 171.915L308.131 170.375Z" fill="#263238"/>
<path opacity="0.3" d="M308.131 170.375C308.131 170.375 301.728 172.05 304.696 179.749C304.696 179.749 307.876 178.912 308.402 176.856C308.919 174.8 309.411 171.915 309.411 171.915L308.131 170.375Z" fill="black"/>
<path d="M323.251 200.944L311.565 200.554L306.732 201.257L306.07 210.047L315.492 213.169L325.54 211.173L326.066 202.703L325.345 201.011L323.251 200.944Z" fill="#FFE9D4"/>
<path d="M307.342 250.194H323.878C324.048 244.381 324.904 214.202 324.726 214.388C324.523 214.591 326.473 207.958 326.473 207.958V205.276L324.726 202.399C324.726 202.399 320.97 208.11 314.805 207.822C308.953 207.552 307.944 201.73 307.944 201.73L307.207 210.64L306.469 232.206L307.41 241.352L307.342 250.194Z" fill="#F4B733"/>
<path opacity="0.6" d="M307.342 250.194H323.878C324.048 244.381 324.904 214.202 324.726 214.388C324.523 214.591 326.473 207.958 326.473 207.958V205.276L324.726 202.399C324.726 202.399 320.97 208.11 314.805 207.822C308.953 207.552 307.944 201.73 307.944 201.73L307.207 210.64L306.469 232.206L307.41 241.352L307.342 250.194Z" fill="white"/>
<path d="M300.761 250.194H309.725C311.489 238.552 311.726 217.265 311.726 217.265C311.726 217.265 309.759 209.76 309.224 204.887C308.69 200.013 315.669 200.656 321.783 201.46C327.897 202.264 317.035 217.671 317.035 217.671C317.035 217.671 316.271 238.493 318.052 250.194H340.143C339.04 247.089 335.784 237.554 335.004 230.793C334.062 222.62 339.702 210.699 338.896 204.887C338.09 199.074 318.773 200.258 318.773 200.258C318.773 200.258 306.401 200.174 303.645 200.301C300.414 200.445 299.133 208.914 297.607 215.606C296.08 222.299 298.887 228.924 300.414 237.342C301.406 242.859 301.092 247.58 300.761 250.194Z" fill="#263238"/>
<path d="M310.598 200.224C314.626 200.224 318.764 200.25 318.764 200.25C318.764 200.25 321.24 200.098 324.446 200.174C325.726 201.045 327.414 203.067 326.066 207.348L323.267 208.423L323.776 211.173C323.776 211.173 320.554 216.266 317 218.204C317.009 217.865 317.017 217.671 317.017 217.671C317.017 217.671 327.88 202.263 321.766 201.46C315.652 200.656 308.673 200.013 309.207 204.886C309.742 209.76 311.709 217.264 311.709 217.264C311.709 217.264 311.709 217.349 311.709 217.493C309.988 215.961 308.52 213.246 307.46 210.03L308.605 206.866L306.078 205.479C306.07 205.479 306.477 201.756 310.598 200.224Z" fill="#F4B733"/>
<path d="M310.462 204.844C309.818 203.152 310.717 202.052 310.717 202.052C315.313 200.495 314.889 197.06 313.829 193.862L321.232 186.323C320.791 190.334 320.63 199.565 323.258 202.78V203.516C319.773 207.636 315.643 207.611 313.388 207.188C312.082 206.942 310.937 206.088 310.462 204.844Z" fill="#FFE9D4"/>
<path opacity="0.1" d="M313.829 193.862L319.706 187.88L321.063 188.371C321.02 189.09 320.995 189.877 320.978 190.706C320.232 192.229 318.442 194.37 314.262 195.444C314.16 194.92 314.007 194.386 313.829 193.862Z" fill="black"/>
<path d="M325.005 179.682C323.216 186.51 322.606 189.437 318.408 192.297C312.09 196.603 304.077 192.914 303.788 185.697C303.526 179.191 306.494 169.123 313.812 167.701C319.035 166.661 324.115 170.036 325.167 175.257C325.455 176.72 325.404 178.235 325.005 179.682Z" fill="#FFE9D4"/>
<path d="M308.741 181.442C307.986 182.626 307.07 183.709 306.027 184.64C306.528 185.173 307.232 185.452 307.961 185.418L308.741 181.442Z" fill="#BF9E7F"/>
<path d="M316.042 178.92C316.093 178.92 316.135 178.903 316.186 178.878C316.322 178.802 316.364 178.624 316.279 178.497C316.279 178.497 316.279 178.497 316.279 178.489C315.754 177.567 314.804 176.949 313.744 176.847C313.591 176.847 313.464 176.966 313.456 177.118C313.447 177.27 313.566 177.397 313.718 177.406C314.592 177.507 315.372 178.015 315.804 178.785C315.847 178.878 315.94 178.929 316.042 178.92Z" fill="#263238"/>
<path d="M304.705 176.856C304.756 176.856 304.798 176.839 304.849 176.813C305.604 176.365 306.528 176.306 307.334 176.653C307.47 176.729 307.639 176.678 307.715 176.543C307.783 176.399 307.732 176.238 307.588 176.162C306.613 175.73 305.485 175.79 304.569 176.331C304.434 176.399 304.374 176.568 304.451 176.712C304.493 176.805 304.595 176.864 304.705 176.856Z" fill="#263238"/>
<path d="M310.819 187.297C310.488 187.297 310.158 187.271 309.835 187.212C309.742 187.195 309.683 187.11 309.691 187.017C309.691 187.017 309.691 187.017 309.691 187.009C309.708 186.916 309.793 186.857 309.886 186.865C311.336 187.144 312.837 186.73 313.931 185.74C313.999 185.672 314.109 185.664 314.177 185.731C314.245 185.799 314.253 185.909 314.186 185.977C313.287 186.831 312.074 187.305 310.819 187.297Z" fill="#263238"/>
<path d="M322.699 185.02C322.699 185.02 320.146 182.567 320.621 178.083C320.621 178.083 317.865 175.274 318.001 172.253C318.001 172.253 317.187 174.656 317.992 176.365C317.992 176.365 310.844 175.849 311.013 172.253C311.013 172.253 310.547 174.064 311.615 175.003C311.615 175.003 305.264 175.274 306.129 171.991C306.985 168.708 311.963 167.101 311.963 167.101C311.963 167.101 316.703 163.082 323.258 170.18C323.258 170.18 330.975 174.986 325.506 183.007L322.699 185.02Z" fill="#263238"/>
<path d="M325.565 185.469C324.929 186.679 323.835 187.584 322.529 187.982C320.791 188.506 319.892 186.966 320.341 185.308C320.748 183.828 322.139 181.755 323.903 181.958C325.183 182.144 326.065 183.328 325.879 184.597C325.828 184.911 325.726 185.207 325.565 185.469Z" fill="#FFE9D4"/>
<path d="M313.889 180.469C313.83 181.053 313.465 181.501 313.075 181.459C312.685 181.425 312.43 180.909 312.498 180.316C312.566 179.724 312.922 179.284 313.304 179.327C313.677 179.36 313.948 179.876 313.889 180.469Z" fill="#2E353A"/>
<path d="M307.198 179.766C307.139 180.35 306.774 180.799 306.392 180.756C306.011 180.714 305.748 180.206 305.807 179.614C305.867 179.022 306.231 178.582 306.613 178.624C306.994 178.666 307.266 179.174 307.198 179.766Z" fill="#2E353A"/>
<path d="M306.774 178.675L305.4 178.125C305.4 178.125 306.011 179.301 306.774 178.675Z" fill="#2E353A"/>
<path d="M313.465 179.377L312.091 178.819C312.082 178.819 312.701 180.003 313.465 179.377Z" fill="#2E353A"/>
<path d="M322.106 191.18C323.37 191.18 324.396 190.156 324.396 188.896C324.396 188.32 324.184 187.77 323.794 187.347L323.497 187.618C323.819 187.965 323.997 188.422 323.997 188.896C323.997 189.936 323.149 190.782 322.106 190.782C321.063 190.782 320.215 189.936 320.215 188.896C320.215 187.855 321.063 187.009 322.106 187.009C322.377 187.009 322.632 187.06 322.878 187.17L323.039 186.806C322.742 186.67 322.428 186.603 322.106 186.603C320.842 186.603 319.816 187.627 319.816 188.887C319.816 190.156 320.842 191.18 322.106 191.18Z" fill="#F4B733"/>
<g opacity="0.6">
<path d="M322.106 191.18C323.37 191.18 324.396 190.156 324.396 188.896C324.396 188.32 324.184 187.77 323.794 187.347L323.497 187.618C323.819 187.965 323.997 188.422 323.997 188.896C323.997 189.936 323.149 190.782 322.106 190.782C321.063 190.782 320.215 189.936 320.215 188.896C320.215 187.855 321.063 187.009 322.106 187.009C322.377 187.009 322.632 187.06 322.878 187.17L323.039 186.806C322.742 186.67 322.428 186.603 322.106 186.603C320.842 186.603 319.816 187.627 319.816 188.887C319.816 190.156 320.842 191.18 322.106 191.18Z" fill="white"/>
</g>
<path d="M320.529 225.734L314.304 226.005L312.218 222.654C311.947 222.214 311.489 221.926 310.98 221.859L310.573 221.808C309.886 221.723 309.208 222.053 308.869 222.663L307.334 225.362C307.02 225.92 307.037 226.605 307.393 227.147L308.114 228.247C308.462 228.78 309.047 229.118 309.691 229.152L312.88 229.33L319.918 230.277L320.529 225.734Z" fill="#FFE9D4"/>
<path d="M331.595 203.067L334.69 225.209H316.637L316.204 230.447C316.204 230.447 341 235.235 342.187 230.971C343.366 226.698 343.798 213.093 342.017 207.636C341.118 204.886 338.456 201.739 333.325 201.248C332.299 201.155 331.46 202.052 331.595 203.067Z" fill="#F4B733"/>
<path d="M252.706 75.3604H232.888L212.9 303.277H232.718C241.902 303.277 250 295.848 250.806 286.685L267.885 91.9604C268.69 82.7889 261.898 75.3604 252.706 75.3604Z" fill="#263238"/>
<path d="M264.985 98.2129C265.061 97.333 265.841 96.6223 266.714 96.6223C267.596 96.6223 268.249 97.333 268.173 98.2129L266.833 113.485C266.757 114.365 265.977 115.075 265.103 115.075C264.221 115.075 263.568 114.365 263.645 113.485L264.985 98.2129Z" fill="#F4B733"/>
<path opacity="0.3" d="M264.985 98.2129C265.061 97.333 265.841 96.6223 266.714 96.6223C267.596 96.6223 268.249 97.333 268.173 98.2129L266.833 113.485C266.757 114.365 265.977 115.075 265.103 115.075C264.221 115.075 263.568 114.365 263.645 113.485L264.985 98.2129Z" fill="white"/>
<path d="M228.665 303.269H147.011C137.827 303.269 131.026 295.84 131.831 286.677L148.91 91.952C149.716 82.7889 157.814 75.3604 166.998 75.3604H248.652C257.836 75.3604 264.637 82.7889 263.831 91.952L246.752 286.677C245.947 295.84 237.848 303.269 228.665 303.269Z" fill="#F4B733"/>
<path d="M248.321 79.1677H227.096C225.705 79.1677 224.441 80.1999 224.145 81.5706L224.001 82.2305C223.28 85.5895 220.193 88.1108 216.793 88.1108H196.619C193.227 88.1108 190.581 85.5895 190.445 82.2305L190.42 81.5706C190.36 80.1915 189.283 79.1677 187.893 79.1677H166.667C159.586 79.1677 153.345 84.8957 152.726 91.952L135.647 286.677C135.028 293.742 140.261 299.461 147.341 299.461H228.995C236.076 299.461 242.317 293.733 242.936 286.677L260.015 91.952C260.634 84.8872 255.393 79.1677 248.321 79.1677Z" fill="#F4B733"/>
<path opacity="0.7" d="M248.321 79.1677H227.096C225.705 79.1677 224.441 80.1999 224.145 81.5706L224.001 82.2305C223.28 85.5895 220.193 88.1108 216.793 88.1108H196.619C193.227 88.1108 190.581 85.5895 190.445 82.2305L190.42 81.5706C190.36 80.1915 189.283 79.1677 187.893 79.1677H166.667C159.586 79.1677 153.345 84.8957 152.726 91.952L135.647 286.677C135.028 293.742 140.261 299.461 147.341 299.461H228.995C236.076 299.461 242.317 293.733 242.936 286.677L260.015 91.952C260.634 84.8872 255.393 79.1677 248.321 79.1677Z" fill="white"/>
<g opacity="0.2">
<path d="M201.819 82.4402C202.495 81.7939 202.563 80.7693 201.971 80.1515C201.378 79.5338 200.349 79.5569 199.672 80.2032C198.996 80.8494 198.928 81.8741 199.52 82.4918C200.113 83.1095 201.142 83.0864 201.819 82.4402Z" fill="black"/>
<path d="M214.003 79.7007C213.358 79.7007 209.084 79.7007 208.44 79.7007C207.541 79.7007 206.752 80.4283 206.676 81.3167C206.6 82.2135 207.261 82.9327 208.16 82.9327C208.72 82.9327 213.163 82.9327 213.723 82.9327C214.622 82.9327 215.41 82.2051 215.487 81.3167C215.563 80.4283 214.902 79.7007 214.003 79.7007Z" fill="black"/>
</g>
<path d="M161.952 88.0768H163.665L163.818 86.3677H162.105L161.952 88.0768Z" fill="#F4B733"/>
<path d="M165.539 86.3677L165.387 88.0768H167.1L167.252 86.3677L167.405 84.6501H165.684L165.539 86.3677Z" fill="#F4B733"/>
<path d="M169.271 82.9412L169.118 84.6502L168.974 86.3678L168.821 88.0769H170.534L170.687 86.3678L170.84 84.6502L170.984 82.9412H169.271Z" fill="#F4B733"/>
<path d="M243.106 83.0513L242.996 84.3119H242.156L241.936 86.8248H242.775L242.665 88.0854H250.221L250.661 83.0597H243.106V83.0513ZM246.133 86.8248H243.615L243.835 84.3119H246.354L246.133 86.8248Z" fill="#F4B733"/>
<g opacity="0.4">
<path d="M196.678 88.1108L140.312 297.228C142.245 298.632 144.662 299.461 147.35 299.461H151.76L208.728 88.1108H196.678Z" fill="white" fill-opacity="0.44"/>
<path d="M248.321 79.1677H227.096C225.705 79.1677 224.442 80.1999 224.145 81.5706L224.001 82.2305C223.297 85.5049 220.346 87.9669 217.056 88.0939L160.087 299.461H203.538L260.015 89.9298C259.574 83.8296 254.707 79.1677 248.321 79.1677Z" fill="white" fill-opacity="0.44"/>
</g>
<path d="M163.004 135.922L160.46 135.372C159.773 135.22 159.375 134.501 159.629 133.841L163.174 124.585L167.236 125.465L164.344 135.136C164.183 135.702 163.589 136.049 163.004 135.922Z" fill="#F4B733"/>
<path d="M172.858 124.078C172.154 123.925 171.704 123.231 171.857 122.529L172.205 120.947C172.357 120.245 173.053 119.796 173.756 119.949C174.46 120.101 174.91 120.795 174.757 121.497L174.409 123.079C174.265 123.781 173.57 124.23 172.858 124.078Z" fill="#F4B733"/>
<path d="M170.348 116.192C170.348 116.192 160.681 115.092 157.297 113.358C149.334 109.28 141.736 99.5496 140.125 99.2027C137.496 98.6358 133.918 104.838 132.12 113.07C130.331 121.302 131.001 128.435 133.63 129.002C135.241 129.348 146.205 123.654 155.143 123.24C158.942 123.062 168.194 126.074 168.194 126.074L170.348 116.192Z" fill="#F4B733"/>
<path opacity="0.3" d="M170.348 116.192C170.348 116.192 160.681 115.092 157.297 113.358C149.334 109.28 141.736 99.5496 140.125 99.2027C137.496 98.6358 133.918 104.838 132.12 113.07C130.331 121.302 131.001 128.435 133.63 129.002C135.241 129.348 146.205 123.654 155.143 123.24C158.942 123.062 168.194 126.074 168.194 126.074L170.348 116.192Z" fill="white"/>
<path d="M141.634 115.134C139.845 123.367 136.258 129.568 133.629 129.002C131.001 128.435 130.322 121.302 132.12 113.07C133.909 104.838 137.496 98.6358 140.125 99.2027C142.754 99.778 143.432 106.91 141.634 115.134Z" fill="#F4B733"/>
<path opacity="0.4" d="M141.634 115.134C139.845 123.367 136.258 129.568 133.629 129.002C131.001 128.435 130.322 121.302 132.12 113.07C133.909 104.838 137.496 98.6358 140.125 99.2027C142.754 99.778 143.432 106.91 141.634 115.134Z" fill="black"/>
<path d="M168.779 115.075L164.293 114.102C163.072 113.84 161.867 114.652 161.698 115.887C161.545 117.013 161.333 118.172 161.079 119.356C160.824 120.541 160.528 121.683 160.197 122.766C159.841 123.959 160.595 125.203 161.817 125.465L167.134 126.616C170.322 127.31 172.612 125.067 173.265 121.869C173.901 118.773 171.874 115.744 168.779 115.075Z" fill="#263238"/>
<path d="M137.021 113.459L136.742 114.745C136.581 115.49 136.979 116.251 137.683 116.547L140.948 117.901C141.202 117.013 141.431 116.091 141.643 115.134C141.847 114.178 142.025 113.248 142.16 112.334L138.633 112.215C137.861 112.19 137.183 112.715 137.021 113.459Z" fill="#263238"/>
<path opacity="0.8" d="M137.021 113.459L136.742 114.745C136.581 115.49 136.979 116.251 137.683 116.547L140.948 117.901C141.202 117.013 141.431 116.091 141.643 115.134C141.847 114.178 142.025 113.248 142.16 112.334L138.633 112.215C137.861 112.19 137.183 112.715 137.021 113.459Z" fill="white"/>
<path opacity="0.2" d="M139.48 114.669C139.302 115.49 139.099 116.277 138.887 117.055L140.939 117.901C141.193 117.013 141.422 116.091 141.634 115.134C141.838 114.178 142.016 113.248 142.152 112.334L139.93 112.258C139.811 113.053 139.658 113.848 139.48 114.669Z" fill="black"/>
<path d="M217.827 115.177C217.827 115.177 220.295 116.268 222.78 114.644C225.383 112.943 230.276 115.084 228.792 122.005C226.248 133.917 220.94 142.471 224.383 146.076C224.383 146.076 212.918 146.6 214.614 136.498C215.886 128.926 224.51 120.321 222.432 118.612C221.737 118.045 220.728 118.333 217.471 118.333L217.827 115.177Z" fill="#263238"/>
<path d="M217.479 118.341C219.498 118.341 221.016 118.536 222.135 118.899C222.864 116.81 222.822 114.982 222.746 114.119C220.091 114.407 217.836 115.177 217.836 115.177L217.479 118.341Z" fill="#F4B733"/>
<path d="M206.684 106.496C206.684 106.496 201.918 105.134 205.064 102.071C209.169 98.069 215.011 105.557 215.011 105.557C215.011 105.557 228.681 111.522 217.394 125.355C217.394 125.355 213.324 132.631 212.467 129.805C211.619 126.98 217.284 118.942 217.284 118.942L216.945 111.75L215.376 108.941L210.449 106.141L206.684 106.496Z" fill="#263238"/>
<path d="M187.783 147.006C186.426 144.789 183.517 144.096 181.295 145.449L181.219 145.492C179.744 146.397 178.158 147.412 176.597 148.334L171.891 151.152C169.686 152.446 167.473 153.699 165.243 154.917C165.107 153.352 165.099 151.6 165.166 149.84C165.226 147.861 165.361 145.838 165.523 143.816C165.658 141.786 165.87 139.73 166.048 137.716L166.057 137.665C166.142 136.633 165.54 135.635 164.522 135.263C163.301 134.814 161.953 135.44 161.503 136.659C160.748 138.698 160.155 140.711 159.57 142.776C159.01 144.84 158.518 146.921 158.12 149.071C157.746 151.228 157.407 153.402 157.407 155.856C157.433 157.1 157.45 158.369 157.958 160.103C158.272 160.966 158.637 162.075 159.994 163.268C160.664 163.843 161.613 164.325 162.572 164.511C163.521 164.698 164.352 164.63 165.048 164.495C165.234 164.461 165.438 164.401 165.624 164.325L165.904 164.207C167.71 163.462 169.508 162.718 171.255 161.872C173.019 161.051 174.749 160.196 176.453 159.283C178.166 158.386 179.845 157.438 181.507 156.457C183.169 155.441 184.781 154.477 186.451 153.326C188.478 151.913 189.089 149.147 187.783 147.006Z" fill="#FFE7D0"/>
<path d="M191.938 140.838C194.796 146.583 190.683 151.567 183.144 159.554C176.428 153.953 175.334 147.032 175.334 147.032C175.334 147.032 184.026 139.848 191.938 140.838Z" fill="#F4B733"/>
<path opacity="0.2" d="M192.209 147.658C189.419 145.957 186.29 145.204 184.085 147.971C181.635 151.059 179.625 152.887 178.226 153.953C179.379 155.772 180.956 157.726 183.144 159.554C187.647 154.782 190.912 151.084 192.209 147.658Z" fill="black"/>
<path d="M163.894 126.92L165.836 128.198C166.566 128.68 167.015 129.475 167.049 130.347L167.193 134.416C167.253 136.041 166.515 137.598 165.226 138.588L164.42 139.197C161.062 137.302 158.832 132.784 158.832 132.784L158.052 131.565C157.356 130.482 157.628 129.12 158.671 128.435L161.071 126.861C161.893 126.328 163.021 126.353 163.894 126.92Z" fill="#FFE7D0"/>
<path d="M185.29 299.461C189.691 285.89 192.684 270.889 189.7 259.915C207.847 206.731 199.664 191.248 199.664 191.248L178.065 183.387C178.065 183.387 174.978 231.284 174.045 254.441C173.528 267.403 171.306 284.24 168.754 299.453H185.29V299.461Z" fill="#263238"/>
<path opacity="0.5" d="M196.492 210.927L192.108 203.88L189.42 209.379C189.42 209.379 186.893 230.497 191.395 254.814C195.602 241.852 198.163 231.309 199.655 222.798L196.492 210.927Z" fill="black"/>
<path d="M198.56 299.461H214.927C216.597 285.399 216.614 270.263 211.62 260.135C219.226 204.472 208.219 190.833 208.219 190.833L185.51 187.246C185.51 187.246 191.675 234.846 195.211 257.758C197.051 269.628 198.086 285.018 198.56 299.461Z" fill="#263238"/>
<path d="M181.804 151.533C181.236 154.536 180.49 156.77 179.769 164.038C179.04 170.172 178.506 176.23 177.802 186.357L208.542 191.214C209.296 182.474 211.866 172.786 220.473 154.215C222.466 149.908 220.304 145.128 215.818 143.952C214.622 143.639 213.341 143.326 212.027 143.055C206.914 141.989 202.708 141.16 198.069 140.847C196.526 140.745 194.923 140.686 193.388 140.661C187.851 140.559 182.83 146.152 181.804 151.533Z" fill="#F4B733"/>
<path d="M213.536 127.216C211.611 131.506 208.813 139.484 211.264 142.936C211.264 142.936 207.109 141.625 197.195 145.771C195.177 141.617 197.306 140.728 197.306 140.728C202.597 140.339 203.327 136.659 203.267 133.08L213.536 127.216Z" fill="#FFE7D0"/>
<path d="M199.273 144.95C200.427 145.306 201.156 146.245 201.622 147.26C202.36 148.868 204.294 149.519 205.828 148.639C208.339 147.209 211.578 145.17 213.181 143.36C212.205 142.64 210.832 141.295 210.832 141.295C210.832 141.295 201.283 143.512 199.273 144.95Z" fill="white"/>
<path d="M196.517 144.028C196.517 144.028 195.584 144.129 194.516 144.916C193.77 145.466 192.735 144.722 193.04 143.85C194.1 140.855 195.923 140.5 195.923 140.5C195.923 140.5 196.958 139.984 198.671 140.534C196.118 141.405 196.517 144.028 196.517 144.028Z" fill="white"/>
<path opacity="0.2" d="M209.347 129.611L203.267 133.08C203.284 133.926 203.25 134.78 203.123 135.593C205.099 135.618 208.22 133.968 208.889 132.022C209.22 131.049 209.407 130.093 209.347 129.611Z" fill="black"/>
<path d="M218.803 118.832C216.292 125.854 215.377 128.866 210.687 131.684C203.632 135.923 195.516 131.811 195.873 124.306C196.186 117.546 200.24 107.207 208.092 105.997C215.835 104.795 221.313 111.809 218.803 118.832Z" fill="#FFE7D0"/>
<path d="M209.347 118.569C209.16 119.17 208.694 119.576 208.312 119.492C207.922 119.399 207.761 118.84 207.948 118.24C208.134 117.639 208.601 117.233 208.982 117.317C209.372 117.41 209.533 117.969 209.347 118.569Z" fill="#263238"/>
<path d="M201.842 116.564C201.655 117.165 201.189 117.571 200.807 117.486C200.417 117.393 200.256 116.835 200.443 116.234C200.629 115.633 201.096 115.227 201.477 115.312C201.859 115.413 202.029 115.972 201.842 116.564Z" fill="#263238"/>
<path d="M201.639 115.397L200.342 114.652C200.333 114.644 200.724 115.938 201.639 115.397Z" fill="#263238"/>
<path d="M204.021 117.8C204.021 117.8 202.215 120.143 200.723 121.125C201.282 122.047 202.715 122.021 202.715 122.021L204.021 117.8Z" fill="#BA4D3C"/>
<path d="M211.628 115.084C211.535 115.067 211.45 115.016 211.391 114.94C210.543 113.628 209.203 113.671 209.186 113.671C208.991 113.679 208.83 113.527 208.83 113.324C208.839 113.121 209.008 112.96 209.203 112.952C209.271 112.952 210.959 112.901 212.01 114.525C212.112 114.686 212.061 114.915 211.883 115.033C211.807 115.075 211.713 115.092 211.628 115.084Z" fill="#263238"/>
<path d="M200.231 111.547C200.146 111.513 200.078 111.446 200.044 111.361C199.977 111.183 200.078 110.972 200.273 110.904C202.224 110.168 203.615 111.073 203.665 111.107C203.827 111.217 203.86 111.437 203.742 111.598C203.615 111.759 203.386 111.801 203.216 111.691C203.165 111.657 202.071 110.963 200.528 111.556C200.426 111.589 200.316 111.581 200.231 111.547Z" fill="#263238"/>
<path d="M209.144 117.393L207.847 116.649C207.847 116.649 208.228 117.943 209.144 117.393Z" fill="#263238"/>
<path d="M181.176 174.597H173.841C173.146 174.597 172.467 174.038 172.323 173.345L168.923 157.506C168.779 156.812 169.22 156.254 169.906 156.254H177.242C177.937 156.254 178.615 156.812 178.76 157.506L182.16 173.345C182.313 174.038 181.872 174.597 181.176 174.597Z" fill="#263238"/>
<path d="M180.329 174.597H172.994C172.298 174.597 171.62 174.038 171.476 173.345L168.075 157.506C167.931 156.812 168.372 156.254 169.059 156.254H176.394C177.089 156.254 177.768 156.812 177.912 157.506L181.312 173.345C181.465 174.038 181.024 174.597 180.329 174.597Z" fill="#263238"/>
<path opacity="0.2" d="M180.329 174.597H172.994C172.298 174.597 171.62 174.038 171.476 173.345L168.075 157.506C167.931 156.812 168.372 156.254 169.059 156.254H176.394C177.089 156.254 177.768 156.812 177.912 157.506L181.312 173.345C181.465 174.038 181.024 174.597 180.329 174.597Z" fill="white"/>
<path d="M177.7 165.264L179.964 164.765C180.821 164.579 181.711 164.808 182.356 165.391L185.391 168.116C186.604 169.207 187.215 170.815 187.028 172.431L186.909 173.429C183.204 174.521 178.395 172.972 178.395 172.972L176.979 172.685C175.716 172.431 174.919 171.289 175.156 170.062L175.69 167.253C175.885 166.28 176.682 165.493 177.7 165.264Z" fill="#FFE7D0"/>
<path d="M216.784 148.783C214.189 148.538 211.891 150.441 211.645 153.022L211.628 153.166C211.552 154.012 211.433 155.044 211.323 156C211.212 156.973 211.077 157.946 210.924 158.919C210.636 160.865 210.288 162.803 209.907 164.715C209.508 166.627 209.033 168.497 208.507 170.341C208.058 171.813 207.541 173.235 206.989 174.622C206.438 174.656 205.709 174.614 204.946 174.495C203.131 174.216 200.451 173.692 198.467 173.057C196.474 172.439 194.464 171.712 192.455 170.95C190.445 170.214 188.418 169.368 186.442 168.573L186.383 168.547C185.416 168.158 184.263 168.454 183.61 169.326C182.838 170.366 183.059 171.839 184.102 172.609C185.968 173.979 187.842 175.172 189.792 176.374C191.742 177.541 193.744 178.633 195.847 179.64C197.958 180.621 200.808 181.552 203.309 182.203C204.564 182.516 205.896 182.795 207.541 182.812C208.363 182.812 209.287 182.736 210.373 182.398C211.424 182.085 212.73 181.374 213.697 180.215C213.841 180.037 213.994 179.826 214.104 179.614L214.189 179.462C215.3 177.414 216.258 175.324 217.038 173.209C217.81 171.094 218.48 168.962 219.014 166.813C219.557 164.672 219.989 162.515 220.328 160.34C220.49 159.257 220.642 158.166 220.761 157.075C220.897 155.966 220.981 154.926 221.041 153.69C221.168 151.211 219.302 149.02 216.784 148.783Z" fill="#FFE7D0"/>
<path d="M218.2 145.043C223.45 148.741 223.695 154.274 220.863 164.875C217.073 166.771 207.863 164.368 207.863 164.368C207.863 164.368 210.763 147.928 218.2 145.043Z" fill="#F4B733"/>
<path d="M199.34 124.052C199.34 124.052 201.842 123.553 208.796 123.764C207.922 125.829 206.353 127.47 202.792 127.36C201.002 127.479 199.468 126.125 199.349 124.348C199.34 124.247 199.332 124.145 199.34 124.052Z" fill="#263238"/>
<path d="M204.479 125.744C203.114 125.626 201.74 125.947 200.562 126.65C201.206 127.098 201.978 127.343 202.775 127.335C204.14 127.453 205.505 127.14 206.684 126.43C206.04 125.973 205.268 125.736 204.479 125.744Z" fill="#BA4D3C"/>
<path d="M199.654 124.001C199.781 124.526 200.189 124.941 200.714 125.067C202.775 125.118 204.844 125 206.888 124.721C207.549 124.678 208.143 124.306 208.473 123.739C205.539 123.595 202.588 123.688 199.654 124.001Z" fill="white"/>
<path d="M208.16 105.523C207.711 105.591 207.27 105.692 206.846 105.819V106.217C207.829 106.208 208.923 106.327 210.136 106.699C216.004 108.484 216.945 111.742 214.953 116.64C214.011 118.959 213.503 123.874 214.588 124.797C214.868 125.034 215.716 125 216.818 124.822C217.547 123.155 218.243 121.158 219.133 118.671C221.703 111.479 216.089 104.296 208.16 105.523Z" fill="#263238"/>
<path d="M219.472 125.245C218.242 126.506 216.623 127.073 215.266 127.064C213.239 127.056 212.908 124.966 214.053 123.223C215.079 121.658 217.377 119.779 219.133 120.626C220.88 121.472 220.88 123.807 219.472 125.245Z" fill="#FFE7D0"/>
<g opacity="0.9">
<path d="M206.964 161.195C192.692 160.315 186.239 157.684 183.67 156.195C183.585 156.144 183.517 156.093 183.449 156.034C182.711 155.391 183.644 154.206 184.492 154.697C186.739 155.992 192.93 158.623 207.066 159.494C207.532 159.52 207.897 159.917 207.872 160.383C207.838 160.865 207.431 161.229 206.964 161.195Z" fill="white"/>
</g>
<g opacity="0.9">
<path d="M206.218 169.25C206.201 169.723 205.794 170.087 205.328 170.07C192.879 169.486 184.297 165.823 181.728 164.588C181.287 164.376 181.126 163.843 181.355 163.42C181.575 163.022 182.059 162.87 182.466 163.065C184.908 164.224 193.388 167.82 205.404 168.378C205.87 168.403 206.235 168.784 206.218 169.25Z" fill="white"/>
</g>
<g opacity="0.9">
<path d="M191.853 183.362C185.247 182.068 181.838 181.196 180.413 180.79C179.947 180.655 179.692 180.164 179.845 179.707C179.989 179.275 180.439 179.039 180.871 179.166C182.253 179.555 185.637 180.435 192.175 181.712C192.633 181.805 192.938 182.245 192.845 182.702C192.76 183.151 192.311 183.455 191.853 183.362Z" fill="white"/>
</g>
<path d="M206.948 108.374C206.405 108.662 205.667 108.332 205.404 107.774C205.141 107.215 205.286 106.53 205.642 106.022C205.998 105.515 206.532 105.168 207.083 104.888C206.744 105.396 206.091 106.251 206.108 106.868C206.125 107.477 206.363 108.552 206.948 108.374Z" fill="#263238"/>
<path d="M214.028 125.609C214.062 125.922 213.714 126.184 213.401 126.133C213.087 126.083 212.849 125.812 212.756 125.507C212.663 125.203 212.688 124.881 212.722 124.568C212.799 123.849 212.926 123.13 213.239 122.478C213.553 121.827 214.062 121.243 214.732 120.981C214.995 121.218 215.003 121.691 214.859 122.013C214.715 122.334 214.469 122.588 214.266 122.876C213.748 123.629 213.613 124.619 213.901 125.482C214.011 125.482 213.926 125.6 214.028 125.609Z" fill="#263238"/>
<path d="M118.484 179.276H58.1061C53.4676 179.276 49.7109 183.024 49.7109 187.652V233.442C49.7109 238.07 53.4676 241.818 58.1061 241.818H103.695C104.585 249.145 110.835 254.814 118.416 254.814C118.755 254.814 119.077 254.788 119.408 254.763C117.051 251.666 115.126 247.165 113.862 241.818H118.484C123.122 241.818 126.879 238.07 126.879 233.442V187.652C126.879 183.024 123.122 179.276 118.484 179.276Z" fill="#F4B733"/>
<path opacity="0.4" d="M118.484 179.276H58.1061C53.4676 179.276 49.7109 183.024 49.7109 187.652V233.442C49.7109 238.07 53.4676 241.818 58.1061 241.818H103.695C104.585 249.145 110.835 254.814 118.416 254.814C118.755 254.814 119.077 254.788 119.408 254.763C117.051 251.666 115.126 247.165 113.862 241.818H118.484C123.122 241.818 126.879 238.07 126.879 233.442V187.652C126.879 183.024 123.122 179.276 118.484 179.276Z" fill="white"/>
<path d="M130.576 198.727L135.274 194.395L139.285 201.807C139.285 201.807 134.638 205.36 131.874 203.178L130.576 198.727Z" fill="#FFE9D4"/>
<path d="M130.576 198.727L127.379 205.513L131.772 209.134L135.596 202.932L130.576 198.727Z" fill="#FFE9D4"/>
<path d="M139.743 195.394L140.514 198.194C140.896 199.565 140.379 201.096 139.285 201.807L137.563 202.932L132.764 194.531L136.876 193.498C138.123 193.16 139.353 193.981 139.743 195.394Z" fill="#FFE9D4"/>
<path d="M130.576 198.727C130.576 198.727 132.247 193.498 132.001 191.899C131.857 190.943 132.832 191.104 133.646 191.383C134.273 191.603 134.706 192.178 134.731 192.847C134.799 194.556 134.757 197.839 133.434 198.05C131.636 198.338 130.576 198.727 130.576 198.727Z" fill="#FFE9D4"/>
<path d="M136.062 204.167C134.79 202.746 133.069 201.705 131.051 201.291L129.617 200.995C128.803 200.825 128.608 201.02 128.507 201.24L128.1 201.874L127.269 203.144C126.7 203.981 126.149 204.827 125.564 205.648C124.436 207.315 123.257 208.922 122.07 210.462C120.892 211.994 119.645 213.44 118.415 214.608C118.297 214.718 118.178 214.828 118.059 214.929C117.627 214.447 117.194 213.956 116.779 213.44C115.566 211.917 114.404 210.276 113.31 208.558C112.217 206.832 108.672 201.739 107.705 199.903C107.222 198.989 106.747 198.059 106.297 197.128L105.645 195.732C105.441 195.292 105.212 194.759 105.076 194.42C105.051 194.361 105.009 194.268 104.983 194.201C103.55 191.002 99.7848 189.564 96.5794 191.002C93.374 192.432 91.9324 196.189 93.374 199.387C93.6792 200.072 93.9252 200.563 94.1965 201.138L95.0191 202.763C95.5788 203.837 96.1554 204.886 96.749 205.936C97.9447 208.025 101.786 213.356 103.194 215.352C104.601 217.349 106.145 219.304 107.866 221.173C109.596 223.043 111.504 224.845 113.726 226.47L113.997 226.665C115.269 227.587 116.94 227.934 118.577 227.468C120.713 226.859 122.121 225.903 123.317 224.998C124.504 224.076 125.445 223.136 126.302 222.197C128.015 220.319 129.372 218.415 130.635 216.495C131.882 214.574 132.976 212.611 134.01 210.648C134.51 209.65 135.002 208.66 135.46 207.653L136.139 206.13L136.469 205.36C136.588 205.09 136.639 204.81 136.062 204.167Z" fill="#263238"/>
<path opacity="0.4" d="M104.636 201.477L99.9721 204.76L98.5898 207.949C98.8188 208.372 99.0393 208.795 99.2767 209.21C100.472 211.3 101.787 213.33 103.194 215.336C104.602 217.332 106.146 219.287 107.867 221.157C108.673 222.028 109.521 222.883 110.419 223.712C108.164 218.356 104.636 201.477 104.636 201.477Z" fill="black"/>
<path d="M62.9484 227.198C63.313 235.633 61.9732 235.269 61.9393 241.809H103.262C105.51 221.834 104.458 218.762 104.5 205.504C104.526 198.042 103.356 190.427 95.9101 189.649C87.6337 188.786 77.2965 188.87 69.6221 189.818C64.1186 190.495 60.2178 195.554 61.0234 201.028C62.694 212.315 61.7866 218.703 62.9484 227.198Z" fill="#263238"/>
<path opacity="0.9" d="M92.1366 189.336C86.7772 188.98 80.9091 188.972 75.6006 189.285C75.7193 190.969 77.0083 195.241 86.3956 198.871C86.3956 198.871 88.4902 194.336 90.254 196.383C90.254 196.383 91.6702 193.778 94.706 198.566C94.706 198.566 99.2343 193.735 92.1366 189.336Z" fill="white"/>
<path opacity="0.4" d="M69.8083 201.333C70.7157 209.176 65.6955 222.29 62.9904 228.636C62.9819 228.188 62.965 227.705 62.948 227.198C62.2187 221.893 62.3035 217.417 62.0576 212.061L69.8083 201.333Z" fill="black"/>
<path d="M79.6537 174.301C79.6622 181.374 78.3223 185.452 76.7366 189.276C76.5839 189.64 76.6687 190.072 76.9655 190.342C79.6706 192.779 83.8089 194.767 89.4311 194.844C94.9855 194.92 94.6633 193.185 93.3489 191.239C93.1623 190.96 92.9079 190.732 92.6196 190.562C88.8206 188.312 88.6849 185.3 89.7449 183.489L79.6537 174.301Z" fill="#FFE9D4"/>
<path opacity="0.2" d="M79.6619 174.301L89.7531 183.481C89.151 184.496 88.939 185.901 89.5411 187.33C87.5483 187.398 85.5131 186.764 83.7323 185.249C81.1289 183.041 80.247 180.435 79.6025 176.763C79.6449 175.984 79.6619 175.172 79.6619 174.301Z" fill="black"/>
<path d="M76.6515 169.563C77.101 176.323 76.1342 177.406 79.5856 180.832C84.7669 185.985 93.2045 186.975 94.4001 180.113C95.4771 173.937 96.0707 162.76 89.4054 160.163C82.8334 157.599 76.2021 162.803 76.6515 169.563Z" fill="#FFE9D4"/>
<path d="M93.12 176.839C93.12 176.839 90.7371 176.086 83.9785 175.798C84.6993 178.227 86.1155 180.24 89.5753 180.342C93.0352 180.46 93.12 176.839 93.12 176.839Z" fill="#263238"/>
<path d="M88.0322 178.404C89.7028 178.455 90.8984 178.954 91.7634 179.716C91.2631 180.113 90.5508 180.376 89.584 180.342C87.9135 180.291 86.7263 179.8 85.8613 179.03C86.3616 178.633 87.0655 178.37 88.0322 178.404Z" fill="#FF5652"/>
<path d="M92.8144 176.763C92.6109 177.262 92.3989 177.77 91.7205 177.905C90.3128 177.956 86.7258 177.338 85.7591 177.059C85.14 176.915 84.6228 176.644 84.2666 175.824C89.4733 176.052 92.0004 176.56 92.8144 176.763Z" fill="white"/>
<path d="M90.4658 170.553C90.4658 170.553 91.8226 172.939 93.1031 173.988C92.4247 174.834 91.0594 174.699 91.0594 174.699L90.4658 170.553Z" fill="#D6BDA5"/>
<path d="M83.7753 167.634C83.716 167.625 83.6651 167.6 83.6227 167.557C83.487 167.431 83.47 167.219 83.5972 167.075C84.8608 165.671 86.4211 165.891 86.4804 165.899C86.667 165.925 86.7942 166.102 86.7603 166.288C86.7348 166.474 86.5568 166.601 86.3702 166.576C86.3193 166.568 85.1067 166.415 84.0976 167.532C84.0128 167.617 83.8856 167.659 83.7753 167.634Z" fill="#263238"/>
<path d="M95.0366 168.835C94.9264 168.852 94.8162 168.818 94.7314 168.733C93.7138 167.642 92.5011 167.828 92.4502 167.837C92.2637 167.87 92.0941 167.744 92.0602 167.557C92.0262 167.371 92.1534 167.202 92.34 167.168C92.4078 167.16 93.9512 166.897 95.2317 168.268C95.3589 168.404 95.3504 168.623 95.2147 168.75C95.1554 168.793 95.096 168.827 95.0366 168.835Z" fill="#263238"/>
<path d="M50.3637 228.568C50.3721 228.881 50.423 229.203 50.5078 229.516C51.3304 232.579 52.3904 234.965 53.4843 237.393C54.1033 238.738 54.7393 240.05 55.3923 241.344C56.2488 241.632 57.1561 241.801 58.1059 241.801H67.2473C66.9421 241.124 66.6453 240.447 66.34 239.779C65.3393 237.571 64.3981 235.354 63.5585 233.162C62.8377 231.293 62.1763 229.364 61.7777 227.714C61.8456 227.189 61.9897 226.402 62.2017 225.615C62.4731 224.592 62.8208 223.492 63.2278 222.383C64.0419 220.158 65.0086 217.865 66.0262 215.581C67.0523 213.297 68.1717 211.012 69.2995 208.745C70.4273 206.486 71.623 204.167 72.8017 202.018L72.8441 201.942C72.8696 201.9 72.8865 201.858 72.912 201.815C74.5147 198.693 73.2766 194.869 70.1475 193.27C67.0184 191.671 63.1854 192.906 61.5827 196.028C60.3022 198.516 59.1574 200.893 58.0126 203.355C56.8848 205.809 55.8163 208.296 54.7902 210.843C53.7641 213.39 52.8144 215.979 51.9918 218.728C51.5763 220.099 51.1947 221.529 50.8809 223.06C50.5841 224.609 50.2958 226.208 50.3467 228.374L50.3637 228.568Z" fill="#263238"/>
<path d="M73.5735 174.089C74.2434 175.714 75.4984 176.864 76.7026 177.38C78.5173 178.159 79.5179 176.382 79.0855 174.36C78.6954 172.532 77.2877 169.926 75.4306 170.02C73.5989 170.104 72.8018 172.236 73.5735 174.089Z" fill="#FFE9D4"/>
<path d="M85.3777 169.935C85.3438 170.527 85.6321 171.018 86.0222 171.043C86.4123 171.069 86.7515 170.612 86.7769 170.011C86.8108 169.411 86.5225 168.928 86.1409 168.903C85.7593 168.877 85.4116 169.334 85.3777 169.935Z" fill="#2E353A"/>
<path d="M92.0857 170.324C92.0518 170.916 92.3401 171.407 92.7217 171.433C93.1033 171.458 93.451 171.001 93.4849 170.4C93.5188 169.808 93.2305 169.317 92.8489 169.292C92.4673 169.267 92.1196 169.724 92.0857 170.324Z" fill="#2E353A"/>
<path d="M111.488 60.5962H51.11C46.4715 60.5962 42.7148 64.3443 42.7148 68.9724V114.762C42.7148 119.39 46.4715 123.138 51.11 123.138H96.6985C97.5889 130.465 103.839 136.134 111.42 136.134C111.759 136.134 112.081 136.109 112.412 136.083C110.055 132.978 108.13 128.486 106.866 123.13H111.488C116.126 123.13 119.883 119.382 119.883 114.754V68.9724C119.883 64.3443 116.118 60.5962 111.488 60.5962Z" fill="#F4B733"/>
<path opacity="0.4" d="M111.488 60.5962H51.11C46.4715 60.5962 42.7148 64.3443 42.7148 68.9724V114.762C42.7148 119.39 46.4715 123.138 51.11 123.138H96.6985C97.5889 130.465 103.839 136.134 111.42 136.134C111.759 136.134 112.081 136.109 112.412 136.083C110.055 132.978 108.13 128.486 106.866 123.13H111.488C116.126 123.13 119.883 119.382 119.883 114.754V68.9724C119.883 64.3443 116.118 60.5962 111.488 60.5962Z" fill="white"/>
<path d="M96.6981 123.138C96.096 116.649 96.732 108.366 96.732 108.366C97.2578 99.702 94.6629 90.3359 92.704 88.7368C89.8802 86.4185 87.2514 84.2272 86.3186 87.1462C85.7844 88.8214 85.6148 91.6304 85.6487 94.7524C85.7335 102.316 87.3023 111.75 88.1079 116.107C88.3962 117.656 89.0916 123.147 89.0916 123.147H96.6981V123.138Z" fill="#F4B733"/>
<path d="M91.4233 89.1005C91.2283 87.8314 90.304 86.7992 89.0659 86.4608C86.9374 85.8939 83.2825 84.9717 79.9414 84.3794C76.0236 83.7448 72.072 83.381 68.1033 83.2964C65.5932 83.1949 63.1256 83.271 61.1667 83.381C60.9377 83.3979 60.7003 83.4403 60.4798 83.4995C58.7414 83.9902 57.7323 85.8008 58.2241 87.5268C63.2528 105.438 64.2958 114.018 64.5587 123.138H89.0998C90.2446 114.864 92.4918 108.07 92.6953 103.205C92.9752 96.0807 91.7795 91.1988 91.4233 89.1005Z" fill="#F4B733"/>
<path opacity="0.8" d="M91.4233 89.1005C91.2283 87.8314 90.304 86.7992 89.0659 86.4608C86.9374 85.8939 83.2825 84.9717 79.9414 84.3794C76.0236 83.7448 72.072 83.381 68.1033 83.2964C65.5932 83.1949 63.1256 83.271 61.1667 83.381C60.9377 83.3979 60.7003 83.4403 60.4798 83.4995C58.7414 83.9902 57.7323 85.8008 58.2241 87.5268C63.2528 105.438 64.2958 114.018 64.5587 123.138H89.0998C90.2446 114.864 92.4918 108.07 92.6953 103.205C92.9752 96.0807 91.7795 91.1988 91.4233 89.1005Z" fill="white"/>
<path d="M81.3412 80.2423C79.73 82.4167 78.5428 84.9888 81.0784 87.8655C81.6126 88.4747 81.9688 89.2361 81.9857 90.0399C82.0112 91.3344 81.2649 92.5866 77.0419 90.1076C70.9193 86.5118 71.4366 82.4506 71.4366 82.4506C74.659 81.4776 76.5755 74.7343 77.3217 70.8762L81.3412 80.2423Z" fill="#FFE9D5"/>
<path opacity="0.2" d="M77.6608 76.6718C77.1859 78.3132 78.9328 80.936 80.2556 81.9683C80.5609 81.3591 80.9256 80.7753 81.3326 80.2338L78.9497 74.7004C78.3985 75.2673 77.9576 75.9357 77.6608 76.6718Z" fill="black"/>
<path d="M93.7731 59.9533C95.9271 62.6776 91.0765 70.8761 90.5507 69.1671C89.7027 66.3665 88.4647 60.7147 88.4816 58.3711C88.5155 54.7076 91.6277 57.2289 93.7731 59.9533Z" fill="#263238"/>
<path d="M75.9137 60.8078C78.3135 56.7212 83.5796 55.359 87.6754 57.7534C93.4503 61.087 93.0094 70.4277 90.8894 75.8257C88.5658 81.8328 80.7218 82.5943 76.6514 77.1371C73.9209 73.499 74.2686 70.8507 74.7519 64.5813C74.8367 63.2529 75.2353 61.9585 75.9137 60.8078Z" fill="#FFE9D5"/>
<path d="M83.5881 67.7626C83.5457 68.2703 83.7746 68.7103 84.1053 68.7526C84.4361 68.7864 84.7583 68.3972 84.8092 67.8896C84.8601 67.3819 84.6226 66.942 84.2919 66.8997C83.9612 66.8573 83.6644 67.2804 83.5881 67.7626Z" fill="#263238"/>
<path d="M84.1221 66.9588L85.3856 66.7219C85.3856 66.7219 84.6733 67.5934 84.1221 66.9588Z" fill="#263238"/>
<path d="M90.0158 69.1926C89.9734 69.7002 90.2024 70.1402 90.5331 70.1825C90.8638 70.2163 91.186 69.8271 91.2369 69.3195C91.2878 68.8118 91.0504 68.3719 90.7196 68.3296C90.3889 68.2873 90.0921 68.7103 90.0158 69.1926Z" fill="#263238"/>
<path d="M90.5498 68.3888L91.8133 68.1519C91.8133 68.1603 91.101 69.0233 90.5498 68.3888Z" fill="#263238"/>
<path d="M87.582 73.059C88.1841 73.3043 88.8625 73.2705 89.4392 72.9744C88.8286 71.8829 88.3707 70.7069 88.0823 69.4885L87.582 73.059Z" fill="#ED893E"/>
<path d="M82.7662 72.8391C82.7323 72.763 82.7662 72.6699 82.8341 72.6361C82.9104 72.6022 83.0037 72.6361 83.0376 72.7038C83.6736 73.8291 84.8099 74.5821 86.0904 74.7259C86.1667 74.7428 86.2261 74.8105 86.2176 74.8951V74.9036C86.2091 74.9797 86.1328 75.0305 86.0565 75.022C85.8106 74.9966 85.5731 74.9459 85.3357 74.8782C84.2418 74.5736 83.3174 73.8375 82.7662 72.8391Z" fill="#263238"/>
<path d="M83.3937 64.4629C83.2919 64.3276 83.3258 64.1414 83.453 64.0483C84.8183 63.0161 86.7687 63.6084 86.845 63.6422C87.0062 63.693 87.091 63.8622 87.0401 64.0145C86.9892 64.1753 86.8196 64.2599 86.667 64.2091C86.65 64.2006 84.9625 63.6507 83.8262 64.5137C83.7244 64.5898 83.5802 64.5983 83.4785 64.5222L83.3937 64.4629Z" fill="#263238"/>
<path d="M92.6195 66.4174C92.204 65.7744 91.5001 65.3683 90.7369 65.3429C90.5673 65.3429 90.4316 65.216 90.4316 65.0468C90.4316 64.8776 90.5588 64.7422 90.7284 64.7422C91.6952 64.776 92.594 65.2752 93.1283 66.079C93.1283 66.079 93.1283 66.079 93.1283 66.0875C93.2216 66.2228 93.1792 66.409 93.0435 66.502C92.9587 66.5613 92.8484 66.5697 92.7467 66.5274C92.7043 66.4936 92.6619 66.4597 92.6195 66.4174Z" fill="#263238"/>
<path d="M84.903 59.5555C83.0119 59.8939 81.3074 61.1292 80.3916 62.8214C79.9591 63.6167 77.1777 65.3765 76.7028 66.1465C75.2018 68.617 76.8385 75.6818 76.1346 76.2148C75.4308 76.7478 75.6852 74.658 75.0068 74.2519C74.3369 73.8542 73.5567 73.6173 72.9716 73.1012C72.1575 72.399 69.1895 64.7335 72.8105 60.097C74.6676 57.7195 77.2625 55.8497 80.239 55.3251C83.2154 54.8005 86.3954 55.5197 88.8546 57.2796C89.6518 57.8464 91.0255 59.4032 88.8207 60.0885C88.2356 60.2747 88.2017 59.8009 87.5826 59.6486C86.7092 59.4371 85.7849 59.3948 84.903 59.5555Z" fill="#263238"/>
<path d="M70.4696 66.1465C72.5641 64.1159 75.176 64.1159 77.4825 64.1159C78.7715 64.1159 79.8908 64.1159 80.7304 63.7521C83.0539 62.7368 84.487 59.4371 84.7414 58.3456C84.9958 57.2796 86.2254 56.5435 86.6833 56.5181C87.014 56.4927 88.0995 56.6112 88.6252 57.3727C89.0408 57.9734 88.9984 58.8364 88.498 59.9447L88.8203 60.0886C89.3715 58.8618 89.4054 57.8803 88.9136 57.1696C88.2945 56.2728 87.0819 56.1458 86.6579 56.1628C86.0388 56.1966 84.682 57.0427 84.3937 58.261C84.1563 59.2594 82.7571 62.4745 80.5862 63.4221C79.8145 63.7606 78.7291 63.7606 77.4825 63.7606C75.2184 63.7606 72.42 63.7605 70.2236 65.8927L70.4696 66.1465Z" fill="#263238"/>
<path opacity="0.1" d="M70.4696 66.1465C72.5641 64.1159 75.176 64.1159 77.4825 64.1159C78.7715 64.1159 79.8908 64.1159 80.7304 63.7521C83.0539 62.7368 84.487 59.4371 84.7414 58.3456C84.9958 57.2796 86.2254 56.5435 86.6833 56.5181C87.014 56.4927 88.0995 56.6112 88.6252 57.3727C89.0408 57.9734 88.9984 58.8364 88.498 59.9447L88.8203 60.0886C89.3715 58.8618 89.4054 57.8803 88.9136 57.1696C88.2945 56.2728 87.0819 56.1458 86.6579 56.1628C86.0388 56.1966 84.682 57.0427 84.3937 58.261C84.1563 59.2594 82.7571 62.4745 80.5862 63.4221C79.8145 63.7606 78.7291 63.7606 77.4825 63.7606C75.2184 63.7606 72.42 63.7605 70.2236 65.8927L70.4696 66.1465Z" fill="white"/>
<path d="M72.2672 68.5155C72.4199 67.3902 73.4544 66.5949 74.5907 66.7387C76.1511 66.9756 76.8634 69.0739 76.8634 70.4446C76.8464 71.959 75.727 73.0843 74.3618 72.2298C73.3357 71.5698 72.6064 70.5376 72.335 69.3531C72.2502 69.0908 72.2248 68.8032 72.2672 68.5155Z" fill="#FFE9D5"/>
<path d="M75.0404 90.852C74.7012 95.1755 70.6901 111.539 62.0066 111.995C60.6498 112.063 59.2761 111.547 58.2161 110.659C58.2076 110.659 58.1906 110.642 58.1822 110.633C51.1777 106.428 56.6812 86.0124 58.0889 84.8279C60.4378 82.8735 64.5506 83.2965 65.8396 87.1377C66.0262 86.4947 66.1703 85.8347 66.2805 85.1748C66.6452 82.9581 67.8494 77.8224 70.0711 77.4501C71.411 77.2132 74.1669 77.0948 74.9725 78.1947C75.7697 79.2776 75.5916 83.6942 75.0404 90.852Z" fill="#F4B733"/>
<g opacity="0.2">
<path d="M74.582 66.7471L74.6244 67.1363L75.023 70.8844V75.724L75.6844 72.8473C75.854 72.0943 75.8964 71.3244 75.7947 70.5629L75.3283 66.9671L74.582 66.7471Z" fill="black"/>
</g>
<path d="M70.2237 78.3383L69.1807 70.7998L75.4728 70.749C75.4728 70.749 74.9555 76.4093 73.3783 78.3383H70.2237Z" fill="#FFE9D5"/>
<path d="M70.2915 65.6472L74.9555 66.4679L75.4559 70.7322L69.1807 70.7914L70.2915 65.6472Z" fill="#FFE9D5"/>
<path opacity="0.2" d="M63.9571 94.0078C63.9571 94.0078 60.1835 102.714 60.0733 99.262C59.9461 95.5223 63.9571 94.0078 63.9571 94.0078Z" fill="black"/>
<path d="M296.547 144.874H273.21C270.988 144.874 269.19 146.668 269.19 148.884V163.885C269.19 166.102 270.988 167.896 273.21 167.896H279.918L282.911 171.805C283.903 173.091 285.845 173.091 286.837 171.805L289.831 167.896H296.538C298.76 167.896 300.558 166.102 300.558 163.885V148.884C300.566 146.668 298.76 144.874 296.547 144.874Z" fill="#F4B733"/>
<path opacity="0.7" d="M296.547 144.874H273.21C270.988 144.874 269.19 146.668 269.19 148.884V163.885C269.19 166.102 270.988 167.896 273.21 167.896H279.918L282.911 171.805C283.903 173.091 285.845 173.091 286.837 171.805L289.831 167.896H296.538C298.76 167.896 300.558 166.102 300.558 163.885V148.884C300.566 146.668 298.76 144.874 296.547 144.874Z" fill="white"/>
<path d="M295.19 155.179L287.719 150.627V153.352H284.293C279.722 153.352 276.017 157.049 276.017 161.61C276.017 162.236 276.093 162.845 276.229 163.429C277.06 159.748 280.35 156.99 284.293 156.99H287.719V159.714L295.19 155.179Z" fill="#F4B733"/>
<path d="M132.34 53.1084H150.232C151.937 53.1084 153.311 54.4875 153.311 56.1797V67.6863C153.311 69.387 151.928 70.7576 150.232 70.7576H145.085L142.787 73.7527C142.032 74.7426 140.54 74.7426 139.777 73.7527L137.479 70.7576H132.331C130.627 70.7576 129.253 69.3785 129.253 67.6863V56.1797C129.261 54.4875 130.635 53.1084 132.34 53.1084Z" fill="#F4B733"/>
<path opacity="0.7" d="M132.34 53.1084H150.232C151.937 53.1084 153.311 54.4875 153.311 56.1797V67.6863C153.311 69.387 151.928 70.7576 150.232 70.7576H145.085L142.787 73.7527C142.032 74.7426 140.54 74.7426 139.777 73.7527L137.479 70.7576H132.331C130.627 70.7576 129.253 69.3785 129.253 67.6863V56.1797C129.261 54.4875 130.635 53.1084 132.34 53.1084Z" fill="white"/>
<path d="M133.374 61.0107L139.098 57.5249V59.6147H141.718C145.221 59.6147 148.061 62.4491 148.061 65.9434C148.061 66.4257 148.002 66.891 147.9 67.3394C147.264 64.5135 144.737 62.4068 141.718 62.4068H139.098V64.4966L133.374 61.0107Z" fill="#F4B733"/>
</svg>
