<svg width="22" height="22" viewBox="0 0 22 22" fill="none" xmlns="http://www.w3.org/2000/svg">
<path d="M8.7085 12.6041C8.7085 13.4933 9.39601 14.2083 10.2393 14.2083H11.9627C12.696 14.2083 13.2918 13.585 13.2918 12.8058C13.2918 11.9716 12.9252 11.6691 12.3843 11.4766L9.62516 10.5141C9.08433 10.3216 8.71767 10.0283 8.71767 9.18497C8.71767 8.41497 9.31349 7.78247 10.0468 7.78247H11.7702C12.6135 7.78247 13.301 8.49747 13.301 9.38664" stroke="#ECC440" stroke-width="1.5" stroke-linecap="round" stroke-linejoin="round"/>
<path d="M11 6.875V15.125" stroke="#ECC440" stroke-width="1.5" stroke-linecap="round" stroke-linejoin="round"/>
<path d="M20.1668 10.9999C20.1668 16.0599 16.0602 20.1666 11.0002 20.1666C5.94016 20.1666 1.8335 16.0599 1.8335 10.9999C1.8335 5.93992 5.94016 1.83325 11.0002 1.83325" stroke="#ECC440" stroke-width="1.5" stroke-linecap="round" stroke-linejoin="round"/>
<path d="M20.1667 5.49992V1.83325H16.5" stroke="#ECC440" stroke-width="1.5" stroke-linecap="round" stroke-linejoin="round"/>
<path d="M15.5835 6.41659L20.1668 1.83325" stroke="#ECC440" stroke-width="1.5" stroke-linecap="round" stroke-linejoin="round"/>
</svg>
