<svg width="24" height="25" viewBox="0 0 24 25" fill="none" xmlns="http://www.w3.org/2000/svg">
<path d="M2.66634 6.1673V21.1286L8.57551 18.597L15.5755 22.097L21.333 19.6271V4.66696L22.8532 4.01596C22.9419 3.97791 23.0388 3.96249 23.135 3.9711C23.2312 3.9797 23.3237 4.01205 23.4043 4.06525C23.4849 4.11845 23.5511 4.19083 23.5968 4.27589C23.6425 4.36096 23.6664 4.45605 23.6663 4.55263V21.1671L15.4997 24.6671L8.49967 21.1671L1.14617 24.3183C1.05741 24.3563 0.960581 24.3718 0.864385 24.3632C0.768189 24.3546 0.675634 24.3222 0.595026 24.269C0.514419 24.2158 0.448281 24.1434 0.402549 24.0584C0.356817 23.9733 0.332922 23.8782 0.333008 23.7816V7.16713L2.66634 6.1673ZM16.9498 12.1173L11.9997 17.0663L7.04951 12.1173C6.07066 11.1383 5.40409 9.891 5.13409 8.53316C4.86409 7.17533 5.00278 5.76792 5.53263 4.48891C6.06248 3.2099 6.95969 2.11672 8.11081 1.3476C9.26192 0.578482 10.6153 0.167969 11.9997 0.167969C13.3841 0.167969 14.7374 0.578482 15.8885 1.3476C17.0397 2.11672 17.9369 3.2099 18.4667 4.48891C18.9966 5.76792 19.1353 7.17533 18.8653 8.53316C18.5953 9.891 17.9287 11.1383 16.9498 12.1173ZM11.9997 13.767L15.299 10.4665C15.9518 9.81387 16.3964 8.98236 16.5766 8.07707C16.7567 7.17179 16.6644 6.23341 16.3112 5.3806C15.9581 4.5278 15.3599 3.79888 14.5925 3.28604C13.825 2.7732 12.9227 2.49947 11.9997 2.49947C11.0766 2.49947 10.1743 2.7732 9.40687 3.28604C8.63941 3.79888 8.04127 4.5278 7.6881 5.3806C7.33493 6.23341 7.2426 7.17179 7.42278 8.07707C7.60296 8.98236 8.04756 9.81387 8.70034 10.4665L11.9997 13.767Z" fill="#F4B733"/>
</svg>
