<svg width="22" height="18" viewBox="0 0 22 18" fill="none" xmlns="http://www.w3.org/2000/svg">
<path d="M0 6.5V1C0 0.734784 0.115892 0.48043 0.322183 0.292893C0.528473 0.105357 0.808262 0 1.1 0H20.9C21.1917 0 21.4715 0.105357 21.6778 0.292893C21.8841 0.48043 22 0.734784 22 1V6.5C21.2707 6.5 20.5712 6.76339 20.0555 7.23223C19.5397 7.70107 19.25 8.33696 19.25 9C19.25 9.66304 19.5397 10.2989 20.0555 10.7678C20.5712 11.2366 21.2707 11.5 22 11.5V17C22 17.2652 21.8841 17.5196 21.6778 17.7071C21.4715 17.8946 21.1917 18 20.9 18H1.1C0.808262 18 0.528473 17.8946 0.322183 17.7071C0.115892 17.5196 0 17.2652 0 17V11.5C0.729345 11.5 1.42882 11.2366 1.94454 10.7678C2.46027 10.2989 2.75 9.66304 2.75 9C2.75 8.33696 2.46027 7.70107 1.94454 7.23223C1.42882 6.76339 0.729345 6.5 0 6.5ZM2.2 4.968C3.02633 5.3403 3.72182 5.91505 4.20806 6.62746C4.69429 7.33987 4.95193 8.1616 4.95193 9C4.95193 9.8384 4.69429 10.6601 4.20806 11.3725C3.72182 12.085 3.02633 12.6597 2.2 13.032V16H19.8V13.032C18.9737 12.6597 18.2782 12.085 17.7919 11.3725C17.3057 10.6601 17.0481 9.8384 17.0481 9C17.0481 8.1616 17.3057 7.33987 17.7919 6.62746C18.2782 5.91505 18.9737 5.3403 19.8 4.968V2H2.2V4.968Z" fill="#F4B733"/>
</svg>
