<svg width="13" height="13" viewBox="0 0 13 13" fill="none" xmlns="http://www.w3.org/2000/svg">
<path d="M7.62945 0.939683L8.77516 3.24645C8.92954 3.56547 9.34394 3.86813 9.69334 3.93357L11.7654 4.27713C13.0898 4.49799 13.3986 5.46324 12.4479 6.42848L10.8309 8.05631C10.5628 8.32625 10.4084 8.85795 10.4978 9.24241L10.9609 11.2547C11.3266 12.8416 10.4815 13.4633 9.09205 12.6289L7.15004 11.4674C6.80065 11.2547 6.21561 11.2547 5.86621 11.4674L3.9242 12.6289C2.53473 13.4551 1.68967 12.8416 2.05532 11.2547L2.51848 9.24241C2.59161 8.84977 2.43722 8.31807 2.16908 8.04813L0.552094 6.4203C-0.398596 5.46324 -0.0898249 4.49799 1.23464 4.26895L3.30666 3.92539C3.65606 3.86813 4.07046 3.55729 4.22484 3.23827L5.37055 0.931503C5.99622 -0.311861 7.00378 -0.311861 7.62945 0.939683Z" fill="#F4B733"/>
</svg>
