<svg width="42" height="42" viewBox="0 0 42 42" fill="none" xmlns="http://www.w3.org/2000/svg">
<rect x="-0.000488281" width="42" height="42" rx="21" fill="#F5F6FA"/>
<g clip-path="url(#clip0_700_5322)">
<path d="M21.3635 19.5857L25.6065 15.3427C25.997 14.9523 26.63 14.9523 27.0205 15.3427C27.411 15.7332 27.411 16.3663 27.0205 16.7567L22.7775 20.9997L27.0205 25.2427C27.411 25.6332 27.411 26.2663 27.0205 26.6567C26.63 27.0472 25.997 27.0472 25.6065 26.6567L21.3635 22.4137L17.1205 26.6567C16.73 27.0472 16.097 27.0472 15.7065 26.6567C15.316 26.2663 15.316 25.6332 15.7065 25.2427L19.9495 20.9997L15.7065 16.7567C15.316 16.3663 15.316 15.7332 15.7065 15.3427C16.097 14.9523 16.73 14.9523 17.1205 15.3427L21.3635 19.5857Z" fill="#B8BABF"/>
</g>
<defs>
<clipPath id="clip0_700_5322">
<rect width="24" height="24" fill="white" transform="translate(8.99951 9)"/>
</clipPath>
</defs>
</svg>
