<svg width="18" height="22" viewBox="0 0 18 22" fill="none" xmlns="http://www.w3.org/2000/svg">
<g clip-path="url(#clip0_1123_5125)">
<path d="M17.7231 9.65199C17.7231 4.62628 13.7561 0.560547 8.87073 0.560547C3.96704 0.560547 0 4.62628 0 9.65199C0 10.819 0.220391 11.7601 0.385684 12.3248C1.57947 16.4094 4.88533 18.5175 6.11585 19.2328L8.85237 21.9998L11.5889 19.2328C12.8378 18.5175 16.1253 16.4094 17.319 12.3248C17.5027 11.7413 17.7231 10.819 17.7231 9.65199ZM2.20391 9.65199C2.20391 5.86859 5.17919 2.81929 8.87073 2.81929C12.5623 2.81929 15.5376 5.86859 15.5376 9.65199C15.5376 13.4354 12.5439 16.4659 8.87073 16.4659C5.19755 16.4659 2.20391 13.4166 2.20391 9.65199Z" fill="#379417"/>
<path d="M6.08315 13.2652C5.83504 13.2652 5.58693 13.2652 5.33882 13.2652C5.14337 13.1823 5.08802 13.0296 5.08989 12.8259C5.09673 12.056 5.09258 11.2858 5.09258 10.5157C5.09258 10.1126 5.09362 9.70951 5.09134 9.30641C5.09113 9.25066 5.10233 9.23512 5.15829 9.25356C5.25177 9.28465 5.3496 9.29522 5.44785 9.29543C5.76581 9.29584 6.08356 9.29688 6.40152 9.29522C6.63823 9.29398 6.85338 9.22496 7.03847 9.0743C7.07018 9.0486 7.08967 9.04466 7.12262 9.07222C7.31104 9.22849 7.53158 9.29543 7.77388 9.29564C8.41477 9.29605 9.05566 9.29605 9.69655 9.29564C9.93885 9.29543 10.1594 9.22849 10.3482 9.07264C10.381 9.04549 10.4002 9.04798 10.4322 9.07409C10.6171 9.22476 10.8318 9.29418 11.0687 9.29543C11.3892 9.29709 11.7096 9.29605 12.03 9.29564C12.1208 9.29564 12.2118 9.28714 12.297 9.25833C12.3689 9.23408 12.3793 9.25149 12.3791 9.32154C12.377 10.4973 12.3754 11.673 12.3797 12.8487C12.3805 13.0522 12.3134 13.1956 12.1159 13.2652C10.8803 13.2652 9.64494 13.2652 8.40938 13.2652C8.39611 13.2383 8.40275 13.2093 8.40275 13.1813C8.40213 12.9127 8.40233 12.6441 8.40233 12.3755C8.40233 11.6989 8.39757 11.0222 8.40482 10.3455C8.40752 10.0871 8.23589 9.95323 8.02095 9.95717C7.49945 9.96691 6.97753 9.96028 6.45582 9.96069C6.41478 9.96069 6.37395 9.95862 6.33312 9.97064C6.17393 10.0179 6.0904 10.1383 6.0904 10.33C6.08999 11.2777 6.0904 12.2257 6.08999 13.1734C6.08978 13.2043 6.09683 13.2356 6.08315 13.2652ZM10.216 11.6079C10.4873 11.6079 10.7586 11.6083 11.0299 11.6077C11.2405 11.6073 11.3761 11.4792 11.3788 11.2684C11.3827 10.9455 11.3827 10.6224 11.3788 10.2995C11.3763 10.0888 11.2407 9.96069 11.0299 9.96048C10.4925 9.96007 9.95502 9.96007 9.41756 9.96048C9.20656 9.96069 9.07121 10.089 9.06893 10.2995C9.0654 10.6224 9.0654 10.9455 9.06893 11.2684C9.07121 11.4788 9.20697 11.6071 9.41756 11.6077C9.6837 11.6085 9.94984 11.6079 10.216 11.6079Z" fill="#379417"/>
<path d="M12.7053 8.42734C12.6788 8.44599 12.6842 8.47791 12.6759 8.50319C12.5888 8.77178 12.3476 8.961 12.0628 8.96597C11.7191 8.97198 11.3752 8.97219 11.0318 8.96597C10.7325 8.96059 10.4856 8.75583 10.4093 8.46568C10.4048 8.44869 10.399 8.43211 10.3878 8.39687C10.3507 8.56785 10.2812 8.70153 10.1612 8.80474C10.0371 8.91147 9.89157 8.9668 9.72907 8.96722C9.06745 8.96929 8.40604 8.96991 7.74442 8.96722C7.43538 8.96597 7.18748 8.77033 7.1025 8.47107C7.0969 8.4518 7.0911 8.43252 7.08467 8.41159C7.06001 8.43729 7.06229 8.47024 7.05317 8.49884C6.96715 8.77075 6.72256 8.96162 6.43507 8.96618C6.09411 8.97157 5.75273 8.97261 5.41176 8.96618C5.04717 8.95914 4.76652 8.66547 4.76507 8.30175C4.76465 8.20869 4.76673 8.11564 4.76424 8.02279C4.7632 7.98404 4.77191 7.96414 4.81461 7.97036C4.83243 7.97285 4.85067 7.97078 4.86891 7.97078C7.44802 7.97078 10.0269 7.97078 12.606 7.97119C12.6392 7.97119 12.6732 7.96394 12.7055 7.97782C12.7053 8.12745 12.7053 8.2775 12.7053 8.42734Z" fill="#379417"/>
<path d="M8.73553 7.64381C8.34544 7.64381 7.95536 7.64194 7.56527 7.64546C7.49832 7.64609 7.48277 7.63096 7.49604 7.56567C7.6146 6.986 7.73088 6.40592 7.84737 5.82584C7.87618 5.68201 7.90457 5.53818 7.93069 5.39393C7.9396 5.34419 7.95681 5.3243 8.01422 5.32471C8.49468 5.32803 8.97535 5.32782 9.45581 5.32492C9.51198 5.32451 9.53001 5.34254 9.54017 5.39331C9.6834 6.11515 9.82745 6.83679 9.97379 7.55801C9.98871 7.63116 9.97006 7.64629 9.89793 7.64567C9.51053 7.64194 9.12293 7.64381 8.73553 7.64381Z" fill="#379417"/>
<path d="M7.27463 5.32638C7.15254 5.93548 7.0317 6.53836 6.91107 7.14145C6.88184 7.28776 6.85303 7.43429 6.82526 7.58102C6.81717 7.6235 6.80308 7.64547 6.75105 7.64526C6.13856 7.64298 5.52606 7.64298 4.91357 7.64506C4.85242 7.64526 4.84724 7.62578 4.86175 7.57521C5.05265 6.91099 5.2421 6.24635 5.433 5.58191C5.48109 5.41487 5.6013 5.32659 5.77562 5.32638C6.25111 5.32617 6.72659 5.32617 7.20229 5.32617C7.22488 5.32638 7.24768 5.32638 7.27463 5.32638Z" fill="#379417"/>
<path d="M10.1963 5.32626C10.5569 5.32626 10.9108 5.32626 11.2648 5.32626C11.407 5.32626 11.549 5.32606 11.6911 5.32626C11.8709 5.32668 11.9884 5.41351 12.0379 5.58574C12.1469 5.96355 12.2547 6.34177 12.3629 6.71979C12.4442 7.00393 12.5242 7.28848 12.6077 7.57199C12.6251 7.63064 12.6143 7.64515 12.5517 7.64494C11.9444 7.64266 11.3371 7.64266 10.73 7.64515C10.6747 7.64536 10.6542 7.62857 10.6438 7.57634C10.4962 6.82922 10.347 6.0823 10.1963 5.32626Z" fill="#379417"/>
</g>
<defs>
<clipPath id="clip0_1123_5125">
<rect width="17.7231" height="21.4392" fill="white" transform="translate(0 0.560547)"/>
</clipPath>
</defs>
</svg>
