<svg width="18" height="22" viewBox="0 0 18 22" fill="none" xmlns="http://www.w3.org/2000/svg">
<g clip-path="url(#clip0_1123_5120)">
<path d="M17.3613 9.08003C17.3613 4.06063 13.4753 0 8.68966 0C3.88606 0 0 4.06063 0 9.08003C0 10.2456 0.215892 11.1855 0.377811 11.7495C1.54723 15.8289 4.78561 17.9345 5.99101 18.6488L8.67167 21.4123L11.3523 18.6488C12.5757 17.9345 15.7961 15.8289 16.9655 11.7495C17.1454 11.1667 17.3613 10.2456 17.3613 9.08003ZM2.15892 9.08003C2.15892 5.30138 5.07347 2.25591 8.68966 2.25591C12.3059 2.25591 15.2204 5.30138 15.2204 9.08003C15.2204 12.8587 12.2879 15.8853 8.68966 15.8853C5.09146 15.8853 2.15892 12.8399 2.15892 9.08003Z" fill="#DD4200"/>
<path d="M12.4531 12.2756C12.2522 12.2756 12.0512 12.2763 11.8505 12.2753C11.6389 12.2744 11.5109 12.1727 11.4574 11.964C11.4501 11.9361 11.4595 11.9039 11.4118 11.9017C11.1072 11.8878 10.8223 11.7659 10.5201 11.7346C9.68578 11.6484 8.84999 11.6053 8.01146 11.6366C7.51922 11.6549 7.02729 11.68 6.53779 11.7405C6.29274 11.7709 6.05954 11.8577 5.8154 11.8903C5.7929 11.8934 5.76949 11.903 5.74821 11.8992C5.66004 11.8837 5.62903 11.9237 5.60836 12.009C5.57035 12.1671 5.43536 12.2725 5.27513 12.2738C4.8431 12.2772 4.41076 12.2775 3.97872 12.2738C3.8039 12.2722 3.67165 12.151 3.63182 11.9647C3.623 11.9231 3.6157 11.8965 3.5704 11.8841C3.42355 11.8437 3.34724 11.7349 3.30923 11.5914C3.12833 10.9114 3.0508 10.2201 3.09002 9.51595C3.11404 9.08406 3.1484 8.65372 3.23596 8.22865C3.29616 7.9369 3.44149 7.71956 3.70144 7.58221C3.7583 7.55214 3.81302 7.51772 3.86896 7.48486C3.93859 7.44424 3.95653 7.3937 3.90089 7.3255C3.79904 7.20086 3.77563 7.06258 3.84859 6.91624C3.92308 6.76649 4.04987 6.70417 4.21192 6.70696C4.30282 6.70851 4.39495 6.69828 4.48464 6.70975C4.58679 6.72277 4.62966 6.67627 4.66919 6.58821C4.80935 6.27507 4.97474 5.97712 5.20186 5.71792C5.49738 5.3806 5.8832 5.21224 6.30034 5.10714C7.21245 4.8774 8.13976 4.82252 9.07528 4.86841C9.64383 4.89631 10.2048 4.96824 10.7612 5.09753C11.4811 5.26464 11.9861 5.68847 12.3054 6.35909C12.361 6.47598 12.3865 6.63782 12.4905 6.69332C12.5893 6.74572 12.735 6.70913 12.8599 6.70665C13.0208 6.70355 13.15 6.75936 13.2284 6.90756C13.3072 7.05669 13.285 7.19776 13.1813 7.32736C13.1266 7.39556 13.1439 7.44641 13.215 7.4861C13.2184 7.48796 13.2214 7.49044 13.2248 7.49199C13.6945 7.68204 13.8538 8.07549 13.9082 8.54923C13.98 9.17614 14.0332 9.80274 13.9782 10.4337C13.9432 10.8342 13.8748 11.2292 13.7669 11.6162C13.7307 11.7464 13.6535 11.8428 13.5224 11.8828C13.4783 11.8965 13.4595 11.9147 13.4488 11.9656C13.4075 12.1659 13.2707 12.2735 13.0676 12.275C12.8624 12.2769 12.6577 12.2756 12.4531 12.2756ZM8.5274 7.25295C8.73567 7.25295 8.94424 7.24767 9.1525 7.25388C9.97431 7.27806 10.7961 7.30658 11.6179 7.33139C11.8125 7.33728 11.8958 7.20768 11.8137 7.02816C11.7499 6.88864 11.6781 6.75285 11.6112 6.61488C11.4027 6.18454 11.0643 5.93309 10.6073 5.82365C10.0929 5.70025 9.57238 5.63514 9.04579 5.60879C8.20574 5.56693 7.37237 5.61406 6.55087 5.80691C6.21673 5.88535 5.89506 5.99665 5.67372 6.29491C5.52657 6.49334 5.42472 6.71657 5.30766 6.93236C5.1599 7.20396 5.2426 7.34999 5.56184 7.3348C6.54995 7.28767 7.53838 7.25822 8.5274 7.25295ZM8.29695 10.7868C9.11754 10.7868 9.68609 10.7899 10.2549 10.785C10.4355 10.7834 10.6201 10.7887 10.7903 10.7059C10.9378 10.6343 11.0837 10.5481 11.085 10.3599C11.0862 10.1732 10.9408 10.0923 10.7943 10.0275C10.5283 9.91001 10.2449 9.86071 9.96215 9.80646C8.86489 9.59625 7.77461 9.65578 6.68951 9.89203C6.48672 9.93605 6.28605 10.0018 6.11914 10.137C5.95556 10.269 5.94888 10.4238 6.09907 10.5695C6.22707 10.6935 6.38273 10.758 6.55908 10.7698C7.22187 10.8132 7.88558 10.7775 8.29695 10.7868ZM12.4078 8.93214C12.5212 8.93214 12.6653 8.93369 12.8088 8.93121C12.8499 8.93059 12.8912 8.92004 12.932 8.91167C13.1585 8.86517 13.2579 8.74921 13.2713 8.51699C13.2889 8.2116 13.2302 8.15331 12.9289 8.18028C12.5991 8.21005 12.285 8.30771 11.9737 8.41716C11.8086 8.47513 11.6535 8.55326 11.51 8.65527C11.4623 8.68937 11.437 8.73247 11.4504 8.79324C11.4641 8.85494 11.51 8.86176 11.5623 8.86827C11.8329 8.90206 12.1053 8.91446 12.4078 8.93214ZM4.67527 8.93245C4.96745 8.9157 5.23926 8.90082 5.51015 8.86765C5.56913 8.86052 5.61292 8.84098 5.62751 8.7796C5.64089 8.72255 5.61322 8.68348 5.56792 8.65403C5.52657 8.62736 5.48583 8.59884 5.44326 8.57404C5.12737 8.39173 4.77803 8.30554 4.43113 8.21377C4.27911 8.17346 4.12496 8.16633 3.9699 8.19237C3.90758 8.20292 3.84768 8.22152 3.83066 8.2919C3.77106 8.53776 3.79721 8.84935 4.15172 8.91384C4.33292 8.94702 4.51413 8.92594 4.67527 8.93245Z" fill="#DD4200"/>
</g>
<defs>
<clipPath id="clip0_1123_5120">
<rect width="17.3613" height="21.4123" fill="white"/>
</clipPath>
</defs>
</svg>
