<svg width="25" height="35" viewBox="0 0 25 35" fill="none" xmlns="http://www.w3.org/2000/svg">
<path d="M6.35968 1.04571C6.35495 1.0608 6.34076 1.08138 6.34643 1.09007C6.72899 1.66638 6.75926 2.31039 6.7446 2.96675C6.73419 3.43969 6.74081 3.91263 6.74885 4.38557C6.75074 4.5141 6.73987 4.57813 6.57389 4.57768C5.02806 4.57493 3.48223 4.57951 1.93687 4.5882C1.79973 4.58911 1.76143 4.55435 1.76238 4.42125C1.76758 3.73699 1.74346 3.05228 1.76569 2.36894C1.82811 0.447896 3.90639 -0.621941 5.60024 0.387063C5.63097 0.405358 5.65556 0.425483 5.69103 0.401699C5.91375 0.616215 6.13648 0.831189 6.35968 1.04571ZM3.27936 1.2282C2.73272 1.75695 2.73035 2.58254 3.27369 3.11037C3.81749 3.63865 4.67245 3.64094 5.22004 3.1154C5.76527 2.59169 5.76763 1.75786 5.22477 1.23278C4.67907 0.705864 3.8208 0.704035 3.27936 1.2282Z" fill="#434343"/>
<path d="M5.33591 34.7563C5.2385 34.7271 5.17844 34.803 5.10468 34.8359C3.91587 35.3628 2.54216 34.5629 2.50481 33.2982C2.47549 32.3033 2.49487 31.3067 2.48684 30.311C2.48589 30.1897 2.51946 30.1545 2.64667 30.1545C3.7636 30.1564 4.88006 30.1536 5.99699 30.1468C6.11899 30.1458 6.16155 30.1728 6.16108 30.2991C6.1573 31.303 6.16297 32.3075 6.16203 33.3114C6.16203 33.6554 6.00361 33.9536 5.85371 34.2532C5.68064 34.4211 5.50804 34.5889 5.33591 34.7563ZM5.30565 31.6246C4.76279 31.0954 3.90783 31.0917 3.35976 31.6163C2.81359 32.1391 2.81028 32.9739 3.3522 33.499C3.89695 34.0263 4.75664 34.03 5.29714 33.5072C5.84425 32.9789 5.84804 32.1533 5.30565 31.6246Z" fill="#434343"/>
<path d="M0.215088 8.00315C2.72937 7.9972 5.21008 7.99171 7.69078 7.98577C7.84778 7.98531 8.00525 7.99309 8.16177 7.98348C8.28282 7.97571 8.31072 8.00955 8.28471 8.1239C8.03314 9.21752 7.78299 10.3116 7.54135 11.4075C7.50352 11.5795 7.3853 11.5328 7.28316 11.5333C5.47489 11.5392 3.66661 11.5434 1.85786 11.5475C1.63088 11.5479 1.40342 11.5466 1.17644 11.5507C1.08802 11.552 1.036 11.5383 1.01283 11.4372C0.752748 10.3034 0.486992 9.17041 0.215088 8.00315Z" fill="#434343"/>
<path d="M8.1765 5.9447C8.38173 6.15373 8.52075 6.49449 8.52264 6.89379C8.52311 7.04839 8.48387 7.10739 8.30606 7.10602C7.38112 7.09824 6.45617 7.10602 5.53123 7.10785C3.76835 7.11196 2.00547 7.11151 0.242585 7.12614C0.0312098 7.12797 0 7.05479 0 6.88601C0.000945752 6.08741 0.624669 5.48091 1.48388 5.47268C2.57481 5.4617 3.66573 5.4649 4.75666 5.46261C5.50711 5.46078 6.25757 5.45667 7.00802 5.45804C7.46955 5.4585 7.8086 5.59022 8.1765 5.9447Z" fill="#434343"/>
<path d="M0.718368 15.1145C0.839425 15.013 0.982233 14.9654 1.14679 14.9649C3.23218 14.9608 5.31709 14.9535 7.40247 14.9517C7.76753 14.9512 7.99545 15.1515 8.00113 15.4516C8.0068 15.7644 7.77604 15.9675 7.39443 15.9689C5.31803 15.9758 3.24163 15.9794 1.16476 15.9849C0.907046 15.9858 0.702291 15.8998 0.602514 15.657C0.520706 15.4566 0.578397 15.2769 0.718368 15.1145Z" fill="#434343"/>
<path d="M7.83885 24.7088C7.76366 24.7985 7.61423 24.8323 7.45156 24.8328C5.35483 24.8378 3.2581 24.8442 1.16136 24.8461C0.824204 24.8465 0.592968 24.6315 0.591077 24.3434C0.589185 24.0465 0.807181 23.8352 1.14954 23.8334C3.25526 23.8242 5.3605 23.8206 7.46622 23.8174C7.70218 23.8169 7.89039 23.9052 7.98165 24.1334C8.06157 24.3333 8.028 24.5131 7.83885 24.7088Z" fill="#434343"/>
<path d="M7.85867 28.3826C8.0289 28.5436 8.06957 28.717 8.0081 28.91C7.94568 29.1049 7.80476 29.2206 7.59575 29.2508C7.51867 29.2617 7.43923 29.2622 7.36073 29.2622C5.33398 29.2672 3.30677 29.2718 1.28002 29.2759C1.19301 29.2759 1.10411 29.2773 1.01946 29.2617C0.772624 29.2165 0.60759 29.0198 0.602861 28.7792C0.598605 28.5487 0.768841 28.331 1.00386 28.2806C1.08803 28.2623 1.17741 28.2623 1.26394 28.2619C3.29967 28.2559 5.3354 28.2514 7.37113 28.2459C7.55697 28.2454 7.73998 28.2495 7.85867 28.3826Z" fill="#434343"/>
<path d="M7.84227 20.258C7.75053 20.3549 7.61481 20.3975 7.45876 20.3979C5.35352 20.402 3.2478 20.4094 1.14256 20.4112C0.810128 20.4116 0.575582 20.1889 0.578892 19.9035C0.582675 19.6039 0.799725 19.4026 1.14587 19.4013C3.2426 19.3935 5.33933 19.3898 7.43606 19.3853C7.68385 19.3848 7.88151 19.4694 7.9742 19.7068C8.05175 19.9058 8.01439 20.0878 7.84227 20.258Z" fill="#434343"/>
<path d="M6.13978 25.7219C6.14214 25.7772 6.14545 25.8248 6.14545 25.8723C6.14687 26.3197 6.14309 26.767 6.15255 27.2139C6.15491 27.3346 6.12465 27.3703 5.99602 27.3698C4.87956 27.3676 3.76263 27.3698 2.64617 27.3781C2.50431 27.379 2.47594 27.3346 2.47783 27.2079C2.48445 26.7693 2.4835 26.3302 2.47404 25.8916C2.47121 25.7626 2.50336 25.7214 2.64333 25.7219C3.75128 25.7246 4.85923 25.7196 5.96718 25.7173C6.0192 25.7177 6.07074 25.72 6.13978 25.7219Z" fill="#434343"/>
<path d="M2.45524 12.4392C2.51576 12.437 2.56636 12.4333 2.61696 12.4333C3.72633 12.4301 4.83617 12.4306 5.94553 12.4214C6.09638 12.42 6.11482 12.4745 6.1134 12.598C6.1082 13.0371 6.10867 13.4766 6.11861 13.9162C6.12144 14.0534 6.0647 14.0776 5.93986 14.0776C4.83049 14.0767 3.72065 14.0808 2.61129 14.0831C2.52806 14.0831 2.44247 14.1055 2.44483 13.9665C2.45145 13.4935 2.44483 13.0201 2.44436 12.5472C2.44389 12.5143 2.45051 12.4818 2.45524 12.4392Z" fill="#434343"/>
<path d="M6.1071 16.8603C6.1123 16.9038 6.12082 16.945 6.12129 16.9857C6.12413 17.4417 6.12082 17.8977 6.1298 18.3533C6.13216 18.4818 6.08157 18.5038 5.9624 18.5033C4.85351 18.5019 3.74509 18.5042 2.63619 18.5111C2.5071 18.512 2.45177 18.4919 2.45414 18.3496C2.46265 17.9105 2.45839 17.4714 2.45177 17.0328C2.44988 16.9125 2.47069 16.8567 2.61775 16.8571C3.73516 16.8608 4.85256 16.8553 5.96997 16.853C6.01347 16.8535 6.05698 16.8581 6.1071 16.8603Z" fill="#434343"/>
<path d="M6.1252 21.2957C6.12757 21.3382 6.13182 21.3785 6.1323 21.4187C6.13466 21.8743 6.13135 22.3298 6.14081 22.7849C6.14364 22.9112 6.10014 22.9382 5.97767 22.9382C4.86121 22.9368 3.74475 22.9391 2.62829 22.9464C2.50345 22.9473 2.46467 22.9158 2.46656 22.7923C2.47271 22.3454 2.4694 21.8981 2.4642 21.4512C2.46278 21.3442 2.47744 21.292 2.61315 21.2925C3.73813 21.2957 4.8631 21.2906 5.98807 21.2884C6.0311 21.2879 6.0746 21.2925 6.1252 21.2957Z" fill="#434343"/>
<path d="M3.91269 1.85202C4.08387 1.68324 4.39597 1.67821 4.57472 1.8415C4.76245 2.01256 4.76103 2.31719 4.57188 2.49511C4.38746 2.66846 4.10137 2.66526 3.91931 2.48779C3.74104 2.31399 3.7382 2.024 3.91269 1.85202Z" fill="#434343"/>
<path d="M4.65357 32.2407C4.83468 32.4127 4.84272 32.7004 4.67107 32.8765C4.49752 33.0549 4.16651 33.0567 3.99013 32.8797C3.81658 32.7059 3.82131 32.4173 4.001 32.2439C4.18306 32.0683 4.4701 32.0664 4.65357 32.2407Z" fill="#434343"/>
<path d="M24.7376 19.2827C24.5806 18.061 24.1215 17.0639 22.8579 16.5704C22.6158 16.4757 22.5875 16.3188 22.7558 16.118C23.0249 15.7964 23.0698 15.4351 22.8787 15.0683C22.6759 14.679 22.3316 14.5057 21.8786 14.5167C21.523 14.5254 21.1125 14.6177 20.8255 14.4801C20.5361 14.341 20.4912 13.901 20.3129 13.6065C20.3025 13.5891 20.2912 13.5717 20.2822 13.5539C19.4111 11.8318 18.036 10.7391 16.084 10.3032C14.6105 9.97386 13.1252 9.78633 11.6186 9.70263C10.6459 9.64866 9.67605 9.63585 8.70949 9.67015C8.56904 10.2876 8.43049 10.9024 8.2943 11.5198C8.28721 11.5514 8.27397 11.6003 8.24985 11.6552C9.22398 11.599 10.2019 11.5944 11.185 11.6401C12.6717 11.7092 14.1405 11.8762 15.5931 12.2014C16.8666 12.4863 17.8128 13.1486 18.3897 14.2907C18.5775 14.6626 18.7817 15.0267 18.9581 15.4031C19.1582 15.8294 18.9298 16.1646 18.4446 16.1505C16.3185 16.0896 14.1925 16.0142 12.0664 15.9565C11.3439 15.9369 10.6209 15.9533 9.89782 15.9533C9.47838 15.9524 9.05894 15.9542 8.6395 15.9574C8.59694 16.0329 8.54493 16.1024 8.48251 16.1646C8.27539 16.3691 7.98457 16.478 7.64079 16.4793C7.3703 16.4802 7.09982 16.4807 6.82933 16.4816L6.86811 16.8114C6.86906 16.8205 6.87047 16.8297 6.87189 16.8384C6.87757 16.8763 6.88513 16.9285 6.88561 16.9902C6.88655 17.1384 6.88655 17.2866 6.88702 17.4344C6.8875 17.7358 6.88797 18.0473 6.89412 18.3514C6.8979 18.5481 6.83737 18.7096 6.71348 18.8312C6.69031 18.8541 6.66619 18.8742 6.6416 18.8916L7.67862 18.8893C7.68004 18.8893 7.68098 18.8893 7.6824 18.8893C8.17183 18.8893 8.54398 19.1249 8.70476 19.5361C8.85608 19.9235 8.77049 20.3054 8.46312 20.6123C8.33119 20.7486 8.09333 20.9078 7.70368 20.9087C7.42468 20.9092 7.14569 20.9101 6.86669 20.9105L6.89081 21.3071C6.89317 21.3396 6.89601 21.3798 6.89648 21.4242C6.89695 21.5591 6.89743 21.694 6.89743 21.8294C6.8979 22.0554 6.89837 22.2873 6.90074 22.5173C8.4792 22.3069 10.0681 22.2319 11.6687 22.3778C13.1016 22.5082 14.5367 22.6697 15.9067 23.1463C16.153 23.2322 16.3932 23.3315 16.5985 23.492C17.0231 23.8255 17.0548 24.2742 16.6666 24.6442C16.3095 24.9845 15.866 25.1414 15.3676 25.1702C13.5565 25.2745 11.7439 25.1999 9.93187 25.2265C9.37057 25.2182 8.80926 25.2201 8.24796 25.2228C8.11603 25.2919 7.93728 25.3427 7.69659 25.3436L6.88844 25.3459L6.90547 25.7575C6.90736 25.8 6.90925 25.8398 6.90972 25.8792C6.91019 26.0104 6.9102 26.1417 6.9102 26.273C6.9102 26.5817 6.91019 26.901 6.91634 27.212C6.91729 27.2637 6.91965 27.3867 6.86243 27.518C8.6466 27.4206 10.4326 27.3794 12.2187 27.4805C13.4099 27.5477 14.6025 27.5958 15.7851 27.7714C16.4765 27.8738 17.1357 28.1373 17.844 28.1455C17.9547 28.1469 17.9391 28.2155 17.9561 28.2846C18.0975 28.8545 18.4469 29.1202 19.048 29.1216C19.6036 29.1225 20.1592 29.1216 20.7149 29.1216C21.2913 29.1216 21.8677 29.1189 22.4446 29.123C22.6158 29.1244 22.7742 29.0942 22.9293 29.0237C23.3176 28.8476 23.3256 28.3678 23.5729 28.1757C23.8812 27.9365 24.242 27.7879 24.3584 27.3826C24.7064 26.1705 24.9296 24.9356 24.984 23.6796C25.0464 22.2068 24.9253 20.7436 24.7376 19.2827ZM21.6105 20.3475C21.2572 20.3772 20.8993 20.3521 20.5437 20.3521C19.8017 20.3031 19.0603 20.2684 18.3216 20.1833C18.1623 20.165 17.9977 20.1778 17.9485 19.9839C17.8998 19.7913 18.0223 19.6847 18.1689 19.59C18.8461 19.1528 19.6055 18.9108 20.382 18.7064C21.078 18.5234 21.7713 18.3464 22.5071 18.3967C22.8116 18.4173 22.9454 18.5573 22.9653 18.8244C23.0438 19.886 22.7345 20.2528 21.6105 20.3475Z" fill="#434343"/>
</svg>
