<svg width="240" height="40" viewBox="0 0 240 40" fill="none" xmlns="http://www.w3.org/2000/svg">
<g clip-path="url(#clip0_640_2973)">
<path d="M98.8086 26.0714C98.2725 25.0577 97.5016 24.1888 96.5613 23.5384C95.0353 22.5489 93.4016 21.7389 91.6921 21.1243C89.8834 20.4959 88.1492 19.6686 86.5207 18.6574C86.1601 18.4184 85.8635 18.0936 85.6572 17.7118C85.4509 17.33 85.3413 16.9029 85.338 16.4682C85.338 14.709 86.8493 13.8227 89.8851 13.8227C91.8739 13.8227 94.3271 14.4378 97.2446 15.668L97.2906 15.5688V10.5357C94.9702 9.70605 92.525 9.28542 90.0625 9.29232C86.8515 9.29232 84.3107 9.9537 82.4401 11.2764C81.5452 11.8732 80.8177 12.6915 80.3275 13.6528C79.8373 14.6141 79.6009 15.6861 79.6409 16.7659C79.5675 18.5127 80.1571 20.2223 81.2902 21.5476C82.3941 22.7778 84.5012 24.0079 87.6115 25.2381C88.895 25.7206 90.1461 26.2862 91.357 26.9312C92.0834 27.2869 92.7435 27.7656 93.3086 28.3466C93.7088 28.8372 93.9169 29.4582 93.8934 30.0926C93.8934 32.2707 92.1258 33.3576 88.5906 33.3532C85.5021 33.2683 82.4695 32.5029 79.7066 31.1111V36.1706C81.8969 37.2817 84.7926 37.8373 88.3935 37.8373C91.9944 37.8373 94.7498 37.1186 96.6598 35.6812C98.5873 34.2482 99.5489 32.1847 99.5445 29.4907C99.5771 28.3079 99.3246 27.1347 98.8086 26.0714Z" fill="white"/>
<path d="M112.752 32.9761C114.179 32.9727 115.597 32.7497 116.958 32.3147V36.6666C116.167 36.9934 115.343 37.2308 114.5 37.3742C113.47 37.564 112.426 37.6591 111.379 37.6586C105.929 37.6586 103.207 34.7684 103.211 28.988V14.2988H99.5049V9.6163H103.447L103.566 3.33984H108.947V9.60968H115.518V14.2922H108.947V28.8425C108.901 29.4092 108.972 29.9794 109.156 30.5169C109.341 31.0543 109.634 31.5472 110.019 31.9642C110.385 32.3062 110.816 32.5717 111.285 32.7454C111.754 32.9191 112.253 32.9975 112.752 32.9761Z" fill="white"/>
<path d="M138.274 37.705L138.13 33.5714H137.834C136.999 34.8689 135.817 35.9028 134.424 36.5542C132.846 37.2988 131.119 37.6698 129.377 37.6389C126.096 37.6389 123.649 36.8166 122.037 35.1719C120.425 33.5273 119.606 31.0317 119.58 27.6852V9.63623H125.382V26.7063C125.382 28.7919 125.805 30.3549 126.65 31.3955C127.495 32.4361 128.825 32.9629 130.639 32.9762C133.052 32.9762 134.824 32.2509 135.955 30.8003C137.085 29.3496 137.652 26.9246 137.656 23.5251V9.63623H143.432V37.705H138.274Z" fill="white"/>
<path d="M158.874 37.639C154.778 37.639 151.668 36.4353 149.543 34.0279C147.419 31.6204 146.354 28.1703 146.35 23.6773C146.35 19.1006 147.465 15.5733 149.695 13.0953C151.924 10.6174 155.14 9.38721 159.341 9.40484C161.994 9.36048 164.624 9.90703 167.042 11.0054L165.307 15.635C163.403 14.8162 161.369 14.3459 159.301 14.2461C154.623 14.2461 152.283 17.3722 152.283 23.6244C152.283 26.68 152.866 28.9749 154.031 30.5093C155.197 32.0437 156.905 32.8109 159.157 32.8109C161.703 32.8136 164.207 32.1529 166.424 30.8929V35.9392C165.402 36.5459 164.294 36.9919 163.139 37.262C161.735 37.544 160.305 37.6705 158.874 37.639Z" fill="white"/>
<path d="M175.814 22.7645L179.067 18.6772L186.374 9.62302H193.004L182.957 21.6071L194.936 37.5529H188.214L179.119 25.205L175.965 27.8108V37.6058H170.262V0H175.965V17.5198L175.67 22.7645H175.814Z" fill="white"/>
<path d="M49.6112 9.10718C45.6686 9.10718 42.5343 10.377 40.3001 12.877C38.066 15.377 36.9489 18.8955 36.9489 23.3466C36.8927 25.9512 37.4205 28.5351 38.4931 30.9061C39.4443 32.9719 40.9805 34.709 42.9088 35.8995C44.8858 37.0725 47.1457 37.6743 49.4404 37.6389C53.383 37.6389 56.524 36.3625 58.7712 33.836C61.0185 31.3096 62.1488 27.7977 62.1488 23.3466C62.1488 19.0146 61.0054 15.5225 58.7581 12.9696C56.5108 10.4167 53.429 9.10718 49.6112 9.10718ZM43.6973 15.668C44.9655 13.9947 46.9368 13.135 49.4864 13.135C52.0359 13.135 54.0861 14.0014 55.4003 15.7011C56.7145 17.4008 57.3716 19.9934 57.3716 23.34C57.3716 26.6865 56.7145 29.2924 55.4003 31.0582C54.0861 32.8241 52.0885 33.6376 49.5652 33.6376C47.042 33.6376 45.051 32.7646 43.7433 31.0384C42.4357 29.3122 41.772 26.6998 41.772 23.3334C41.772 19.967 42.3831 17.3678 43.6908 15.668H43.6973Z" fill="white"/>
<path d="M77.203 33.2144C76.6915 33.3567 76.1713 33.465 75.6457 33.5385C74.9741 33.6457 74.2951 33.6988 73.6152 33.6972C73.0659 33.7289 72.5166 33.6367 72.0072 33.4273C71.4979 33.2179 71.0415 32.8966 70.6714 32.4869C69.8876 31.4779 69.5015 30.2132 69.5872 28.9353V13.3401H76.2173V9.59668H69.5872V3.34668H64.9875V9.57684H61.0974V13.3202H64.9415V29.1073C64.9415 34.7686 67.6487 37.639 72.9975 37.639C73.7881 37.6301 74.5768 37.5593 75.3565 37.4274C76.0533 37.3364 76.7342 37.1494 77.3804 36.8718L77.5381 36.7924V33.1086L77.203 33.2144Z" fill="white"/>
<path d="M238.43 23.1416C238.897 22.9474 239.296 22.6167 239.575 22.192C239.854 21.7674 240 21.2683 239.994 20.7593C239.989 20.2502 239.832 19.7546 239.543 19.3363C239.255 18.918 238.849 18.5963 238.377 18.4128L214.064 4.17334V9.22625L234.704 21.3228L237.667 23.0556L237.924 23.4524L238.43 23.1416ZM237.24 20.7805C237.24 20.6497 237.279 20.5218 237.351 20.413C237.423 20.3043 237.526 20.2195 237.646 20.1694C237.766 20.1194 237.898 20.1063 238.025 20.1318C238.153 20.1573 238.27 20.2203 238.362 20.3128C238.454 20.4053 238.516 20.5232 238.542 20.6515C238.567 20.7797 238.554 20.9127 238.504 21.0336C238.455 21.1544 238.37 21.2577 238.262 21.3304C238.154 21.4031 238.027 21.4419 237.897 21.4419C237.723 21.4419 237.556 21.3722 237.433 21.2481C237.309 21.1241 237.24 20.9559 237.24 20.7805Z" fill="#ECBC00"/>
<path d="M213.256 31.9114L213.289 4.38496L213.525 3.96168L212.993 3.66406C212.584 3.38073 212.106 3.21344 211.61 3.1797C211.114 3.14595 210.618 3.247 210.174 3.47226C209.757 3.75482 209.422 4.14518 209.206 4.60246C208.99 5.05975 208.9 5.56713 208.945 6.07147L208.906 34.4379L213.256 31.9114ZM210.66 5.52914C210.66 5.39833 210.699 5.27046 210.771 5.1617C210.843 5.05294 210.946 4.96817 211.066 4.91811C211.186 4.86805 211.318 4.85495 211.446 4.88047C211.573 4.90599 211.69 4.96898 211.782 5.06147C211.874 5.15397 211.937 5.27182 211.962 5.40011C211.987 5.5284 211.974 5.66138 211.925 5.78224C211.875 5.90309 211.791 6.00638 211.683 6.07905C211.575 6.15173 211.448 6.19051 211.318 6.19051C211.143 6.19051 210.976 6.12083 210.853 5.9968C210.73 5.87277 210.66 5.70455 210.66 5.52914Z" fill="#F4C52A"/>
<path d="M213.039 37.8968L237.497 23.8624L233.153 21.3359L209.419 34.9603H208.939V35.6217C208.901 36.1207 208.997 36.6208 209.217 37.0698C209.436 37.5188 209.771 37.9003 210.187 38.1746C210.644 38.389 211.149 38.4764 211.651 38.4275C212.153 38.3787 212.632 38.1954 213.039 37.8968ZM210.661 36.283C210.636 36.1855 210.634 36.0837 210.655 35.9853C210.676 35.887 210.718 35.7946 210.78 35.7154C210.841 35.6361 210.92 35.572 211.01 35.5279C211.099 35.4838 211.198 35.4609 211.298 35.4609C211.398 35.4609 211.496 35.4838 211.586 35.5279C211.676 35.572 211.755 35.6361 211.816 35.7154C211.877 35.7946 211.92 35.887 211.941 35.9853C211.961 36.0837 211.96 36.1855 211.935 36.283C211.96 36.3806 211.961 36.4824 211.941 36.5807C211.92 36.6791 211.877 36.7714 211.816 36.8507C211.755 36.9299 211.676 36.9941 211.586 37.0382C211.496 37.0823 211.398 37.1052 211.298 37.1052C211.198 37.1052 211.099 37.0823 211.01 37.0382C210.92 36.9941 210.841 36.9299 210.78 36.8507C210.718 36.7714 210.676 36.6791 210.655 36.5807C210.634 36.4824 210.636 36.3806 210.661 36.283Z" fill="#DBA500"/>
<path d="M33.486 13.0623H28.0583C27.2046 10.9714 25.7362 9.1933 23.85 7.96625C21.9637 6.73921 19.7499 6.12194 17.5052 6.1972C10.1851 6.1972 4.71145 11.8784 4.71145 20.8864C4.71145 29.8943 10.1851 35.516 17.5052 35.516C24.3259 35.516 29.0045 30.8004 29.701 23.4062H15.8625V19.4379H34.5308V23.1879C33.7357 32.4472 26.9149 39.9141 17.5052 39.9141C7.74726 39.9141 0.0854492 32.0901 0.0854492 20.8864C0.0854492 9.68265 7.74726 1.80566 17.5052 1.80566C24.8253 1.80566 30.897 5.8599 33.486 13.0623Z" fill="white" stroke="white" stroke-width="0.25" stroke-miterlimit="10"/>
</g>
<defs>
<clipPath id="clip0_640_2973">
<rect width="240" height="40" fill="white"/>
</clipPath>
</defs>
</svg>
