<svg width="91" height="12" viewBox="0 0 91 12" fill="none" xmlns="http://www.w3.org/2000/svg">
<path d="M74.4 9.39V8.7L77.91 3.84H79V8.6H80V9.39H79V11H78.1V9.39H74.4ZM78.14 4.79L75.45 8.6H78.14V4.79ZM81.3491 11.06C81.1757 11.06 81.0291 11 80.9091 10.88C80.7891 10.76 80.7291 10.6133 80.7291 10.44C80.7291 10.2667 80.7891 10.12 80.9091 10C81.0291 9.88 81.1757 9.82 81.3491 9.82C81.5157 9.82 81.6557 9.88 81.7691 10C81.8891 10.12 81.9491 10.2667 81.9491 10.44C81.9491 10.6133 81.8891 10.76 81.7691 10.88C81.6557 11 81.5157 11.06 81.3491 11.06ZM84.1787 9.06C84.2453 9.44 84.3987 9.73333 84.6387 9.94C84.8853 10.1467 85.2153 10.25 85.6287 10.25C86.182 10.25 86.5887 10.0333 86.8487 9.6C87.1153 9.16667 87.242 8.43667 87.2287 7.41C87.0887 7.71 86.8553 7.94667 86.5287 8.12C86.202 8.28667 85.8387 8.37 85.4387 8.37C84.992 8.37 84.592 8.28 84.2387 8.1C83.892 7.91333 83.6187 7.64333 83.4187 7.29C83.2187 6.93667 83.1187 6.51 83.1187 6.01C83.1187 5.29667 83.3253 4.72333 83.7387 4.29C84.152 3.85 84.7387 3.63 85.4987 3.63C86.432 3.63 87.0853 3.93333 87.4587 4.54C87.8387 5.14667 88.0287 6.05 88.0287 7.25C88.0287 8.09 87.952 8.78333 87.7987 9.33C87.652 9.87667 87.3987 10.2933 87.0387 10.58C86.6853 10.8667 86.1987 11.01 85.5787 11.01C84.8987 11.01 84.3687 10.8267 83.9887 10.46C83.6087 10.0933 83.392 9.62667 83.3387 9.06H84.1787ZM85.5887 7.6C86.0353 7.6 86.402 7.46333 86.6887 7.19C86.9753 6.91 87.1187 6.53333 87.1187 6.06C87.1187 5.56 86.9787 5.15667 86.6987 4.85C86.4187 4.54333 86.0253 4.39 85.5187 4.39C85.052 4.39 84.6787 4.53667 84.3987 4.83C84.1253 5.12333 83.9887 5.51 83.9887 5.99C83.9887 6.47667 84.1253 6.86667 84.3987 7.16C84.672 7.45333 85.0687 7.6 85.5887 7.6Z" fill="#8D8D8D"/>
<path d="M6.95009 11.3215C6.87849 11.3218 6.80786 11.3033 6.74414 11.2675L4.46082 9.95788L2.1775 11.2675C2.10335 11.3102 2.01976 11.3293 1.93621 11.3225C1.85267 11.3158 1.77253 11.2835 1.70491 11.2293C1.63728 11.1752 1.58488 11.1013 1.55366 11.0162C1.52245 10.931 1.51366 10.8379 1.52832 10.7476L1.97603 7.98608L0.131461 6.02409C0.0739113 5.96118 0.0330864 5.88228 0.0133675 5.79586C-0.00635135 5.70945 -0.00421978 5.61878 0.0195335 5.5336C0.0454827 5.44642 0.093216 5.36896 0.157316 5.31001C0.221417 5.25105 0.299318 5.21296 0.382179 5.20006L2.93413 4.79295L4.05788 2.27669C4.09454 2.19377 4.15178 2.12383 4.22304 2.07489C4.29431 2.02595 4.37671 2 4.46082 2C4.54492 2 4.62733 2.02595 4.69859 2.07489C4.76986 2.12383 4.8271 2.19377 4.86376 2.27669L6.00094 4.78804L8.55289 5.19515C8.63575 5.20806 8.71365 5.24615 8.77775 5.3051C8.84185 5.36406 8.88959 5.44152 8.91553 5.52869C8.93929 5.61388 8.94142 5.70454 8.9217 5.79096C8.90198 5.87737 8.86116 5.95627 8.80361 6.01919L6.95904 7.98118L7.40675 10.7427C7.42273 10.8346 7.41437 10.9297 7.38263 11.0166C7.3509 11.1035 7.29713 11.1787 7.22767 11.2332C7.1466 11.2954 7.04898 11.3265 6.95009 11.3215Z" fill="#FAB400"/>
<path d="M20.5807 11.3215C20.5091 11.3218 20.4385 11.3033 20.3748 11.2675L18.0914 9.95788L15.8081 11.2675C15.734 11.3102 15.6504 11.3293 15.5668 11.3225C15.4833 11.3158 15.4031 11.2835 15.3355 11.2293C15.2679 11.1752 15.2155 11.1013 15.1843 11.0162C15.1531 10.931 15.1443 10.8379 15.1589 10.7476L15.6066 7.98608L13.7621 6.02409C13.7045 5.96118 13.6637 5.88228 13.644 5.79586C13.6243 5.70945 13.6264 5.61878 13.6501 5.5336C13.6761 5.44642 13.7238 5.36896 13.7879 5.31001C13.852 5.25105 13.9299 5.21296 14.0128 5.20006L16.5647 4.79295L17.6885 2.27669C17.7252 2.19377 17.7824 2.12383 17.8537 2.07489C17.9249 2.02595 18.0073 2 18.0914 2C18.1755 2 18.2579 2.02595 18.3292 2.07489C18.4005 2.12383 18.4577 2.19377 18.4944 2.27669L19.6316 4.78804L22.1835 5.19515C22.2664 5.20806 22.3443 5.24615 22.4084 5.3051C22.4725 5.36406 22.5202 5.44152 22.5461 5.52869C22.5699 5.61388 22.572 5.70454 22.5523 5.79096C22.5326 5.87737 22.4918 5.95627 22.4342 6.01919L20.5897 7.98118L21.0374 10.7427C21.0533 10.8346 21.045 10.9297 21.0132 11.0166C20.9815 11.1035 20.9277 11.1787 20.8583 11.2332C20.7772 11.2954 20.6796 11.3265 20.5807 11.3215Z" fill="#FAB400"/>
<path d="M60.2416 11.3215C60.17 11.3218 60.0994 11.3033 60.0356 11.2675L57.7523 9.95788L55.469 11.2675C55.3949 11.3102 55.3113 11.3293 55.2277 11.3225C55.1442 11.3158 55.064 11.2835 54.9964 11.2293C54.9288 11.1752 54.8764 11.1013 54.8452 11.0162C54.814 10.931 54.8052 10.8379 54.8198 10.7476L55.2675 7.98608L53.423 6.02409C53.3654 5.96118 53.3246 5.88228 53.3049 5.79586C53.2852 5.70945 53.2873 5.61878 53.311 5.5336C53.337 5.44642 53.3847 5.36896 53.4488 5.31001C53.5129 5.25105 53.5908 5.21296 53.6737 5.20006L56.2256 4.79295L57.3494 2.27669C57.386 2.19377 57.4433 2.12383 57.5145 2.07489C57.5858 2.02595 57.6682 2 57.7523 2C57.8364 2 57.9188 2.02595 57.9901 2.07489C58.0614 2.12383 58.1186 2.19377 58.1553 2.27669L59.2924 4.78804L61.8444 5.19515C61.9273 5.20806 62.0052 5.24615 62.0693 5.3051C62.1334 5.36406 62.1811 5.44152 62.207 5.52869C62.2308 5.61388 62.2329 5.70454 62.2132 5.79096C62.1935 5.87737 62.1527 5.95627 62.0951 6.01919L60.2505 7.98118L60.6983 10.7427C60.7142 10.8346 60.7059 10.9297 60.6741 11.0166C60.6424 11.1035 60.5886 11.1787 60.5192 11.2332C60.4381 11.2954 60.3405 11.3265 60.2416 11.3215Z" fill="#FAB400"/>
<path d="M47.0214 11.3215C46.9498 11.3218 46.8792 11.3033 46.8154 11.2675L44.5321 9.95788L42.2488 11.2675C42.1746 11.3102 42.091 11.3293 42.0075 11.3225C41.924 11.3158 41.8438 11.2835 41.7762 11.2293C41.7086 11.1752 41.6562 11.1013 41.625 11.0162C41.5937 10.931 41.585 10.8379 41.5996 10.7476L42.0473 7.98608L40.2028 6.02409C40.1452 5.96118 40.1044 5.88228 40.0847 5.79586C40.0649 5.70945 40.0671 5.61878 40.0908 5.5336C40.1168 5.44642 40.1645 5.36896 40.2286 5.31001C40.2927 5.25105 40.3706 5.21296 40.4535 5.20006L43.0054 4.79295L44.1292 2.27669C44.1658 2.19377 44.2231 2.12383 44.2943 2.07489C44.3656 2.02595 44.448 2 44.5321 2C44.6162 2 44.6986 2.02595 44.7699 2.07489C44.8411 2.12383 44.8984 2.19377 44.935 2.27669L46.0722 4.78804L48.6242 5.19515C48.707 5.20806 48.7849 5.24615 48.849 5.3051C48.9131 5.36406 48.9609 5.44152 48.9868 5.52869C49.0106 5.61388 49.0127 5.70454 48.993 5.79096C48.9733 5.87737 48.9324 5.95627 48.8749 6.01919L47.0303 7.98118L47.478 10.7427C47.494 10.8346 47.4857 10.9297 47.4539 11.0166C47.4222 11.1035 47.3684 11.1787 47.299 11.2332C47.2179 11.2954 47.1203 11.3265 47.0214 11.3215Z" fill="#FAB400"/>
<path d="M33.8009 11.3215C33.7293 11.3218 33.6587 11.3033 33.595 11.2675L31.3116 9.95788L29.0283 11.2675C28.9542 11.3102 28.8706 11.3293 28.787 11.3225C28.7035 11.3158 28.6234 11.2835 28.5557 11.2293C28.4881 11.1752 28.4357 11.1013 28.4045 11.0162C28.3733 10.931 28.3645 10.8379 28.3791 10.7476L28.8269 7.98608L26.9823 6.02409C26.9247 5.96118 26.8839 5.88228 26.8642 5.79586C26.8445 5.70945 26.8466 5.61878 26.8704 5.5336C26.8963 5.44642 26.944 5.36896 27.0081 5.31001C27.0722 5.25105 27.1501 5.21296 27.233 5.20006L29.785 4.79295L30.9087 2.27669C30.9454 2.19377 31.0026 2.12383 31.0739 2.07489C31.1451 2.02595 31.2275 2 31.3116 2C31.3958 2 31.4782 2.02595 31.5494 2.07489C31.6207 2.12383 31.6779 2.19377 31.7146 2.27669L32.8518 4.78804L35.4037 5.19515C35.4866 5.20806 35.5645 5.24615 35.6286 5.3051C35.6927 5.36406 35.7404 5.44152 35.7664 5.52869C35.7901 5.61388 35.7922 5.70454 35.7725 5.79096C35.7528 5.87737 35.712 5.95627 35.6544 6.01919L33.8099 7.98118L34.2576 10.7427C34.2736 10.8346 34.2652 10.9297 34.2335 11.0166C34.2017 11.1035 34.148 11.1787 34.0785 11.2332C33.9974 11.2954 33.8998 11.3265 33.8009 11.3215Z" fill="#FAB400"/>
</svg>
