<svg width="9" height="11" viewBox="0 0 9 11" fill="none" xmlns="http://www.w3.org/2000/svg">
<path d="M8.23953 1.8374C8.08388 1.15996 7.53223 0.720886 6.83065 0.719745C5.71934 0.718605 4.60688 0.719745 3.49557 0.719745C3.48412 0.719745 3.47153 0.719745 3.46009 0.719745C3.38226 0.720886 3.34106 0.752819 3.34335 0.838354C3.34793 0.994597 3.34449 1.15198 3.34449 1.30822C3.34335 1.51807 3.36166 1.73019 3.33648 1.93662C3.25064 2.65967 2.5834 3.26753 1.85206 3.30289C1.52016 3.31886 1.18825 3.32684 0.856346 3.3371C0.727018 3.34166 0.725872 3.34052 0.725872 3.47282C0.725872 5.27474 0.724728 7.07781 0.727017 8.87974C0.728162 9.66209 1.35764 10.2802 2.14506 10.2802C3.71646 10.2791 5.28786 10.2802 6.85926 10.2791C6.93366 10.2791 7.00805 10.2768 7.08015 10.2643C7.79661 10.1377 8.27043 9.57314 8.27043 8.8478C8.27043 7.73357 8.27043 6.62048 8.27043 5.50625C8.27043 4.38404 8.27043 3.26069 8.27043 2.13848C8.26928 2.03584 8.26242 1.93548 8.23953 1.8374ZM2.69899 6.0685C2.62803 6.06394 2.61659 6.09131 2.61774 6.1529C2.62117 6.42775 2.61888 6.7026 2.61888 6.97631C2.61888 7.24774 2.61773 7.51917 2.62002 7.79174C2.62117 7.85104 2.60858 7.87613 2.54334 7.87271C2.44263 7.86701 2.34191 7.86701 2.24119 7.87271C2.17481 7.87613 2.16451 7.8499 2.16451 7.79174C2.1668 7.25116 2.16451 6.71058 2.1668 6.17C2.1668 6.09359 2.15421 6.0628 2.06837 6.06736C1.90585 6.07535 1.74219 6.06508 1.57967 6.07193C1.50986 6.07421 1.49383 6.05254 1.49956 5.98753C1.50528 5.91454 1.50299 5.84041 1.5007 5.76628C1.49841 5.7218 1.50986 5.70583 1.55907 5.70583C2.11645 5.70812 2.67381 5.70698 3.23004 5.70583C3.2804 5.70583 3.28841 5.72408 3.28727 5.76742C3.28383 5.86436 3.32046 5.99095 3.27239 6.05026C3.22203 6.11298 3.08927 6.06508 2.99313 6.0685C2.8947 6.07307 2.79628 6.07535 2.69899 6.0685ZM4.91704 7.87271C4.8724 7.87385 4.86439 7.84306 4.85295 7.81341C4.80259 7.68796 4.75109 7.5625 4.70416 7.43477C4.68814 7.39258 4.6664 7.37775 4.62062 7.37775C4.35967 7.38003 4.09872 7.38003 3.83777 7.37775C3.79543 7.37775 3.77597 7.39144 3.76224 7.43249C3.71875 7.55794 3.66724 7.67997 3.62375 7.80542C3.60544 7.86016 3.57568 7.87499 3.52074 7.87271C3.41431 7.86815 3.30672 7.86701 3.20028 7.87271C3.1236 7.87727 3.11788 7.85674 3.14535 7.79174C3.36853 7.2466 3.58827 6.69918 3.80916 6.1529C3.86066 6.02402 3.91445 5.89629 3.96367 5.76742C3.98083 5.72408 4.00029 5.70241 4.05294 5.70356C4.17082 5.70812 4.28985 5.70698 4.40888 5.70356C4.45237 5.70241 4.47755 5.71382 4.49586 5.75716C4.78084 6.44942 5.06811 7.13939 5.35538 7.83165C5.35996 7.84192 5.36225 7.85218 5.36683 7.87157C5.21232 7.87157 5.06468 7.87043 4.91704 7.87271ZM6.96112 7.87271C6.91534 7.87271 6.90275 7.8385 6.88329 7.80998C6.73222 7.58417 6.58229 7.35836 6.42664 7.12343C6.27785 7.34582 6.13136 7.55908 5.99287 7.77805C5.94824 7.84876 5.90131 7.87955 5.81548 7.87499C5.67699 7.86701 5.5385 7.87271 5.39773 7.87271C5.39888 7.82823 5.42863 7.80542 5.44694 7.77691C5.66669 7.45188 5.88758 7.12571 6.11075 6.80296C6.1428 6.75734 6.1428 6.72655 6.11075 6.68093C5.91047 6.38897 5.71362 6.09359 5.51562 5.79935C5.49845 5.77312 5.48128 5.74575 5.45725 5.70812C5.63007 5.70812 5.79258 5.70926 5.95396 5.70812C5.99745 5.70812 6.0066 5.74233 6.02377 5.76742C6.15882 5.97498 6.29273 6.18255 6.43465 6.40152C6.5388 6.23729 6.6521 6.08789 6.73336 5.92366C6.82034 5.74575 6.94052 5.67276 7.13623 5.70583C7.21635 5.71952 7.30104 5.70812 7.38573 5.70812C7.3926 5.73891 7.37085 5.75374 7.35941 5.77084C7.1534 6.08105 6.94853 6.39125 6.74023 6.70032C6.71162 6.74251 6.70933 6.77102 6.74023 6.81436C6.96684 7.13825 7.19117 7.46557 7.41549 7.79174C7.43151 7.81569 7.44639 7.83964 7.46699 7.87385C7.29074 7.87157 7.12593 7.87043 6.96112 7.87271Z" fill="#379417"/>
</svg>
