<svg width="3" height="18" viewBox="0 0 3 18" fill="none" xmlns="http://www.w3.org/2000/svg">
<path d="M1.5 0C1.20333 0 0.91332 0.0879736 0.666646 0.252796C0.419972 0.417618 0.227713 0.651886 0.114181 0.925975C0.000649929 1.20006 -0.0290551 1.50166 0.0288228 1.79264C0.0867006 2.08361 0.229562 2.35088 0.43934 2.56066C0.649119 2.77044 0.916393 2.9133 1.20736 2.97118C1.49834 3.02906 1.79994 2.99935 2.07403 2.88582C2.34811 2.77229 2.58238 2.58003 2.74721 2.33336C2.91203 2.08668 3 1.79667 3 1.5C3 1.10218 2.84197 0.720644 2.56066 0.43934C2.27936 0.158035 1.89783 0 1.5 0ZM1.5 15C1.20333 15 0.91332 15.088 0.666646 15.2528C0.419972 15.4176 0.227713 15.6519 0.114181 15.926C0.000649929 16.2001 -0.0290551 16.5017 0.0288228 16.7926C0.0867006 17.0836 0.229562 17.3509 0.43934 17.5607C0.649119 17.7704 0.916393 17.9133 1.20736 17.9712C1.49834 18.0291 1.79994 17.9993 2.07403 17.8858C2.34811 17.7723 2.58238 17.58 2.74721 17.3334C2.91203 17.0867 3 16.7967 3 16.5C3 16.1022 2.84197 15.7206 2.56066 15.4393C2.27936 15.158 1.89783 15 1.5 15ZM1.5 7.5C1.20333 7.5 0.91332 7.58797 0.666646 7.7528C0.419972 7.91762 0.227713 8.15189 0.114181 8.42597C0.000649929 8.70006 -0.0290551 9.00166 0.0288228 9.29264C0.0867006 9.58361 0.229562 9.85088 0.43934 10.0607C0.649119 10.2704 0.916393 10.4133 1.20736 10.4712C1.49834 10.5291 1.79994 10.4994 2.07403 10.3858C2.34811 10.2723 2.58238 10.08 2.74721 9.83335C2.91203 9.58668 3 9.29667 3 9C3 8.60218 2.84197 8.22064 2.56066 7.93934C2.27936 7.65804 1.89783 7.5 1.5 7.5Z" fill="#B8BABF"/>
</svg>
