<svg width="22" height="26" viewBox="0 0 22 26" fill="none" xmlns="http://www.w3.org/2000/svg">
<path d="M16.608 16.6084C17.7501 15.4662 18.5278 14.0111 18.8428 12.4269C19.1579 10.8428 18.9961 9.20077 18.378 7.70855C17.7598 6.21634 16.7131 4.94093 15.3701 4.0436C14.0271 3.14627 12.4482 2.66733 10.833 2.66733C9.21783 2.66733 7.63893 3.14627 6.29594 4.0436C4.95296 4.94093 3.90622 6.21634 3.28808 7.70855C2.66994 9.20077 2.50816 10.8428 2.82321 12.4269C3.13825 14.0111 3.91597 15.4662 5.05801 16.6084L10.833 22.3834L16.608 16.6084ZM10.833 25.6827L3.40835 18.2581C1.93991 16.7896 0.939892 14.9187 0.534758 12.8819C0.129623 10.8451 0.337566 8.73391 1.13229 6.81529C1.92701 4.89667 3.27283 3.25681 4.99954 2.10306C6.72625 0.949307 8.75631 0.333496 10.833 0.333496C12.9097 0.333496 14.9398 0.949307 16.6665 2.10306C18.3932 3.25681 19.739 4.89667 20.5337 6.81529C21.3285 8.73391 21.5364 10.8451 21.1313 12.8819C20.7261 14.9187 19.7261 16.7896 18.2577 18.2581L10.833 25.6827ZM11.9997 10.8334H16.6663V13.1667H9.66635V5.00007H11.9997V10.8334Z" fill="#F4B733"/>
</svg>
