<svg width="24" height="28" viewBox="0 0 24 28" fill="none" xmlns="http://www.w3.org/2000/svg">
<g clip-path="url(#clip0_2161_6841)">
<path d="M23.1467 11.8736C23.1467 5.30992 17.9657 0 11.5853 0C5.18102 0 0 5.30992 0 11.8736C0 13.3977 0.287834 14.6269 0.50371 15.3644C2.06281 20.6989 6.38032 23.4522 7.9874 24.3863L11.5613 28L15.1353 24.3863C16.7663 23.4522 21.0599 20.6989 22.619 15.3644C22.8588 14.6023 23.1467 13.3977 23.1467 11.8736ZM2.87834 11.8736C2.87834 6.9324 6.7641 2.94996 11.5853 2.94996C16.4065 2.94996 20.2923 6.9324 20.2923 11.8736C20.2923 16.8147 16.3826 20.7726 11.5853 20.7726C6.78809 20.7726 2.87834 16.7902 2.87834 11.8736Z" fill="#F4B733"/>
</g>
<g clip-path="url(#clip1_2161_6841)">
<path d="M14.8613 17.227C14.949 17.2369 15.0402 17.1993 15.125 17.2468C15.0376 17.2468 14.9499 17.2468 14.8625 17.2468C14.8628 17.2398 14.8622 17.2334 14.8613 17.227Z" fill="#2E2E2E"/>
<path d="M14.8612 17.2267C14.8623 17.2331 14.8626 17.2398 14.8623 17.2465C14.8404 17.2465 14.8185 17.2465 14.7969 17.2465C14.8106 17.2144 14.8378 17.2272 14.8612 17.2267Z" fill="#4B4B4B"/>
<path d="M6.58829 7.73307C6.88231 8.02835 7.15879 8.31312 7.44288 8.59001C7.81289 8.95094 8.40269 8.89258 8.69057 8.47184C8.91006 8.15089 8.87382 7.72636 8.59471 7.43926C8.34073 7.17812 8.08002 6.92311 7.82312 6.66489C7.79828 6.6398 7.76408 6.62142 7.75414 6.57474C8.21096 6.42827 8.65725 6.45132 9.09127 6.65206C9.89471 7.02377 10.3141 7.90435 10.0961 8.76829C10.0604 8.90921 10.0897 9.00871 10.1925 9.10995C10.6473 9.55695 11.0951 10.0112 11.5481 10.46C11.6051 10.5163 11.6223 10.5513 11.5522 10.6114C11.4613 10.6896 11.3777 10.7771 11.297 10.8658C11.2517 10.9157 11.2251 10.9149 11.1778 10.8664C10.9407 10.6243 10.6993 10.3862 10.4597 10.1466C10.4185 10.1052 10.3778 10.0617 10.3173 10.0503C10.2139 10.0305 10.1271 10.06 10.0753 10.1548C10.0219 10.2525 10.0406 10.3456 10.1186 10.4244C10.3471 10.6546 10.5769 10.8833 10.806 11.113C10.927 11.2341 10.927 11.2341 10.8069 11.3543C10.74 11.4214 10.6683 11.4844 10.6073 11.5565C10.5552 11.6177 10.5237 11.6064 10.4719 11.5541C10.0178 11.0961 9.55919 10.6423 9.10618 10.1834C9.0106 10.0865 8.91474 10.0614 8.78263 10.0953C7.57206 10.406 6.41994 9.45687 6.49038 8.20925C6.49944 8.05286 6.52545 7.89939 6.58829 7.73307Z" fill="#F4B733"/>
<path d="M16.7085 15.5542C16.4279 15.2735 16.157 15.0042 15.8884 14.7328C15.7759 14.619 15.6484 14.5321 15.493 14.4909C15.1355 14.3967 14.767 14.5467 14.5787 14.8621C14.3911 15.1763 14.4332 15.5726 14.6924 15.8407C14.9482 16.1053 15.2118 16.3627 15.4716 16.6235C15.4968 16.6486 15.5201 16.6755 15.5538 16.7113C15.2068 16.8286 14.8678 16.8418 14.5264 16.7531C13.5327 16.4948 12.9517 15.5145 13.2016 14.5143C13.2346 14.3821 13.2101 14.2864 13.113 14.1907C12.6565 13.7402 12.2055 13.2836 11.7496 12.8322C11.69 12.7733 11.6809 12.7389 11.7478 12.6808C11.8358 12.6046 11.9182 12.5209 11.9951 12.4337C12.0486 12.373 12.0804 12.3846 12.1316 12.4369C12.366 12.6767 12.6045 12.9125 12.8415 13.1497C12.8883 13.1964 12.9359 13.2404 13.0075 13.2457C13.1048 13.253 13.18 13.2174 13.2244 13.1304C13.2682 13.0443 13.2603 12.9577 13.1946 12.8868C13.1007 12.785 13.0008 12.689 12.9029 12.5909C12.7459 12.4334 12.5904 12.2743 12.4303 12.12C12.3821 12.0736 12.3786 12.0459 12.4297 11.9995C12.5185 11.9187 12.6062 11.8352 12.6843 11.7439C12.7448 11.673 12.7801 11.6926 12.836 11.7489C13.2825 12.1994 13.7341 12.6449 14.1786 13.0971C14.2833 13.2036 14.3847 13.2264 14.5302 13.192C15.2363 13.0251 15.8425 13.2162 16.3347 13.7449C16.7813 14.2251 16.9277 14.9496 16.7085 15.5542Z" fill="#F4B733"/>
<path d="M9.61513 15.6068C9.49238 15.7369 9.36904 15.8668 9.23401 15.9844C9.08145 15.8983 9.01043 15.907 8.88592 16.0299C8.7278 16.186 8.57583 16.3488 8.41186 16.4985C7.94423 16.925 7.24688 16.9078 6.81637 16.4652C6.37885 16.0153 6.37242 15.3191 6.82046 14.8616C7.47544 14.1929 8.14239 13.5355 8.80409 12.8735C8.902 12.7754 9.00195 12.6797 9.09694 12.5791C9.1399 12.5336 9.16533 12.5236 9.21618 12.575C9.71626 13.0795 10.2181 13.5822 10.7228 14.0823C10.7763 14.1354 10.7597 14.1599 10.7164 14.2013C10.5957 14.3175 10.4782 14.4371 10.3601 14.5558C10.2321 14.6845 10.2228 14.7417 10.3017 14.9036C10.2306 15.023 10.1149 15.1012 10.0249 15.203C9.99625 15.2354 9.96702 15.2666 9.93809 15.2984C9.81358 15.2135 9.70924 15.2118 9.62448 15.2929C9.53943 15.374 9.53651 15.4764 9.61513 15.6068Z" fill="#F4B733"/>
<path d="M11.3564 12.4336C11.343 12.4211 11.3269 12.4065 11.3117 12.3913C11.1749 12.2548 11.0408 12.1159 10.9008 11.9828C10.8522 11.9367 10.8642 11.9128 10.9051 11.8719C12.0836 10.6952 13.2614 9.51763 14.4375 8.33828C14.4886 8.28722 14.5144 8.28897 14.5623 8.33945C14.6903 8.47425 14.8224 8.60496 14.9563 8.73393C14.9992 8.77536 15.0141 8.79928 14.9624 8.85122C13.7808 10.03 12.6012 11.2108 11.4207 12.3907C11.4038 12.4076 11.3918 12.4339 11.3564 12.4336Z" fill="#F4B733"/>
<path d="M15.5739 8.43258C15.3611 8.49969 15.1919 8.37364 15.0238 8.19508C14.9081 8.07224 14.8365 7.95787 14.8602 7.78776C14.8707 7.71278 14.8722 7.63342 14.8599 7.55901C14.8306 7.37957 14.9025 7.28475 15.0674 7.20626C15.4771 7.01136 15.8767 6.79515 16.2783 6.58362C16.3396 6.55123 16.377 6.55006 16.4258 6.60404C16.5135 6.7012 16.6082 6.79253 16.7032 6.88239C16.7409 6.91828 16.7476 6.946 16.7225 6.99414C16.4817 7.45427 16.2429 7.91556 16.0056 8.37744C15.9842 8.41916 15.96 8.43521 15.9135 8.43375C15.8153 8.43025 15.7168 8.43258 15.5739 8.43258Z" fill="#F4B733"/>
<path d="M9.98748 11.8403C10.0924 11.8362 10.1789 11.8782 10.2514 11.9506C10.615 12.3138 10.9794 12.6759 11.341 13.0412C11.4988 13.2005 11.4985 13.4048 11.3462 13.5681C11.279 13.6399 11.2059 13.7065 11.139 13.7785C11.1016 13.8188 11.0756 13.8226 11.0341 13.7809C10.5305 13.2743 10.0249 12.7699 9.52015 12.2642C9.49676 12.2406 9.45585 12.2196 9.50027 12.1773C9.59526 12.0868 9.68557 11.9914 9.78348 11.9045C9.8393 11.8546 9.91179 11.8368 9.98748 11.8403Z" fill="#2A2A2A"/>
</g>
<defs>
<clipPath id="clip0_2161_6841">
<rect width="23.1467" height="28" fill="white"/>
</clipPath>
<clipPath id="clip1_2161_6841">
<rect width="11.2" height="11.2" fill="white" transform="translate(6.04688 6.04639)"/>
</clipPath>
</defs>
</svg>
