<svg width="21" height="24" viewBox="0 0 21 24" fill="none" xmlns="http://www.w3.org/2000/svg">
<g clip-path="url(#clip0_835_3609)">
<path d="M19.9363 13.5987C20.257 13.4713 20.532 13.2479 20.7246 12.9582C20.9173 12.6685 21.0185 12.3261 21.0148 11.9766C21.0111 11.6272 20.9027 11.2871 20.704 11.0016C20.5053 10.7162 20.2257 10.4988 19.9023 10.3784L3.49609 0.683105V4.12726L17.4357 12.3645L19.4384 13.5126L19.6082 13.7824L19.9363 13.5987ZM19.1329 11.9914C19.1329 11.9051 19.1582 11.8208 19.2054 11.749C19.2526 11.6773 19.3198 11.6214 19.3984 11.5884C19.4769 11.5553 19.5634 11.5467 19.6468 11.5635C19.7302 11.5804 19.8068 11.6219 19.8669 11.6829C19.927 11.7439 19.968 11.8217 19.9846 11.9063C20.0012 11.9909 19.9927 12.0786 19.9601 12.1584C19.9276 12.2381 19.8725 12.3062 19.8018 12.3541C19.7311 12.4021 19.6479 12.4277 19.5629 12.4277C19.4489 12.4277 19.3395 12.3817 19.2589 12.2999C19.1782 12.2181 19.1329 12.1071 19.1329 11.9914Z" fill="#F4B733"/>
<path d="M2.93606 19.5687V0.826785L3.09446 0.539773L2.7324 0.333123C2.46271 0.122651 2.13688 -0.000714093 1.79722 -0.0209609C1.45756 -0.0412077 1.11975 0.0425969 0.827613 0.219579C0.535481 0.396561 0.302526 0.65855 0.158965 0.971544C0.0154043 1.28454 -0.0321277 1.63409 0.0225388 1.97484V21.2908L2.93606 19.5687ZM1.18228 1.60746C1.18117 1.51956 1.20591 1.43332 1.25335 1.35976C1.30078 1.2862 1.36875 1.22866 1.44858 1.1945C1.5284 1.16034 1.61645 1.1511 1.70147 1.16797C1.7865 1.18485 1.86464 1.22706 1.9259 1.28922C1.98716 1.35137 2.02876 1.43065 2.04539 1.51693C2.06201 1.6032 2.05292 1.69254 2.01925 1.77353C1.98558 1.85453 1.92887 1.9235 1.85637 1.97162C1.78387 2.01975 1.69887 2.04485 1.61225 2.04372C1.49821 2.04372 1.38886 1.99776 1.30823 1.91594C1.2276 1.83413 1.18228 1.72316 1.18228 1.60746Z" fill="#F4B733"/>
<path d="M2.78879 23.6443L19.3252 14.0868L16.389 12.3647L0.344824 21.6353H0.022352V22.06C-0.000202632 22.3978 0.0665606 22.7355 0.215752 23.0382C0.364944 23.341 0.591147 23.5978 0.870951 23.7821C1.17383 23.9342 1.51119 24.0016 1.84829 23.9774C2.18539 23.9532 2.51005 23.8382 2.78879 23.6443ZM1.1821 22.5652C1.18098 22.4773 1.20573 22.391 1.25316 22.3175C1.30059 22.2439 1.36856 22.1864 1.44839 22.1522C1.52821 22.1181 1.61626 22.1088 1.70128 22.1257C1.78631 22.1426 1.86445 22.1848 1.92571 22.2469C1.98697 22.3091 2.02857 22.3884 2.0452 22.4746C2.06183 22.5609 2.05273 22.6503 2.01906 22.7312C1.98539 22.8122 1.92868 22.8812 1.85618 22.9293C1.78369 22.9775 1.69869 23.0026 1.61206 23.0014C1.49803 23.0014 1.38868 22.9555 1.30804 22.8737C1.22741 22.7918 1.1821 22.6809 1.1821 22.5652Z" fill="#F4B733"/>
</g>
<defs>
<clipPath id="clip0_835_3609">
<rect width="21" height="24" fill="white"/>
</clipPath>
</defs>
</svg>
