<svg width="36" height="29" viewBox="0 0 36 29" fill="none" xmlns="http://www.w3.org/2000/svg">
<path d="M20.5116 16.2859C20.5116 13.8538 20.5092 11.4216 20.5128 8.98949C20.5152 7.28918 21.3367 6.46952 23.0304 6.46952C24.5734 6.46952 26.1211 6.53783 27.6592 6.45123C29.2733 6.36097 30.4363 7.07817 31.37 8.2857C32.3797 9.59203 33.3617 10.9215 34.3183 12.2669C35.0687 13.322 35.4945 14.4832 35.4619 15.8273C35.4113 17.8935 35.4511 19.9622 35.4475 22.0296C35.4451 23.575 34.6078 24.4825 33.0758 24.4301C32.241 24.4008 31.8308 24.574 31.5027 25.4498C30.8356 27.2293 29.1817 28.1112 27.2165 27.9917C25.5493 27.8904 24.0329 26.6402 23.5395 24.8984C23.4334 24.5215 23.2765 24.4325 22.9267 24.4459C22.2861 24.4715 21.6431 24.4288 21.0026 24.4618C20.6008 24.4825 20.4983 24.3447 20.5019 23.9495C20.52 21.3942 20.5116 18.84 20.5116 16.2859ZM33.9612 15.0686C33.843 14.7149 33.7706 14.4185 33.6476 14.1465C33.1204 12.9731 32.2193 12.0583 31.5172 11.0057C31.411 10.8471 31.2493 10.8386 31.0925 10.8386C29.7511 10.8362 28.4084 10.8325 27.0669 10.8435C26.5349 10.8471 26.2611 11.1435 26.2587 11.6827C26.255 12.5133 26.2454 13.3439 26.2623 14.1733C26.2743 14.7625 26.5832 15.065 27.1622 15.0674C29.406 15.0723 31.6487 15.0686 33.9612 15.0686ZM30.4109 23.7055C30.423 22.1711 29.1744 20.8733 27.6568 20.8441C26.1959 20.816 24.8436 22.1662 24.8339 23.6616C24.8243 25.1765 26.1091 26.4926 27.6134 26.5085C29.125 26.5243 30.3989 25.2485 30.4109 23.7055Z" fill="#353535"/>
<path d="M9.6664 17.2079C12.634 17.2079 15.6017 17.2213 18.5693 17.1945C19.0844 17.1896 19.1918 17.347 19.1846 17.8385C19.1568 19.8657 19.1604 21.8941 19.1833 23.9213C19.1882 24.3482 19.0724 24.4677 18.6501 24.4604C17.0867 24.4348 15.5221 24.458 13.9586 24.4434C13.6208 24.4397 13.4447 24.497 13.3325 24.8788C12.7619 26.8231 11.1985 27.9928 9.24539 27.9928C7.28627 27.9928 5.71318 26.8279 5.14378 24.8947C5.03279 24.519 4.88079 24.4312 4.53216 24.4421C3.83126 24.4653 3.12916 24.4556 2.42706 24.4482C0.849152 24.4324 0.0143538 23.5859 0.0131474 22.0051C0.0107347 20.6268 0.0360682 19.2473 0.00108389 17.869C-0.012186 17.3555 0.0903542 17.1847 0.645278 17.1908C3.65031 17.225 6.65775 17.2079 9.6664 17.2079ZM9.24297 26.5096C10.7376 26.5023 12.0514 25.1728 12.0465 23.6713C12.0417 22.1893 10.6894 20.8293 9.23332 20.8415C7.73624 20.8549 6.43217 22.1832 6.44061 23.6896C6.44785 25.213 7.74227 26.5169 9.24297 26.5096Z" fill="#373636"/>
<path d="M15.5884 15.8784C14.5268 15.8784 13.464 15.8711 12.4024 15.8833C12.1358 15.8857 11.9512 15.8369 12.0224 15.5259C12.3192 14.2305 11.5664 13.3767 10.8317 12.4875C8.45402 9.61141 6.09559 6.7182 3.73234 3.82866C3.2498 3.23831 2.78294 2.63698 2.30281 2.04419C2.02052 1.69535 2.02294 1.31723 2.27024 0.984246C2.49462 0.680533 2.7757 0.403654 3.07729 0.176784C3.46695 -0.115952 3.87952 -0.0208127 4.23057 0.28412C5.73007 1.58313 7.22112 2.89191 8.72183 4.19092C11.1454 6.28886 13.5738 8.38192 15.9974 10.4786C16.9214 11.2788 17.8358 12.0911 18.7659 12.8852C19.0482 13.1255 19.1906 13.395 19.1785 13.7743C19.1592 14.3415 19.1556 14.9099 19.1809 15.4759C19.1954 15.7991 19.0856 15.8894 18.7744 15.8845C17.7116 15.8674 16.65 15.8784 15.5884 15.8784Z" fill="#363636"/>
<path d="M4.32951 8.39664C4.32951 8.63937 4.34519 8.88332 4.32709 9.12482C4.28125 9.72615 4.34519 10.1921 4.96525 10.5726C5.72405 11.0374 5.92672 12.2071 5.5805 13.0938C5.23668 13.9733 4.32709 14.4904 3.29325 14.3916C2.43794 14.3111 1.67432 13.6256 1.47527 12.7718C1.38238 12.3705 1.41133 12.1119 1.93851 12.1778C2.38245 12.2327 2.88067 12.0327 3.12074 12.6657C3.21725 12.9182 3.54537 12.9645 3.80836 12.845C4.05687 12.7316 4.22214 12.5352 4.22093 12.2315C4.21973 11.929 4.05446 11.6582 3.80474 11.6338C2.75883 11.535 2.80226 10.8129 2.81191 10.0482C2.83242 8.48934 2.81553 6.93053 2.82156 5.37171C2.82156 5.24852 2.7335 5.0619 2.92772 5.01311C3.0568 4.98018 3.1328 5.11557 3.20759 5.20705C3.52487 5.59736 3.82887 5.99987 4.157 6.38043C4.30417 6.55119 4.33192 6.73293 4.33071 6.93906C4.3283 7.42574 4.32951 7.91119 4.32951 8.39664Z" fill="#3C3A3A"/>
</svg>
