<svg width="27" height="26" viewBox="0 0 27 26" fill="none" xmlns="http://www.w3.org/2000/svg">
<path d="M17.1166 0.66082C16.9308 0.864512 16.7563 1.04274 16.5983 1.23295C15.8966 2.07618 15.4735 3.04746 15.32 4.13032C15.2923 4.32877 15.2287 4.32503 15.0744 4.28908C10.0398 3.11636 5.11895 6.33349 4.16939 11.416C3.29771 16.0852 6.3411 20.6968 10.9878 21.7482C15.9431 22.8692 20.81 19.73 21.803 14.7665C22.0591 13.4874 22.0381 12.2084 21.7251 10.939C21.6869 10.7855 21.6861 10.7226 21.8838 10.6934C23.1771 10.5047 24.2922 9.94902 25.2163 9.01892C25.2522 8.98223 25.2755 8.92082 25.3646 8.92906C25.6192 9.67943 25.7967 10.4553 25.8993 11.2468C25.9457 11.607 25.9674 11.971 26.0086 12.3319C26.0273 12.4937 25.9951 12.5873 25.8087 12.5521C25.7997 12.5506 25.7899 12.5521 25.7809 12.5521C25.0388 12.5603 25.0381 12.5656 25.1152 13.3204C25.1279 13.4425 25.1774 13.4515 25.2725 13.45C25.4687 13.4455 25.6649 13.4552 25.8603 13.4462C25.9876 13.4402 26.0168 13.4889 26.0101 13.6087C25.9307 14.917 25.6956 16.1931 25.244 17.4272C25.2051 17.5328 25.1691 17.559 25.0658 17.5118C24.8883 17.4317 24.7093 17.3149 24.5236 17.2984C24.1507 17.2662 24.2765 17.6631 24.1289 17.8353C24.066 17.9095 23.9747 18.0592 24.1903 18.1042C24.2255 18.1117 24.2577 18.1349 24.2922 18.1491C24.8756 18.3895 24.8748 18.3888 24.5887 18.9392C24.066 19.9449 23.428 20.8697 22.6716 21.7152C22.5421 21.8605 22.4747 21.8493 22.3556 21.7175C22.2133 21.5595 22.0336 21.2891 21.8981 21.3056C21.7198 21.3266 21.5746 21.5849 21.4053 21.7302C21.2907 21.829 21.26 21.9114 21.3986 22.0103C21.436 22.0372 21.466 22.0747 21.4989 22.1076C21.9408 22.5472 21.9497 22.5614 21.427 22.9089C21.2136 23.0512 21.1657 23.207 21.2301 23.4249C21.3012 23.6653 21.4824 23.7574 21.7198 23.7574C22.7563 23.7581 23.7927 23.7574 24.8299 23.7581C25.5308 23.7589 26.0191 24.2247 26.0161 24.8882C26.0131 25.5337 25.5226 25.9987 24.8381 25.9995C16.9563 26.0002 9.07447 26.0002 1.19264 25.9995C0.508177 25.9995 0.0184175 25.5344 0.0161709 24.8882C0.0139243 24.2247 0.500688 23.7596 1.20238 23.7589C2.2111 23.7581 3.21982 23.7566 4.2278 23.7604C4.47792 23.7611 4.69285 23.7184 4.79319 23.4526C4.89279 23.189 4.73553 23.0332 4.5603 22.8805C4.13494 22.509 4.12146 22.4918 4.53933 22.1166C4.76099 21.9182 4.72804 21.8111 4.53184 21.6291C4.13269 21.2584 4.1312 21.2367 3.76125 21.6396C3.57479 21.8425 3.47893 21.8553 3.28647 21.6336C2.4747 20.699 1.79922 19.6783 1.25779 18.5662C1.19264 18.4322 1.17916 18.3408 1.35739 18.3109C1.37462 18.3079 1.38959 18.2921 1.40682 18.2854C2.0456 18.0136 2.05983 17.9582 1.71011 17.3403C1.65844 17.249 1.61425 17.2422 1.53712 17.2744C1.48545 17.2954 1.43602 17.3209 1.38435 17.3426C0.822701 17.5792 0.82345 17.5785 0.642973 17.0086C0.301489 15.9295 0.10304 14.8241 0.0244085 13.6956C0.0109289 13.5054 0.0453768 13.4283 0.253562 13.444C0.463993 13.4597 0.756052 13.5159 0.869879 13.4065C1.00617 13.2755 0.890848 12.9834 0.91556 12.7633C0.935031 12.5888 0.87587 12.5416 0.702133 12.5468C0.481966 12.5536 0.187661 12.6494 0.0581075 12.5071C-0.0721954 12.3649 0.055112 12.0825 0.0708382 11.8616C0.147972 10.7593 0.404084 9.69515 0.756052 8.65048C0.812217 8.48349 0.866135 8.43855 1.04811 8.51494C1.68315 8.78228 1.6824 8.77255 1.93177 8.12103C1.97745 8.00047 1.98944 7.93082 1.84715 7.89562C1.80222 7.88439 1.76178 7.85968 1.71835 7.84171C1.16493 7.61105 1.16418 7.61106 1.43752 7.0861C1.96098 6.08112 2.59602 5.15327 3.35237 4.30855C3.47519 4.17151 3.54633 4.12658 3.68787 4.28908C3.82491 4.44709 3.97169 4.71369 4.14617 4.69497C4.31467 4.67699 4.45021 4.41714 4.61571 4.28234C4.76623 4.15953 4.73328 4.08239 4.61122 3.95883C4.46145 3.80681 4.17388 3.67875 4.21282 3.47881C4.24577 3.31106 4.50338 3.1845 4.66738 3.04596C5.51061 2.33154 6.43621 1.74443 7.42921 1.26066C7.58871 1.18278 7.68232 1.17679 7.72201 1.37C7.72351 1.37898 7.73175 1.38572 7.73549 1.39396C7.82835 1.58268 7.83958 1.91218 8.01257 1.93389C8.22076 1.96085 8.4544 1.77588 8.68056 1.69051C8.76219 1.65981 8.77941 1.61488 8.75171 1.54224C8.72849 1.48158 8.70003 1.42317 8.67457 1.36326C8.44018 0.801607 8.44093 0.805352 9.01306 0.624126C10.0929 0.283391 11.1975 0.0849416 12.326 0.00705946C12.5223 -0.00642015 12.5852 0.0392607 12.5739 0.241455C12.5619 0.451886 12.4758 0.751433 12.6106 0.854028C12.7544 0.963363 13.0375 0.87949 13.2576 0.901207C13.4389 0.919179 13.4823 0.850284 13.4681 0.683286C13.4538 0.507303 13.4688 0.328323 13.4636 0.151591C13.4606 0.0497449 13.483 -0.00117808 13.6014 0.00556173C14.7913 0.0699643 15.9581 0.270661 17.1166 0.66082Z" fill="#434343"/>
<path d="M16.1521 4.92306C16.1574 2.18745 18.3598 -0.00523269 21.0969 9.37959e-06C23.852 0.00525145 26.0229 2.21591 26.0139 5.00768C26.005 7.69387 23.7726 9.86708 21.0272 9.86184C18.3433 9.8566 16.1469 7.63171 16.1521 4.92306ZM24.6682 3.13477C24.6547 2.97451 24.5701 2.85619 24.4615 2.74835C24.0639 2.3537 23.6707 1.95455 23.2723 1.5614C22.9795 1.27233 22.7743 1.27233 22.4845 1.55915C22.0667 1.97327 21.6473 2.3859 21.2384 2.80826C21.1208 2.93033 21.0549 2.94006 20.9314 2.81126C20.518 2.37991 20.0919 1.96054 19.6658 1.54118C19.3962 1.27683 19.1843 1.27683 18.9177 1.53893C18.5118 1.93808 18.1096 2.34172 17.709 2.74685C17.4229 3.03592 17.4244 3.24111 17.715 3.53466C18.1224 3.94579 18.5268 4.36066 18.9461 4.75906C19.0929 4.89835 19.0772 4.97548 18.9401 5.10728C18.5223 5.50793 18.1171 5.9213 17.7098 6.33243C17.4229 6.62224 17.4237 6.82818 17.7127 7.12024C18.1007 7.51189 18.4908 7.90056 18.881 8.28922C19.185 8.59101 19.388 8.59326 19.6898 8.29521C20.1009 7.88783 20.5135 7.48119 20.9157 7.06482C21.0377 6.93826 21.1089 6.91804 21.2429 7.05808C21.648 7.48419 22.0697 7.89531 22.4875 8.30869C22.7669 8.58502 22.9788 8.58727 23.2559 8.31468C23.655 7.92152 24.0504 7.52463 24.4443 7.12623C24.7431 6.82443 24.7416 6.62224 24.4398 6.31745C24.0324 5.90632 23.628 5.49145 23.2087 5.09305C23.0679 4.95901 23.0881 4.88786 23.2147 4.7658C23.6378 4.35692 24.0489 3.93605 24.4653 3.52118C24.5769 3.41185 24.6592 3.29203 24.6682 3.13477Z" fill="#434343"/>
<path d="M15.6774 7.12435C15.8122 7.38271 15.9222 7.61861 16.057 7.83952C16.1409 7.97731 16.045 8.04921 15.9881 8.13533C15.4999 8.87371 15.0011 9.6046 14.5211 10.3482C14.1766 10.8814 14.456 11.5202 15.07 11.6378C15.3149 11.685 15.5268 11.5943 15.726 11.461C16.439 10.9848 17.1556 10.5145 17.8618 10.0292C18.0161 9.92362 18.1247 9.91314 18.2819 10.018C18.4654 10.14 18.6743 10.2239 18.8937 10.3355C17.9539 10.7751 17.041 11.2124 16.1184 11.628C15.8226 11.7613 15.6893 11.9463 15.7006 12.2721C15.717 12.7476 15.72 13.2246 15.6998 13.7002C15.6848 14.0506 15.8316 14.2446 16.1439 14.3869C17.4627 14.9875 18.7717 15.6083 20.0897 16.2111C20.2964 16.3055 20.3802 16.3916 20.238 16.6058C20.0949 16.8222 20.017 17.1719 19.8283 17.243C19.6336 17.3157 19.4022 17.0184 19.191 16.8783C18.079 16.1445 16.9706 15.4053 15.8631 14.6662C15.6556 14.5277 15.4415 14.4236 15.1853 14.4715C14.5518 14.5883 14.289 15.2466 14.6604 15.8082C15.4924 17.0678 16.3274 18.3259 17.1751 19.5743C17.3166 19.7825 17.3054 19.8716 17.0777 19.9734C16.8426 20.0783 16.6037 20.3396 16.391 20.2864C16.1903 20.2363 16.1514 19.8791 16.0458 19.6559C15.4826 18.463 14.9225 17.2693 14.3728 16.0711C14.2463 15.7962 14.0628 15.6802 13.7633 15.6869C13.2593 15.6989 12.7545 15.6981 12.2505 15.6869C11.9615 15.6809 11.7855 15.8 11.6642 16.0621C11.0411 17.4123 10.4023 18.755 9.78452 20.1067C9.68941 20.3156 9.6018 20.3314 9.42656 20.2265C9.19591 20.088 8.83196 20.0206 8.76531 19.8057C8.7054 19.6132 9.00046 19.3773 9.14199 19.1631C9.87738 18.0526 10.6165 16.945 11.3564 15.8374C11.4949 15.63 11.5945 15.4136 11.5421 15.1575C11.4156 14.5344 10.77 14.273 10.2226 14.6355C8.94803 15.4772 7.67796 16.3242 6.41237 17.1786C6.24238 17.2932 6.15476 17.2985 6.06714 17.1023C5.98402 16.9158 5.88966 16.7323 5.77733 16.5623C5.665 16.3916 5.71218 16.3249 5.88742 16.2448C7.21291 15.6352 8.52867 15.0062 9.85791 14.4041C10.2054 14.2468 10.3552 14.0342 10.3334 13.6515C10.3072 13.1864 10.3185 12.7176 10.3304 12.2511C10.3379 11.9516 10.2189 11.7703 9.94403 11.6438C8.59382 11.0222 7.25185 10.3819 5.90015 9.76411C5.70245 9.6735 5.67848 9.59861 5.78482 9.42712C5.89191 9.25338 5.98627 9.07141 6.07463 8.88719C6.15776 8.71345 6.23863 8.70297 6.40264 8.81455C7.64426 9.65553 8.89412 10.4845 10.141 11.318C10.3619 11.4655 10.591 11.5846 10.8704 11.5232C11.4919 11.3869 11.7421 10.7489 11.3766 10.1955C10.5401 8.92838 9.6999 7.66354 8.84769 6.40694C8.72113 6.22047 8.73311 6.14034 8.93081 6.04374C9.1712 5.92617 9.42357 5.66257 9.64074 5.71574C9.84293 5.76516 9.89011 6.1366 9.99944 6.36875C10.5573 7.5542 11.116 8.73966 11.6619 9.93036C11.7885 10.2059 11.9727 10.3213 12.2715 10.3145C12.7755 10.3025 13.2802 10.304 13.7842 10.3138C14.0725 10.3198 14.2508 10.2015 14.3713 9.9386C14.7922 9.00851 15.2288 8.0844 15.6774 7.12435ZM11.2216 12.9977C11.2208 13.9645 12.0311 14.7838 12.9979 14.7928C13.9759 14.8017 14.8019 13.9832 14.8064 13.0015C14.8102 12.0264 13.9797 11.2012 13.0017 11.2079C12.0334 11.2139 11.2231 12.0302 11.2216 12.9977Z" fill="#434343"/>
<path d="M4.94528 13.0433C4.93105 12.2143 5.06135 11.4467 5.27777 10.6896C5.32944 10.5084 5.38711 10.4919 5.55261 10.5698C6.77026 11.1449 7.99167 11.7118 9.21457 12.2757C9.36584 12.3453 9.44522 12.4225 9.43324 12.6052C9.41451 12.8838 9.42125 13.1654 9.43099 13.4454C9.43548 13.578 9.3883 13.6394 9.26849 13.6948C8.01338 14.2767 6.75978 14.8623 5.50992 15.4554C5.3609 15.5265 5.32345 15.4674 5.28751 15.3438C5.06659 14.5792 4.92655 13.8026 4.94528 13.0433Z" fill="#434343"/>
<path d="M12.9918 21.0696C12.2025 21.0824 11.4357 20.9453 10.6793 20.7289C10.5333 20.687 10.4958 20.6413 10.5685 20.4885C11.1571 19.2469 11.739 18.0023 12.3148 16.7547C12.3762 16.6221 12.4474 16.5787 12.5874 16.5839C12.8765 16.5944 13.1663 16.5929 13.4554 16.5839C13.5849 16.5802 13.6493 16.6214 13.7062 16.7442C14.2873 18 14.873 19.2544 15.4668 20.5042C15.5507 20.6802 15.4571 20.6967 15.332 20.7334C14.5682 20.9558 13.7901 21.0846 12.9918 21.0696Z" fill="#434343"/>
<path d="M13.0135 9.38734C12.5125 9.56332 12.3095 9.28475 12.1231 8.85714C11.6333 7.73459 11.1024 6.63001 10.5759 5.52393C10.4958 5.35544 10.5377 5.3135 10.6927 5.26707C12.1088 4.84247 13.5339 4.81775 14.968 5.16298C15.3117 5.24611 15.4301 5.55763 15.2541 5.93806C14.7965 6.92357 14.3083 7.8956 13.8874 8.89608C13.7047 9.32743 13.4845 9.53187 13.0135 9.38734Z" fill="#434343"/>
<path d="M21.0842 13.0119C21.0969 13.8005 20.9614 14.5673 20.7465 15.3229C20.7008 15.4839 20.6551 15.5146 20.4896 15.436C19.257 14.8504 18.0198 14.2745 16.7797 13.7046C16.6367 13.6387 16.591 13.5623 16.597 13.411C16.6105 13.0756 16.4966 12.6809 16.6382 12.421C16.7797 12.1604 17.2036 12.1065 17.5046 11.9635C18.3516 11.5621 19.2053 11.1727 20.05 10.7668C20.2627 10.6649 20.4679 10.7129 20.6783 10.7271C20.7854 10.7346 20.7862 10.8334 20.8086 10.9151C20.9951 11.6025 21.0947 12.2997 21.0842 13.0119Z" fill="#434343"/>
<path d="M15.6076 15.5892C15.6802 15.5727 15.7199 15.6348 15.7693 15.6678C16.8866 16.4099 18.0002 17.1588 19.122 17.8942C19.2935 18.0065 19.3002 18.0724 19.1669 18.2199C18.8547 18.5681 18.5289 18.9006 18.1717 19.2024C18.0788 19.2803 18.0294 19.2871 17.9575 19.1785C17.1727 17.9893 16.3841 16.8031 15.5971 15.6154C15.5948 15.6124 15.6023 15.6011 15.6076 15.5892Z" fill="#434343"/>
<path d="M10.4029 10.4267C9.21896 9.63742 8.03575 8.84586 6.84804 8.0618C6.72448 7.98017 6.73571 7.9315 6.82109 7.83115C7.13636 7.46121 7.47634 7.11673 7.85078 6.8052C7.92941 6.74005 7.98258 6.68688 8.06495 6.81119C8.85426 8.00564 9.64956 9.19633 10.4426 10.3878C10.4299 10.4005 10.4164 10.4132 10.4029 10.4267Z" fill="#434343"/>
<path d="M10.4425 15.6097C10.316 15.8007 10.1894 15.9916 10.0621 16.1818C9.40611 17.1658 8.74711 18.1484 8.0971 19.1354C8.01023 19.2664 7.9623 19.2941 7.832 19.181C7.47104 18.8688 7.13705 18.5325 6.82477 18.1723C6.72143 18.0532 6.74389 18.0076 6.86745 17.9259C8.04842 17.1456 9.22414 16.3586 10.4014 15.573C10.4148 15.5857 10.4283 15.5977 10.4425 15.6097Z" fill="#434343"/>
<path d="M15.4714 10.5011C15.8466 9.93875 16.2225 9.37635 16.5985 8.8147C16.618 8.7855 16.6457 8.76153 16.6779 8.72559C16.776 8.82893 16.8636 8.92479 16.9542 9.0169C17.2904 9.35988 17.2904 9.35913 16.8801 9.63171C16.4247 9.93501 15.9687 10.2383 15.5134 10.5408C15.4991 10.5281 15.4849 10.5146 15.4714 10.5011Z" fill="#434343"/>
<path d="M19.3093 7.41526C19.2778 7.40103 19.2509 7.39429 19.2299 7.37782C19.2007 7.35535 19.176 7.32615 19.1505 7.29919C18.9693 7.11197 18.6638 6.93823 18.6421 6.73379C18.6188 6.52037 18.9536 6.35412 19.1318 6.1684C19.4164 5.87185 19.7144 5.58952 20.0005 5.29372C20.2499 5.03611 20.2506 4.82194 19.999 4.56507C19.5744 4.13148 19.146 3.70088 18.711 3.27852C18.5949 3.16544 18.5949 3.09804 18.7139 2.9932C18.9087 2.82096 19.0779 2.50943 19.2816 2.48847C19.495 2.466 19.6613 2.80074 19.847 2.97897C20.1368 3.2568 20.4139 3.54736 20.7007 3.82894C20.9793 4.10227 21.1882 4.10302 21.469 3.82594C21.8876 3.41332 22.3078 3.00069 22.7136 2.57533C22.8454 2.43754 22.9226 2.44204 23.0409 2.57908C23.2049 2.76854 23.5059 2.9303 23.5269 3.128C23.5486 3.33469 23.2266 3.49419 23.0544 3.67317C22.7631 3.97572 22.459 4.26628 22.1655 4.56732C21.9154 4.82418 21.9146 5.03761 22.167 5.29372C22.5923 5.72657 23.0199 6.15717 23.4558 6.57953C23.5704 6.69036 23.5756 6.75925 23.455 6.86485C23.2596 7.03708 23.0911 7.34861 22.8866 7.37033C22.6732 7.39355 22.5077 7.0588 22.3212 6.88057C22.0314 6.60274 21.7543 6.31143 21.4675 6.03136C21.186 5.75652 20.9778 5.75652 20.6992 6.03136C20.2806 6.44473 19.8672 6.8626 19.4508 7.27822C19.4059 7.32615 19.358 7.36883 19.3093 7.41526Z" fill="#434343"/>
<path d="M13.9106 13.0096C13.9076 13.5129 13.5069 13.9023 12.9977 13.8963C12.4967 13.8911 12.1103 13.4867 12.1178 12.9759C12.1253 12.4854 12.5192 12.1028 13.0164 12.1035C13.5212 12.1043 13.9136 12.5019 13.9106 13.0096Z" fill="#434343"/>
</svg>
