<svg width="28" height="22" viewBox="0 0 28 22" fill="none" xmlns="http://www.w3.org/2000/svg">
<path d="M1.79842 0.0379238C1.42751 0.112106 1.12548 0.286966 0.844643 0.588997C0.378349 1.10828 0.415441 0.196888 0.415441 10.5772C0.415441 21.0953 0.362453 20.0726 0.913527 20.6237C1.49639 21.2066 0.0233314 21.1483 13.9803 21.1483C27.9373 21.1483 26.4643 21.2066 27.0471 20.6237C27.5982 20.0726 27.5452 21.0953 27.5452 10.5772C27.5452 0.0591202 27.5982 1.08178 27.0471 0.53071C26.459 -0.0521564 27.9532 0.00613022 14.1128 0.000831604C7.46812 -0.00446701 1.92559 0.0114288 1.79842 0.0379238ZM25.7966 7.9914V14.1963L25.6853 14.0956C25.6218 14.0426 24.8428 13.3326 23.9526 12.5272C23.0624 11.7164 22.2464 11.017 22.1458 10.9693C21.8914 10.8474 21.4516 10.8157 21.1443 10.8951C20.9164 10.9587 20.731 11.123 19.0513 12.7974C17.9597 13.8836 17.1914 14.6096 17.1702 14.5725C17.0271 14.3605 10.3507 6.42826 10.2394 6.34348C9.88437 6.06794 9.25911 6.01495 8.84051 6.2322C8.58087 6.36997 8.55437 6.39647 5.26383 10.2328C3.6371 12.1245 2.27531 13.7141 2.23822 13.7565C2.17464 13.8201 2.16404 12.8716 2.16404 7.80594V1.78122H13.9803H25.7966V7.9914Z" fill="#F4B733"/>
</svg>
