<svg width="27" height="26" viewBox="0 0 27 26" fill="none" xmlns="http://www.w3.org/2000/svg">
<path d="M19.1255 7.53358C19.1255 8.59789 18.7956 9.63829 18.1775 10.5232C17.5594 11.4082 16.6809 12.0979 15.6531 12.5052C14.6253 12.9125 13.4943 13.0191 12.4031 12.8114C11.312 12.6038 10.3097 12.0913 9.52302 11.3387C8.73634 10.5861 8.20062 9.62726 7.98357 8.58341C7.76653 7.53955 7.87793 6.45756 8.30367 5.47427C8.72941 4.49098 9.45038 3.65054 10.3754 3.05925C11.3004 2.46795 12.388 2.15234 13.5005 2.15234C14.9923 2.15234 16.4231 2.71929 17.478 3.72847C18.5329 4.73765 19.1255 6.10639 19.1255 7.53358Z" stroke="#ABB0BF" stroke-width="1.5" stroke-linecap="round" stroke-linejoin="round"/>
<path d="M23.1651 23.6773C23.1651 19.5122 18.8339 16.1436 13.5014 16.1436C8.1689 16.1436 3.83765 19.5122 3.83765 23.6773" stroke="#ABB0BF" stroke-width="1.5" stroke-linecap="round" stroke-linejoin="round"/>
</svg>
