<svg width="30" height="37" viewBox="0 0 30 37" fill="none" xmlns="http://www.w3.org/2000/svg">
<g clip-path="url(#clip0_1107_4488)">
<path d="M30 15.6901C30 7.01668 23.285 0 15.0155 0C6.71503 0 0 7.01668 0 15.6901C0 17.7041 0.373057 19.3284 0.65285 20.3029C2.67358 27.3521 8.26943 30.9903 10.3523 32.2248L14.9845 37L19.6166 32.2248C21.7306 30.9903 27.2953 27.3521 29.3161 20.3029C29.6269 19.2959 30 17.7041 30 15.6901ZM3.73057 15.6901C3.73057 9.16067 8.76684 3.89816 15.0155 3.89816C21.2642 3.89816 26.3005 9.16067 26.3005 15.6901C26.3005 22.2195 21.2332 27.4495 15.0155 27.4495C8.79793 27.4495 3.73057 22.187 3.73057 15.6901Z" fill="#DD4200"/>
<path d="M21.5192 21.212C21.1719 21.212 20.8246 21.213 20.4779 21.2114C20.1122 21.2098 19.891 21.0341 19.7986 20.6736C19.786 20.6253 19.8023 20.5696 19.7198 20.5659C19.1934 20.5418 18.7011 20.3312 18.1789 20.2771C16.7373 20.1282 15.293 20.0537 13.8441 20.1078C12.9935 20.1394 12.1434 20.1828 11.2976 20.2873C10.8742 20.3398 10.4712 20.4898 10.0493 20.546C10.0105 20.5514 9.97 20.568 9.93323 20.5616C9.78087 20.5348 9.72728 20.6039 9.69156 20.7512C9.62589 21.0245 9.39262 21.2066 9.11576 21.2088C8.36921 21.2147 7.62214 21.2152 6.87559 21.2088C6.5735 21.2061 6.34497 20.9966 6.27615 20.6746C6.26091 20.6028 6.2483 20.5568 6.17002 20.5353C5.91627 20.4657 5.7844 20.2776 5.71873 20.0296C5.40614 18.8547 5.27217 17.66 5.33994 16.4433C5.38144 15.697 5.44081 14.9534 5.59212 14.2189C5.69614 13.7147 5.94727 13.3392 6.39645 13.1018C6.4947 13.0499 6.58926 12.9904 6.68593 12.9336C6.80624 12.8634 6.83724 12.7761 6.7411 12.6582C6.5651 12.4429 6.52464 12.2039 6.65073 11.9511C6.77945 11.6923 6.99853 11.5846 7.27855 11.5894C7.43563 11.5921 7.59482 11.5744 7.7498 11.5943C7.92632 11.6168 8.0004 11.5364 8.0687 11.3842C8.31089 10.8431 8.59669 10.3283 8.98914 9.8804C9.4998 9.2975 10.1665 9.00659 10.8873 8.82498C12.4634 8.42799 14.0658 8.33316 15.6823 8.41245C16.6648 8.46067 17.6341 8.58496 18.5955 8.80837C19.8396 9.09714 20.7122 9.8295 21.2638 10.9883C21.36 11.1903 21.4041 11.47 21.5838 11.5659C21.7545 11.6564 22.0062 11.5932 22.2221 11.5889C22.5 11.5835 22.7233 11.68 22.8588 11.9361C22.9949 12.1938 22.9566 12.4375 22.7774 12.6615C22.6828 12.7793 22.7128 12.8672 22.8357 12.9358C22.8415 12.939 22.8468 12.9433 22.8525 12.9459C23.6642 13.2744 23.9395 13.9542 24.0336 14.7728C24.1576 15.8561 24.2495 16.9389 24.1544 18.0291C24.094 18.7213 23.9758 19.4038 23.7893 20.0724C23.7267 20.2975 23.5933 20.4641 23.3669 20.5332C23.2907 20.5568 23.2581 20.5884 23.2397 20.6762C23.1683 21.0223 22.9319 21.2082 22.5809 21.2109C22.2263 21.2141 21.8727 21.212 21.5192 21.212ZM14.7356 12.5329C15.0955 12.5329 15.4559 12.5238 15.8158 12.5345C17.2358 12.5763 18.6559 12.6256 20.076 12.6684C20.4122 12.6786 20.5562 12.4547 20.4143 12.1445C20.304 11.9034 20.18 11.6687 20.0644 11.4303C19.704 10.6867 19.1193 10.2522 18.3297 10.0631C17.4407 9.84986 16.5413 9.73735 15.6314 9.69181C14.1798 9.61949 12.7397 9.70092 11.3202 10.0342C10.7428 10.1697 10.187 10.362 9.80451 10.8774C9.55024 11.2203 9.37424 11.606 9.17197 11.9789C8.91664 12.4482 9.05954 12.7006 9.61118 12.6743C11.3186 12.5929 13.0266 12.542 14.7356 12.5329ZM14.3374 18.6393C15.7554 18.6393 16.7378 18.6447 17.7207 18.6361C18.0328 18.6334 18.3517 18.6425 18.6459 18.4995C18.9007 18.3757 19.1529 18.2268 19.155 17.9016C19.1571 17.5791 18.906 17.4392 18.6528 17.3273C18.1931 17.1242 17.7034 17.039 17.2148 16.9453C15.3188 16.5821 13.4348 16.6849 11.5598 17.0932C11.2093 17.1692 10.8626 17.2828 10.5742 17.5164C10.2915 17.7446 10.28 18.012 10.5395 18.2638C10.7607 18.4781 11.0297 18.5895 11.3344 18.6099C12.4797 18.6849 13.6266 18.6232 14.3374 18.6393ZM21.4409 15.4345C21.6368 15.4345 21.8859 15.4372 22.1338 15.4329C22.2048 15.4318 22.2762 15.4136 22.3466 15.3991C22.738 15.3188 22.9098 15.1184 22.9329 14.7171C22.9634 14.1894 22.862 14.0887 22.3414 14.1353C21.7713 14.1867 21.2286 14.3555 20.6907 14.5446C20.4054 14.6448 20.1374 14.7798 19.8895 14.9561C19.807 15.015 19.7634 15.0895 19.7865 15.1945C19.8101 15.3011 19.8895 15.3129 19.9798 15.3241C20.4474 15.3825 20.9181 15.4039 21.4409 15.4345ZM8.07921 15.435C8.58408 15.4061 9.05376 15.3804 9.52187 15.323C9.62379 15.3107 9.69944 15.277 9.72466 15.1709C9.74777 15.0723 9.69997 15.0048 9.62169 14.9539C9.55024 14.9078 9.47984 14.8586 9.40628 14.8157C8.86043 14.5007 8.25678 14.3517 7.65734 14.1932C7.39465 14.1235 7.12829 14.1112 6.86035 14.1562C6.75265 14.1744 6.64916 14.2066 6.61974 14.3282C6.51676 14.753 6.56195 15.2914 7.17452 15.4029C7.48764 15.4602 7.80076 15.4238 8.07921 15.435Z" fill="#DD4200"/>
</g>
<defs>
<clipPath id="clip0_1107_4488">
<rect width="30" height="37" fill="white"/>
</clipPath>
</defs>
</svg>
