<svg width="28" height="28" viewBox="0 0 28 28" fill="none" xmlns="http://www.w3.org/2000/svg">
<path d="M15.1666 13.0082H8.16659M2.33325 13.0082V7.61823C2.33325 5.23823 4.25825 3.31323 6.63825 3.31323H13.1949C15.5749 3.31323 17.4999 4.7949 17.4999 7.1749" stroke="#ABB0BF" stroke-width="1.5" stroke-linecap="round" stroke-linejoin="round"/>
<path d="M20.3933 14.2334C19.8099 14.7934 19.5299 15.6567 19.7633 16.5434C20.0549 17.6284 21.1283 18.3167 22.2483 18.3167H23.3333V20.0084C23.3333 22.5867 21.2449 24.675 18.6666 24.675H6.99992C4.42159 24.675 2.33325 22.5867 2.33325 20.0084V11.8417C2.33325 9.26338 4.42159 7.17505 6.99992 7.17505H18.6666C21.2333 7.17505 23.3333 9.27505 23.3333 11.8417V13.5334H22.0733C21.4199 13.5334 20.8249 13.79 20.3933 14.2334Z" stroke="#ABB0BF" stroke-width="1.5" stroke-linecap="round" stroke-linejoin="round"/>
<path d="M25.6666 14.7234V17.1268C25.6666 17.7801 25.1299 18.3168 24.4649 18.3168H22.2133C20.9533 18.3168 19.7983 17.3951 19.6933 16.1351C19.6233 15.4001 19.9033 14.7118 20.3933 14.2334C20.8249 13.7901 21.4199 13.5334 22.0733 13.5334H24.4649C25.1299 13.5334 25.6666 14.0701 25.6666 14.7234Z" stroke="#ABB0BF" stroke-width="1.5" stroke-linecap="round" stroke-linejoin="round"/>
</svg>
