<svg width="16" height="17" viewBox="0 0 16 17" fill="none" xmlns="http://www.w3.org/2000/svg">
<path d="M4.91354 2.00264C3.3841 2.5625 2.07986 3.05355 2.0173 3.09421C1.87343 3.18804 1.76709 3.39759 1.76709 3.58525C1.76709 3.67283 1.82339 3.88238 1.9266 4.167L2.08924 4.61426H4.30051H6.51178L6.53055 3.88551C6.54619 3.12861 6.56182 3.03791 6.70883 2.72514C6.79953 2.53748 7.06851 2.24348 7.26868 2.11524C7.54079 1.94009 7.74409 1.88692 8.21949 1.87128C8.60107 1.85564 8.64799 1.84939 8.63235 1.80247C8.61984 1.77432 8.57605 1.65234 8.53226 1.53349C8.38839 1.13315 8.21011 0.986148 7.87545 0.986148C7.71594 0.989276 7.34374 1.11751 4.91354 2.00264Z" fill="#999999"/>
<path d="M7.89735 2.80646C7.74409 2.85025 7.59396 2.97223 7.52203 3.11297C7.46573 3.22557 7.45947 3.2975 7.45947 3.92617V4.61426H10.1962H12.9329V3.92617C12.9329 3.2975 12.9267 3.22557 12.8704 3.11297C12.7953 2.96597 12.6483 2.85025 12.4794 2.80333C12.3168 2.75954 8.05686 2.75954 7.89735 2.80646Z" fill="#999999"/>
<path d="M0.938304 5.56521C0.575493 5.65279 0.243959 5.9249 0.0844474 6.26581L0 6.44409V11.2764V16.1086L0.0907027 16.2963C0.209555 16.5371 0.447258 16.7748 0.68809 16.8937L0.87575 16.9844H7.2875H13.6992L13.8869 16.8937C14.1277 16.7748 14.3654 16.5371 14.4843 16.2963L14.575 16.1086L14.5844 14.8638L14.5938 13.6221H13.4271C12.1667 13.619 11.9665 13.6034 11.5755 13.4532C10.8656 13.1842 10.2963 12.5306 10.1337 11.7924C10.0492 11.4202 10.0805 10.8729 10.2025 10.5351C10.337 10.1629 10.4777 9.94709 10.7749 9.64996C11.0814 9.34658 11.2878 9.21522 11.6725 9.07447L11.9477 8.97751L13.2707 8.96813L14.5938 8.95875L14.5844 7.70142L14.575 6.44409L14.4905 6.26581C14.3279 5.91551 13.9745 5.63402 13.596 5.55583C13.3489 5.50266 1.15411 5.51204 0.938304 5.56521Z" fill="#999999"/>
<path d="M12.0477 9.9033C11.9039 9.93771 11.6411 10.0691 11.4973 10.1785C11.3315 10.3036 11.1313 10.5976 11.0563 10.826C10.9968 10.998 10.9874 11.0824 11 11.3483C11.0093 11.6267 11.025 11.6955 11.1094 11.88C11.3002 12.2866 11.7099 12.6025 12.1478 12.6838C12.2448 12.7026 12.9954 12.7151 13.9619 12.7151C15.5163 12.7151 15.6133 12.712 15.7384 12.6525C15.8166 12.6181 15.8979 12.5493 15.9354 12.4899C15.998 12.3898 15.998 12.346 15.9917 11.2545L15.9824 10.1254L15.9042 10.0409C15.7384 9.86264 15.8009 9.8689 13.9118 9.87203C12.9516 9.87515 12.1134 9.88766 12.0477 9.9033ZM12.5857 10.8854C12.7452 10.9667 12.839 11.1075 12.839 11.2638C12.839 11.5391 12.6608 11.7267 12.4012 11.7267C12.1416 11.7267 11.9633 11.5391 11.9633 11.2638C11.9633 11.1481 11.982 11.1012 12.0634 11.0074C12.1197 10.9448 12.1916 10.8823 12.226 10.8698C12.3292 10.826 12.4887 10.8354 12.5857 10.8854Z" fill="#999999"/>
</svg>
