<svg width="15" height="15" viewBox="0 0 15 15" fill="none" xmlns="http://www.w3.org/2000/svg">
<path d="M13.3438 0.59375H1.65625C1.07187 0.59375 0.59375 1.07187 0.59375 1.65625V13.3438C0.59375 13.9281 1.07187 14.4062 1.65625 14.4062H13.3438C13.9281 14.4062 14.4062 13.9281 14.4062 13.3438V1.65625C14.4062 1.07187 13.9281 0.59375 13.3438 0.59375ZM13.3438 1.65625V3.78125H1.65625V1.65625H13.3438ZM1.65625 4.84375H3.78125V13.3438H1.65625V4.84375ZM4.84375 13.3438V4.84375H13.3438V13.3438H4.84375ZM8.03125 2.71875C8.03125 2.42656 8.27031 2.1875 8.5625 2.1875C8.85469 2.1875 9.09375 2.42656 9.09375 2.71875C9.09375 3.01094 8.85469 3.25 8.5625 3.25C8.27031 3.25 8.03125 3.01094 8.03125 2.71875ZM9.625 2.71875C9.625 2.42656 9.86406 2.1875 10.1562 2.1875C10.4484 2.1875 10.6875 2.42656 10.6875 2.71875C10.6875 3.01094 10.4484 3.25 10.1562 3.25C9.86406 3.25 9.625 3.01094 9.625 2.71875ZM11.2188 2.71875C11.2188 2.42656 11.4578 2.1875 11.75 2.1875C12.0422 2.1875 12.2812 2.42656 12.2812 2.71875C12.2812 3.01094 12.0422 3.25 11.75 3.25C11.4578 3.25 11.2188 3.01094 11.2188 2.71875Z" fill="#829EAA"/>
</svg>
